<?xml version="1.0" standalone="no"?>
<!DOCTYPE svg PUBLIC "-//W3C//DTD SVG 1.1//EN" "http://www.w3.org/Graphics/SVG/1.1/DTD/svg11.dtd" >
<svg xmlns="http://www.w3.org/2000/svg">
<metadata></metadata>
<defs>
<font id="PermanentMarkerRegular" horiz-adv-x="1524" >
<font-face units-per-em="2048" ascent="1638" descent="-410" />
<missing-glyph horiz-adv-x="758" />
<glyph horiz-adv-x="0" />
<glyph horiz-adv-x="2048" />
<glyph unicode=" "  horiz-adv-x="758" />
<glyph unicode="&#x09;" horiz-adv-x="758" />
<glyph unicode="&#xa0;" horiz-adv-x="758" />
<glyph unicode="!" horiz-adv-x="534" d="M0 130l24 18l-24 38q24 18 36 26t21 17q11 11 51 69l18 26l24 -14q10 -6 37 -11t53 -12t57 -12t49 -21l8 -16q5 -20 10 -60l-36 -100l4 -22l-10 -24q-15 -21 -35.5 -30.5t-27.5 -12.5t-11 -7l-6 -24l-28 -4q-32 -8 -58 -8h-22q-47 43 -70 56q-22 38 -26 65t-10 35z M144 528q-10 63 13 220.5t27 195.5q34 37 38 59.5t6 46.5t8 57t-1 50t-3 29t13 16t14 22t1 33t6 34q41 78 36 127q18 14 34 32t33 33q40 35 89 35q17 -23 31.5 -60.5t26.5 -53.5t36 -28q0 -18 -5 -44t-9 -52q-10 -64 16 -74q-46 -136 -63 -258t-31 -194t-43 -156t-61 -109 t-68 -25q-59 0 -144 64z" />
<glyph unicode="&#x22;" horiz-adv-x="1008" d="M164 773q2 41 9 82t1 75q64 263 84 360q29 29 43 83q27 107 47 143q10 -10 34 -9t30 13q12 -20 44 -33t52 -9q24 -20 46 -36t40 -34q39 -39 32 -98q-32 -36 -70 -145t-53 -188t-36 -164q-53 -214 -127 -269q-18 6 -38 10t-36 12q-35 18 -32 66q-75 42 -70 141zM594 710 q67 389 118 482q10 42 21 76t22 69q28 89 45 157q16 10 31 20t43 4q134 -54 168 -85t48 -61q-16 -70 -44 -136t-54 -130q-63 -155 -48 -252q-4 -6 -12 -3t-12 -7q-12 -46 -28 -101t-18 -113q-51 -28 -48 -56q-70 -32 -95 -33q-60 -3 -63 65q-20 4 -26 18t-10 30 q-11 45 -38 56z" />
<glyph unicode="#" horiz-adv-x="1440" d="M61 490q1 28 1 56q8 22 27 34t41 22q104 3 202 12q2 4 3 10t3 10q-3 38 48 170q-88 -16 -98 -18q-107 4 -122 81q-4 21 -12 45q16 16 21 44t-13 42q20 4 36 23t12 29q62 10 128 11t126 7q22 40 39 105t38 130q51 158 131 175q60 -56 91 -119t51 -149q-6 -20 -18 -50 l-28 -70q48 2 96 2t94 2q18 44 34 106t37 121q50 140 127 157q104 -97 140 -268q-6 -20 -19 -53t-29 -75q119 -7 154 -45q14 -15 16 -39q84 -9 56 -69q-8 -17 -14 -33q-99 -42 -304 -56q-53 -155 -56 -192h88q-2 -18 14 -26t34 -13t32 -12t8 -25q108 -23 8 -100 q-26 -20 -50 -34q-34 6 -94 -32q-26 4 -53 4h-55q-36 -103 -76 -140q-2 -10 5 -18t11 -18q-36 -30 -41 -66t-6 -56t-9 -38q-22 -10 -47 -33q-42 -38 -81 -45q-42 14 -68 27t-60 29q-69 89 10 232q20 36 38 64q14 28 24 50q-78 3 -190 -10q-27 -77 -70 -120q-2 -10 6 -18 t12 -18q-36 -29 -41 -64.5t-7 -56.5t-10 -37q-18 -8 -31 -20t-27 -24q-32 -28 -70 -34q-42 14 -67 27t-61 29q-70 85 12 232q20 36 38 64q-50 0 -98 -4q-71 38 -67 146zM614 636q44 4 206 10q7 56 60 186h-113q-53 0 -97 -2q-39 -111 -56 -194z" />
<glyph unicode="$" horiz-adv-x="1010" d="M62 870q6 22 10 36t0 36q36 93 177 135q37 11 69 21q61 28 238 78q14 48 29 101t35 100q46 108 110 125q52 -58 78 -122t42 -152q97 0 176 -24q8 -21 30 -48q39 -49 42 -74q18 -16 29 -33t5 -47l-36 -24t-38 -22q-70 16 -139 12t-127 -8q-26 23 -70 12.5t-69 -17.5 t-47 -3q-27 -21 -102 -26q-2 -10 3 -12t1 -12q12 -14 49 -22t52 -16t21 -26q50 0 81 -41q30 -39 25 -71q6 -14 13 -11t17 -7q6 -22 28 -45t34 -51q4 -42 7 -76t-13 -68q-54 -129 -226 -220l-8 -28t-2 -20q-36 -30 -43 -68t-9 -60t-10 -40q-20 -10 -45 -33q-44 -41 -79 -47 q-40 14 -63 29t-55 31q-39 54 -20 136q-46 5 -70 2q-32 27 -38 50q-8 0 -8 8t-8 10q12 16 11 18t-5 4q-13 6 -7.5 16t3.5 28t-4 37q-5 48 28 63q145 -14 324 80q46 24 90 42q10 30 35 45t31 36t-3 23t-9 12q-54 24 -100 37t-76 29q-20 -10 -37 -5t-63 9q-143 12 -218 42 q-4 10 -8 16t-20 4l-44 54q4 20 6 34t-10 28z" />
<glyph unicode="%" horiz-adv-x="1318" d="M100 942q-19 137 91 266q29 34 55 66q12 -4 17 6t15 14q8 16 21 23t21 21q18 4 27 16t25 16q24 24 48 56h15q5 0 17 2q14 25 34 36q12 -6 27 -8t25 -12q0 -12 12 -22q21 -18 24 -28q20 -15 26 -34q-4 -10 -7 -21t-13 -17q10 -22 8 -26l86 -164q-4 -24 8 -46t16 -47 t-7 -59t-33 -48q-14 -16 -34 -26t-36 -26q-12 -8 -25 -10t-27 -6q-22 -14 -58 -26t-60 -8q-67 -22 -126 -10q-74 -10 -122 29t-70 93zM114 26q-85 79 34 302q20 46 42 64t26 34q42 46 186 174t172 156q24 43 130 139.5t152 143.5t54 75q38 23 139 129.5t139 137.5 q84 69 142 65q28 -122 -40 -294q-22 -22 -63 -59t-90 -82t-101 -94t-99 -94q-102 -98 -131 -139q-153 -135 -416 -398q-4 -10 2 -17t6 -17q-37 -30 -38.5 -58t-0.5 -45t-5 -37q-21 -16 -44 -44q-38 -47 -74 -64q-40 2 -64 9t-58 13zM334 1054q14 -10 34 -6t36 6t28 8l24 12 q6 20 6 21t-5 9t-11 22t-14 26q-12 -12 -24 -4q-10 -10 -21 -18t-22 -22t-20 -24t-11 -30zM610 164q-20 137 89 264q29 34 57 66q10 -4 16 7t16 13q6 16 20 23t22 23q16 4 26 15t26 15l27 30q9 10 21 26q10 2 15 1t15 1q13 20 34 38q12 -8 27 -9t25 -13q2 -22 18 -27t20 -23 q14 -12 18 -16t8 -18q-4 -10 -8 -21t-14 -15q12 -22 8 -26q24 -40 43 -83t45 -83q-4 -24 7 -45t15 -46t-6 -60t-32 -47q-14 -18 -35 -28t-37 -26q-12 -6 -24 -9l-28 -7q-69 -38 -118 -34q-66 -22 -126 -10q-74 -10 -121 29t-69 95zM844 276q14 -12 34 -8t36 4q18 4 52 24 q4 18 4 26q-10 12 -15 26t-13 26q-10 -10 -15 -10t-9 4q-12 -10 -23 -18t-21 -18q-10 -18 -20 -28t-10 -28z" />
<glyph unicode="&#x26;" horiz-adv-x="1228" d="M0 648q16 4 23 24t1 30q32 8 51 39t45 67t72 69t136 45q150 -88 186 -100q2 8 13 12t16 22t1 33t7 34t28 44t13 63q20 14 37 31t36 32q47 37 99 37q18 -22 26 -42t16 -38q19 -42 60 -64q2 -18 -4 -44t-10 -51q-10 -64 18 -73q-20 -52 -30 -86q34 -6 78 -7t84 -7 q96 -14 120 -82q72 -5 64 -71q-2 -17 -2 -35q-102 -68 -404 -68q-28 -156 -70 -272q-51 -112 -139 -112q-62 0 -155 62q-8 52 -2 105t18 131q-29 58 -118 40q-20 -4 -28 -8q-65 3 -130 40q-109 60 -138 110q10 16 5 46t-23 44zM278 646q0 -18 19 -18q27 0 67 8 q-11 13 -29.5 27.5t-26.5 14.5t-19 -14t-11 -18z" />
<glyph unicode="'" horiz-adv-x="544" d="M164 773q2 41 9 82t1 75q64 263 84 360q29 29 43 83q27 107 47 143q10 -10 34 -9t30 13q12 -20 44 -33t52 -9q24 -20 46 -36t40 -34q39 -39 32 -98q-32 -36 -70 -145t-53 -188t-36 -164q-53 -214 -127 -269q-18 6 -38 10t-36 12q-35 18 -32 66q-75 42 -70 141z" />
<glyph unicode="(" horiz-adv-x="740" d="M62 184q12 225 8 284q8 32 8 73t2 49l44 4l-14 64l22 24l8 36q11 203 106 366l16 30q34 46 68 98t78 112q70 76 123 130t107 88l18 22q38 36 65 59t49 44q52 50 76 63q39 -28 96 -6q24 -26 24 -44t-7 -47t-12 -63t11 -74q-10 -22 -17 -45q-25 -83 -37 -95t-21 -19 t-21 -23q-85 -33 -181 -143q-87 -100 -117 -189l-12 -34l-72 -90l-2 -56q-155 -323 -64 -716q18 -78 42 -142q-18 -25 -21 -88.5t1 -73.5l14 -22q8 -4 10 -14t4 -18q4 -50 -26 -96q-61 9 -140 46q-22 48 -47 78t-48 56q-58 66 -87 118q-13 103 -48 232z" />
<glyph unicode=")" horiz-adv-x="740" d="M-246 -319q0 19 7 48t12 63t-11 74q11 25 25.5 70.5t20.5 56.5t13 18t16 14t21 23q87 36 181 143q88 101 117 187l12 36l70 90l4 56q46 94 71 200t26 189t-8 166q-17 158 -67 303q18 25 21 88.5t-1 73.5l-14 20q-8 6 -14 34q-4 50 26 96q55 -9 140 -46q22 -48 47 -78 t48 -57q64 -75 87 -117q13 -103 48 -232l6 -22l-8 -152t0 -132l-8 -74v-24q0 -16 -2 -24l-44 -6l14 -62l-22 -24l-8 -36q-11 -201 -106 -368l-16 -28q-34 -46 -68 -99t-78 -113q-70 -76 -123 -129t-107 -87l-18 -22q-38 -36 -65 -59t-49 -44q-52 -50 -76 -63q-28 20 -54 15 t-42 -9q-24 24 -24 43z" />
<glyph unicode="*" horiz-adv-x="1380" d="M144 1024q18 4 29 22t5 28q40 8 85 11t89 6q104 7 154 27h40q-71 92 -108 120q-18 36 -18 62t10 47t26 41t32 44q20 2 47 20t31 42q10 -12 34 -9t32 13q26 -29 68 -90.5t63 -88.5t47 -43q30 20 58 54t58 62q68 63 136 56q55 59 109 27q15 -9 31 -17q-7 -101 -164 -322 q42 -4 94 -4t100 -6q116 -15 136 -74q63 -4 72 -34q4 -14 1 -31t-5 -33q-103 -51 -392 -66q12 -34 34 -74t36 -79t14 -77t-32 -68q28 -66 -36 -94l-36 -16q-99 51 -246 284q-89 -154 -100 -196q-53 -60 -108 -71q-26 -5 -53 -5t-57 -2q-8 16 -38 25t-56 -1q10 16 -3 32 t-27 14q19 41 64 106q79 118 88 160q4 8 10 15t12 15q-150 -20 -184 -34q-83 3 -116 39q-16 17 -27 37t-25 42q12 16 10 43t-24 41z" />
<glyph unicode="+" horiz-adv-x="1186" d="M20 588q16 2 24 23t0 31q42 10 110 14q118 7 156 26l106 2q6 26 -2 44t-4 30t15 15t16 21t1 33t7 35t28 54t13 72q20 14 37 32t36 33q47 37 99 37q18 -22 26 -42t16 -38q19 -42 60 -64q0 -18 -6 -44t-10 -52q-10 -62 18 -74q-16 -44 -28 -84q34 -6 78 -7t84 -8 q98 -17 120 -81q51 -7 60 -39q4 -15 3 -33t-1 -36q-79 -52 -287 -63q-59 -3 -117 -5q-27 -151 -70 -272q-51 -112 -139 -112q-62 0 -155 62q-11 70 5.5 166t22.5 136q-125 -19 -158 -32q-85 4 -120 82q-10 22 -24 46q8 16 3 46t-23 46z" />
<glyph unicode="," horiz-adv-x="418" d="M-218 -244q-18 26 11 56t56 83t47 114t35 126t29 125q12 -12 26 0t20 22t12 16q30 -25 110 -53.5t92 -30.5q22 -40 25 -71t9 -65q-16 -16 -17 -49t-7 -36t-9 -12t1 -17t2 -15t-9 -8t-13 -17t-9 -21t-4 -6q-7 -7 -19 -32t-32 -54t-26 -57q-28 -24 -69 -61t-77 -51 q-152 67 -184 114z" />
<glyph unicode="-" horiz-adv-x="1248" d="M40 588q16 2 24 23t0 31q42 10 110 14q120 7 158 26q149 3 408 14q34 -10 80 -11t90 -6q106 -12 130 -83q71 -9 64 -72q-2 -18 -2 -36q-103 -70 -508 -70q-153 0 -260.5 -20t-129.5 -30q-85 4 -120 82q-10 22 -24 46q8 16 4 46t-24 46z" />
<glyph unicode="." horiz-adv-x="468" d="M-62 130l24 18l-22 38q24 18 36 26t20 17q11 13 50 69l18 26l26 -14q8 -6 35 -11t54 -12t57 -12t48 -21l8 -16q4 -16 6 -30t6 -30q-8 -20 -14 -39t-12 -35t-8 -20t-2 -6l2 -22l-8 -24q-14 -20 -52 -36q-4 -4 -12 -7t-12 -7l-6 -24l-26 -4q-34 -8 -58 -8h-24 q-46 42 -68 56q-20 28 -22 41t-6 32t-10 27z" />
<glyph unicode="/" horiz-adv-x="822" d="M-42 312q22 14 2 20q8 28 28 47t20 33q17 27 103 122q162 180 197 220q12 32 55 83t90 105t86 102t41 78q36 26 78 85t89 117t96 101t99 37q32 -72 34 -143t-14 -161q-18 -22 -52 -60t-75 -85t-85 -97t-83 -96q-90 -106 -107 -144q-145 -155 -346 -410q-2 -10 6 -18 t12 -18q-33 -30 -29.5 -60t7.5 -47t2 -37q-14 -12 -23 -28t-18 -31q-22 -36 -55 -53q-42 4 -68 11t-62 13q-100 83 -28 314z" />
<glyph unicode="0" horiz-adv-x="1406" d="M36 270q-38 335 196 655q62 85 120 163q17 -8 29 10l20 28q7 10 19 14q11 25 34 46q47 43 56 64q26 6 48 28q42 42 66 50v26q40 22 58 47t44 63q20 4 32 3t34 3q31 58 74 92q26 -16 58 -21t54 -31q3 -37 27.5 -56.5t36.5 -32.5t16 -35q8 0 11 4t11 2q7 -33 18.5 -53.5 t15.5 -36.5q-10 -24 -17 -52t-29 -38q0 -16 11 -18t12 -19t-5 -29q52 -98 93 -205t93 -203q-5 -40 11.5 -90t25.5 -76t13 -58t1 -73t-14 -79q-25 -88 -71 -118q-15 7 -110 -88l-42 -42q-24 -16 -53 -23t-59 -15q-89 -59 -194 -81q-34 -7 -60 -3q-66 -28 -127 -37t-145 11 q-217 -33 -350 176q-38 60 -62 128zM358 368q55 -59 169 -44q47 6 93 16t84 12q0 18 14 16q66 8 125 49t123 83q8 26 21 44t13 52q-12 33 -12 70q-42 76 -73 165t-71 165q-4 -10 -14 -20t-22 4q-10 -40 -35 -36t-47 24q-56 -58 -112 -113t-100 -127q-8 -6 -10 -3t-12 -3 q-16 -48 -38 -86t-43 -78q-50 -95 -53 -190z" />
<glyph unicode="1" horiz-adv-x="660" d="M40 162q9 144 84 355q30 85 59 169t44 166q33 179 -39 330q0 103 -14 140q23 65 14 96q3 19 16 35q28 30 30 47h44q22 -18 38 -33t42 -19q22 -44 57 -71t69 -55q42 -78 52 -174t22 -210q0 -157 -31 -282.5t-55 -201.5t-46 -160q-28 -30 -43 -85t-3 -107 q-68 -84 -110 -118q-24 24 -107 9q-17 -3 -25 -1q-10 16 -27 34t-30 38q-32 49 -17 76q0 22 -24 22z" />
<glyph unicode="2" horiz-adv-x="1332" d="M124 246q-8 121 28 216q104 132 217 253t257 215q42 52 98 89t102 83q-60 22 -126 22t-130 -11t-120 -27t-98 -24q-32 16 -75 18t-85 16q-46 38 -46 183q0 31 -8 51q16 26 29 52t31 48q369 102 662 29q108 -27 192 -89q18 -100 120 -140q50 -91 60 -168 q-40 -106 -113 -179t-130 -120t-103 -71t-67 -44t-23 -33t-24 -32t-66 -44t-75 -52t-48 -53t-45 -46q51 -17 115 -6q140 22 185 20q153 53 268 46q128 51 220 40q26 -10 39 -36t41 -36q-6 -22 -3 -32t3 -36q48 -24 49 -60t-22 -67t-60 -47t-67 2q-4 -16 -17 -21t-17 -19 q-194 -30 -396 -74t-404 -66q-156 6 -260 46q-79 68 -88 204z" />
<glyph unicode="3" horiz-adv-x="1150" d="M-20 1124q-5 68 32 108q-4 14 -6 28t-8 24q22 18 47 36t27 40q110 22 218 45t217 39q248 36 463 16q78 -81 160 -240q-4 -14 -5 -28t-8 -35t-24 -42t-27 -49q-76 -43 -184 -126q-36 -16 -75 -29t-59 -49q178 -76 270 -266q28 -58 50 -120q-4 -30 -10 -62t0 -54 q-14 -42 -37 -67t-45 -67q-70 -30 -114 -84q-20 0 -20 8q-253 -171 -726 -126q-8 6 -14 14t-24 6l-42 70q20 32 27 74t16 81t25 70t54 45q16 2 18 -10t12 -16q196 0 285 14q178 28 255 98q-60 48 -140 73t-155 49t-133 61t-76 109q10 46 14 82t10 66q14 68 62 110 q-25 15 -113 -23l-35 -15q-42 10 -85 13t-79 25q-4 22 -10 49t-8 55z" />
<glyph unicode="4" horiz-adv-x="1192" d="M110 1240q20 30 40 58t48 48q30 -8 50 -39t33 -46t35 -21q8 -38 25 -71t32 -67q37 -84 37 -154q31 -47 92 -42q80 6 108 -2q6 10 20 11t25 6t12 21t17 18q-4 38 6 99t11 89t-9 56q20 38 25 91t12 103t26 91t67 57q120 -102 168 -274q-29 -122 -24 -300q43 13 136 26 q12 -34 24 -60t46 -46q-8 -46 -4 -76t-10 -74q-43 -46 -147 -79q-118 -37 -157 -65q-26 -80 -55 -158t-51 -172q4 -10 14 -14t16 -12q-15 -41 20 -76q14 -14 29 -28t21 -32q-10 -23 -12 -57q-3 -58 -26 -87q-40 -16 -81 -16t-75 -10q-106 25 -146 194q-10 42 -16 74 q12 22 -6 20q-8 28 2 54t4 40q5 58 44 230q-113 26 -206 26q-49 13 -79.5 48.5t-47.5 57.5t-35 42q-6 70 -20 142t-26 140q-29 166 -12 236z" />
<glyph unicode="5" horiz-adv-x="1188" d="M102 894q2 32 4 61l4 58q5 67 18 127q150 206 480 332q22 -22 44 -47t46 -47q58 -53 112 -56q37 10 51 10h31l104 8q92 0 128 9t36 10t7 0t27 -5t68 -10q41 -54 26 -84q96 -96 52 -202q-46 -16 -81 -25t-75 -21q-107 -6 -141.5 -14t-104.5 -18q0 8 -1 10t-4 0 q-9 -6 -15 -4q-50 -18 -125 -29q-137 -20 -197 -49q5 -11 21 -21q31 -17 37 -31q89 -22 160 -115q30 -39 58 -79t66 -72q0 -12 6 -18t2 -22q85 -109 64 -258q-26 -64 -62 -109t-94 -93q-46 -20 -90 -31t-78 -33q-16 10 -29 9t-23 3q-116 -50 -208 -6q-157 -7 -225 61 q-25 25 -33 63q-46 38 -60 95t14 111q23 8 38 20q106 -10 217 -17t237 17q5 21 29.5 31.5t36.5 16.5t18 18q0 12 -6 17l-12 10q-16 14 -14 31q-26 0 -61 18t-55 40q-88 16 -175 60t-169 82q-14 24 -31 45t-33 44q-37 53 -40 99z" />
<glyph unicode="6" horiz-adv-x="1026" d="M-20 428q12 20 21 41t-1 49q14 3 19 23q10 40 19 47q6 87 42 163.5t60 120.5t46 90q-8 16 -5 21t5 23q30 50 60 107t64 114q85 142 158 203q32 6 62 20t60 24q73 24 128 0q4 -18 3 -26t3 -18q32 -16 37 -52t9 -70q36 -18 50 -90q-24 -24 -45 -46t-36 -32q-25 -17 -47 -6 q-201 -87 -276 -398q-106 -158 -154 -384q2 -16 17 -14t29 0q38 66 38 168q22 38 48 72t48 74q91 68 150.5 88t105.5 28q129 -11 180 -109q14 -27 20 -51q20 -12 32 -30t26 -34q0 -38 7 -88t-1 -98q-40 -64 -88 -120t-118 -92q-10 -2 -6 -15t-6 -17q-16 0 -24 -9t-22 3 q-22 -14 -46 -25t-42 -27q-22 2 -48 -7q-51 -18 -68 -13q-162 -81 -308 -58q-118 20 -174 129q-56 110 -20 251q-6 9 -6 28v28q0 10 -6 14z" />
<glyph unicode="7" horiz-adv-x="1180" d="M20 1182q25 127 18 184q21 3 22.5 12.5t2.5 16.5t9 15q20 0 35 18t37 28q70 3 97 11.5t48 12.5t24 1t5 -6q6 -9 30 -6t50 4t49 0q28 -1 95 -19l49 2q23 0 29 -22q64 7 107 -7.5t72 -27.5t69 -25q28 -52 57 -100t81 -76q2 -10 -2 -13t-4 -13q-16 -10 -12 -12t15.5 -2 t14.5 -6q0 -8 -5 -11t-7 -9q21 -34 12 -102q-18 -153 -14 -194q83 -16 99.5 -16t39.5 1t83 -1q2 -30 21 -43t35 -29q2 -10 -8 -17t-19 -13q-25 -16 -7 -28q14 4 18 -3t14 -3q-2 -4 -7 -15t7 -11q-8 -27 -36 -47.5t-44 -31.5t-26 -27q-112 -16 -147 -23t-67 -12t-100 -17 q-10 -12 -21 -20t-22 -19q-25 -25 -25 -59q-34 -23 -61 -69q-54 -93 -79 -121q2 -10 8 -15t4 -17q-24 -12 -35 -41t-21 -59t-28 -55t-58 -27q-46 14 -79 14l-77 -2q0 16 -5 34t13 26q-10 26 -38 32q4 155 96 324q-110 -17 -137 -15.5t-63 1.5q0 24 -20 28t-32 18 q-5 30 -54 60q0 22 20 20q-4 20 -11 40t19 34q-2 8 -11 9t-1 17q26 64 74 87t106 30t120 10t118 31q36 -8 64 -2t60 14q4 38 22 74t28 74q2 20 -8 30t-4 36q-74 70 -264 78q-50 2 -100 14q-70 3 -134 -9q-109 -19 -172 -7q10 20 2 33t-17 24t-17 27z" />
<glyph unicode="8" horiz-adv-x="1100" d="M140 1134q0 63 35 121q64 104 125 129q0 14 7 17t7 17q26 8 48 20t45 23q101 49 244 23q67 -12 113 -40q20 -52 49 -92t43 -74q4 -30 8 -53t4 -45q0 -46 -28 -98q83 21 108 96q0 34 -18 58t-28 54q23 11 19.5 27.5t-6.5 26.5t-3 20q12 4 16 0t10 2l-8 30q28 35 42 18 q-12 20 -1 38t29 28q29 -12 48 -14q106 -77 139 -279q9 -55 15 -105q-20 -70 -68 -134t-114 -102q-60 -46 -107 -83t-111 -49q-16 -16 -31 -29t-27 -33q34 -92 70 -182t48 -198q-24 -14 -26 -42t-2 -60q-24 -28 -36 -59t-28 -44t-23 -10t-23 -6t-43 -31t-67 -33t-93 -9 t-102 16q-100 28 -165 98q-22 40 -36 83t-46 75q-29 187 16 326q10 28 26 50t14 50q10 2 15 8t15 10q6 16 -1 22t-3 20q-79 111 -104 169q-49 119 -10 229zM410 419q-4 -57 42 -99q20 6 56 -1t66 7q0 14 6 21t10 17q-24 50 -47 85t-75 67q-53 -34 -58 -97zM410 1028 q30 -28 53 -62t61 -60q30 16 62 28l64 24q82 31 114 66q-176 0 -172 118q-58 29 -118 -1t-40 -87q-4 -10 -14 -11t-10 -15z" />
<glyph unicode="9" horiz-adv-x="1084" d="M88 822q-24 161 53 299q23 41 47 85q136 136 231 190t179 78t180 16q80 -58 134 -138t106 -164q-4 -20 4 -51q16 -62 14 -83q8 -20 21 -36t24 -31q26 -36 23 -77q-18 -22 -28 -41t-24 -34t-32 -27t-32 -26q-16 -46 -31 -75t-31 -75q-6 -82 -23 -151q-36 -147 -45 -201 q-4 -163 -98 -302q-35 4 -130 -12q-16 16 -28 31t-28 27q4 176 27 297t43 204t42 187q-63 5 -164.5 -17.5t-137.5 -28.5q-22 2 -45 2q-84 0 -109 34q-76 -19 -119 76q-11 24 -23 44zM458 1020q84 -4 154 18t142 46q2 38 -20 53t-54 21q-50 -20 -97 -39t-67 -39t-29 -22 t-17 -5q-19 -7 -12 -33z" />
<glyph unicode=":" horiz-adv-x="494" d="M-62 130l24 18l-22 38q24 18 36 26t20 17q11 13 50 69l18 26l26 -14q8 -6 35 -11t54 -12t57 -12t48 -21l8 -16q4 -16 6 -30t6 -30q-8 -20 -14 -39t-12 -35t-8 -20t-2 -6l2 -22l-8 -24q-14 -20 -52 -36q-4 -4 -12 -7t-12 -7l-6 -24l-26 -4q-34 -8 -58 -8h-24 q-46 42 -68 56q-20 28 -22 41t-6 32t-10 27zM58 678q-2 30 7 54t13 36l-14 22l16 22q14 20 20 29t16 19l18 16q32 2 51 3t39 7q40 -10 64 -28t34 -18h40l-4 -32l44 -10l-10 -71q0 -21 14 -87l6 -32l-30 -6q-10 -4 -33 -20t-46 -29t-49 -32t-52 -21q-44 22 -68 42 q-10 20 -18 38t-16 34l-10 20q-3 5 -6.5 7.5t-13.5 12.5z" />
<glyph unicode=";" horiz-adv-x="502" d="M-156 -244q-18 26 11 56t56 83t47 114t35 126t29 125q12 -12 26 0t20 22t12 16q34 -28 112 -55t90 -29q22 -40 24 -71t10 -65q-10 -10 -13 -33t-5 -36t-7 -16t-8 -12t0 -17t3 -12q-4 -10 -11 -11t-13 -17t-8 -21t-4 -6q-6 -3 -18 -30t-33 -56t-25 -57q-20 -17 -54 -47 q-60 -54 -92 -65q-152 67 -184 114zM66 678q-4 16 1 32t11 31t6 27l-12 22l16 22q14 20 20 29t16 19l18 16q32 2 50 3t38 7l20 -2q24 -9 47 -26.5t33 -17.5h40l-4 -32l44 -10q-4 -30 -7 -44t-4 -27q-1 -18 13 -87l8 -32l-30 -6q-10 -4 -34 -20t-47 -29t-48 -32t-53 -21 q-43 23 -66 42q-20 34 -32 61t-13 31t-3 5q-6 3 -18 15z" />
<glyph unicode="&#x3c;" horiz-adv-x="1280" d="M8 482q-22 56 16 106t114 60q24 -8 37 -7t35 -9q113 75 186 60q6 16 23 16t21 18q154 26 455 179q69 35 133 63q28 -8 52 1t50 7q-9 -9 4.5 -10.5l22.5 -2.5t23 -12t25 -18t18 -11t14 -10t23 -18q-10 -22 -10 -34t2 -23t5 -23t1 -32q-229 -145 -523 -239 q-85 -27 -197 -71q46 -28 119 -49t146 -48t133 -67t80 -104q28 -2 49 -32t17 -70q-20 -12 -37 -27t-41 -21t-59 2t-76 22t-86 30q-79 28 -149 40t-99 24t-42 23t-40 16t-68 22t-83 37t-83 40t-77 36q2 12 -26 30t-60 20q0 24 -19 43t-29 43z" />
<glyph unicode="=" horiz-adv-x="1202" d="M21 346q1 28 1 56q6 22 22 34t32 22q60 2 132 10l109 12q37 4 81 6q104 24 510 24q-2 -18 11 -26t27 -13t25 -12t5 -25q89 -20 7 -98q-21 -20 -39 -36q-26 6 -74 -30q-56 6 -115 1t-89 -7t-31 -10t-7 -10q-87 27 -262 -2q-72 -12 -146 -25t-148 -15q-55 40 -51 144z M94 726q14 16 18 44t-10 42q16 4 29 23t9 29q47 11 115 14q121 7 161 24q98 4 206 7t202 7q30 -10 75 -11t87 -6t73 -21t33 -58q48 -7 48 -38q0 -14 -6 -31t-12 -35q-129 -71 -521 -67q-146 2 -260.5 -18.5t-140.5 -30.5q-84 5 -95 81q-3 21 -11 45z" />
<glyph unicode="&#x3e;" horiz-adv-x="1300" d="M-82 134q13 32 9.5 50t-6.5 30t-1 32q183 116 358 182q80 30 165 57t197 71q-46 26 -119 48t-146 49t-133 67t-80 104q-28 2 -49 32t-17 70q20 12 37 27t41 21t59 -2t76 -22t86 -30q79 -28 149 -40t99 -24t42 -23t40 -16t68 -22t83 -37t83 -41t77 -35q-2 -12 26 -30 t60 -20q0 -24 19 -43t30 -45t6 -54t-23 -50q-39 -48 -114 -60q-24 10 -37 8t-35 8q-113 -75 -186 -60q-6 -16 -23 -16t-21 -18q-164 -28 -455 -180q-69 -36 -133 -62q-28 8 -52 -1t-50 -7q9 9 -4.5 10.5l-22.5 2.5t-23 11t-25 18t-18 12q-13 7 -37 28z" />
<glyph unicode="?" horiz-adv-x="1140" d="M102 110q-2 16 3 31t8 25t6 19t3 13l-12 20l16 22q17 31 34 48l18 14q54 2 88 10q34 -6 44 -13t26 -19t26 -12h40l-4 -30l42 -10l-10 -70q0 -20 14 -86l6 -32l-28 -6q-10 -2 -33 -18t-46 -29t-48 -32t-51 -19q-30 16 -42 24l-24 16q-10 18 -18 36t-16 34q-6 13 -10 20.5 t-7 8.5t-13 11zM162 1248q12 48 43 84t49 56t32 46q44 11 100 62q290 32 615 -58q101 -28 207 -60q14 -16 24 -33t30 -25q-10 -50 -6 -95t6 -97q-28 -152 -124 -243t-222 -125q0 -20 -12 -28q-40 -6 -60 -20t-37 -30q-46 -43 -111 -54q-10 -22 -27 -28t-34 -9t-33 -10 t-24 -33l-114 -106q-48 12 -84 11t-60 3t-37 24t-17 76q2 20 15 27t17 23q0 68 46 100q20 14 42 31t38 53q54 24 142 106q136 71 188 112.5t94 77.5q-10 26 -37 29t-61 -1q-74 23 -242 32q-28 -2 -41 -5t-39 1q-18 -15 -47 -23l-46 -14q-17 -5 -31 -13q-40 10 -64 38t-58 44 q-4 14 6 18t6 24q-20 10 -19 16t-13 16z" />
<glyph unicode="@" horiz-adv-x="1500" d="M-20 530q9 204 212 384q54 48 104 94q10 -10 15 -3t25 3q0 24 25 49q48 48 77 41q20 38 61 64t83 53t76 58t42 79h38q-24 36 -22 72t25 60q56 58 155 12q19 -3 33.5 8.5t22.5 13.5q176 -73 292 -218q-2 -4 -7 -7t-9 -6q-10 -8 2 -17q121 -147 220 -366q21 -135 -16 -314 q-30 -61 -136 -152q-104 -90 -144 -95q-72 -9 -138 13q-18 -12 -26 -20q-20 -4 -52 -7t-54 -15q-131 -19 -280 0q-37 23 -66 26q-92 38 -128 160q-10 34 -12 64q10 50 40 89t56 69t46 42t32 30q26 8 45 22t37 27q52 37 82 49q16 20 48 33t46 37q10 -8 20 -3t22 9t20 -5t12 3 q8 -10 13 -11t11 -3q23 23 28 36l24 22l38 26l20 2l34 -32q15 -15 16.5 -36.5t7.5 -39.5v-24q-2 -10 -2 -16v-22l-2 -20q-58 -173 -46 -228q10 -67 29 -84.5t37 -16.5t35 11q46 27 79 78l-12 32q20 33 20 96t4 82q-129 330 -250 382q-10 4 -20 -2q-17 -10 -34 -2 q-120 -90 -241 -177t-221 -201q-213 -191 -288 -476q28 -19 59 -24.5t53 -13.5l72 -40q8 -16 8 -20q46 -16 86 -22t78 -22q246 -10 321 -11q80 -1 237 23q4 14 3 19t7 15q27 -18 59 -65q64 -92 87 -107q-8 -14 -6 -24t-4 -24q-80 -67 -246 -69q-72 -1 -150 4t-152 -1 q-40 10 -64 12t-58 8q-62 2 -85 9t-41 7q-58 0 -122 44q-76 25 -144 77q-103 78 -162 151q0 36 -10 78q-17 73 -6 116q-12 36 -24 68zM678 572q5 -13 20 -28q47 -5 156 6q-26 48 -20 110q4 16 5 25t3 18t4 21q-51 -28 -62 -44q-36 -16 -56 -38t-42 -44q2 -11 -8 -26z" />
<glyph unicode="A" horiz-adv-x="1438" d="M-52 190l26 20l2 42q86 211 178 394.5t110 223.5q-2 8 -2 17t4 21q40 57 68 117q59 128 102 179l14 20l22 -2q20 10 40 10l36 -6q66 30 117 87t103 137l24 34l32 -20q10 -6 32 -12l55 -15q107 -29 135 -57l10 -18q4 -22 7 -40t9 -48q17 -85 20 -162q18 -72 32 -146 q31 -163 58 -228q20 0 24 -2q24 10 56 12l26 2l8 -24q8 -12 24 -24q41 -3 72 -34q12 -12 20 -16l36 -14l-20 -38q-48 -92 -168 -148q4 -14 5 -26t7 -40q13 -61 13 -113q0 -25 -3 -47q-62 -161 -194 -221q-46 -21 -96 -23q-36 8 -58 25t-32 21l-26 12l8 30q6 16 -1 28t-22 25 t-21 20t-14 15l-40 46l66 18q60 16 80 41q17 21 17 69q0 10 -1 20q-29 6 -53 6q-16 0 -29 -3q-32 -7 -71 -17q-109 -28 -161 -28t-90 6l-22 2l-6 22q0 4 -12 17t-26 33t-6 50q-14 22 -16 46q-11 -23 -22 -60l-8 -26l-26 -4q-13 -13 -8 -24l8 -22l-20 -18q-4 -6 -10 -10 t-10 -8q-6 -31 -21 -73q-33 -90 -33 -131l-8 -26q-13 -20 -43.5 -33t-38.5 -21l-6 -26l-30 -4q-43 -10 -62 -10l-26 2q-46 46 -74 60q-19 25 -21 42q-9 53 -19 66zM532 626q14 2 27 2t55 3q135 10 232 29q-34 157 -76 306l-10 -20q-111 -120 -172 -234q-13 -13 -56 -86z" />
<glyph unicode="B" horiz-adv-x="1406" d="M-62 1208q35 93 163 154q79 37 237 70q12 -4 12 0t10 -4q194 59 333 59q17 0 33 -1q18 10 75.5 10t76.5 8q12 -14 36 -17t50 -21q8 -2 0 7t2 13q39 0 69.5 -27t45.5 -39t33 -12q18 -22 43 -41t48 -39q53 -46 53 -98q-2 -12 8 -14t14 -12v-8q0 -117 -86 -219 q-38 -45 -81 -85t-79 -86q31 -39 90.5 -83.5t88.5 -71.5t42 -50t33 -27q6 -24 17 -49t21 -48q12 -27 12 -45q0 -17 -10 -26q18 -10 18 -34q0 -8 -2 -18q-44 -54 -60 -76t-24 -32q-14 -17 -52 -50q-256 -154 -460 -184q-24 -33 -123 -48q-27 -4 -49 -8q-10 4 -11 13t-11 13 q-2 -25 -28 -25q-16 0 -40 9q-49 17 -110 62q-29 -53 -56 -66q-28 4 -41 6t-25 -10q-16 8 -24 17l-16 18q-18 20 -48 29q4 10 -6 31t-28 25q10 16 -8 41t-28 57q2 14 3 29t4 28q7 31 29 37q-2 26 -16 50q18 14 24 35t11 43q13 58 39 78q-4 6 -8 10t-4 14q44 74 56 130t20 94 t32 96v7q0 39 19 87q21 52 27 82q3 13 3 28q0 20 -5 42q-60 -7 -68 -78q-18 -16 -46 -15t-50 -7q-156 63 -228 242zM460 1108q40 -34 83 -60t65 -70q168 66 298 228q-17 1 -33 1q-107 0 -211 -23q-120 -26 -202 -76zM466 270q116 16 210 58t148 67t112 47q6 24 26 38t40 27 t34 29q11 12 11 32q0 6 -1 12q-98 54 -198 54q-30 0 -61 -5q-57 -9 -109 -25t-104 -24q-36 -95 -108 -310z" />
<glyph unicode="C" horiz-adv-x="1252" d="M0 728q32 95 83 160.5t86 102.5t69 75q12 0 22 -6q12 34 44 57l50 36q18 13 30 31q76 18 138 63t100 67t88 34q24 27 75 49.5t76 36.5t41 38q12 -16 34 -11t37 9t23 -2t15 -13t12 -9t11 12q16 -2 9 -14t-9 -16q20 4 33 -7t41 -15q10 -10 6 -16t-6 -20q72 -22 92 -69 q11 -26 11 -53q0 -22 -7 -45q-16 -51 -59 -94t-100 -58t-110 -31t-102 -36q-109 -44 -167 -110q-122 -35 -260 -177q-36 -37 -72 -73q0 -34 -12 -52t-26 -36q4 -38 17 -65t27 -55q160 -48 339 -59t355 -13q18 -24 41 -45t42 -43q37 -43 37 -96q0 -12 -2 -24 q-42 -42 -154 -126q-18 -2 -43 0t-72 2t-85 -16q-242 8 -502 96q-22 26 -46 49t-64 33q-105 79 -153 250q-34 118 -34 265q0 19 1 39z" />
<glyph unicode="D" horiz-adv-x="1206" d="M30 314q8 26 21 44t11 50q56 163 64 248q12 18 24 24q9 67 9 137q0 153 -45 319q2 22 6 33t0 24t12 13h32q0 36 -13 71t-25 81q16 36 22 70t22 62q64 -20 126 -46t122 -51q162 -68 232 -85q86 -62 177 -123t166 -134q169 -164 183 -389q-12 -36 -12 -50v-32 q-72 -126 -182 -212t-240 -152t-271 -121t-275 -117q-102 25 -135 125q-15 45 -20 99t-11 112zM366 1104q47 -177 49 -293v-17q0 -165 -37 -366q34 3 71 20q69 33 113 36q8 16 21 25t23 19q135 54 184 87q101 67 140 155q-16 30 -39 51t-48 42q-65 55 -85 97 q-37 5 -80.5 30.5t-68.5 37.5t-59 14q-52 28 -94 39t-64 31q-18 0 -26 -8z" />
<glyph unicode="E" horiz-adv-x="1284" d="M31 291q-11 61 -11 106q0 56 17 85q9 16 18 31q17 27 17 49q0 7 -2 14q12 2 15 13t19 7q27 85 73.5 175.5t62.5 136.5q-68 64 -84 221q-4 39 -16 79q60 91 222 121q48 9 102 21q163 51 277.5 68.5t192.5 26.5t180 27q2 -6 7 -6h13q6 -14 22 -14l-2 20q8 0 18 -4 q20 -8 16 12q40 -70 146 -116q1 -11 1 -20q1 -10 -1 -16q-4 -12 -4 -21t4 -25q-74 -125 -257 -154q-147 -23 -206 -40.5t-111 -49.5q-24 9 -47 3q-40 -12 -66 -12q-8 0 -15 1q-17 -15 -80 -32q10 -22 9 -44t5 -38q40 -4 83 -4q49 0 103 5q102 9 200 13q2 -10 -2 -14t-4 -14 q18 -12 34 -30t33 -35q37 -37 72 -37h5q14 -29 14 -55q0 -17 -6 -33q-40 -26 -78 -53t-79 -49q-91 -48 -182 -48h-11h-17q-7 0 -17 8q-20 -10 -53 -7t-55 -7q-28 10 -65 10t-65 10q-82 -119 -124 -230q72 -11 132 -10q38 0 70 4q84 10 135 16q38 4 89 4h36q50 24 115 33 t121 27q20 -6 34 -23t27 -34t27 -29t36 -8q10 -10 13 -24t6 -26q7 -27 31 -24q-38 -78 -85 -120t-106 -65t-132 -34t-129 -21q-37 -7 -56 -7q-10 0 -15 2q-15 5 -31 5q-158 -28 -252 -28h-18q-205 5 -288 84q-16 16 -23 38t-33 36q-4 30 -11 69t-14 80z" />
<glyph unicode="F" horiz-adv-x="1178" d="M-40 620q14 110 124 145q28 9 54 15l30 -10q10 -10 21 -18t21 -16q20 8 25 24t11 35q17 54 34 85q-3 24 10 56q-9 8 -24.5 12t-21.5 5t-14 3q-30 22 -39 37q-39 65 -55 81l-24 16l12 24q4 4 4 11t-8 21q-6 26 -2 38l4 24q20 26 22 30l20 20q85 22 188 58q128 44 190 60 q18 15 51 19q56 5 63 15q60 21 191 50.5t253 39.5l42 2h48q104 0 138 -64q24 -12 50 -38q36 -36 48 -44l16 -16q13 -29 13 -58q0 -18 -5 -36q-12 -24 -26 -28l-28 -8l-26 -14q-26 2 -39 2h-29q-218 0 -460 -59q-78 -19 -136 -41q-16 -12 -32 -18t-28 -14q3 -27 -2.5 -48.5 t-6.5 -32.5t-3 -23q-40 -48 -40 -112v-6l-10 -20q-22 -22 -14 -54l8 -24q58 6 138 18q173 26 256 26h78l-18 -18l22 -2l-12 -32l21 -9q7 -3 13 -7l14 -20q24 -15 28 -54l-6 -20l-106 -136l-20 6q-38 2 -63 -5q-61 -17 -94 -21t-65 -9t-70 -11q-115 -18 -156 -34 q-22 -2 -26 -1t-16 1q-16 0 -70 -18q-13 -11 -20 -34q-12 -36 -32 -64l2 -36q-18 -4 -18 -5t-1 -9t-6 -22t-9 -24q-8 -20 -8 -28q14 -25 13 -53q0 -12 -2 -25q-17 -81 -83 -116q-13 -2 -23 -2q-15 0 -24 4q-15 6 -28 11q-24 9 -43 13l-24 20q-6 12 -14 23t-17 24t-19 27 t-18 32q-9 43 -9 77q0 22 4 40q9 47 19 78q14 45 22 75q-60 34 -92 96t-36 118z" />
<glyph unicode="G" horiz-adv-x="1616" d="M0 474q0 22 6 40t2 46q138 294 330 444q18 14 29 29t22 29q27 34 61 40q76 88 266 198q76 44 153 90t139 100q22 -14 35 -9t27 1q18 -38 47 -53t60 -30q77 -37 99 -93q-14 0 -13 -10t5 -22t4 -22t-18 -10q0 -14 14 -14t14 -13t-5 -20t-1 -23q-48 -32 -107 -61t-124 -61 q-165 -81 -265 -154q-218 -159 -378 -363q-54 -69 -92 -135q4 -10 11 -18t11 -18q34 -2 66 -2q39 0 76 3q17 1 35 1l97 -10q8 6 10 16t12 14q136 14 254 45t240 63q-36 14 -64 22q-12 12 1 21t21 19q-71 40 -78 126q14 12 14 28t-14 26q-12 5 -14 -4q-4 -18 -16 -12 q2 22 10 36t12 34l166 110q44 -34 159 -94t153 -82q50 -22 93 -67t67 -69t58 -40q-4 -32 4 -52q5 -13 5 -30q0 -9 -1 -18q-98 -175 -356 -253q-76 -23 -156 -44q-214 -56 -320 -97q-60 0 -93 -6l-55 -10q-22 -4 -40 -4t-21 -6t-9 -10q-40 -6 -72 -6h-54q-28 0 -58 -8 q-24 -6 -45 -6h-11q-180 8 -282 128t-112 330q2 10 -4 13t-10 7z" />
<glyph unicode="H" horiz-adv-x="1424" d="M-20 216q6 6 8 17t5 21q8 25 21 12q-5 28 4 51q10 24 10 42q0 12 -4 21q58 80 64 224q56 56 56 173q0 31 -8 49q3 13 26 8q14 80 19 178t20 189t49 160t108 89q21 -73 67.5 -135.5t74.5 -98.5t52 -80q-5 -116 -32.5 -261t-37.5 -185q2 -10 14 -13t4 -23q58 14 121 27 t124 26q141 30 231 75q12 96 30 190q10 53 10 106q0 42 -6 84q12 10 20 24t24 18q-11 43 -11 85q0 54 18 107q34 101 119 120q29 -42 67.5 -129t61.5 -127t59 -68q12 -141 16 -294q-18 -90 -41 -175t-33 -181q-19 -22 -37 -70q-31 -87 -59 -112q8 -28 3 -53t13 -59 q1 -9 1 -18q0 -95 -68 -155q-43 -38 -161 -77q-20 12 -37 25t-41 19l10 18q-40 40 -69 85q-27 42 -27 96v7q0 18 14 88t14 72q-168 -18 -418 -168q0 -18 -24 -71t-41 -77t-35 -22q4 -10 8 -15t0 -19q-34 -10 -61 -26t-55 -27q-24 -10 -51 -10q-42 0 -89 25q0 21 -25 36.5 t-35 21.5t-10 12q-12 -4 -9 16q3 18 19 10q-26 32 -33 58t-27 64z" />
<glyph unicode="I" horiz-adv-x="1056" d="M-72 216q0 28 12 41t26 25q53 2 125 14q131 22 185 22q30 62 56 119t50 109q14 58 50 136t50 117t18 83q24 70 43 129t29 141q-146 -23 -188 -44q-89 4 -124 96q-10 26 -24 54q8 18 4 53t-24 51q16 4 24 27t2 35q34 10 72 13t75 6q97 8 129 29q104 4 217 8t209 10 q36 -12 83 -12t94 -6t84 -26t51 -70q55 -7 64 -45q3 -14 3 -30v-8q-1 -21 -1 -41q-86 -64 -309 -75q-63 -3 -123 -5q-14 -95 -63 -254q-88 -287 -85 -314q-29 -66 -48 -116q-37 -94 -58 -138h136q4 -22 18 -30t30 -14q42 -16 42 -44q55 -14 55 -56q0 -40 -51 -106q-3 1 -6 1 q-24 0 -58 -39q-33 5 -66 5q-24 0 -48 -3q-56 -6 -104 -10q-10 -2 -8 -11t-4 -13q-48 15 -109 15q-67 0 -150 -18q-67 -15 -137 -32t-142 -19q-65 42 -91 173q-7 35 -15 67z" />
<glyph unicode="J" horiz-adv-x="1370" d="M-40 230q11 88 30 134l16 18q36 14 81 14q55 0 122 -26t75 -30q16 -8 23 -8h25q18 0 38 4l24 -2q14 -8 31 -8t32 4t31 9t28 7t22 6l20 18q33 13 45.5 33.5t19.5 34.5t18 28t20 26t19 22v20q82 190 129 450q13 72 23 130l-22 2q-140 0 -205 -13t-119 -23l-34 -6 q-38 -18 -73 -33t-84 -15t-93 48q-46 28 -52 80q-10 18 -8 34q-10 35 -10 94l2 34h30q21 21 24 32l6 20q73 7 157.5 24.5t117.5 23.5t63 9q50 5 136 5l56 -2q11 14 30.5 12.5t29.5 -6.5q102 18 176 18h96q22 0 42 -2h130q10 2 19 2h43t26 -1q24 -3 48 -7q72 -12 108 -12 l38 2l6 -24l18 -26q9 -18 35.5 -41t49.5 -56q18 -26 18 -71q0 -11 -1 -24l-18 -24q-12 -6 -30 -24l-20 -18q-52 -4 -84 -4l-184 8h-22l-56 -2h-29q-9 0 -25 -2q-6 -92 -42 -210q-77 -398 -216 -684q-64 -68 -122 -121t-130 -75h-6q-68 -9 -162 -36q-72 16 -128 16l-30 8 q-24 8 -36 13t-23 8t-26 5t-43 6q-34 -14 -61 -14t-51 7t-48 28q-55 48 -84 153z" />
<glyph unicode="K" horiz-adv-x="1590" d="M21 319q-1 3 -1 6q0 11 8 23q8 2 7 8t5 10l3 12q1 4 -7 10q-4 14 6 18l20 8q10 120 41 219t68 193t74 189t61 207q26 26 43 62t34 73q43 94 103 127q27 -3 52 -14q43 -18 74 -18l30 -46l36 6q57 -48 74 -123q4 -19 4 -35q0 -57 -52 -84q3 -16 -2.5 -25t-5.5 -14t8 -13 q-63 -52 -89 -162q-7 -30 -9 -56q58 60 136 112t136 98q46 32 81 61t71 54t75 48t79 51q25 10 52 -6q2 14 -6 17t-6 19q34 10 61 24t57 26q20 -22 40 -47t54 -27q12 -26 29 -39t34 -25q40 -28 43 -82q-8 -16 -19 -35t-19 -47q-73 -67 -161 -119q-184 -108 -247 -157 q-16 -24 -51 -48t-52 -38t-27 -34q-12 0 -28 -4q-8 -16 -23 -26t-21 -26q87 -189 380 -196q84 -2 174 -2q10 2 9 11t20 3t41 -20t38 -30t35 -33t39 -35q-7 -170 -190 -248q-28 -1 -54 -1q-192 0 -318 51q-6 2 -11 12q-13 25 -39 22.5t-42 4.5q-23 10 -132 87q-42 34 -81 67 t-57 58t-29 25t-21 6q-70 -44 -117 -109t-91 -132t-93 -126t-123 -91q-36 0 -59 18q-47 37 -69 42q0 36 -22 78t-27 62t11 40q-22 18 -42 30q21 21 10.5 41.5t-13.5 33.5z" />
<glyph unicode="L" horiz-adv-x="1296" d="M36 476q6 20 13 50q23 99 47 128q-8 22 2 48t17 40t9 19t15 42q51 146 86 241q102 279 139 428q29 22 52 22q115 -60 196 -60l34 -30q26 -30 45 -63q13 -23 13 -56q0 -14 -2 -29q-12 -18 -20 -22q-16 -61 -43 -122q-52 -119 -65 -186q-12 -14 -15 -24t-7 -21 q-12 -34 -28 -47q-8 -62 -24 -101t-38 -93t-46 -123t-28 -157q24 6 47 6t47 -8q72 36 157 44t162 9t137 7q20 -14 26 -15t16 -1h16q6 0 16 -2q28 -28 54 -39t54 -21q67 -24 102 -50l18 -102q15 -21 15 -32.5t-9 -25.5l4 -26q-38 -8 -50 -17t-26 -23q-22 -2 -52 -2t-72 -12 q-60 22 -110 22q-80 0 -123 -6q-86 -12 -133 -12q-41 -7 -82 -20q-171 -58 -283.5 -58t-184.5 60q-8 18 -12 24t-8 14q-17 17 -24 48q-72 87 -72 216q0 64 18 138z" />
<glyph unicode="M" horiz-adv-x="1994" d="M23 197q-13 66 -13 121q0 76 24 132q0 25 125 301.5t160 345.5t57 102t37 59t33 55t37 60t42 56q48 52 119 77q50 -21 74 -48l6 -28q7 -24 28 -24q26 -6 45 -13t41 -9q8 -12 15 -24t31 -46t50 -88q13 -27 13 -56.5t-13 -61.5l2 -22q10 -14 10 -26t-3 -31q-4 -23 -4 -41 q0 -21 5 -38l14 -16q32 -16 67 -16t67 18t57 35q50 34 81 41q70 66 146 129t144 130t108 167q22 14 50 14q40 0 79 -20t44 -22t11 -6q0 -22 14 -35t28 -21q34 -19 42 -38q18 -54 60 -84q-1 -5 -1 -11q0 -34 29 -105l-44 4l6 -44q2 -12 2 -25q0 -24 -7 -51q-11 -42 -25 -66 q4 -60 4 -95q0 -93 -40 -179q1 -24 1 -47q0 -125 -36 -231q-43 -126 -71 -188t-34 -74t-10 -24q-40 -11 -68 -29q-57 -35 -96 -35q-98 72 -98 263q0 164 72 417q14 10 12 30v22l-20 2q-10 0 -18 -2t-12 -18q-390 -280 -618 -280q-200 0 -302 204l-18 36l-20 -32 q-48 -80 -68 -152q-16 -59 -17 -91q0 -6 1 -11q-81 -74 -81 -128q0 -13 5 -24q-2 -17 -17 -30q-29 -24 -38 -42t-11 -31t-3 -29t-14 -41t-28 -52t-29 -41q-24 -24 -64 -24q-20 0 -62 6q-66 70 -95 219z" />
<glyph unicode="N" horiz-adv-x="1402" d="M-30 390q58 124 124 259t133 274q167 347 263 557q289 -103 322 -300q-4 -12 -10 -8t-10 -4q14 -17 11 -24.5t-3 -15.5t10 -22q-10 2 -14 -3t-14 -1q7 -20 7 -36t-7 -27q-14 -23 -19 -38t3 -41q-11 0 -14 -7q-7 -14 -18 -11q4 -39 4 -79v-26q-2 -53 -4 -108 q-1 -27 -1 -52q0 -106 17 -181q211 123 271 518q17 112 35 228q34 34 50 94t25 95t25 63q52 -6 108 -59q58 -55 106 -63q28 -40 52 -77t32 -83q-12 -20 -18 -44t-13 -48q-16 -54 -53 -78q-6 -60 -18 -112t-22 -102q-24 -121 -24 -204v-18q-18 -58 -40 -119t-32 -113 q-38 -30 -60 -74t-46 -88q-10 -8 -12 -3t-18 7q2 -18 -7 -23t1 -29q-34 -16 -60 -42t-57 -48q-41 -29 -93 -29q-40 0 -86 17q-218 160 -300 388q-20 -6 -30 -26t-18 -42t-16 -40t-24 -18q-4 -18 -15 -33t-21 -30q-16 -24 -16 -46q0 -14 6 -27q-20 -16 -24 -41t-10 -49 q-14 -56 -68 -56h-6q-8 -10 -3 -12t9 -18q-28 4 -40 -4t-30 -12q-100 31 -171 222q-17 46 -35 80q0 8 7 7t13 -1q-10 20 -15 45t-19 41z" />
<glyph unicode="O" d="M28 286q-6 46 -6 92q0 274 221 536q69 82 133 158q21 -9 34 8q25 36 42 42q11 25 38 45q47 35 62 61q31 6 53 27q42 38 71 47v26q44 20 64 44t48 62q22 2 35 2t41 4q18 34 34 50t46 36q30 -16 64 -19t62 -31q3 -32 28.5 -52t39.5 -32t18 -34q10 0 13 4t13 2q7 -28 14 -40 q16 -25 22 -46q-10 -24 -18 -51t-32 -37q0 -16 12 -17t14 -17t-6 -28q56 -94 102 -197t104 -197q-1 -11 -1 -21q0 -34 14 -68q39 -89 43 -123q2 -18 2 -38q0 -17 -2 -35q-4 -39 -16 -75q-28 -83 -78 -114q-32 -40 -80 -65t-88 -59q-28 -16 -60 -23t-66 -15q-88 -54 -212 -77 q-24 -4 -45 -4q-12 0 -23 1q-72 -26 -140 -36q-23 -3 -48 -3q-51 0 -112 13q-32 -4 -62 -4q-126 0 -227 74q-108 80 -165 224zM342 380q51 -44 165 -43q68 0 159 15q58 10 104 10q0 18 16 18q84 8 156 47t150 79q10 24 26 42t18 52q-16 29 -16 66q-52 72 -90 157t-88 161 q-4 -10 -16 -20t-26 4q-10 -34 -43 -34t-59 22q-70 -56 -139 -108t-125 -122q-10 -6 -12 -4t-14 -2q-20 -46 -47 -83t-53 -75q-63 -92 -66 -182z" />
<glyph unicode="P" horiz-adv-x="1310" d="M72 660q4 10 7 20t17 8q-2 15 -2 31q0 90 69 190q23 33 45 67q18 4 22 -3t14 3q56 38 56 108q91 262 232 326q98 84 264 87q6 0 11 1q44 0 68 -8q27 -8 29 1t10 9q210 -25 314 -118q93 -147 119 -247q22 -87 22 -164q0 -95 -33 -177q-70 -88 -170 -141t-215 -88t-238 -57 t-239 -48q1 -27 1 -53q0 -268 -103 -411h-10q-54 0 -150 -28q-45 28 -68 30q6 24 -11 50t-34 51q-21 31 -21 55t22 40q-16 14 -16 44q8 -8 20 -8q-1 8 -1 18q0 30 10 68q13 50 22 99q5 29 5 56q0 18 -2 34q-6 41 -48 59q2 8 9 7t13 1q-16 16 -20 43t-20 45zM558 902 q4 -12 16 -18t16 -18q45 22 92 29q92 13 134 33q30 14 63 23t65 19q81 25 114 58q-65 60 -205 71q-21 2 -40 2q-128 0 -203 -69q-8 -22 -13 -39t-11 -31t-13 -28t-15 -32z" />
<glyph unicode="Q" d="M-10 450q10 216 214 409q54 51 104 99q10 -10 15 -3t23 3q5 31 29 55q41 41 70 41h5q20 38 61 67t83 57t76 62t42 84h40q-22 33 -22 69v6q2 39 25 64q31 34 75 34q35 0 80 -23q22 -4 30 8t26 16q173 -75 294 -230q-4 -6 -9 -9t-9 -6q-10 -8 2 -17q123 -156 222 -388 q7 -56 7 -113q0 -107 -23 -221q-27 -57 -66 -101l-64 -72q-24 -27 -44 -57l34 -80q-2 -16 6 -35l16 -38q15 -34 15 -53q0 -9 -3 -14q6 -12 26 -8q-8 -4 -11 -16t19 -8q-10 -52 -43 -90q-63 -72 -133 -72q-40 20 -63 40t-55 48l-74 174q-307 -139 -664 -158q-222 62 -316 200 q0 38 -10 82q-11 47 -11 82q0 24 5 42zM270 324q18 -10 44 -12t48 -8q114 32 235 61t233 73q-46 56 -87 108t-65 104q6 12 11 28t13 32q20 40 60 40q36 -14 85 -16t89 -10q40 -28 70 -69t60 -81q95 86 124 200q-86 228 -186 258q-5 1 -9 1q-9 0 -12 -6q-5 -9 -25 -3 q-108 -78 -216 -153t-198 -169q-187 -153 -274 -378z" />
<glyph unicode="R" horiz-adv-x="1324" d="M20 220h22q-9 29 -9 56q0 13 2 25q7 37 17 72t17 68q2 11 2 22q0 23 -9 47q10 -6 15 5t8 28q2 14 2 29q0 18 -3 38q36 86 58 205q39 212 76 295q28 4 59 -7t41 -27q62 48 110 116t97 133t111 115t154 60q48 -34 108 -73t98 -97q16 -10 31 -21t31 -21v-30 q45 -42 70.5 -108t39.5 -106t32 -74q-6 -18 -1 -33q9 -27 9 -53q-8 -106 -69 -171t-148 -106t-185 -70t-178 -63q0 -8 9 -8t5 -12q60 -36 93 -58t62 -37q43 -22 161 -49q62 -14 97 -23t63 -14q41 -7 146 -19q42 -42 52 -92q7 -34 7 -60q0 -40 -17 -60q2 -8 11 -7t19 -1 q-14 -10 -24 -24l-20 -28q-26 -37 -56 -40q-37 -15 -85 -15q-45 0 -99 13q-112 26 -242 75t-184 75t-94 51q-53 33 -152 123q-6 -2 -7 -8t-7 -8q-10 -80 -31 -130t-61 -102q-32 6 -43 -6t-27 -22q-25 -5 -40.5 6.5t-25.5 17.5t-32 4q-6 18 -12 35t-32 15q9 26 1 46 q-14 40 -7 60q-10 -2 -18 15t-18 33zM514 788q84 10 176 47t174 71q-10 74 -52 119t-88 61q-26 -38 -58 -69t-63 -64q-73 -77 -89 -165z" />
<glyph unicode="S" horiz-adv-x="1180" d="M20 992q8 32 13 50t1 50q43 126 228 191q48 17 90 29q0 8 -8 8t-4 10q108 20 217 58t223 68q138 37 265 37q116 0 221 -31q11 -33 38.5 -71.5t39.5 -58.5t14 -42q24 -22 39 -47q9 -15 9 -36q0 -14 -4 -31q-55 -40 -96 -62q-71 17 -141 17l-39 -1q-90 -6 -162 -14 q-22 24 -52 23t-63 -10t-65 -18t-60 -5q-30 -28 -134 -38q-2 -10 4 -14t2 -16q14 -18 38 -25t49 -13q62 -15 71 -52q64 -4 106 -60q33 -43 33 -88q0 -6 -1 -12q8 -20 17 -16t21 -10q8 -30 37 -63t45 -71q4 -60 7 -108v-12q0 -42 -17 -82q-90 -233 -414 -373 q-90 -39 -178 -65q-8 2 -19 0t-5 12q-26 -24 -68 -24h-5q-45 2 -72 4t-53 -2q-39 39 -50 70q-10 2 -9 13t-9 11q0 8 6 20q12 9 4 13q-19 11 -16 19q10 18 7 43t-5 51q-1 7 -1 13q0 53 39 75q22 -2 45 -3q166 0 372 116q59 33 115 61q8 25 34 50q47 44 52.5 64t3.5 24t-6 7 q-12 9 -12 19q-18 6 -45 19t-85 31t-98 40q-24 -16 -48 -8t-58 16q-190 9 -304 58q-4 12 -10 21t-28 5q-14 20 -29 37t-27 39q6 30 8 49t-14 41z" />
<glyph unicode="T" horiz-adv-x="1244" d="M0 1304q6 28 22 44l8 36h30q16 -2 33 -2h33q110 0 261 16t257 22q10 22 20 42l22 12h12q37 0 52 -11q18 -13 28 -25q67 5 182 21q266 35 329 35q95 0 151 -8l24 -18q14 -24 46 -49t61 -61q23 -28 23 -77q0 -14 -2 -29l-10 -20q-8 -8 -20 -16l-20 -26h-22q-26 0 -44 -8 t-28 -11t-22 -7q-22 2 -34 2h-28q-94 0 -204 -16q-116 -17 -234 -30q-44 -113 -70 -172q-42 -93 -64 -172q-49 -74 -66 -144q-30 -34 -43 -74t-23 -68l-8 -30q-14 -14 -17 -22t-11 -18q-6 -26 -13 -43q-15 -38 -13 -45q-4 -22 -12 -34q0 -12 -2 -24t-5 -25q-8 -33 -2.5 -43 t11.5 -18t10 -20q4 -4 10 -6t16 -11t24 -11l20 -24q3 -18 3 -35q0 -48 -26 -80q-35 -43 -119 -43l-28 2q-14 14 -16 18q-18 8 -30 13t-19 14t-13 10t-10 5q-20 6 -32 14l-22 12q2 20 2 28q-26 35 -36 80q-17 76 -30 94v32q0 119 26 203q30 95 58 164q55 135 78 221l22 22 q14 12 18 14q0 33 20 75q33 72 36 87l-98 -10q-18 0 -26 2q-20 -10 -58 -10h-48q-24 0 -38 -6h-84q-63 0 -96 18l-14 16q-12 22 -22 24l-22 6v22q-2 16 -7 29t-13 33q-24 60 -24 114z" />
<glyph unicode="U" horiz-adv-x="1424" d="M103 735q1 155 41 255q-4 26 -10 32q22 56 29 111q11 87 25 125q34 8 51 29t27 37q36 2 47 -10t23 -37t30 -50t54 -39q9 -34 30 -80q51 -116 54 -176q-46 -89 -53 -227q-1 -22 -1 -43q0 -101 24 -168l12 -32l44 4q144 36 216 82q116 74 214 184q140 163 188 426 q14 76 18 142q38 18 42 58l-6 26q-10 16 0 36q16 46 68 68q62 -41 124 -108q5 -74 30.5 -138t36.5 -96t15 -78q-26 -77 -46 -224l-4 -22q-85 -147 -128 -240q-18 -18 -37 -56t-25 -44l-48 18l-12 -62l-32 -8l-24 -28q-83 -145 -211 -230q-98 -65 -323 -158q-13 2 -83 6 q-106 6 -157 12q-15 34 -48 34q-40 20 -60 56t-36 70t-27 58t-27 46l40 12l-52 60q-6 6 -13 12t-13 14v38q-7 146 -7 272v31z" />
<glyph unicode="V" horiz-adv-x="1196" d="M137 1216q-5 52 -5 89q0 57 12 79q18 38 42 55t46 39q52 -8 75 -34q34 -38 34 -69q0 -6 -1 -11q128 -77 153 -322q7 -68 12 -134q14 -180 29 -228q88 128 149 227t123 190q137 202 336 397q26 -4 40 -10l28 -12q22 -10 50 -10q12 0 24 2q10 -24 15 -35t9 -21t10 -26 l18 -48q9 -11 4.5 -32.5t-3.5 -27.5t13 0q-8 -34 -26 -61q-16 -24 -16 -58v-7q-54 -72 -120 -148t-132 -159q-166 -209 -230 -361q-16 0 -25 -14l-14 -22q-5 -8 -17 -8q-6 -102 -134 -218q4 -16 4 -26t-2 -20q-5 -25 -2 -48q-35 -93 -110 -128q-31 -14 -60 -14q-40 0 -78 26 q-14 8 -24 22t-21 27q-29 34 -49 39q3 16 3 31q0 43 -25 81q-8 12 -16 12q-9 57 -35 170q-40 181 -40 239q1 3 1 6v18q0 38 -9 54q-11 19 -18 60q-4 26 -4 60q0 19 1 41q4 60 4 115t-7 116t-12 117z" />
<glyph unicode="W" horiz-adv-x="2036" d="M40 394q82 462 146 650q64 181 103 250.5t77 111.5t82 50q21 -28 52 -38q62 -88 142 -146q-20 -102 -88 -297q-84 -240 -100 -310q-29 -126 -48 -269q73 21 198 146q87 87 125 145q42 64 107.5 173.5t104.5 175.5t79 126q97 145 148 190q66 -66 114 -80q14 -22 27 -39 t27 -36q39 -53 50 -77q-6 -47 -22 -120.5t-29 -133.5t-23 -106t-14 -72q-6 -39 -6 -78.5t4 -62.5q11 -65 28 -89l96 74q99 74 218 365q34 83 63 159t54 139t51 120q58 127 100 183q164 -103 207 -237q17 -53 25 -125q-53 -101 -129.5 -283.5t-127.5 -297.5t-113 -219 q-138 -231 -316 -338q-28 6 -57 6t-55 -22q-82 38 -132 113t-77 128q-34 67 -49 93l-54 100l-70 -64l-24 -24q-157 -147 -243 -202q-172 -110 -335 -114q-16 8 -29 14t-42 20q-70 34 -129 96q-23 51 -40 78q-56 113 -76 174z" />
<glyph unicode="X" horiz-adv-x="1276" d="M-20 244q10 154 182 326l86 86q11 33 52.5 63.5t64.5 50.5t37 46q-16 56 -112 168q-24 28 -44 58q-2 10 -15 6t-19 2q1 6 1 12q0 27 -14 57q-17 37 -45 63q21 51 21 95q0 26 -7 49q-3 27 13 57q19 39 19 63q0 8 -2 14q11 2 22 2q30 0 60 -13q40 -17 59 -23t37 2 q-6 -17 3 -22.5t14 -7.5t5 -10q66 -21 170 -140q76 -87 126 -168q58 36 125 86t138 102q178 130 287 174q64 -29 101 -105q15 -31 28 -62t35 -55q-20 -40 -42 -67t-32 -65q-85 -34 -224.5 -134t-265.5 -208q72 -82 102 -164q27 -20 51.5 -63t40.5 -63t42 -32q8 -36 20 -67 t23 -61q23 -64 23 -108v-10q-16 -54 -48 -90t-46 -74q-60 -16 -78 -34l-136 96q-60 200 -236 420q-203 -157 -344 -356q-8 -101 -32 -131q-37 -44 -122 -77q-78 58 -115 143q-21 48 -21 96q0 37 12 73z" />
<glyph unicode="Y" horiz-adv-x="1010" d="M84 120l2 22l18 54q10 34 22 67t40 59q19 58 84.5 175t77.5 135q-20 36 -56 70q-65 121 -90 214q-2 48 -12 86q-22 84 -22 118q-8 14 -14 36l4 24q7 11 7 29.5t-7 43.5q-14 51 -19 80t-3 57q5 67 60 98l20 14l20 -12q22 -14 42 -24l42 -21q42 -21 98 -53l20 -14l-2 -22 q0 -12 8 -20l22 -6l2 -28v-24q0 -27 10 -40l10 -26q0 -50 15 -99q24 -77 24 -123q0 -10 -1 -18q12 6 20 14q12 12 24 20l140 190l-4 24l50 48q51 41 68 72l12 18q90 120 232 148l34 8l10 -32q10 -28 39 -49t63 -41l22 -14q12 -24 12 -36t-2 -20l10 -26q-22 -58 -48 -83 t-51 -45q-56 -45 -71 -78l-16 -20q-50 -26 -64 -76l-8 -28h-30q-10 0 -34 -52q-18 -24 -36 -42q-8 -20 -14 -38l-12 -16q-20 -18 -36 -51q-33 -68 -54 -89l4 -22l-16 -14q-18 -16 -41 -59t-37 -67t-36 -44q-25 -64 -62 -104q-24 -96 -114 -206q-3 -32 -21 -61 q-23 -36 -31 -51l-6 -22q-14 -26 -35 -46t-26 -26t-9 -10l-34 -12q-176 24 -214 186z" />
<glyph unicode="Z" horiz-adv-x="1360" d="M-16 176q-4 36 -4 69q0 120 45 215q19 40 43 86q31 11 71 44q72 59 97 62l20 12q59 68 218 160q141 81 194 132q20 -2 34 8q10 14 8 30q6 4 11 9t16 14t40 24t39 41l52 50l-72 -2q-54 0 -115 -6t-101 -10q-54 -5 -160 -10q-74 47 -107 144q-18 52 -18 102q0 42 13 82 q28 7 54 20q22 2 29 0t17 -2q120 20 200 20t148 -20q84 0 171 6q24 2 48 2q64 0 129 -12q44 14 88 14l40 -3q64 -9 110 -57q7 -71 70 -92q9 -35 9 -67q0 -129 -143 -221q-50 -32 -98 -62q-14 -22 -34 -36t-38 -30q-78 -104 -181 -177t-194 -134q-223 -149 -311 -225l-26 -22 l22 -24q28 -28 59 -28q46 0 77 13q56 23 72 23l22 -4q41 22 73 31q65 19 87 31q71 0 194 48q28 10 55 20t55 18q16 -22 41 -35t33 -20t10 -19l8 -66l42 46q30 -28 32 -57v-12q0 -26 -6 -63q-78 -78 -193 -122t-193 -67t-104 -30t-54 -17l2 42l-52 -34q-14 -11 -28 -30 q-62 -14 -103 -22t-79 -17q-89 -21 -126 -21q-50 0 -70 4t-36 8l-28 52l-38 -28q-22 18 -48 38q-65 50 -68 80l-2 24l-24 6q-4 4 -8 18q-12 41 -36 56z" />
<glyph unicode="[" horiz-adv-x="794" d="M-62 -108q0 30 28 58q28 116 69 233t68 222t52 190t47 164t44 157t41 154t36 138t32 124q39 162 59 278q-4 26 -3 39q4 50 -23 77q16 4 23 26t1 32q32 10 69 13t73 6q91 8 124 27q100 4 208 9t200 9q34 -10 80 -11t90 -7t80 -25t50 -67q71 -10 64 -79q-2 -19 -2 -39 q-96 -73 -449 -79q-143 -2 -187 -7.5t-69 -8.5t-47 -7q-55 -248 -131 -546q-96 -382 -101 -434q-65 -203 -85 -275q-51 -174 -81 -265q136 24 450 24q5 -27 47 -44q15 -6 27 -14t12 -28q61 -17 52 -68q-4 -23 -46 -86q-30 6 -62 -36q-64 9 -210 -10q-8 0 -7 -9t-5 -11 q-91 30 -248 -4q-64 -14 -132 -31t-136 -19q-60 42 -87 167q-7 33 -15 63z" />
<glyph unicode="\" horiz-adv-x="722" d="M123 1423q1 65 39 99q74 -24 128 -70t108 -118q4 -28 10 -79t14 -112t16 -128t17 -126q21 -141 37 -175q2 -42 15 -95t25 -110q30 -144 12 -215q4 -10 13 -14t15 -12q-17 -43 -3.5 -79.5t21.5 -56.5t8 -40q-12 -19 -23 -50q-21 -60 -47 -80q-40 -6 -67 -4t-63 0 q-66 34 -87 137q-9 43 -9 86t4 77q18 16 -2 20q0 43 -9 107.5t-15 110.5t-12 82q-16 30 -25 96t-18 137q-23 185 -51 215q4 44 -12 114t-28 144t-11 139z" />
<glyph unicode="]" horiz-adv-x="826" d="M-574 -108q0 28 12 40t24 26q55 2 121 12q135 20 179 20q45 30 338 30q24 84 52 165t51 170t50 172t52 162q61 193 79 321q20 72 38 131t34 118q33 121 62 285q-148 16 -248 0q-176 -28 -224 -52q-57 3 -84 48q-12 20 -21 44t-21 50q6 18 3 51t-19 49q12 4 19 27t1 33 q30 10 62 13l64 6q82 8 112 27q88 4 183 10t179 10q30 -10 70 -11t80 -7t72 -24t44 -66q63 -10 56 -79q-2 -19 -2 -39q-20 -82 -44 -189t-53 -226t-61 -240t-59 -225q-62 -238 -65 -284q-34 -102 -55 -172t-40 -133t-39 -130t-52 -159q-6 -33 -48 -94q-30 6 -62 -36 q-64 9 -210 -10q-8 0 -7 -9t-5 -11q-91 30 -248 -4q-64 -14 -132 -31t-136 -19q-60 42 -87 167q-7 33 -15 63z" />
<glyph unicode="^" horiz-adv-x="1062" d="M0 524q6 26 20 48t12 50q42 56 93 115t102 122q120 148 177 279q11 0 19 11l11 17q4 6 12 6q7 82 104 168q-6 24 -1 36t3 36q28 74 83 99t107 -9q22 -16 35 -39t37 -29q-4 -32 6 -63t24 -33q6 -40 16 -84t20 -89q24 -106 22 -146.5t6 -55.5t13 -46t2 -78t-3 -89l18 -260 q0 -62 -41 -92q-19 -14 -35 -30q-40 4 -64 33t-20 55q-58 36 -83 103t-34 145t-13 153t-20 127q-68 -100 -114 -176t-94 -146q-114 -166 -260 -306q-22 2 -42 12q-30 15 -66 12q-8 18 -12 26t-7 16q-10 28 -18.5 46t-7.5 27t2 17t0 12t-9 0z" />
<glyph unicode="_" horiz-adv-x="1452" d="M-216 152q24 4 36 24t2 30q64 10 170 12q178 3 244 24q417 0 636 6q52 -10 123 -12t140 -9t126 -25t79 -62q109 -9 102 -72q-2 -18 -2 -36q-131 -55 -500 -59q-102 -1 -198 -1h-178q-192 0 -339 -16t-181 -26q-134 4 -190 85q-16 23 -38 47q12 16 5 46t-37 44z" />
<glyph unicode="`" horiz-adv-x="1546" d="M612 1248q-36 54 6 135q12 23 24 51q16 8 36 29t22 43q10 -6 29 5t23 23q22 -12 41 -31l37 -37q47 -47 76 -52q48 -54 103 -107t101 -103q8 -28 29 -42t38 -30t21 -38t-22 -64q20 -33 5 -56.5t-29 -37.5l-28 -28q-113 5 -292 171q-168 156 -220 169z" />
<glyph unicode="a" horiz-adv-x="1190" d="M-52 146l22 18l2 34q48 123 121 271.5t88 180.5t31 64q-2 6 -2 14t4 18q26 41 53 95q54 110 87 153l32 14q6 2 14 5t18 3l30 -4q56 26 98 73t86 113l20 28l26 -16q10 -6 28 -11t46 -12q87 -22 112 -47q12 -32 14 -48t7 -41q14 -69 17 -135q16 -54 28 -118 q26 -140 48 -194q16 0 20 -2q13 5 46 10l22 2l8 -20q2 -10 20 -20q32 -2 50 -20t26 -22l30 -12l-16 -30q-43 -78 -140 -124q19 -113 19 -164q0 -25 -5 -34q-43 -121 -158 -176q-38 -18 -80 -20q-26 6 -35 13t-17 12q-16 10 -22 13l-24 10l8 26q4 16 -2 25t-18 20 q-22 20 -28 29l-34 38l54 14q50 14 67 36q14 18 14 55q0 9 -1 19q-23 5 -41 5q-14 0 -26 -3q-27 -6 -59 -15q-82 -23 -124 -23q-66 0 -106 8q-4 22 -8 25t-11 10q-25 25 -25 52q0 7 2 15q-10 18 -12 36q-12 -24 -18 -50l-8 -20l-20 -4q-8 -4 -8 -20l-10 -34q-4 -4 -8 -7 t-8 -7q-6 -28 -19 -62q-25 -66 -25 -101v-7l-8 -22q-13 -15 -31.5 -25.5t-25.5 -13.5t-11 -5l-6 -22l-24 -4q-22 -4 -31 -6t-21 -2l-20 2q-22 18 -34 29t-28 21q-18 24 -20 36t-5 23t-4 19t-5 12zM436 510q12 2 23 2t46 3q119 10 193 25q-36 155 -64 254l-12 -20 q-77 -81 -140 -192l-24 -36t-22 -36z" />
<glyph unicode="b" horiz-adv-x="1174" d="M-62 996q45 116 234 163l100 25q78 14 156 32q58 14 124 14q22 0 44 -2q16 8 64 8t64 8q10 -12 29 -15t41 -19q24 18 41 8t31 -22q37 -32 54 -32q14 -18 35 -34t40 -33q45 -40 45 -83q-2 -10 6 -12t12 -8v-7q0 -127 -139 -255q-37 -34 -67 -72q23 -29 74.5 -67.5 t75.5 -60.5t40 -52q4 -4 10 -7t12 -7q6 -20 16 -41t17 -40q16 -44 1 -59q16 -8 16 -27q0 -7 -2 -15q-63 -80 -69 -90q-7 -11 -45 -42q-213 -128 -384 -154q-16 -22 -61 -31t-83 -17q-8 4 -9 11t-9 11q-2 -21 -24 -21q-36 0 -124 59q-10 -16 -21 -32t-27 -22l-33 6 q-11 2 -21 -8q-12 6 -19 14t-14 15q-17 17 -41 23q4 8 -4 25t-24 21q8 14 -7 35t-23 47q4 22 6 48t24 30q-2 14 -6 24l-8 20q19 17 26.5 49.5t13.5 50.5t22 30q18 60 28 89t15 57q14 79 37 140v7q0 31 15 71q17 44 23 69t-2 59q-47 -3 -56 -64q-16 -16 -39 -15t-41 -5 q-130 52 -190 202zM374 914q34 -28 69 -50t55 -60q136 56 248 190q-16 1 -31 1q-86 0 -172 -19q-101 -22 -169 -62zM378 214q89 12 171.5 47t127.5 56t95 39q6 20 22 32t32 23t28 24q10 11 10 30v7q-81 43 -171 43q-66 0 -136 -23q-43 -14 -87 -20q-35 -93 -92 -258z" />
<glyph unicode="c" horiz-adv-x="1052" d="M0 594q30 90 85 155t113 129q26 12 39 25t28 24l30 22t27 27q54 13 109 51.5t87 56.5t74 28q17 20 61.5 41t65.5 33t33 32q10 -16 28 -11t31 9t20 -2t13 -12q14 -14 20 2q12 0 0 -24q16 2 27 -7t35 -11q8 -10 4 -15t-4 -17q60 -18 76 -57q9 -21 9 -42q0 -19 -7 -39 q-14 -42 -50 -78t-78 -48q-96 -26 -181 -57t-139 -91q-107 -31 -217 -149q-29 -31 -61 -61q2 -28 -9 -43t-21 -31q6 -42 36 -98q132 -40 281 -50t299 -12q14 -20 33 -37t35 -36q32 -38 32 -80q0 -10 -2 -19q-28 -30 -62 -55t-68 -51q-11 -1 -23 -1q-25 0 -56 3q-9 1 -17 1 q-37 0 -70 -15q-211 8 -418 80q-20 22 -40 41t-54 27q-84 67 -126 210q-29 97 -29 216q0 18 1 36z" />
<glyph unicode="d" horiz-adv-x="1018" d="M30 250q6 22 17 37t11 43q16 52 32 102t20 102q6 16 22 22q6 54 6 107q0 138 -38 273q2 20 5 29t-1 13q-2 16 11 16h27q0 30 -11 60t-21 68q14 30 18 59t18 51q108 -34 207 -82t195 -70q72 -52 148 -103t138 -112q142 -139 152 -325l-10 -45v-23q-60 -106 -151 -178 t-200 -127t-227 -100t-230 -97q-111 28 -129 187q-5 45 -9 93zM310 910q39 -149 41 -246q0 -9 1 -17q0 -135 -30 -303q25 3 57 17q59 28 95 31q6 12 17 20t21 18q107 41 150 69q86 57 118 131q-15 31 -53.5 63.5t-57.5 50.5t-31 44q-29 4 -66 26q-71 41 -108 44 q-44 22 -79 32t-53 26q-14 0 -22 -6z" />
<glyph unicode="e" horiz-adv-x="1068" d="M22 356q8 36 27 60t13 52q10 2 12 11t16 7q20 60 45 110q52 104 69 150q-54 50 -70 183q-4 33 -14 67q48 72 186 100q40 8 84 18q133 43 230.5 57.5t163.5 22.5t150 24q18 -18 34 -18q8 18 19 11t9 11q36 -60 120 -96q2 -15 0 -27.5t-2 -19.5t4 -21q-42 -68 -97 -93 t-119 -36t-131 -23t-133 -52q-26 10 -47 0t-61 -6q-12 -12 -30 -17t-36 -11q8 -18 7 -37t5 -31q30 -3 63 -3q44 0 92 5q85 8 167 10q2 -10 -2 -13t-2 -11q14 -10 28 -25t28 -29q30 -30 59 -30h5q12 -24 12 -45q0 -15 -6 -29q-32 -22 -64 -45t-67 -41q-75 -38 -150 -38h-11 h-15q-5 0 -13 6q-16 -10 -45 -6t-45 -6q-22 10 -53 9t-55 7q-64 -84 -104 -192q58 -9 107 -9q31 0 59 4q138 17 206 17h14q40 22 95 29t101 23q16 -6 28 -21t23 -28q29 -34 53 -31q10 -10 14 -30t9 -27t17 -5q-53 -116 -158 -154q-50 -18 -111 -28t-107 -19t-58 -4t-28 5 q-114 -25 -212 -25q-83 0 -154 18q-60 15 -98 53q-16 14 -21 33t-27 29q-2 26 -8 58t-12 67q-10 59 -10 94q0 19 2 31z" />
<glyph unicode="f" horiz-adv-x="932" d="M-40 506q14 89 103 120q23 8 45 14l26 -10q18 -18 36 -28q18 8 26 37q14 50 32 83q-2 26 8 48q-14 10 -24 11t-26 5q-25 19 -50 56q-12 26 -30 42l-20 14l10 20q4 4 4 10t-8 18q-4 22 0 30l4 20q16 22 16 24l18 18q53 13 124 38q144 48 190 60q21 15 56.5 18.5t39.5 9.5 q168 56 372 76l34 2h40q90 0 114 -54q27 -15 46 -34q27 -30 36 -34q25 -38 25 -70q0 -12 -3 -22q-18 -26 -46 -30l-22 -12q-22 2 -33 2h-23q-184 0 -384 -50q-64 -16 -112 -34l-36 -18q-14 -22 -16 -35t-4 -23t-3 -18t-3 -18q-34 -42 -34 -100q-19 -33 -19 -54q0 -4 1 -8 q30 -13 58 -13q7 0 14 1q34 4 74 11q109 19 190 19h64l-16 -16l10 -28q12 -6 17 -8t11 -6l10 -18q21 -10 24 -44l-82 -116l-28 -8q-34 2 -54 -5q-37 -13 -64 -13q-45 -9 -102 -17q-105 -14 -154 -33h-28q-16 0 -33 -5t-31 -9q-11 -9 -20.5 -36.5t-23.5 -45.5v-30 q-16 -20 -19 -31t-7 -19q-8 -16 -8 -24q11 -20 11 -44q0 -11 -3 -24q-12 -68 -68 -94h-10q-26 0 -48 9q-26 11 -40 13l-22 16q-8 20 -24 40t-32 50q-7 35 -7 63q0 18 3 34q8 39 16 64t12 38t8 25q-52 28 -78 80t-30 100z" />
<glyph unicode="g" horiz-adv-x="1336" d="M0 384q0 20 5 34t1 36q117 248 276 372q20 17 36 38q27 37 58 44q65 74 222 165q64 37 127 74t115 83q22 -10 32 -6t22 0q14 -30 39 -42t50 -25q62 -32 81 -79q-18 0 -10 -18q16 -36 -8 -36q2 -10 13 -11t11 -11t-5 -16t-1 -20q-40 -26 -89 -50t-102 -51 q-150 -76 -221 -129q-178 -132 -316 -303q-46 -57 -78 -113q4 -10 9 -15t9 -15q28 -2 55 -2q33 0 64 3q16 1 32 1q39 0 79 -8q6 4 8 12t10 12q114 12 212 37t200 53q-16 6 -29 11t-25 9q-10 10 1 17t19 15q-59 34 -66 104q12 10 12 24t-12 22q-11 3 -12 -4q-4 -13 -14 -8 q2 18 9 30t11 28l138 92q56 -40 143 -85t117 -60t52 -35t42 -41q55 -57 90 -75q-4 -26 2 -42q4 -12 4 -28v-12q-48 -86 -126 -133t-172 -78t-197 -55t-199 -62q-48 0 -96 -8t-63 -8t-17 -5t-6 -9q-34 -6 -61 -6h-45q-24 0 -49 -7q-19 -5 -36 -5h-9q-150 8 -235 107t-95 275 q2 10 -3 12t-9 6z" />
<glyph unicode="h" horiz-adv-x="1192" d="M-20 168q5 5 9.5 22.5t8.5 21.5t10 -2q-5 21 3.5 41.5t10.5 30.5t-6 22q48 66 54 188q27 27 38 74q9 39 9 69q0 26 -7 43q2 10 22 6q12 66 17 149t17 158t40 132t90 75q19 -67 58 -116q81 -102 104 -146q-9 -162 -58 -372q2 -10 11 -12t3 -18q48 12 100 22t104 22 q125 29 192 64q10 78 26 156q9 45 9 90q0 34 -5 70q10 8 16 20t20 16q-9 34 -9 68q0 46 16 92q29 84 99 100q22 -32 38 -69t33 -74q43 -93 85 -127q9 -87 14 -246q-16 -76 -35 -147t-27 -151q-15 -18 -31 -58q-26 -69 -49 -92q8 -24 3 -45t11 -51q1 -9 1 -18 q0 -116 -121 -164q-36 -14 -70 -26q-16 10 -31 21t-35 17q-26 48 -50 85q-22 34 -22 78v7l22 134q-140 -12 -348 -140q0 -19 -20 -60q-39 -82 -62 -82q2 -6 6 -12t0 -16q-28 -8 -50 -21t-46 -22t-52 -9t-66 20q0 17 -21 30.5t-29 18.5t-8 9q-10 -2 -8 14t16 8q-22 28 -27 49 t-23 53z" />
<glyph unicode="i" horiz-adv-x="656" d="M112 304q14 35 16 92.5t3 90.5t10 90t36 133t37 126q6 29 6 47q0 12 -3 19q-7 16 -4 27t13 14t14 19t1 30t7 32t25 49q12 24 12 51q0 7 -1 14q18 12 34 28t33 29q43 33 89 33q16 -20 21 -44l10 -48q12 -60 49 -78v-40q0 -101 34 -114q-87 -232 -113 -353 q-30 -143 -30 -263q0 -79 13 -148q4 -21 4 -39q0 -74 -59 -106q-37 -20 -90 -20q-27 0 -57 5q-50 70 -110 324z" />
<glyph unicode="j" horiz-adv-x="1094" d="M-40 180q8 76 26 112q48 28 83 28q47 0 101 -22t60 -26t10 -6t9 -2h21q16 0 32 4l48 -8q20 0 42 8q24 9 50 14l16 16q35 12 56 54q6 12 15 24t16 22t15 20v20q76 170 128 480h-20q-127 0 -175.5 -10t-92.5 -18l-30 -6q-75 -40 -123.5 -40t-84.5 40q-38 26 -44 68 q-10 12 -6 28q-8 24 -8 43v63h26q17 17 20 28l22 18q44 5 115 19.5t98 18.5t52 6q50 4 115 4h46q8 10 23 10t27 -6q90 16 150 16h77q17 0 33 -2h110q10 2 37 2q33 0 65 -5q70 -11 102 -11h30l6 -20l16 -20q4 -10 13 -18t24 -23t34 -41q14 -20 14 -55q0 -11 -1 -23l-14 -22 q-10 -4 -24 -18l-18 -16q-44 -4 -69 -4t-85 3t-70 3h-70t-40 -2q-7 -91 -34 -176q-75 -355 -182 -570q-52 -58 -101 -102t-109 -62q-48 -6 -78 -14t-41 -10t-21 -6q-60 12 -106 12l-26 8q-20 6 -31 10t-20 7q-18 6 -55 9q-30 -12 -61 -12t-73 30t-70 128z" />
<glyph unicode="k" horiz-adv-x="1322" d="M22 192q16 16 9 34q-9 23 -9 38q0 10 4 16q10 0 24 4q-12 16 -11 19t-5 9q-4 12 4 15t16 7q12 149 92 344q32 78 63 158t51 172q22 22 35 52t28 60t34 59t53 47q28 -2 50 -15t54 -11l24 -40l30 6q50 -41 59 -86q4 -21 4 -38q0 -56 -41 -78q3 -14 -0.5 -21t-3.5 -11t6 -12 q-40 -30 -60 -84t-22 -96q47 47 124.5 100.5t101.5 73.5q66 60 127 97t129 83q18 4 44 -6q0 12 -7 14t-5 16q30 8 52 19t48 21q18 -18 34 -37t44 -23q10 -22 24 -33t28 -21q35 -25 38 -68q-26 -45 -34 -68q-72 -65 -183 -130.5t-157 -101.5q-12 -17 -42 -37q-54 -38 -66 -61 q-6 -2 -12 -2t-12 -2q-6 -14 -19 -22t-17 -22q75 -160 316 -163q70 -1 146 -1q8 2 7 9t9 5q48 -16 74 -45t62 -57q-7 -141 -158 -206q-27 -1 -52 -1q-159 0 -260 43q-4 2 -8 10q-9 19 -31.5 17.5t-36.5 4.5q-23 10 -84 55q-111 81 -150 133q-6 8 -16 9t-18 5 q-58 -36 -98 -90t-76 -110t-76 -106t-102 -76q-30 0 -50 15q-40 30 -58 35q0 28 -18 64t-22 53t8 33q-12 12 -36 26z" />
<glyph unicode="l" horiz-adv-x="1092" d="M21 310q3 40 10 62t8 30t6 29q17 73 39 103q-3 7 -3 17q0 24 21 63q28 76 47 129t46 124q76 199 111 349q24 15 44 20q104 -52 164 -52q16 -10 20 -15t17 -20q40 -46 40 -96q0 -8 -1 -17q-12 -18 -18 -18q-13 -51 -35 -103q-45 -102 -55 -155q-8 -10 -11 -18 q-18 -47 -31 -58q-6 -52 -19 -84t-32 -77q-55 -131 -61 -235q10 4 19 4h17q18 0 42 -6q60 32 131 38t120 7t77 1t52 4q22 -12 37 -12t25 -2q33 -30 74 -44q74 -26 102 -48l14 -86q13 -17 13 -28t-9 -20l4 -22q-38 -8 -62 -32q-16 -2 -23 -2h-13q-28 0 -68 -10q-54 18 -94 18 t-64 -2t-48 -5q-56 -7 -100 -7l-46 -12q-168 -54 -261 -54t-151 50q-10 22 -18 30q-15 20 -18 42q-60 71 -60 186q0 16 1 34z" />
<glyph unicode="m" horiz-adv-x="1668" d="M21 152q-11 56 -11 103q0 63 20 109q0 2 16 40t41 98t57 133t64 142q76 164 101 202q33 49 66 105t66 97t97 65q44 -18 64 -42l4 -22q8 -20 24 -20q22 -6 37 -11t33 -9q14 -16 28 -39t29 -46t24 -46q10 -25 10 -50q0 -24 -9 -47l2 -20q10 -18 6 -41t-4 -38t4 -33 q36 -28 66 -28q39 0 81 29q68 46 91 49q73 69 129.5 114.5t112.5 101.5t90 140q20 12 42 12q32 0 112 -40q0 -20 12 -30t14 -12t19 -11t25 -25q14 -46 50 -70q-1 -7 -1 -14q0 -33 25 -84l-38 4l6 -38q2 -11 2 -22q0 -47 -28 -94q2 -54 2 -88t-2 -46q-7 -47 -30 -96 q1 -23 1 -45q0 -102 -30 -188q-37 -105 -59 -156t-27 -61t-9 -20q-18 -6 -32 -13l-30 -15q-52 -26 -76 -26q-81 61 -81 219q0 138 61 349q10 6 10 24l-18 20q-21 0 -26 -16q-320 -234 -514 -234q-168 0 -252 170l-16 30l-16 -26q-33 -43 -52.5 -115.5t-17.5 -96.5 q-69 -69 -69 -108q0 -10 5 -18q-4 -18 -18 -28q-8 -10 -17 -19t-14 -19t-6 -20t-2 -22t-5 -24q-34 -70 -54 -91t-45 -21t-61 6q-55 59 -79 182z" />
<glyph unicode="n" horiz-adv-x="1156" d="M-30 314q98 208 214 444t220 466q244 -96 270 -250q-4 -12 -9 -9t-9 -3q11 -14 9.5 -20t-1.5 -13t6 -19q-8 2 -11 -2t-13 0q12 -32 1 -52q-15 -28 -15 -50q0 -8 2 -16q-8 0 -12 -6q-8 -13 -16 -10q4 -33 4 -66v-22q-2 -44 -3 -89v-33q0 -97 15 -162q177 103 226 432 q14 94 30 192q26 26 40 77l22 80q8 29 20 53q42 -6 75 -37t53 -46t50 -19q24 -34 44 -66t26 -68q-10 -16 -15 -36t-11 -40q-14 -46 -44 -66q-6 -56 -24 -139q-28 -131 -28 -212v-15q-52 -148 -62 -192q-32 -26 -50 -62t-38 -72q-8 -8 -10 -4t-14 6q3 -11 -3 -17 q-10 -10 -3 -27q-28 -12 -50 -34t-47 -40q-33 -24 -77 -24q-34 0 -74 14q-176 128 -248 324q-18 -4 -26 -21t-15 -35t-14 -33t-21 -15q-2 -16 -11 -28t-17 -25q-12 -21 -12 -40q0 -12 4 -23q-16 -12 -20 -34t-9 -42t-17 -34t-44 -12q-6 -8 -2 -10t6 -14q-22 4 -33 -3t-27 -9 q-78 25 -141 184q-15 38 -29 66q4 15 4 28q0 27 -16 50z" />
<glyph unicode="o" horiz-adv-x="1288" d="M26 226q-6 41 -6 81q0 230 186 444q58 67 112 131q18 -6 28 9q20 30 34 33q14 30 41 45t43 43q26 6 45 23q37 34 59 39v22q36 16 53 37t41 51q18 2 29 2t33 4q27 47 68 72q24 -12 53 -16t51 -26q3 -28 24.5 -44t32.5 -26t15 -28q8 -2 11 2t11 2q6 -28 14 -37t16 -35 q-10 -20 -15 -41t-25 -31q-2 -14 8 -15t12 -15t-6 -22q48 -78 86 -165t86 -165v-12q0 -31 12 -62q30 -68 35 -99q3 -17 3 -35q0 -14 -2 -29q-4 -33 -14 -64q-23 -70 -64 -93q-28 -36 -68 -56t-74 -48q-23 -15 -104 -32q-126 -69 -216 -69q-9 0 -18 1q-80 -29 -160 -29 q-45 0 -90 9q-29 -4 -56 -4q-163 0 -267 145q-35 49 -57 103zM288 304q46 -38 138 -37q57 0 133 14q47 9 87 9q84 20 144 53t126 67q8 22 21 36t15 42q-14 22 -14 54q-44 62 -76 133t-72 133q-16 -32 -36 -12q-8 -29 -34 -29q-12 0 -27 6q-13 5 -23 13q-58 -46 -116 -90 t-104 -102q-8 -4 -10 -3t-12 -3q-16 -38 -39 -69t-45 -63q-53 -77 -56 -152z" />
<glyph unicode="p" horiz-adv-x="1074" d="M52 538q4 10 6 18t14 6q-3 15 -3 31q0 73 59 155q20 28 38 56q14 2 17 -4t21 8q38 30 38 86q50 150 131 228q29 28 61 42q84 70 223 73h10q36 0 56 -6q23 -7 24 1t7 8q173 -21 262 -98q80 -126 100 -209q17 -73 17 -137q0 -80 -27 -146q-102 -126 -320 -190 q-96 -28 -199 -48t-201 -40q1 -27 1 -52q0 -220 -85 -334q-34 0 -70 -9t-64 -15q-14 8 -25 15t-31 9q4 20 -10 41t-28 43t-19 42t19 38q-14 14 -14 36q25 43 38 116q9 56 9 89q0 11 -1 19q-4 34 -40 50q2 4 8 4t12 2q-16 12 -19 34t-15 38zM458 740q4 -10 13 -15t13 -15 q46 24 93 27t96 25t106 35t95 49q-56 52 -170 60q-17 1 -32 1q-107 0 -172 -59q-21 -63 -42 -108z" />
<glyph unicode="q" horiz-adv-x="1280" d="M-10 364q10 181 177 341q45 43 87 83q10 -10 14 -3t20 3q0 20 21 43q35 37 60 37h5q18 32 52 55t69 47t63 52t34 70h34q-20 29 -20 59v5q2 32 21 53q25 28 62 28q31 0 69 -19q20 -4 26 7t20 13q149 -67 246 -192q-4 -10 -15 -12t1 -14q103 -128 186 -324q6 -45 6 -94 q0 -86 -20 -184q-28 -58 -70 -101t-76 -93l30 -66q-2 -12 5 -28t14 -33q18 -43 9 -57q6 -10 22 -6q-6 -2 -10 -13t16 -7q-18 -79 -90 -121q-26 -15 -56 -15q-47 25 -98 76l-62 144q-255 -113 -554 -132q-185 53 -266 166q1 9 1 17q0 29 -8 55q-9 34 -9 63q0 19 4 37z M224 258q16 -8 37 -10t39 -6q96 28 197 52t195 58q-95 115 -128 178q6 10 10 24t10 27q15 33 50 33q30 -12 71 -14t75 -8q34 -24 58 -57t50 -67q75 70 104 166q-71 186 -156 216h-6q-9 0 -12 -5q-4 -7 -20 -3q-90 -64 -180 -127t-166 -141q-159 -133 -228 -316z" />
<glyph unicode="r" horiz-adv-x="1108" d="M20 172q15 91 25.5 123.5t16.5 60.5t-6 58q8 -6 12 3t6 24t2 30t-2 25q28 72 48 171q39 192 64 247q22 4 49 -5t33 -23q52 40 92 97t82 111t93 96t129 50q40 -30 89 -61t81 -81q16 -8 27 -17t27 -19v-24q37 -34 58 -90l32 -89q12 -33 28 -63q-4 -10 -4 -17t3 -15 q8 -20 5 -38q-6 -88 -57 -142t-123 -89t-154 -59t-148 -52q0 -8 7 -8t5 -10q48 -30 76 -48t53 -30q44 -21 135 -42q52 -12 81 -19t53 -12q38 -8 120 -15q51 -51 51 -123q0 -9 -1 -18q-2 -23 -14 -37q2 -6 9 -5t15 -1q-12 -8 -20 -20l-16 -24q-19 -29 -46 -32 q-33 -13 -75 -13q-37 0 -81 10q-94 21 -202 63t-153 63t-78 42q-34 22 -125 103q-22 -80 -39 -121t-51 -85q-26 4 -36 -6t-22 -18q-23 -5 -35 4q-23 20 -47 20q-4 16 -9 30t-27 10q5 22 0 39q-11 32 -6 49q-10 0 -16 14t-14 28zM434 646q70 8 146 39t144 59q-8 62 -43 100 t-73 50q-22 -32 -49 -58t-52 -53q-60 -65 -73 -137z" />
<glyph unicode="s" horiz-adv-x="950" d="M20 816q13 42 13 69q0 8 -1 15q35 104 190 158q40 14 76 24q317 135 552 151l36 2q84 0 174 -27q7 -25 32 -58q43 -61 46 -86q38 -34 38 -74q0 -10 -2 -20q-45 -36 -80 -52q-56 14 -112 14q-19 0 -38 -2q-76 -6 -136 -10q-18 18 -43 18t-52 -8l-54 -16t-51 -4 q-25 -20 -112 -30q-2 -10 4 -13t2 -13q13 -16 52.5 -27t55.5 -20t22 -29q54 0 88 -48q28 -40 28 -84q6 -16 14 -14t18 -8q6 -26 30 -53t38 -59q4 -50 6 -89v-6q0 -37 -21 -90q-23 -57 -76 -115t-120 -103q-115 -77 -291 -131q-8 2 -16 0t-4 10q-25 -22 -58 -22h-4 q-36 2 -59 4t-43 -2q-34 34 -42 60q-10 0 -9 10t-7 10q12 20 11 23t-6 5q-14 6 -8.5 18t3.5 33t-4 43q-1 7 -1 13q0 45 33 61q21 -2 43 -3q135 0 304 97q49 28 97 50q9 26 30 44q40 33 44 53.5t-5 23.5t-9 15l-22 6q-38 22 -86 37t-82 33q-22 -12 -41 -6t-49 12 q-162 10 -252 50q-4 10 -10 18t-22 4q-40 54 -46 64q4 24 6 41t-12 33z" />
<glyph unicode="t" horiz-adv-x="982" d="M8 1100q6 8 10 14l6 30l26 -2h56q101 0 244.5 14t187.5 18q8 18 16 34l20 10q36 2 51 -9t25 -21q112 10 180 21q168 27 233 27q95 0 139 -8l20 -14q7 -15 35.5 -39.5t52.5 -54.5q19 -24 19 -66q0 -10 -1 -22q-16 -24 -24 -28l-18 -24l-20 2q-17 0 -34 -7q-28 -12 -42 -15 l-52 2q-68 0 -165 -14q-136 -20 -201 -24q-24 -77 -49 -128q-38 -76 -63 -160q-41 -66 -54 -120q-35 -44 -54 -120l-8 -24q-12 -12 -14 -19t-10 -13q-2 -22 -10 -38q-12 -24 -12 -41t-10 -23q2 -11 -4 -38.5t-4 -41.5q6 -8 11 -14t7 -16q18 -12 42 -24l18 -20q3 -15 3 -28 q0 -39 -22 -66q-29 -36 -101 -36h-24q-10 10 -12 16q-36 13 -44 26q-26 12 -42 20l-18 10v24q-22 28 -29 65q-12 61 -25 81q-1 15 -1 30q0 96 23 166q26 80 48 137t38 98t28 85l18 20q14 32 23 53t17 39t13 31t9 23l-84 -8q-14 0 -20 2q-22 -10 -48 -10h-20l-20 2 q-20 0 -32 -6h-66l-20 -2q-35 0 -64 16q-24 32 -32 34l-18 24q-2 12 -6 23t-10 28q-19 54 -19 81q0 29 7 38z" />
<glyph unicode="u" horiz-adv-x="1198" d="M103 601q1 115 31 205v22q6 44 12 73t11 64t17 73q28 6 42 23t24 31q28 2 38 -8t20 -30t25 -42t45 -34q4 -16 11 -33t19 -44q37 -83 40 -135q-47 -90 -47 -212q0 -36 4 -75q5 -47 17 -79l12 -26l34 4q124 33 183 70q87 53 177 152q150 164 172 474q34 12 34 48l-4 22 q-8 12 0 28q12 38 56 58q46 -29 104 -92q6 -62 26 -114q37 -95 42 -144q-16 -52 -23 -96t-15 -92q-32 -70 -62 -124t-48 -94q-10 -10 -17 -23t-13 -23t-12 -22t-10 -16l-40 14l-8 -50l-28 -8l-20 -24q-70 -122 -175 -191q-64 -42 -271 -131l-106 8q-38 0 -94 6 q-10 28 -40 28q-34 16 -51 47t-30 60q-21 47 -45 87l34 10l-44 48q-4 6 -10 11t-10 11l-2 32q-5 118 -5 220v33z" />
<glyph unicode="v" horiz-adv-x="994" d="M134 1089q0 69 43 100q21 15 39 33q44 -4 70 -36q21 -26 21 -49q0 -5 -1 -11q107 -66 128 -267q6 -57 10 -112q11 -152 24 -191q74 106 124 189t102 159q118 172 282 330q20 -2 33 -8t23 -10q29 -12 62 -6q8 -20 12 -29t7 -18q11 -32 21 -50.5t8 -28.5t-3 -19t-1 -13 t10 0q-6 -28 -21 -51t-13 -55q-46 -60 -101 -124t-110 -132q-130 -160 -191 -300q-13 0 -21 -13q-14 -25 -25 -25q-6 -88 -112 -182q6 -26 1 -39t-3 -39q-30 -80 -91 -107q-25 -11 -49 -11q-34 0 -66 22q-22 16 -37 41t-41 31q2 11 2 23q0 23 -8 45q-12 34 -26 36 q-6 42 -18 90t-22 97q-23 112 -23 155q1 4 1 8q2 40 -7 56t-15 50q-4 23 -4 53q0 15 1 32q3 51 3 97z" />
<glyph unicode="w" horiz-adv-x="1690" d="M40 316q6 28 18 95t29 147q45 212 69 283t47 129t50 107q63 114 127 125q12 -17 44 -30q50 -71 118 -124q-16 -79 -73 -244.5t-69 -203.5t-25 -96t-29 -186q36 9 86 50.5t84 75.5t60 66t49 66t47 75t56 93t65 107t66 106q73 113 123 159q36 -45 94 -66q24 -36 40 -57 q27 -36 48 -69q-12 -84 -33 -174t-29 -128t-11 -60q-5 -37 -6 -67.5t2 -49.5q7 -47 25 -75l80 62q87 67 182 304q28 70 63 159q105 268 161 343q89 -57 124 -105q59 -84 70 -197q-64 -125 -118 -256.5t-97 -227.5t-95 -183q-117 -195 -264 -283q-22 6 -46 6t-46 -18 q-70 32 -111 94t-64 106t-29 56t-12 22l-44 84l-60 -54l-20 -20q-145 -134 -211 -175q-136 -85 -271 -89l-44 22q-80 42 -124 86q-10 18 -17 34t-22 44q-31 58 -57 132z" />
<glyph unicode="x" horiz-adv-x="1038" d="M-22 192q5 120 152 271q38 39 72 73q8 26 43 52t54 42t31 38q-14 46 -54 93t-74 97q-4 10 -15 6t-15 2q1 6 1 13q0 46 -49 95q6 22 14 53q3 12 3 26q0 20 -7 43q0 20 12 46q16 35 16 53q0 7 -2 11q9 1 18 1q26 -1 51 -11q33 -14 48 -18t31 2q-3 -15 3 -19q15 -7 15 -15 q57 -18 143 -116q35 -40 63 -80l42 -60q49 31 165 115q201 148 295 187q68 -32 108 -139q10 -27 28 -47q-16 -34 -35 -57t-27 -53q-148 -64 -408 -284q33 -38 54.5 -79t29.5 -59q24 -18 44 -53t34 -52t36 -27q12 -60 34 -107q20 -43 20 -89v-8q-14 -46 -41 -76t-39 -62 l-36 -12t-28 -18l-114 82q-49 163 -196 350q-170 -128 -288 -298q-8 -87 -27 -109q-29 -35 -101 -63q-66 48 -96 119q-17 41 -17 82q0 29 9 59z" />
<glyph unicode="y" horiz-adv-x="820" d="M84 88l2 20q4 10 7 21q26 96 59 129q11 37 52 111q68 121 84 147q-20 32 -48 58q-53 101 -74 178q-2 26 -6 44t-9 39q-13 55 -13 89q-10 14 -12 28l4 20q8 19 -2 61.5t-15 66.5t-3 48q4 54 50 82l34 2q18 -10 35 -19t36 -19t39 -20t42 -26l14 -28l26 -22v-22q2 -8 2 -28 t8 -26l8 -24q0 -34 18 -100q15 -55 15 -86q0 -6 -1 -12q12 6 18 12t10 8t8 6l118 160l-4 20l42 40q16 16 31 30t25 30l22 16q64 100 182 124l28 4l8 -26q11 -31 86 -74l18 -12q10 -20 10 -30t-2 -18l8 -20q-16 -48 -39 -70t-43 -39t-35 -30t-23 -33l-14 -16q-42 -24 -54 -64 l-6 -24h-24q-9 0 -30 -42q-14 -20 -30 -36q-2 -8 -5 -15t-7 -17q-26 -26 -32 -39t-14 -29t-15 -31t-23 -31l-10 -30q-16 -14 -35 -50q-37 -71 -61 -92q-17 -51 -52 -86q-20 -80 -94 -174q-3 -24 -18 -49q-21 -33 -26 -43l-4 -20q-10 -16 -22 -28l-22 -22q-4 -6 -14 -16 l-30 -12q-146 20 -178 156z" />
<glyph unicode="z" horiz-adv-x="1122" d="M-16 134q-4 38 -4 70q0 55 12 97q20 67 60 143q34 11 78 50q40 35 62 38l18 10q34 40 82 71t95 59q125 74 167 114q36 -4 36 32q4 4 9 7t14 10t33 21t32 36l44 42l-60 -2q-95 -4 -154.5 -11t-91.5 -8t-70 -3q-62 40 -89 119q-14 42 -14 83q0 36 11 72q14 2 24 7t24 8 t20 1t16 -2q90 16 166 16t124 -16q70 0 142 6q20 2 40 2q53 0 108 -12q41 14 78 14q71 0 122 -52q3 -58 56 -76q8 -29 8 -57q0 -106 -119 -184q-41 -27 -81 -51q-12 -18 -29 -29t-31 -27q-66 -84 -151 -147t-162 -113q-183 -119 -261 -186l-20 -18l18 -20q24 -24 49 -24 q32 0 61.5 10t41.5 15t22 5h26q27 17 64 26q41 10 60 22q62 0 124 25q97 39 132 45q9 -12 37.5 -29t30.5 -31l6 -56l38 38q24 -20 26 -45v-11q0 -22 -6 -54q-64 -64 -160 -100t-161 -56t-88 -26t-45 -14l2 34l-44 -28q-12 -9 -22 -24q-52 -14 -86 -20t-66 -13 q-78 -17 -107 -17h-41q-12 0 -23 3t-23 7l-24 44l-32 -24q-19 11 -40 32q-53 38 -56 66l-2 20l-20 4q-10 28 -16 41t-20 21z" />
<glyph unicode="{" horiz-adv-x="918" d="M42 818q-12 46 16 102t86 68q18 -10 28 -8t26 -10q85 85 140 70q3 12 13 16q19 8 19 22q67 18 116 46q16 60 31 116t29 113q30 124 52 257q5 91 -26 116q16 4 24 26t0 32q32 10 69 13t73 6q91 8 124 27q100 4 208 9t202 9q32 -10 78 -11t91 -7t81 -25t50 -67 q69 -9 62 -79q-2 -19 -2 -39q-105 -80 -508 -80q-90 0 -130 -6t-66 -9t-48 -7q-46 -220 -88 -389t-48 -177t-33 -20t-67 -31q-117 -56 -200 -103q20 -18 57 -39t73 -42q90 -53 96 -67q4 -25 -8 -67.5t-27 -90.5t-36 -115t-38 -126q-34 -118 -79 -253q136 24 452 24 q2 -20 16 -29t29 -15t27 -14t12 -28q103 -29 6 -154q-30 7 -62 -36q-62 9 -210 -10q-8 0 -7 -9t-5 -11q-88 30 -247 -4q-65 -14 -132 -31t-135 -19q-46 32 -64 83q-20 56 -38 147q-3 32 28 58q28 116 66 233t60 188t27 98t13 55q-42 28 -86 62t-84 58q2 16 -20 36t-46 22 q2 28 -13 49t-27 67z" />
<glyph unicode="|" horiz-adv-x="680" d="M26 22q-62 92 21 242q21 38 39 66l28 64t30 73q33 85 60 161q0 36 23 98t49 129t46 126t12 87q24 36 44 106t44 141t56 128t80 69q54 -58 81 -124t41 -156q-22 -60 -57 -149t-59 -151t-45 -119q-47 -129 -51 -171q-16 -38 -30 -92t-30 -109q-40 -138 -92 -193 q-4 -10 3 -19t11 -19q-36 -30 -43 -68t-9 -60t-10 -40q-20 -10 -45 -33q-44 -41 -79 -47q-40 14 -63 29t-55 31z" />
<glyph unicode="}" horiz-adv-x="986" d="M-594 -108q0 28 12 40t24 26q55 2 121 12l101 15q34 5 76 5q52 30 338 30q24 84 53 165t47 146t32 118t28 97q10 13 77 46l119 60q52 26 108 60q-20 18 -57 39t-73 42t-65 39t-31 30q-8 19 15 77.5t32 94.5t29 96t39 123q44 145 67 291q-150 15 -249 0q-175 -28 -223 -52 q-59 3 -86 48q-12 20 -21 44t-21 50q8 18 4 51t-20 49q14 4 21 27t1 33q30 10 62 13l64 6q82 8 112 27q88 4 183 10t179 10q30 -10 70 -11t79 -7t72 -24t45 -66q59 -9 55 -79q-1 -19 -1 -39q-18 -54 -29 -111t-26 -122t-31 -135t-29 -119t-23 -91t-18 -70q44 -28 88 -62 t84 -58q-2 -16 19 -35t45 -23q0 -28 15 -49t21 -47q16 -66 -12 -121t-86 -67q-18 10 -28 8t-26 10q-85 -85 -140 -70q-4 -18 -16 -18t-16 -20q-30 -8 -52 -25t-50 -33q-22 -72 -40 -129t-35 -113q-35 -114 -85 -258q-3 -38 -48 -94q-26 6 -62 -36q-62 9 -210 -10q-8 0 -7 -9 t-5 -11q-88 30 -247 -4q-65 -14 -132 -31t-135 -19q-43 30 -62 82q-24 70 -40 148z" />
<glyph unicode="~" horiz-adv-x="1190" d="M0 488q0 20 18 36q14 35 63 103.5t73 96.5q12 10 27 20t37 25t61 29q74 27 222 9q25 -3 43 -7q53 -25 86 -54q34 -19 49 -39.5t33 -38.5t43 -18t42 22t35 38q16 42 42 57t37 17t19 4t14 3t10 3l22 2h26q34 10 60 10q66 -4 66 -50q0 -22 -18 -36q-12 -32 -25 -50t-30 -42 q-56 -78 -73.5 -98t-29.5 -24q-91 -73 -191 -75q-103 -2 -179 13q-54 27 -81 46q-38 28 -53 48q-65 91 -117 33q-19 -21 -37 -37q-12 -40 -39 -56t-38 -18t-19 -4t-14 -3t-10 -3l-22 -2h-26q-34 -10 -60 -10q-66 4 -66 50z" />
<glyph unicode="&#xa1;" horiz-adv-x="534" d="M-20 258q47 137 63.5 259.5t29.5 193.5t42 155t62 109t69 25q59 0 144 -64q12 -74 -29 -323q-9 -55 -11 -93q-34 -37 -38 -59.5t-6 -46.5t-8 -57t1 -50t3 -29t-13 -16t-14 -22t-1 -33t-6 -34t-26 -54t-12 -73q-18 -14 -33 -31t-33 -32q-44 -37 -90 -37q-16 20 -23 41 t-15 39q-20 44 -54 64q0 18 5 44t9 51q10 63 -16 73zM168 1286l36 100l-2 22l8 26q15 18 36.5 28t28.5 13t11 7l6 24l26 4q34 8 58 8h24q46 -42 68 -56q20 -28 22 -41t6 -25q2 -28 10 -34l28 -28l-24 -18l22 -38q-24 -18 -36 -26t-20 -17q-23 -26 -50 -69l-18 -26l-26 16 q-8 4 -35 9t-54 12t-57 12t-48 23l-8 14q-6 32 -12 60z" />
<glyph unicode="&#xa2;" horiz-adv-x="1000" d="M22 732q28 76 79 132t103 110q24 10 37 21t26 21t27 19t24 23q52 10 88 34t74 46q18 46 33 105t36 113t48 95t69 51q86 -93 114 -240q8 0 14 -5t11 -9q12 -9 17 4q10 0 6 -9t-6 -11q16 2 26 -6t32 -10q8 -8 4 -12t-4 -14q56 -16 70 -50t2 -70t-45 -66t-98 -46t-143 -42 t-130 -78q-74 -20 -124 -60t-77 -67t-57 -51q2 -24 -8 -37t-20 -27q4 -28 14 -46t20 -38q124 -34 262 -42t276 -10q14 -18 31 -32t32 -31q35 -40 29 -85q-28 -24 -59 -45t-61 -43q-30 -4 -75 0t-81 -12l-56 4t-56 6q-4 -20 -4 -22q-34 -28 -41 -67t-9 -61t-10 -40 q-20 -10 -45 -33q-44 -41 -79 -47q-40 14 -63 29t-55 31q-63 95 32 262h20q-12 2 -26 13t-33 28t-49 23q-153 111 -142 394z" />
<glyph unicode="&#xa3;" horiz-adv-x="1202" d="M-20 358l14 20q10 4 24 18l16 16q48 4 81 4t85 -4q22 113 38 170q-26 3 -62 -12q-75 4 -107 82q-9 22 -21 44q8 16 4 45t-20 45q14 2 21 22t1 30q40 11 99 14q102 7 137 26h20q46 137 106 262q50 58 98 100t106 60q30 6 52 10t39 9t26 6t19 5q60 -12 106 -12l26 -6 l30 -12q25 -10 74 -14q30 10 54 10q100 0 144 -152q-6 -63 -24 -110q-42 -28 -79 -28q-67 0 -171 52q-4 2 -10 2h-20q-12 0 -32 -4q-28 10 -42 10t-27 -4l-26 -8q-17 -5 -41 -10l-16 -16q-27 -10 -36.5 -26t-15.5 -28t-15 -24q-21 -28 -33 -40q14 -18 27 -18t25 2 q30 -10 71 -11t80 -6q95 -12 115 -81q61 -5 57 -69q-1 -17 -1 -35q-83 -58 -336 -66q-66 -2 -124 -4q-21 -100 -36 -202q143 0 189.5 10t90.5 18l28 6q80 40 124 40t80 -40q36 -20 42 -66q10 -12 8 -26q8 -32 8 -78l-2 -28l-24 2q-17 -17 -20 -28l-20 -18q-66 -8 -125 -20 t-86 -16t-51 -7q-40 -5 -81 -5h-52q-11 0 -23 2q-6 -12 -24 -11t-24 7q-90 -16 -186 -16h-70q-12 2 -22 2t-34 4q-60 10 -92 10l-30 -2l-6 20l-16 20q-4 10 -12 18l-18 18q-20 18 -38 45t-14 77z" />
<glyph unicode="&#xa4;" horiz-adv-x="1044" d="M28 254q4 67 50 134l-8 24q-17 111 36 226q28 60 114 164q-8 16 -17 13t-13 3q4 22 -9 48t-31 42q21 63 8 102q0 14 5 26l10 24q12 29 7 42q27 3 55.5 -8.5t41.5 -15.5t27 2q-4 -16 5 -17t9 -11q39 -11 100 -76q33 30 46 48l32 22l20 2q19 26 44 42l36 2q30 -10 45 -14 t29 -20l10 -22q28 -17 38 -38l16 -12q110 80 176 104q44 -19 70 -73q10 -21 19 -42t25 -39q-14 -28 -30 -47t-22 -47q-57 -20 -168 -102l40 -72l4 -22q0 -10 4 -22t12 -31t14 -55t-10 -86q-16 -49 -59 -84q-5 -4 -9 -8q12 -42 28 -78t14 -74q-12 -38 -34 -62t-32 -52 q-43 -11 -56 -24l-94 68q-18 58 -48 116q-36 -12 -72 -12q-65 -20 -100.5 -20t-65.5 6l-32 -2q-24 0 -48 6q-10 -12 -19 -25t-19 -25q-4 -70 -26 -96t-82 -48q-54 40 -79 99t-7 117zM350 516q12 -6 32 -6l88 10q8 8 25 9q25 1 79 31q20 14 20 16v26q-13 19 -50 92 q-16 -8 -24 -8t-20 4q-64 -49 -84 -74q-21 -21 -33.5 -40.5t-20.5 -31.5t-12 -28z" />
<glyph unicode="&#xa5;" horiz-adv-x="1154" d="M20 602q16 4 24 24t0 30q42 10 110 14q118 7 156 26h24q-26 62 -38 108q-2 24 -6 42t-9 39q-15 64 -13 89q-10 12 -12 28l2 20q10 18 -1 61t-15 67t-2 48q4 54 50 82l32 2q54 -30 92 -49t60 -33l18 -12q-2 -22 4 -34l20 -28v-22q0 -24 8 -32l10 -24q0 -50 12 -86 q23 -69 20 -112q12 8 18 13t18 13l116 160l-2 20l42 40q16 16 31 30t25 30l22 16q64 100 182 124l28 6l8 -28q11 -31 86 -74l18 -12q10 -20 10 -30t-2 -18l8 -20q-18 -48 -40 -70t-42 -39t-35 -30t-25 -33l-14 -16q-40 -24 -52 -64l-6 -24h-26q-7 0 -28 -42q-14 -20 -30 -36 q-4 -8 -6 -15t-6 -17q-18 -20 -30 -36q81 -5 109 -16q59 -21 77 -72q67 -4 63 -71q-1 -17 -1 -35q-102 -68 -404 -68q-24 -58 -56 -90q-20 -80 -94 -174q-3 -24 -21.5 -53t-22.5 -39l-6 -20q-13 -21 -30 -38l-28 -28l-28 -12q-146 20 -178 156l2 20q4 10 7 21q26 96 59 129 q9 28 50 106q-116 -18 -148 -32q-84 4 -120 84q-10 22 -24 46q8 16 3 46t-23 44z" />
<glyph unicode="&#xa6;" horiz-adv-x="618" d="M-30 100q0 42 12 84q17 61 72 146q57 156 106 236q20 28 34 36q52 11 118 -29q59 -36 74 -71q12 -48 -70 -222q-2 -10 -11 -35t-7 -35q-34 -28 -41 -67t-9 -61t-10 -40q-18 -8 -31 -20t-27 -24q-35 -30 -68 -36q-40 14 -62 29t-56 31q-24 36 -24 78zM292 816 q-76 95 24 270l-2 4q24 36 42 102t40 133t53 121t79 66q54 -58 80 -124t42 -156q-16 -46 -51 -131t-75 -189q-2 -16 -3 -31t-5 -29q-16 -8 -27 -20t-23 -24q-31 -31 -60 -40q-38 10 -60 22t-54 26z" />
<glyph unicode="&#xa7;" horiz-adv-x="1292" d="M20 10q14 10 14 15t22 17q5 11 0 16q-10 10 -8 20q36 16 65 41t69 37q24 -14 59 -17t55 -19q26 4 39 2t41 -2q162 18 242 42q80 -5 102 30q-76 58 -173 95t-189 81q-80 69 -126 84q-12 30 -37 54t-49 47q-59 57 -50 117q-4 14 -16 19t-8 23q22 96 82 173t152 111 q-128 84 -136 242q10 46 20 86t4 82q22 10 35 26t29 30q216 70 417 114t409 36q48 -42 90 -48q10 -22 25 -39l30 -34q37 -42 43 -85q-8 -4 -10 -7t-5 -6q-11 -11 -21 -17q-6 -12 -1 -17q11 -11 9 -19q-36 -16 -65 -42t-69 -36q-24 14 -60 17t-56 19q-24 -6 -37 -3t-41 3 q-72 -10 -127 -17t-115 -25q-34 0 -61 -4t-41 -26q58 -49 139 -82.5t129 -52.5t94 -41q80 -69 126 -84q12 -32 37 -55t49 -46q59 -57 50 -117q4 -14 15 -20t9 -22q-22 -96 -83 -173t-151 -111q129 -89 136 -242q-10 -46 -20 -86t-6 -84q-20 -8 -33 -24t-29 -30 q-218 -70 -418 -115t-408 -35q-44 39 -90 48q-10 22 -25 39l-30 34q-40 46 -43 83zM392 706q4 -22 21 -32t37 -18t39 -16t29 -24q64 3 148 28l24 -12q50 24 106 40t104 40q-6 31 -59 49q-21 7 -40 15t-29 26q-57 -3 -148 -30q-16 10 -22 12q-50 -22 -106 -38t-104 -40z" />
<glyph unicode="&#xa8;" horiz-adv-x="1546" d="M456 1284q0 38 12 64t10 36l-8 36l30 2v42q28 2 42 2t26 3q14 4 76 29l28 12l12 -26q4 -8 23 -26t37 -37t40 -39t26 -44q-8 -34 -24 -70q-58 -49 -69 -54.5t-12 -6.5t-2 -4t-7 -15l-20 -14q-20 -7 -58 -2l-28 2l-16 -16l-24 10q-22 10 -31 13t-19 11l-18 12 q-16 60 -26 80zM998 1246l8 26q4 10 3 36t1 51t0 53t10 50q42 22 66 30q20 -2 38 -4t34 -4t20 -3t6 -1t20 6l24 -4q14 -6 23 -17t19 -21q8 -16 16 -20l24 -2l8 -24q10 -20 13 -29l7 -21l2 -22q-32 -54 -36 -74q-23 -23 -50.5 -33.5t-35.5 -18.5l-20 -30l-20 18l-30 -28 q-22 18 -32 27t-19 15q-13 9 -71 34z" />
<glyph unicode="&#xa9;" horiz-adv-x="1258" d="M42 658q-10 209 98 400h20q-2 4 -9 4t-9 6q9 23 30 47q39 41 42 75q61 43 132 140q32 6 56 30l46 46q18 2 40 10t45 14q53 14 91 0q30 56 130 56q102 0 162 -68q78 -34 132 -83t112 -111q24 -52 42 -112t38 -112q13 -109 0 -284q0 -22 -20 -20q-10 -70 -47 -121t-81 -99 l-164 -152q-46 -20 -89 -43t-89 -41q-106 -42 -210 -14q-10 -2 -16 -4t-31 3q-35 7 -83 23t-55 24t-17 14q-80 28 -129 74t-84 97q-70 102 -83 201zM237 725q19 -23 9 -23q10 -32 14 -67t14 -73q24 -90 90 -156q204 -64 248 -36q89 26 111.5 42t47.5 26t52 22q68 30 65 70 l128 138q82 164 34 352q-18 70 -58 158q14 0 -1 15t-19 20t8 -1q-36 31 -46 53.5t-20 40.5q-75 40 -108 22l-190 -68q-34 -12 -62 -25t-40 -37q-12 4 -13 -1t-17 -1q-166 -186 -240 -402q4 -16 -6 -29t2 -29q-12 0 -3 -11zM368 880q28 52 64 87t65 61t49 35t36 25 q46 8 80 34t80 34q22 20 51 26t47 28q4 -10 14 -8t18 3t11 -2t5 -7t4 -4t6 6q8 -14 12 -20t16 -8l-2 -18q56 -26 26 -86q-27 -54 -82.5 -66t-103.5 -26t-84 -48q-54 -12 -93 -45t-79 -65q-4 -16 -11 -24t-15 -18q-2 -18 2 -32l8 -28q66 -30 145 -42t159 -20q6 -12 14 -23 t14 -23q15 -30 6 -60q-23 -19 -82 -56q-16 0 -42 5t-48 -5q-116 16 -216 68q-8 12 -17 25t-25 19q-75 82 -32 278z" />
<glyph unicode="&#xaa;" horiz-adv-x="930" d="M2 546l2 44l4 30q41 100 87.5 188t55.5 106l19 38q0 14 12 35q20 35 35 64q38 73 61 101l44 24q16 4 32 4l22 -2q58 53 92 106l14 18l54 12l18 -12q4 -2 15 -4t30 -7q67 -18 91 -39l16 -26l10 -50q8 -42 12 -92q12 -44 20 -88q7 -39 20 -82l30 2l42 -24q30 -12 50 -32 l40 -60l-12 -20q-28 -50 -88 -84q12 -79 8 -108q-28 -72 -81 -118t-125 -50q-34 7 -60 24l-24 12l-22 46q-6 14 -11 18t-9 10l-24 26l18 54q-50 -10 -73 -10q-35 0 -59 4l-48 30l-18 -16l-12 -36q-14 -37 -14 -52l-8 -32q-14 -19 -28 -26.5t-24 -13.5l-30 -24q-36 -8 -58 -8 l-42 10q-22 18 -36 28l-22 20q-8 18 -10 28t-4 18zM428 840q22 2 42 3t42 5q-8 40 -20 80q-36 -44 -64 -88z" />
<glyph unicode="&#xab;" horiz-adv-x="1160" d="M-20 403q-8 41 10 89t58 58q10 -8 17 -7t17 -9q54 78 92 62q4 16 12 16t10 18q62 22 152 109q36 35 70 70t66 63q14 -8 25 0t25 8q-6 -12 1 -12q16 0 22.5 -12t12.5 -19t9 -12t7 -11l12 -18q-8 -38 -5 -52q6 -29 3 -58q-90 -117 -175 -182q-39 -30 -81 -58t-96 -70 q22 -28 58 -49t72 -48q88 -66 104 -173q14 0 25 -30t7 -70q-10 -14 -18 -29t-20 -20t-29 3t-38 22t-42 29t-42 25t-43 19t-37 20t-20 23t-19 17t-33 22t-40 36t-41 39t-38 36q0 14 -13 31t-29 21q0 24 -10 43t-18 60zM481 403q-7 41 11 89t56 58q12 -8 19 -7t17 -9 q54 78 92 62q2 16 10 16t12 18q62 22 152 109q36 35 70 70t66 63q12 -8 24 0t26 8q-6 -12 1 -12q16 0 22.5 -12t12.5 -19t9 -12t7 -11t10 -18q-4 -20 -4 -33l4 -77q-90 -117 -175 -182q-39 -30 -81 -58t-98 -70q24 -28 59 -49t71 -48q90 -68 106 -173q12 0 24 -30t8 -70 q-10 -14 -19 -29t-20 -20t-28 3t-38 22t-42 29t-42 25t-43 19t-37 20t-20 23t-19 17t-34 22t-41 36t-41 39t-38 36q2 14 -12 31t-30 21q0 24 -10 43t-17 60z" />
<glyph unicode="&#xac;" horiz-adv-x="1430" d="M0 588q18 2 28 23t0 31q52 10 133 14q139 7 187 26q180 3 488 14q38 -10 92 -11t106 -6q125 -12 158 -75q4 -4 9 -5t9 -5q52 -6 62 -50q18 -27 12 -60q-11 -59 -70 -184q-2 -10 -11 -35t-7 -35q-34 -28 -41 -67t-9 -60t-10 -39q-18 -8 -31 -20t-27 -24q-38 -33 -68 -38 q-38 16 -61 30t-57 30q-24 36 -24 78t12 84q17 61 72 146q25 61 30 78q-110 -6 -225 -8q-296 -5 -414.5 -23.5t-146.5 -28.5q-104 5 -146 82q-12 22 -28 46q10 16 5 46t-27 46z" />
<glyph unicode="&#xad;" horiz-adv-x="1246" d="M40 588q16 2 23 23t1 31q42 10 110 14q117 7 156 26q159 3 408 14q34 -10 80 -11t90 -6q106 -12 130 -83q54 -7 62 -39q4 -15 3 -33t-1 -36q-103 -70 -510 -70q-150 0 -259 -20t-131 -30q-85 4 -120 82q-10 22 -24 46q8 16 4 46t-22 46z" />
<glyph unicode="&#xae;" horiz-adv-x="1278" d="M62 658q-10 209 98 400h22q-4 4 -11 4t-9 6q9 23 30 47q39 41 42 75q61 43 132 140q32 6 56 30l46 46q18 2 41 10t46 14q54 14 89 0q30 56 130 56q104 0 164 -68q76 -34 131 -83t111 -111q24 -52 42 -112t38 -112q13 -109 0 -284q2 -24 -18 -20q-10 -70 -48 -121t-82 -99 l-164 -152q-44 -20 -88 -43t-90 -41q-106 -42 -210 -14q-10 -2 -16 -4t-30 3q-40 8 -85 23.5t-53 23.5t-18 14q-80 28 -129 74t-84 97q-70 102 -83 201zM257 725q19 -23 9 -23q10 -32 15 -67t15 -73q24 -92 88 -156q205 -64 250 -36q92 29 113 44.5t48 24.5t55 25 q-127 32 -229 96q-24 15 -69 60q-33 -85 -64 -124q-16 4 -21 -3t-15 -10t-14 0l-8 6q-9 7 -24 7q-2 10 -4 19t-16 7q8 18 2 27t0 25q-6 0 -9 9t-7 17q15 57 23 74q19 47 11 70q8 -8 14 17q2 9 2 18v15q30 62 45 130t43 122q14 2 29 -3t19 -15q32 24 59 58t54 67 q66 81 139 87q22 -16 50 -35t44 -49q8 -4 14 -10t16 -12q10 -26 18 -44t13 -38q14 -55 23 -76q-4 -14 0 -21t0 -23q-18 -118 -213 -174q-49 -14 -91 -30q63 -56 94.5 -67t61.5 -18t47 -11t31 -7q26 -6 70 -9l48 52q82 164 34 352q-18 70 -58 158q14 0 -1 15t-18 20t9 -1 q-36 28 -47 52t-21 42q-75 40 -108 22l-190 -68q-32 -12 -60 -25t-42 -37q-12 4 -12 -1t-16 -1q-166 -183 -242 -402q4 -16 -5 -29t1 -29q-12 0 -3 -11zM642 884q49 5 178 60q-2 36 -21 59t-41 31q-14 -20 -32 -36t-34 -32q-40 -40 -50 -82z" />
<glyph unicode="&#xaf;" horiz-adv-x="1546" d="M536 1310q2 60 6 118q7 29 42 58q76 0 112 4q72 8 122 8q78 26 366 2q-3 -28 15.5 -39t25.5 -19t3 -26q58 -29 -4 -106q-16 -20 -30 -36q-20 6 -56 -30q-42 11 -160 4q-6 0 -8 -8t-6 -10q-60 33 -188 11q-52 -9 -106 -20t-108 -9q-28 38 -26 98z" />
<glyph unicode="&#xb0;" horiz-adv-x="582" d="M176 1152q-19 137 91 266q29 34 57 66q10 -4 16 6t16 14q6 16 20 23t22 21q16 4 26 16t26 16l27 30q9 10 19 26h16q6 0 16 2q18 25 34 36q12 -6 27 -8t25 -12q2 -22 18 -27t20 -23q21 -18 26 -34q-13 -33 -22 -38q12 -18 8 -26q24 -40 43 -82t45 -82q-4 -24 7 -46t16 -51 t-4 -51t-25 -39t-38 -32t-44 -33l-2 6q-10 -14 -22 -16t-28 -6q-66 -42 -118 -34q-71 -24 -126 -10q-74 -10 -122 29t-70 93zM412 1264q12 -10 33 -6t37 6t27 8t25 12q4 20 4 26l-30 52q-8 -8 -13 -8t-9 4q-12 -10 -23 -18t-21 -22t-20 -24t-10 -30z" />
<glyph unicode="&#xb1;" horiz-adv-x="1146" d="M-62 178q16 4 24 24t0 30q42 10 110 14q120 7 158 26q152 3 408 14q32 -10 78 -11t91 -6q107 -12 131 -83q71 -9 64 -71q-2 -17 -2 -35q-64 -42 -160 -53t-162 -14t-127 -4q-227 -4 -327 -22.5t-122 -28.5q-84 4 -120 84q-10 22 -24 46q8 16 4 45t-24 45zM82 914 q16 4 23 24t1 30q42 10 110 14q118 7 156 26q26 2 52 2t54 2q6 26 -2 43t-4 29t14 16t16 22t1 33t6 35t28 54t13 72q20 14 37 32t36 33q47 37 99 37q20 -25 36 -62.5t29 -53.5t39 -28q0 -18 -6 -44t-10 -52q-10 -65 18 -74q-16 -44 -28 -84q34 -6 78 -7t84 -8 q98 -17 120 -81q51 -7 60 -39q4 -15 3 -33t-1 -36q-78 -52 -289 -63q-59 -3 -115 -5q-24 -134 -70 -272q-51 -112 -140 -112q-63 0 -156 62q-9 61 7.5 161.5t22.5 140.5q-131 -20 -158 -34q-86 5 -122 84q-10 22 -24 46q10 16 5 46t-23 44z" />
<glyph unicode="&#xb2;" horiz-adv-x="792" d="M146 923q4 31 14 53q62 72 119 127t133 97q12 12 18 16q-36 -6 -126 -24l-50 6q-10 2 -23 4t-25 6q-40 26 -45 54t-5 42v20q0 6 -2 10l2 36q12 16 19 28t17 22l20 12q117 26 244.5 26t215.5 -60l18 -24q4 -22 34 -34l20 -14q28 -42 36 -90l-2 -22q-22 -52 -62 -88 t-66 -56t-38 -26l-22 -11q-14 -7 -25 -15t-14 -15t-10 -12q-21 -15 -27 -19q6 2 22 2q75 20 132 20q58 20 104 20l22 -2q31 -8 46 -30l22 -44q40 -29 32 -65.5t-36 -58.5t-62 -22l-28 -14q-65 -10 -147 -24q-193 -33 -259 -40q-18 2 -38 3q-60 3 -110 21q-84 58 -68 185z " />
<glyph unicode="&#xb3;" horiz-adv-x="750" d="M145 1262q-7 26 5 54l6 46q14 14 17 15t3 3l28 28q16 4 30 6t59 12q144 32 275 32h40t42 -2l20 -10q47 -37 104 -116l8 -22v-26q-9 -33 -16 -40l-24 -38q-34 -21 -74 -56q85 -67 134 -164l6 -38l2 -40q-4 -18 -10 -29t-10 -18t-6 -12t-6 -11l-20 -20q-22 -12 -34 -26 l-30 -16q-111 -60 -280 -60q-38 0 -82 4q-22 8 -26 12l-24 16q-20 22 -26 30l-2 38q4 6 4 17v23q0 81 58 104q30 2 46 -10l76 4t72 8q-10 4 -20 6t-41 11t-81 30t-72 73l-2 58v22h-30q-48 0 -80 20l-18 22q-14 34 -21 60z" />
<glyph unicode="&#xb4;" horiz-adv-x="1546" d="M594 1094q4 22 21 38t38 30t29 42q46 50 101 103t103 107q30 6 62 38l51 51q19 19 41 31q4 -12 23 -23t29 -5q2 -22 22 -43t36 -29q12 -28 24 -51t18 -45q14 -51 -12 -90q-52 -13 -220 -169q-179 -166 -292 -171l-28 28t-23 28q-21 33 -1 66q-26 42 -22 64z" />
<glyph unicode="&#xb5;" horiz-adv-x="1166" d="M-18 -162q-9 73 12.5 206.5t23.5 167.5q27 30 31.5 52t6.5 44t8 51t0 45t-3 27t11 14t11 13t3 19v17q0 23 12 45.5t18 38.5q10 105 26 146v22q6 40 11 65t9 48t7 41t9 34q36 6 58 50q26 0 35 -9t18 -27t22 -38t41 -30q4 -16 11 -31t17 -39q33 -79 36 -120 q-34 -65 -39 -141q-8 -125 15 -189l10 -24l32 4q109 28 162 62q86 54 142 117t84 116t47 110q39 116 43 221q28 12 32 44q-12 30 -4 46q10 32 50 52q42 -30 94 -82q2 -42 22 -97q35 -97 40 -137q-20 -59 -36 -168q-30 -62 -56 -112t-42 -86q-18 -18 -26 -34l-13 -26 q-5 -10 -9 -14l-34 12l-10 -46l-24 -6l-18 -22q-61 -107 -158 -172q-62 -41 -244 -118q-45 6 -80 7q-67 2 -100 7q-8 20 -30 24q-47 -201 -93 -236q-74 -56 -191 36z" />
<glyph unicode="&#xb6;" horiz-adv-x="1494" d="M134 957q-26 114 6 233q58 74 146 117t178 85q14 -2 24 -12q24 24 63 34q81 21 101 32q86 -3 167 17q151 36 235 33q34 16 78 18t86 8q22 26 52 36q4 -4 9 -8t17 -12q21 -14 86 -8q14 0 23 -8t17 -14t14 -9t14 7q14 -4 6 -12l-10 -10q22 -4 36 -15t46 -19q10 -10 4 -14 t-8 -14q78 -32 95 -69t-5 -70t-74 -57t-112 -26q-12 -50 -26 -108t-27 -114q-29 -125 -29 -180q-6 -21 -40 -144q18 -18 39 -36t37 -38q36 -45 16 -88q-45 -18 -142 -44q-12 -50 -22 -93t-18 -75q4 -10 14 -14t18 -12q-16 -42 1 -66t28 -38t17 -32q-8 -25 -10 -58 q-3 -57 -26 -86q-40 -16 -81 -16t-75 -10q-74 18 -119 112q-32 68 -43 158q-14 46 -4 72t4 40q3 27 32 138l-108 22l-14 -28q2 -10 11 -16t15 -16q-43 -64 -83 -293q-9 -51 -11 -71q-28 -24 -43 -57t-57 -55q-42 4 -81 21t-75 25q-36 28 -33 66t19 79t34 81t12 74 q-14 46 -3 72t3 40q7 42 40 160q-105 35 -204 78q-24 24 -49 47t-69 39q-111 85 -142 221zM456 982q0 -32 36 -98q80 -32 164 -60q12 64 38 148t40 152q-58 -18 -112 -41t-110 -43q-4 -26 -21 -37t-35 -21zM938 748l110 -24q4 12 10 42q-5 39 27 158q60 226 57 272 q-62 -4 -108 -14q-12 -48 -27 -104t-27 -109q-26 -115 -26 -171q-4 -12 -8 -25t-8 -25z" />
<glyph unicode="&#xb7;" horiz-adv-x="464" d="M86 712q0 32 5 44q19 46 17 54l-6 36l28 2v42q30 2 43 2t25 3q14 4 76 29l28 12l12 -26q4 -8 23 -26t37 -37t40 -39t28 -44q-16 -48 -26 -68q-64 -56 -72 -58t-9 -3t-2 -4t-7 -15l-20 -16q-14 -4 -29 -4l-43 4h-12l-18 -16l-22 12q-32 10 -52 22l-18 14q-12 54 -26 80z " />
<glyph unicode="&#xb8;" horiz-adv-x="1546" d="M548 -502q-12 34 10 68q17 3 30 14q219 -5 350 24q6 18 31 22t35 20q0 14 -14 16t-12 18q-56 0 -90 30q-50 3 -68 9q-40 15 -76 27q-12 12 -25 20t-23 15q-23 16 -26 43q2 20 2 34t2 29q5 35 14 69q10 12 29 36t44 49q62 62 115 83q36 -22 66 -37t82 -13l-104 -156 q8 -12 24 -14t22 -14q68 -9 125 -61q23 -21 45 -44t52 -39q0 -8 5 -11t1 -13q65 -65 52 -152q-34 -67 -120 -130q-34 -14 -68 -23t-62 -23l-40 4q-82 -39 -160 -14q-121 -14 -176 24q-20 14 -26 36q-34 20 -46 54z" />
<glyph unicode="&#xb9;" horiz-adv-x="422" d="M132 820q-6 62 10 110t39 104t38 115t-17 115q-4 22 -5 27t-1 18t-4 23v28q6 15 7 32q1 22 21 42l38 30l32 -6l22 -6q12 -12 18 -12l26 -20q4 -10 15 -17t25 -17l22 -20q30 -46 40 -150q0 -18 4 -38q4 -74 -13 -130t-29 -92q-16 -48 -28 -80q-29 -43 -22 -64l-8 -38 l-34 -34q-12 -12 -28 -24l-48 2q-33 -6 -38 -6l-34 16q-24 26 -38 46t-10 46z" />
<glyph unicode="&#xba;" horiz-adv-x="912" d="M24 610q-24 181 106 350q34 44 55 68l28 32q7 8 16 17t18 15t20 17l19 19q8 8 15 12t19 16l24 20q8 2 21 14t29 20l12 18q24 12 40 38l34 24q8 2 20 2l24 24q10 10 26 20l38 2q24 -8 44 -13t36 -21l10 -26q29 -18 42 -38l20 -18q14 -28 20 -46l-2 -26q-6 -16 -7 -22 t-5 -12l2 -28q14 -22 25 -46t24 -50t26 -53t29 -53l6 -26q-2 -10 3 -22t10 -26q13 -37 19 -71.5t-10 -86.5t-54 -80q-20 -23 -60 -48q-22 -10 -34 -22q-30 -16 -46 -20t-40 -14q-101 -42 -154 -42q-75 -20 -110.5 -20t-67.5 6q-10 -2 -17 -2h-17q-84 0 -151 50t-101 140z M326 722q12 -6 30 -6t32 2t30 4l36 6q8 6 26 8q32 4 61 20t41 24q6 18 5 23t-1 11q-25 40 -54 98q-16 -8 -26 -8t-22 4q-66 -50 -88 -78q-25 -25 -37.5 -45.5t-20.5 -33.5t-12 -29z" />
<glyph unicode="&#xbb;" horiz-adv-x="1220" d="M-40 38q4 20 4 33l-4 77q90 117 175 182q39 30 81 58t98 72q-24 26 -59 48t-71 49q-90 67 -106 171q-12 0 -24 31t-8 71q10 12 19 27t20 21t28 -3t38 -22t42 -29t42 -26t43 -18t37 -20t20 -24t19 -17t34 -21t41 -36t41 -41t38 -35q-2 -14 12 -31t30 -19q0 -26 10 -45 t17 -59t-11 -89t-56 -59q-12 8 -19 7t-17 9q-54 -78 -92 -62q0 -11 -7 -14q-12 -7 -15 -20q-80 -28 -222 -178q-34 -36 -66 -62q-12 8 -24 -1t-26 -9q3 12 -2 12q-15 0 -18 10q-10 14 -19 26q-15 20 -23 36zM480 38q8 38 5 53q-6 31 -3 57q90 117 175 182q39 30 81 58t96 72 q-22 26 -58 48t-72 49q-88 66 -104 171q-14 0 -25 31t-7 71q10 12 18 27t19 21t28 -3t38 -22t43 -29q37 -27 71.5 -39.5t49.5 -24.5t21 -24t19 -17t33 -21t41 -36t41 -41t38 -35q-2 -14 12 -31t30 -19q0 -26 10 -45t17 -59t-11 -89t-56 -59q-12 8 -18 7t-16 9 q-54 -78 -92 -62q-3 -11 -9 -15q-13 -6 -13 -19q-88 -31 -223 -178q-33 -36 -65 -62q-14 8 -26 -1t-24 -9q3 12 -2 12q-15 0 -18 10q-12 14 -17 22t-9 12t-7 10t-11 18z" />
<glyph unicode="&#xbc;" horiz-adv-x="1444" d="M74 239q10 43 20 77q22 14 2 20q8 30 28 49t20 35q21 34 107 128q171 189 199 224q12 34 56 86t93 108t88 106t41 80q36 28 79 88t91 121t99 105t101 38q30 -74 31 -147t-17 -165q-28 -34 -89 -103t-127 -146q-166 -194 -192 -249q-99 -99 -354 -422q-2 -10 5 -18t11 -18 q-31 -34 -27.5 -64t7.5 -47t0 -37q-14 -14 -23 -30t-19 -32q-22 -36 -56 -56q-42 4 -68 11t-62 13q-85 70 -44 245zM114 820q-4 62 12 110t39 104t37 115t-18 115q-4 30 -5 44t-5 24l2 28l6 20q0 34 20 54l38 30l32 -6l22 -6q12 -12 18 -12l26 -20q8 -14 40 -34l22 -20 q30 -46 40 -150q0 -18 4 -38q4 -74 -13 -130t-29 -92q-24 -72 -36 -96q-22 -22 -14 -48l-8 -38q-33 -36 -62 -58l-48 2q-33 -6 -38 -6l-34 16q-24 26 -38 46t-10 46zM708 562q-4 42 8 78q33 50 68 74l32 4q28 -8 54 -40l36 -40q6 -18 17 -39q26 -50 29 -91q14 0 20 2h46 l12 82l4 38q4 10 7 23l14 65q19 77 81 96l38 -8q74 -58 98 -152v-22q-11 -30 -16 -82l30 2l40 -26l2 -2q5 -21 16 -28l18 -44q-2 -8 -2 -20q0 -35 -8 -56l-14 -18q-29 -27 -86.5 -43.5t-75.5 -24.5q-4 -10 -8 -18t-11 -23q-14 -29 -31 -77l8 -38q28 -4 36 -36l-4 -32 q-4 -26 -8 -43t-20 -35l-20 -12q-16 -6 -31 -7q-40 -3 -57 -7h-20q-68 17 -98 89q-12 29 -14 73q-8 30 2 56q6 42 18 82q-28 4 -62 4q-42 12 -60 29t-28 29t-22 24l-14 28q0 26 -10 85t-14 101z" />
<glyph unicode="&#xbd;" horiz-adv-x="1536" d="M74 239q10 43 20 77q22 14 2 20q8 30 28 49t20 35q21 34 107 128q171 189 199 224q12 34 56 86t93 108t88 106t41 80q36 28 79 88t91 121t99 105t101 38q30 -74 31 -147t-17 -165q-28 -34 -89 -103t-127 -146q-166 -194 -192 -249q-99 -99 -354 -422q-2 -10 5 -18t11 -18 q-31 -34 -27.5 -64t7.5 -47t0 -37q-14 -14 -23 -30t-19 -32q-22 -36 -56 -56q-42 4 -68 11t-62 13q-85 70 -44 245zM114 820q-4 62 12 110t39 104t37 115t-18 115q-4 30 -5 44t-5 24l2 28l6 20q0 34 20 54l38 30l32 -6l22 -6q12 -12 18 -12l26 -20q8 -14 40 -34l22 -20 q30 -46 40 -150q0 -18 4 -38q4 -74 -13 -130t-29 -92q-24 -72 -36 -96q-22 -22 -14 -48l-8 -38q-33 -36 -62 -58l-48 2q-33 -6 -38 -6l-34 16q-24 26 -38 46t-10 46zM735 203q5 31 13 53q58 72 112 127t124 99l16 16q-44 -8 -116 -26l-20 2q-4 2 -12 3t-17 3t-21 3t-24 5 q-36 26 -41 55t-5 51v20l2 36q10 18 16 29t16 21l18 12q97 26 222.5 26t207.5 -58l16 -26q5 -23 34 -32l18 -16q24 -42 34 -90l-2 -20q-22 -52 -59 -89q-76 -76 -119 -93q-8 -6 -16 -11t-14 -9q-2 -4 -5 -11q-6 -15 -35 -29h22q77 22 122 22q58 18 85 18t41 -4q19 -5 34 -28 l22 -44q38 -30 30 -65t-35 -58t-57 -23l-26 -14q-115 -17 -164 -28q-104 -22 -216 -34q-103 10 -138 22q-82 64 -63 185z" />
<glyph unicode="&#xbe;" horiz-adv-x="1676" d="M144 828l6 38q4 6 7 16t8 28t20 50t61 44q32 0 42 -14q38 -2 77 -2t73 4q-10 4 -19 7t-37 13t-73 35t-55 79q4 37 18 80q-34 4 -46 6q-34 6 -60 22l-12 24q-6 34 -6 61t18 53l16 46q22 12 26 16l34 24q16 2 30 4t60 8q159 21 229 15q103 -7 131 -13l20 -10 q42 -50 74 -124l2 -24l-6 -26q-10 -20 -15 -26t-9 -12l-32 -36q-29 -11 -88 -48q60 -64 94 -174q-2 -32 -4 -38l-6 -40q-14 -32 -26 -42t-15 -15t-7 -11l-26 -18q-26 -10 -40 -24l-32 -12q-122 -56 -331 -34q-35 4 -57 12l-26 24q-16 25 -18 34zM224 -6q-83 83 30 322 q24 14 6 20q12 30 36 49t26 35q31 37 184.5 179.5t181.5 172.5q18 34 70 86t110 108t106 106t56 80q40 28 90 85t102 114t103 99t97 36q56 -112 36 -274q-30 -44 -178 -177t-202 -184q-126 -119 -150 -157q-36 -31 -154 -148q-152 -150 -270 -274q-4 -10 2 -18t8 -18 q-39 -36 -40.5 -65t-0.5 -46t-5 -37q-16 -14 -28 -30l-24 -32q-25 -34 -66 -56q-40 4 -66 11t-60 13zM934 473q-13 105 14 167q42 52 76 74l32 4q29 -8 48 -40l34 -40q2 -20 11 -40q21 -47 21 -90l44 2h22q4 25 13 49.5t7 32.5l8 38q12 20 21 53t29 74t72 57l38 -8 q66 -58 82 -152l-4 -22q-18 -46 -24 -82l28 2l40 -26v-2q6 -22 14 -28l14 -44q-4 -6 -4 -11t-2 -13t-4 -22t-10 -30l-14 -18q-33 -26 -90.5 -43t-81.5 -25q-4 -10 -10 -18t-13 -23t-18 -35t-21 -42l2 -38q24 -3 32 -36l-6 -32q-8 -26 -14 -43t-24 -35l-20 -12q-16 -6 -31 -7 q-42 -3 -59 -7q-59 7 -78 33q-39 53 -36 129q-7 36 34 138q-24 4 -60 4q-40 12 -57 29t-25 29t-20 24l-8 28q4 49 -2 97z" />
<glyph unicode="&#xbf;" horiz-adv-x="1140" d="M-122 120q10 50 6 95t-6 97q28 152 124 242t222 124q0 20 12 30q40 6 60 20t37 30q46 43 111 54q10 22 27 28t34 9t33 10t24 33l114 106q48 -12 83 -11t59 -3t37 -24t19 -76q-2 -20 -15 -27t-17 -23q0 -65 -47 -100q-19 -14 -41 -31t-38 -53q-54 -24 -142 -106 q-50 -28 -85 -47t-65 -39q-48 -32 -132 -104q10 -26 37 -29t61 1q74 -23 242 -32q28 2 41 5t39 -1q22 20 59 27t65 23q40 -10 64 -38t58 -44q2 -16 -7 -19t-5 -23q20 -10 19 -17t13 -15q-12 -48 -43 -84t-49 -56t-32 -46q-34 -8 -56 -25t-44 -37q-284 -32 -615 57 q-101 27 -207 61q-14 16 -24 33t-30 25zM690 1398l28 8q10 2 33 18t46 29t48 32t51 19q30 -16 42 -24l24 -16q10 -18 18 -36t16 -34q6 -13 10 -20.5t7 -9.5t13 -10l10 -24q4 -16 -1 -31t-11 -30t-6 -27l12 -20l-16 -22q-17 -31 -34 -48l-18 -16q-54 0 -88 -8q-34 6 -44 13 t-26 19t-26 12h-40l4 30l-42 10l10 70q0 21 -14 84z" />
<glyph unicode="&#xc0;" horiz-adv-x="1438" d="M-52 190l26 20l2 42q86 211 178 394.5t110 223.5q-2 8 -2 17t4 21q40 57 68 117q59 128 102 179l14 20l22 -2q20 10 40 10l36 -6q66 30 117 87t103 137l24 34l32 -20q10 -6 32 -12l55 -15q107 -29 135 -57l10 -18q4 -22 7 -40t9 -48q17 -85 20 -162q18 -72 32 -146 q31 -163 58 -228q20 0 24 -2q24 10 56 12l26 2l8 -24q8 -12 24 -24q41 -3 72 -34q12 -12 20 -16l36 -14l-20 -38q-48 -92 -168 -148q4 -14 5 -26t7 -40q19 -90 10 -160q-62 -161 -194 -221q-46 -21 -96 -23q-36 8 -58 25t-32 21l-26 12l8 30q6 16 -1 28t-22 25t-21 20 t-14 15l-40 46l66 18q60 16 80 41t16 89q-50 10 -82 3t-71 -17q-109 -28 -161 -28t-90 6l-22 2l-6 22q0 4 -12 17t-26 33t-6 50q-14 22 -16 46q-11 -23 -22 -60l-8 -26l-26 -4q-13 -13 -8 -24l8 -22l-20 -18q-4 -6 -10 -10t-10 -8q-6 -31 -21 -73q-33 -90 -33 -131l-8 -26 q-13 -20 -43.5 -33t-38.5 -21l-6 -26l-30 -4q-43 -10 -62 -10l-26 2q-46 46 -74 60q-19 25 -21 42q-9 53 -19 66zM532 626q14 2 27 2t55 3q135 10 232 29q-34 157 -76 306l-10 -20q-111 -120 -172 -234q-13 -13 -56 -86zM612 1882q-36 54 6 135q12 23 24 51q16 8 36 29 t22 43q10 -6 29 5t23 23q22 -12 41 -31l37 -37q47 -47 76 -52q48 -54 103 -107t101 -103q8 -28 29 -42t38 -30t21 -38t-22 -64q20 -33 5 -56.5t-29 -37.5l-28 -28q-113 5 -292 171q-168 156 -220 169z" />
<glyph unicode="&#xc1;" horiz-adv-x="1438" d="M-52 190l26 20l2 42q86 211 178 394.5t110 223.5q-2 8 -2 17t4 21q40 57 68 117q59 128 102 179l14 20l22 -2q20 10 40 10l36 -6q66 30 117 87t103 137l24 34l32 -20q10 -6 32 -12l55 -15q107 -29 135 -57l10 -18q4 -22 7 -40t9 -48q17 -85 20 -162q18 -72 32 -146 q31 -163 58 -228q20 0 24 -2q24 10 56 12l26 2l8 -24q8 -12 24 -24q41 -3 72 -34q12 -12 20 -16l36 -14l-20 -38q-48 -92 -168 -148q4 -14 5 -26t7 -40q19 -90 10 -160q-62 -161 -194 -221q-46 -21 -96 -23q-36 8 -58 25t-32 21l-26 12l8 30q6 16 -1 28t-22 25t-21 20 t-14 15l-40 46l66 18q60 16 80 41t16 89q-50 10 -82 3t-71 -17q-109 -28 -161 -28t-90 6l-22 2l-6 22q0 4 -12 17t-26 33t-6 50q-14 22 -16 46q-11 -23 -22 -60l-8 -26l-26 -4q-13 -13 -8 -24l8 -22l-20 -18q-4 -6 -10 -10t-10 -8q-6 -31 -21 -73q-33 -90 -33 -131l-8 -26 q-13 -20 -43.5 -33t-38.5 -21l-6 -26l-30 -4q-43 -10 -62 -10l-26 2q-46 46 -74 60q-19 25 -21 42q-9 53 -19 66zM532 626q14 2 27 2t55 3q135 10 232 29q-34 157 -76 306l-10 -20q-111 -120 -172 -234q-13 -13 -56 -86zM614 1770q4 22 21 38t38 30t29 42q46 50 101 103 t103 107q30 6 62 38l51 51q19 19 41 31q4 -12 23 -23t29 -5q2 -22 22 -43t36 -29q12 -28 24 -51t18 -45q14 -51 -12 -90q-52 -13 -220 -169q-179 -166 -292 -171l-28 28t-23 28q-21 33 -1 66q-26 42 -22 64z" />
<glyph unicode="&#xc2;" horiz-adv-x="1438" d="M-52 190l26 20l2 42q86 211 178 394.5t110 223.5q-2 8 -2 17t4 21q40 57 68 117q59 128 102 179l14 20l22 -2q20 10 40 10l36 -6q66 30 117 87t103 137l24 34l32 -20q10 -6 32 -12l55 -15q107 -29 135 -57l10 -18q4 -22 7 -40t9 -48q17 -85 20 -162q18 -72 32 -146 q31 -163 58 -228q20 0 24 -2q24 10 56 12l26 2l8 -24q8 -12 24 -24q41 -3 72 -34q12 -12 20 -16l36 -14l-20 -38q-48 -92 -168 -148q4 -14 5 -26t7 -40q19 -90 10 -160q-62 -161 -194 -221q-46 -21 -96 -23q-36 8 -58 25t-32 21l-26 12l8 30q6 16 -1 28t-22 25t-21 20 t-14 15l-40 46l66 18q60 16 80 41t16 89q-50 10 -82 3t-71 -17q-109 -28 -161 -28t-90 6l-22 2l-6 22q0 4 -12 17t-26 33t-6 50q-14 22 -16 46q-11 -23 -22 -60l-8 -26l-26 -4q-13 -13 -8 -24l8 -22l-20 -18q-4 -6 -10 -10t-10 -8q-6 -31 -21 -73q-33 -90 -33 -131l-8 -26 q-13 -20 -43.5 -33t-38.5 -21l-6 -26l-30 -4q-43 -10 -62 -10l-26 2q-46 46 -74 60q-19 25 -21 42q-9 53 -19 66zM484 1707q-12 37 10 77q44 11 172 143q119 122 214 149q20 4 28 4q106 -37 218 -153q128 -132 172 -143q22 -40 13 -68t-19 -48t-20 -44q-42 -28 -46 -64 q-8 6 -23 -4t-19 -20q-18 10 -33 27t-30 33q-35 38 -61 44q-40 46 -83 93t-81 89q-38 -42 -81 -89t-83 -93q-26 -6 -51 -33t-40 -44t-33 -27q-4 10 -19 20t-23 4q-4 36 -46 64q-10 24 -20 44t-16 39zM532 626q14 2 27 2t55 3q135 10 232 29q-34 157 -76 306l-10 -20 q-111 -120 -172 -234q-13 -13 -56 -86z" />
<glyph unicode="&#xc3;" horiz-adv-x="1438" d="M-52 190l26 20l2 42q86 211 178 394.5t110 223.5q-2 8 -2 17t4 21q40 57 68 117q59 128 102 179l14 20l22 -2q20 10 40 10l36 -6q66 30 117 87t103 137l24 34l32 -20q10 -6 32 -12l55 -15q107 -29 135 -57l10 -18q4 -22 7 -40t9 -48q17 -85 20 -162q18 -72 32 -146 q31 -163 58 -228q20 0 24 -2q24 10 56 12l26 2l8 -24q8 -12 24 -24q41 -3 72 -34q12 -12 20 -16l36 -14l-20 -38q-48 -92 -168 -148q4 -14 5 -26t7 -40q19 -90 10 -160q-62 -161 -194 -221q-46 -21 -96 -23q-36 8 -58 25t-32 21l-26 12l8 30q6 16 -1 28t-22 25t-21 20 t-14 15l-40 46l66 18q60 16 80 41t16 89q-50 10 -82 3t-71 -17q-109 -28 -161 -28t-90 6l-22 2l-6 22q0 4 -12 17t-26 33t-6 50q-14 22 -16 46q-11 -23 -22 -60l-8 -26l-26 -4q-13 -13 -8 -24l8 -22l-20 -18q-4 -6 -10 -10t-10 -8q-6 -31 -21 -73q-33 -90 -33 -131l-8 -26 q-13 -20 -43.5 -33t-38.5 -21l-6 -26l-30 -4q-43 -10 -62 -10l-26 2q-46 46 -74 60q-19 25 -21 42q-9 53 -19 66zM502 1660q7 40 43.5 96t53.5 82t39 54q14 12 22 16q36 32 76 49q54 23 138 23h28q46 -4 84 -10q37 -20 67 -42q39 -28 64 -63t39 -34t22 10t15 18t19 21 q12 38 48 62q29 15 86 26h20q24 8 50 8h6q72 -4 72 -62q-4 -24 -16 -48q-14 -28 -39 -66t-42 -64t-39 -54q-14 -12 -22 -16q-36 -32 -76 -49q-54 -23 -138 -23h-28q-22 2 -45 4t-39 6q-37 20 -67 42q-39 28 -56 52q-32 46 -45.5 45t-22.5 -11t-16 -17t-11 -12t-8 -9 q-12 -38 -48 -62q-18 -10 -28 -12t-18 -6l-40 -8l-20 2q-72 -24 -109 9q-19 17 -19 43zM532 626q14 2 27 2t55 3q135 10 232 29q-34 157 -76 306l-10 -20q-111 -120 -172 -234q-13 -13 -56 -86z" />
<glyph unicode="&#xc4;" horiz-adv-x="1438" d="M-52 190l26 20l2 42q86 211 178 394.5t110 223.5q-2 8 -2 17t4 21q40 57 68 117q59 128 102 179l14 20l22 -2q20 10 40 10l36 -6q66 30 117 87t103 137l24 34l32 -20q10 -6 32 -12l55 -15q107 -29 135 -57l10 -18q4 -22 7 -40t9 -48q17 -85 20 -162q18 -72 32 -146 q31 -163 58 -228q20 0 24 -2q24 10 56 12l26 2l8 -24q8 -12 24 -24q41 -3 72 -34q12 -12 20 -16l36 -14l-20 -38q-48 -92 -168 -148q4 -14 5 -26t7 -40q19 -90 10 -160q-62 -161 -194 -221q-46 -21 -96 -23q-36 8 -58 25t-32 21l-26 12l8 30q6 16 -1 28t-22 25t-21 20 t-14 15l-40 46l66 18q60 16 80 41t16 89q-50 10 -82 3t-71 -17q-109 -28 -161 -28t-90 6l-22 2l-6 22q0 4 -12 17t-26 33t-6 50q-14 22 -16 46q-11 -23 -22 -60l-8 -26l-26 -4q-13 -13 -8 -24l8 -22l-20 -18q-4 -6 -10 -10t-10 -8q-6 -31 -21 -73q-33 -90 -33 -131l-8 -26 q-13 -20 -43.5 -33t-38.5 -21l-6 -26l-30 -4q-43 -10 -62 -10l-26 2q-46 46 -74 60q-19 25 -21 42q-9 53 -19 66zM476 1734q0 38 12 64t10 36l-8 36l30 2v42q28 2 42 2t26 3q14 4 76 29l28 12l12 -26q4 -8 23 -26t37 -37t40 -39t26 -44q-8 -34 -24 -70q-58 -49 -69 -54.5 t-12 -6.5t-2 -4t-7 -15l-20 -14q-20 -7 -58 -2l-28 2l-16 -16l-24 10q-22 10 -31 13t-19 11l-18 12q-16 60 -26 80zM532 626q14 2 27 2t55 3q135 10 232 29q-34 157 -76 306l-10 -20q-111 -120 -172 -234q-13 -13 -56 -86zM1018 1696l8 26q4 10 3 36t1 51t0 53t10 50 q42 22 66 30q20 -2 38 -4t34 -4t20 -3t6 -1t20 6l24 -4q14 -6 23 -17t19 -21q8 -16 16 -20l24 -2l8 -24q10 -20 13 -29l7 -21l2 -22q-32 -54 -36 -74q-23 -23 -50.5 -33.5t-35.5 -18.5l-20 -30l-20 18l-30 -28q-22 18 -32 27t-19 15q-13 9 -71 34z" />
<glyph unicode="&#xc5;" horiz-adv-x="1438" d="M-52 190l26 20l2 42q86 211 178 394.5t110 223.5q-2 8 -2 17t4 21q40 57 68 117q59 128 102 179l14 20l22 -2q20 10 40 10l36 -6q94 52 168 150q-38 34 -56 84q-20 137 89 264q29 34 57 66q12 -4 17 7t15 15q6 16 20 23t22 21q16 4 26 16t26 16q30 30 48 54q10 2 15 1 t15 3q14 19 34 36q14 -6 28 -8t26 -14q0 -15 11 -23q22 -14 25 -27q14 -12 18 -16t8 -18q-4 -10 -7 -21t-13 -15q10 -24 8 -26l86 -166q-4 -24 8 -45t16 -50t-5 -51t-25 -39t-38 -32t-42 -33l-4 4q-10 -12 -22 -14t-24 -6t-22 -9t-20 -9l7 -42q3 -18 9 -48q17 -85 20 -162 q18 -72 32 -146q31 -163 58 -228q20 0 24 -2q24 10 56 12l26 2l8 -24q8 -12 24 -24q41 -3 72 -34q12 -12 20 -16l36 -14l-20 -38q-48 -92 -168 -148q4 -14 5 -26t7 -40q19 -90 10 -160q-62 -161 -194 -221q-46 -21 -96 -23q-36 8 -58 25t-32 21l-26 12l8 30q6 16 -1 28 t-22 25t-21 20t-14 15l-40 46l66 18q60 16 80 41t16 89q-50 10 -82 3t-71 -17q-109 -28 -161 -28t-90 6l-22 2l-6 22q0 4 -12 17t-26 33t-6 50q-14 22 -16 46q-11 -23 -22 -60l-8 -26l-26 -4q-13 -13 -8 -24l8 -22l-20 -18q-4 -6 -10 -10t-10 -8q-6 -31 -21 -73 q-33 -90 -33 -131l-8 -26q-13 -20 -43.5 -33t-38.5 -21l-6 -26l-30 -4q-43 -10 -62 -10l-26 2q-46 46 -74 60q-19 25 -21 42q-9 53 -19 66zM532 626l54 4q154 9 260 30q-34 157 -76 306l-10 -20q-111 -120 -172 -234q-13 -13 -56 -86zM894 1572q14 -10 34 -7t36 3 q16 6 28 12l24 12q4 20 4 26q-8 12 -14 26t-14 26q-14 -14 -24 -4q-10 -10 -21 -19t-22 -22t-21 -24t-10 -29z" />
<glyph unicode="&#xc6;" horiz-adv-x="2362" d="M-144 190l30 20l8 42q131 242 327 540q25 38 49 78q-4 18 6 38q36 43 79 110q87 137 133 186l18 20l22 -2q20 10 40 10l36 -6q70 30 129 87t123 137l28 34l30 -20q10 -6 31 -12t52 -15q102 -30 127 -57q10 -50 11 -93t1 -84t-4 -91q8 -76 12 -148q9 -167 24 -226h27 q15 0 19 -2q10 4 30 8q56 111 74 164q-68 64 -84 221q-4 39 -16 79q60 90 224 121q48 9 100 21q163 51 277.5 68.5t192.5 26.5t180 27q2 -6 8 -6h14q4 -14 20 -14v20q4 0 16 -4t15 -1t3 13q41 -71 144 -116q5 -23 2 -36q-8 -25 0 -46q-79 -126 -259 -154 q-148 -23 -205.5 -40.5t-109.5 -49.5q-24 9 -47 3q-54 -16 -83 -11q-14 -14 -36 -20l-44 -12q10 -22 9 -44t5 -38q84 -8 186 1t202 13l-8 -28q18 -12 51 -47t52 -46t43 -9q22 -45 8 -88q-40 -26 -78 -53t-80 -49q-98 -51 -192 -48h-18q-8 0 -16 8q-22 -10 -55 -7t-55 -7 q-28 10 -64 10t-64 10q-82 -112 -126 -230q119 -17 202 -7q179 23 260 21q52 24 116 33t122 27q20 -6 33 -23l26 -34q33 -43 65 -37q12 -12 16 -37t10 -32t22 -5q-38 -78 -85 -120t-106 -65t-132 -34t-129 -21t-70 -5t-32 5q-173 -31 -270 -28q-205 5 -288 84q-14 12 -19 29 t-19 31q-75 -94 -205 -134q-39 -12 -77 -12q-32 7 -54 24.5t-28 21.5l-26 12l14 30q8 16 2 28t-18 25q-20 22 -30 35l-34 46l68 18q62 16 85 41t29 89q-46 10 -80 3t-74 -17q-112 -28 -165 -28t-89 6l-22 2l-2 22q-6 12 -14 21q-32 36 -18 79q-8 20 -8 46q-10 -16 -17 -31 t-15 -29l-10 -26l-26 -4q-12 -12 -12 -24l4 -22l-22 -18q-10 -10 -22 -18q-10 -22 -19 -42t-22 -46q-35 -70 -41 -116l-14 -26q-16 -22 -41 -32q-42 -17 -47 -22l-12 -26l-28 -4q-47 -10 -64 -10l-26 2q-44 48 -66 60q-18 42 -18 72t-6 36zM502 626q16 2 28 2t55 3 q134 9 235 29q-5 98 -32 306l-12 -20q-115 -107 -186 -206q-21 -29 -46.5 -60.5t-41.5 -53.5z" />
<glyph unicode="&#xc7;" horiz-adv-x="1252" d="M0 728q32 95 83 160.5t86 102.5t69 75q12 0 22 -6q12 34 44 57l50 36q18 13 30 31q76 18 138 63t100 67t88 34q24 27 75 49.5t76 36.5t41 38q12 -16 34 -11t37 9t23 -2t15 -13t12 -9t11 12q16 -2 9 -14t-9 -16q20 4 33 -7t41 -15q10 -10 6 -16t-6 -20q72 -22 92 -69 t4 -98t-59 -94t-100 -58t-110 -31t-102 -36q-109 -44 -167 -110q-122 -35 -260 -177q-36 -37 -72 -73q0 -34 -12 -52t-26 -36q4 -38 17 -65t27 -55q160 -48 339 -59t355 -13q18 -24 41 -45t42 -43q45 -52 35 -120q-42 -42 -154 -126q-18 -2 -43 0t-72 2t-85 -16 q-92 2 -188 18l-78 -116q6 -12 23 -14t21 -14q82 -11 172 -105q22 -23 52 -41q0 -6 4 -9t0 -13q69 -65 52 -152q-27 -61 -118 -130q-36 -16 -70 -24t-60 -24l-40 6q-80 -37 -162 -16q-115 -14 -174 25q-20 13 -26 37q-36 20 -48 54t10 68q16 2 30 14q82 -2 168 -1t184 23 q3 13 21 21q39 15 43 23q0 7 -9 13q-18 10 -15 21q-49 -4 -92 28q-54 3 -83 15.5t-61 22.5q-12 12 -24 20t-22 15q-23 16 -24.5 39.5t-0.5 37.5t2 29q2 28 13 69q16 16 45 52t69 68q-30 10 -59 18t-57 18q-22 26 -46 49t-64 33q-105 79 -153 250q-38 133 -33 304z" />
<glyph unicode="&#xc8;" horiz-adv-x="1284" d="M31 291q-24 138 6 191q9 16 18 31q22 36 15 63q12 2 15 13t19 7q27 85 73.5 175.5t62.5 136.5q-68 64 -84 221q-4 39 -16 79q60 91 222 121q48 9 102 21q163 51 277.5 68.5t192.5 26.5t180 27q2 -6 7 -6h13q6 -14 22 -14l-2 20q8 0 18 -4q20 -8 16 12q40 -70 146 -116 q3 -24 -0.5 -36t-3.5 -21t4 -25q-74 -125 -257 -154q-147 -23 -206 -40.5t-111 -49.5q-24 9 -47 3q-53 -16 -81 -11q-17 -15 -80 -32q10 -22 9 -44t5 -38q84 -8 186 1t200 13q2 -10 -2 -14t-4 -14q18 -12 34 -30t33 -35q40 -40 77 -37q24 -49 8 -88q-40 -26 -78 -53t-79 -49 q-96 -51 -193 -48h-17q-7 0 -17 8q-20 -10 -53 -7t-55 -7q-28 10 -65 10t-65 10q-82 -119 -124 -230q117 -17 201.5 -6.5t135.5 16.5t125 4q50 24 115 33t121 27q20 -6 34 -23t27 -34t27 -29t36 -8q10 -10 13 -24t6 -26q7 -27 31 -24q-38 -78 -85 -120t-106 -65t-132 -34 t-129 -21t-71 -5t-31 5q-173 -31 -270 -28q-205 5 -288 84q-16 16 -23 38t-33 36q-4 30 -11 69t-14 80zM512 1924q-36 54 6 135q12 23 24 51q16 8 36 29t22 43q10 -6 29 5t23 23q22 -12 41 -31l37 -37q47 -47 76 -52q48 -54 103 -107t101 -103q8 -28 29 -42t38 -30t21 -38 t-22 -64q20 -33 5 -56.5t-29 -37.5l-28 -28q-113 5 -292 171q-168 156 -220 169z" />
<glyph unicode="&#xc9;" horiz-adv-x="1284" d="M31 291q-24 138 6 191q9 16 18 31q22 36 15 63q12 2 15 13t19 7q27 85 73.5 175.5t62.5 136.5q-68 64 -84 221q-4 39 -16 79q60 91 222 121q48 9 102 21q163 51 277.5 68.5t192.5 26.5t180 27q2 -6 7 -6h13q6 -14 22 -14l-2 20q8 0 18 -4q20 -8 16 12q40 -70 146 -116 q3 -24 -0.5 -36t-3.5 -21t4 -25q-74 -125 -257 -154q-147 -23 -206 -40.5t-111 -49.5q-24 9 -47 3q-53 -16 -81 -11q-17 -15 -80 -32q10 -22 9 -44t5 -38q84 -8 186 1t200 13q2 -10 -2 -14t-4 -14q18 -12 34 -30t33 -35q40 -40 77 -37q24 -49 8 -88q-40 -26 -78 -53t-79 -49 q-96 -51 -193 -48h-17q-7 0 -17 8q-20 -10 -53 -7t-55 -7q-28 10 -65 10t-65 10q-82 -119 -124 -230q117 -17 201.5 -6.5t135.5 16.5t125 4q50 24 115 33t121 27q20 -6 34 -23t27 -34t27 -29t36 -8q10 -10 13 -24t6 -26q7 -27 31 -24q-38 -78 -85 -120t-106 -65t-132 -34 t-129 -21t-71 -5t-31 5q-173 -31 -270 -28q-205 5 -288 84q-16 16 -23 38t-33 36q-4 30 -11 69t-14 80zM594 1750q4 22 21 38t38 30t29 42q46 50 101 103t103 107q30 6 62 38l51 51q19 19 41 31q4 -12 23 -23t29 -5q2 -22 22 -43t36 -29q12 -28 24 -51t18 -45 q14 -51 -12 -90q-52 -13 -220 -169q-179 -166 -292 -171l-28 28t-23 28q-21 33 -1 66q-26 42 -22 64z" />
<glyph unicode="&#xca;" horiz-adv-x="1284" d="M31 291q-24 138 6 191q9 16 18 31q22 36 15 63q12 2 15 13t19 7q27 85 73.5 175.5t62.5 136.5q-68 64 -84 221q-4 39 -16 79q60 91 222 121q48 9 102 21q163 51 277.5 68.5t192.5 26.5t180 27q2 -6 7 -6h13q6 -14 22 -14l-2 20q8 0 18 -4q20 -8 16 12q40 -70 146 -116 q3 -24 -0.5 -36t-3.5 -21t4 -25q-74 -125 -257 -154q-147 -23 -206 -40.5t-111 -49.5q-24 9 -47 3q-53 -16 -81 -11q-17 -15 -80 -32q10 -22 9 -44t5 -38q84 -8 186 1t200 13q2 -10 -2 -14t-4 -14q18 -12 34 -30t33 -35q40 -40 77 -37q24 -49 8 -88q-40 -26 -78 -53t-79 -49 q-96 -51 -193 -48h-17q-7 0 -17 8q-20 -10 -53 -7t-55 -7q-28 10 -65 10t-65 10q-82 -119 -124 -230q117 -17 201.5 -6.5t135.5 16.5t125 4q50 24 115 33t121 27q20 -6 34 -23t27 -34t27 -29t36 -8q10 -10 13 -24t6 -26q7 -27 31 -24q-38 -78 -85 -120t-106 -65t-132 -34 t-129 -21t-71 -5t-31 5q-173 -31 -270 -28q-205 5 -288 84q-16 16 -23 38t-33 36q-4 30 -11 69t-14 80zM424 1747q-12 37 10 77q44 11 172 143q119 122 214 149q20 4 28 4q106 -37 218 -153q128 -132 172 -143q22 -40 13 -68t-19 -48t-20 -44q-42 -28 -46 -64q-8 6 -23 -4 t-19 -20q-18 10 -33 27t-30 33q-35 38 -61 44q-40 46 -83 93t-81 89q-38 -42 -81 -89t-83 -93q-26 -6 -51 -33t-40 -44t-33 -27q-4 10 -19 20t-23 4q-4 36 -46 64q-10 24 -20 44t-16 39z" />
<glyph unicode="&#xcb;" horiz-adv-x="1284" d="M31 291q-24 138 6 191q9 16 18 31q22 36 15 63q12 2 15 13t19 7q27 85 73.5 175.5t62.5 136.5q-68 64 -84 221q-4 39 -16 79q60 91 222 121q48 9 102 21q163 51 277.5 68.5t192.5 26.5t180 27q2 -6 7 -6h13q6 -14 22 -14l-2 20q8 0 18 -4q20 -8 16 12q40 -70 146 -116 q3 -24 -0.5 -36t-3.5 -21t4 -25q-74 -125 -257 -154q-147 -23 -206 -40.5t-111 -49.5q-24 9 -47 3q-53 -16 -81 -11q-17 -15 -80 -32q10 -22 9 -44t5 -38q84 -8 186 1t200 13q2 -10 -2 -14t-4 -14q18 -12 34 -30t33 -35q40 -40 77 -37q24 -49 8 -88q-40 -26 -78 -53t-79 -49 q-96 -51 -193 -48h-17q-7 0 -17 8q-20 -10 -53 -7t-55 -7q-28 10 -65 10t-65 10q-82 -119 -124 -230q117 -17 201.5 -6.5t135.5 16.5t125 4q50 24 115 33t121 27q20 -6 34 -23t27 -34t27 -29t36 -8q10 -10 13 -24t6 -26q7 -27 31 -24q-38 -78 -85 -120t-106 -65t-132 -34 t-129 -21t-71 -5t-31 5q-173 -31 -270 -28q-205 5 -288 84q-16 16 -23 38t-33 36q-4 30 -11 69t-14 80zM418 1714q0 38 12 64t10 36l-8 36l30 2v42q28 2 42 2t26 3q14 4 76 29l28 12l12 -26q4 -8 23 -26t37 -37t40 -39t26 -44q-8 -34 -24 -70q-58 -49 -69 -54.5t-12 -6.5 t-2 -4t-7 -15l-20 -14q-20 -7 -58 -2l-28 2l-16 -16l-24 10q-22 10 -31 13t-19 11l-18 12q-16 60 -26 80zM960 1676l8 26q4 10 3 36t1 51t0 53t10 50q42 22 66 30q20 -2 38 -4t34 -4t20 -3t6 -1t20 6l24 -4q14 -6 23 -17t19 -21q8 -16 16 -20l24 -2l8 -24q10 -20 13 -29 l7 -21l2 -22q-32 -54 -36 -74q-23 -23 -50.5 -33.5t-35.5 -18.5l-20 -30l-20 18l-30 -28q-22 18 -32 27t-19 15q-13 9 -71 34z" />
<glyph unicode="&#xcc;" horiz-adv-x="1056" d="M-72 216q0 28 12 41t26 25q53 2 125 14q131 22 185 22q30 62 56 119t50 109q14 58 50 136t50 117t18 83q24 70 43 129t29 141q-146 -23 -188 -44q-89 4 -124 96q-10 26 -24 54q8 18 4 53t-24 51q16 4 24 27t2 35q34 10 72 13t75 6q97 8 129 29q104 4 217 8t209 10 q36 -12 83 -12t94 -6t84 -26t51 -70q55 -7 64 -45q4 -17 3 -38t-1 -41q-86 -64 -309 -75q-63 -3 -123 -5q-14 -95 -63 -254q-88 -287 -85 -314q-29 -66 -48 -116q-37 -94 -58 -138h136q4 -22 18 -30t30 -14q42 -16 42 -44q108 -28 4 -162q-26 6 -64 -38q-58 8 -114 2 t-104 -10q-10 -2 -8 -11t-4 -13q-101 32 -259 -3q-67 -15 -137 -32t-142 -19q-65 42 -91 173q-7 35 -15 67zM450 1986q-36 54 6 135q12 23 24 51q16 8 36 29t22 43q10 -6 29 5t23 23q22 -12 41 -31l37 -37q47 -47 76 -52q48 -54 103 -107t101 -103q8 -28 29 -42t38 -30 t21 -38t-22 -64q20 -33 5 -56.5t-29 -37.5l-28 -28q-113 5 -292 171q-168 156 -220 169z" />
<glyph unicode="&#xcd;" horiz-adv-x="1056" d="M-72 216q0 28 12 41t26 25q53 2 125 14q131 22 185 22q30 62 56 119t50 109q14 58 50 136t50 117t18 83q24 70 43 129t29 141q-146 -23 -188 -44q-89 4 -124 96q-10 26 -24 54q8 18 4 53t-24 51q16 4 24 27t2 35q34 10 72 13t75 6q97 8 129 29q104 4 217 8t209 10 q36 -12 83 -12t94 -6t84 -26t51 -70q55 -7 64 -45q4 -17 3 -38t-1 -41q-86 -64 -309 -75q-63 -3 -123 -5q-14 -95 -63 -254q-88 -287 -85 -314q-29 -66 -48 -116q-37 -94 -58 -138h136q4 -22 18 -30t30 -14q42 -16 42 -44q108 -28 4 -162q-26 6 -64 -38q-58 8 -114 2 t-104 -10q-10 -2 -8 -11t-4 -13q-101 32 -259 -3q-67 -15 -137 -32t-142 -19q-65 42 -91 173q-7 35 -15 67zM696 1832q4 22 21 38t38 30t29 42q46 50 101 103t103 107q30 6 62 38l51 51q19 19 41 31q4 -12 23 -23t29 -5q2 -22 22 -43t36 -29q12 -28 24 -51t18 -45 q14 -51 -12 -90q-52 -13 -220 -169q-179 -166 -292 -171l-28 28t-23 28q-21 33 -1 66q-26 42 -22 64z" />
<glyph unicode="&#xce;" horiz-adv-x="1056" d="M-72 216q0 28 12 41t26 25q53 2 125 14q131 22 185 22q30 62 56 119t50 109q14 58 50 136t50 117t18 83q24 70 43 129t29 141q-146 -23 -188 -44q-89 4 -124 96q-10 26 -24 54q8 18 4 53t-24 51q16 4 24 27t2 35q34 10 72 13t75 6q97 8 129 29q104 4 217 8t209 10 q36 -12 83 -12t94 -6t84 -26t51 -70q55 -7 64 -45q4 -17 3 -38t-1 -41q-86 -64 -309 -75q-63 -3 -123 -5q-14 -95 -63 -254q-88 -287 -85 -314q-29 -66 -48 -116q-37 -94 -58 -138h136q4 -22 18 -30t30 -14q42 -16 42 -44q108 -28 4 -162q-26 6 -64 -38q-58 8 -114 2 t-104 -10q-10 -2 -8 -11t-4 -13q-101 32 -259 -3q-67 -15 -137 -32t-142 -19q-65 42 -91 173q-7 35 -15 67zM446 1809q-12 37 10 77q44 11 172 143q119 122 214 149q20 4 28 4q106 -37 218 -153q128 -132 172 -143q22 -40 13 -68t-19 -48t-20 -44q-42 -28 -46 -64 q-8 6 -23 -4t-19 -20q-18 10 -33 27t-30 33q-35 38 -61 44q-40 46 -83 93t-81 89q-38 -42 -81 -89t-83 -93q-26 -6 -51 -33t-40 -44t-33 -27q-4 10 -19 20t-23 4q-4 36 -46 64q-10 24 -20 44t-16 39z" />
<glyph unicode="&#xcf;" horiz-adv-x="1056" d="M-72 216q0 28 12 41t26 25q53 2 125 14q131 22 185 22q30 62 56 119t50 109q14 58 50 136t50 117t18 83q24 70 43 129t29 141q-146 -23 -188 -44q-89 4 -124 96q-10 26 -24 54q8 18 4 53t-24 51q16 4 24 27t2 35q34 10 72 13t75 6q97 8 129 29q104 4 217 8t209 10 q36 -12 83 -12t94 -6t84 -26t51 -70q55 -7 64 -45q4 -17 3 -38t-1 -41q-86 -64 -309 -75q-63 -3 -123 -5q-14 -95 -63 -254q-88 -287 -85 -314q-29 -66 -48 -116q-37 -94 -58 -138h136q4 -22 18 -30t30 -14q42 -16 42 -44q108 -28 4 -162q-26 6 -64 -38q-58 8 -114 2 t-104 -10q-10 -2 -8 -11t-4 -13q-101 32 -259 -3q-67 -15 -137 -32t-142 -19q-65 42 -91 173q-7 35 -15 67zM456 1776q0 38 12 64t10 36l-8 36l30 2v42q28 2 42 2t26 3q14 4 76 29l28 12l12 -26q4 -8 23 -26t37 -37t40 -39t26 -44q-8 -34 -24 -70q-58 -49 -69 -54.5 t-12 -6.5t-2 -4t-7 -15l-20 -14q-20 -7 -58 -2l-28 2l-16 -16l-24 10q-22 10 -31 13t-19 11l-18 12q-16 60 -26 80zM998 1738l8 26q4 10 3 36t1 51t0 53t10 50q42 22 66 30q20 -2 38 -4t34 -4t20 -3t6 -1t20 6l24 -4q14 -6 23 -17t19 -21q8 -16 16 -20l24 -2l8 -24 q10 -20 13 -29l7 -21l2 -22q-32 -54 -36 -74q-23 -23 -50.5 -33.5t-35.5 -18.5l-20 -30l-20 18l-30 -28q-22 18 -32 27t-19 15q-13 9 -71 34z" />
<glyph unicode="&#xd0;" horiz-adv-x="1344" d="M-30 798q10 4 16 28t2 36q29 12 80.5 18t75.5 12t42 22q26 2 51 4t53 4q-8 110 -40 214q4 22 8 33t0 24t12 13h32q0 36 -13 71t-25 81q16 36 22 70t22 62q128 -40 247 -97t233 -85q86 -62 177 -123t166 -134q169 -164 183 -389q-16 -47 -12 -82q-72 -126 -182 -212 t-240 -152t-271 -121t-275 -117q-102 25 -135 125q-15 45 -20 99t-11 112q8 26 21 44t11 50q37 107 54 184q-134 -31 -168 -56q-62 4 -87 99q-7 27 -17 55q10 40 2 70t-14 38zM504 1104q24 -94 36 -176q24 -2 51 -4t50 -11q53 -21 67 -89q50 -9 47 -84q-1 -22 -1 -42 q-56 -63 -208 -82q-8 -84 -30 -188q34 3 71 20q69 33 113 36q8 16 21 25t23 19q129 52 181 86q104 67 143 156q-16 30 -39 51t-48 42q-65 55 -85 97q-37 5 -80.5 30.5t-68.5 37.5t-59 14q-52 28 -94 39t-64 31q-18 0 -26 -8z" />
<glyph unicode="&#xd1;" horiz-adv-x="1402" d="M-30 390q58 124 124 259t133 274q167 347 263 557q289 -103 322 -300q-4 -12 -10 -8t-10 -4q14 -17 11 -24.5t-3 -15.5t10 -22q-10 2 -14 -3t-14 -1q14 -40 0 -63t-19 -38t3 -41q-11 0 -14 -7q-7 -14 -18 -11q6 -52 4 -105t-4 -108q-5 -140 16 -233q211 123 271 518 q17 112 35 228q34 34 50 94t25 95t25 63q52 -6 108 -59q58 -55 106 -63q28 -40 52 -77t32 -83q-12 -20 -18 -44t-13 -48q-16 -54 -53 -78q-6 -60 -18 -112t-22 -102q-27 -134 -24 -222q-18 -58 -40 -119t-32 -113q-38 -30 -60 -74t-46 -88q-10 -8 -12 -3t-18 7q2 -18 -7 -23 t1 -29q-34 -16 -60 -42t-57 -48q-72 -51 -179 -12q-218 160 -300 388q-20 -6 -30 -26t-18 -42t-16 -40t-24 -18q-4 -18 -15 -33t-21 -30q-26 -39 -10 -73q-20 -16 -24 -41t-10 -49q-15 -59 -74 -56q-8 -10 -3 -12t9 -18q-28 4 -40 -4t-30 -12q-100 31 -171 222 q-17 46 -35 80q0 8 7 7t13 -1q-10 20 -15 45t-19 41zM544 1702q7 40 43.5 96t53.5 82t39 54q14 12 22 16q36 32 76 49q54 23 138 23h28q46 -4 84 -10q37 -20 67 -42q39 -28 64 -63t39 -34t22 10t15 18t19 21q12 38 48 62q29 15 86 26h20q24 8 50 8h6q72 -4 72 -62 q-4 -24 -16 -48q-14 -28 -39 -66t-42 -64t-39 -54q-14 -12 -22 -16q-36 -32 -76 -49q-54 -23 -138 -23h-28q-22 2 -45 4t-39 6q-37 20 -67 42q-39 28 -56 52q-32 46 -45.5 45t-22.5 -11t-16 -17t-11 -12t-8 -9q-12 -38 -48 -62q-18 -10 -28 -12t-18 -6l-40 -8l-20 2 q-72 -24 -109 9q-19 17 -19 43z" />
<glyph unicode="&#xd2;" d="M28 286q-43 322 215 628q69 82 133 158q21 -9 34 8q25 36 42 42q11 25 38 45q47 35 62 61q31 6 53 27q42 38 71 47v26q44 20 64 44t48 62q22 2 35 2t41 4q18 34 34 50t46 36q30 -16 64 -19t62 -31q3 -32 28.5 -52t39.5 -32t18 -34q10 0 13 4t13 2q7 -28 14 -40 q16 -25 22 -46q-10 -24 -18 -51t-32 -37q0 -16 12 -17t14 -17t-6 -28q56 -94 102 -197t104 -197q-6 -44 13 -89q38 -90 42.5 -123.5t0.5 -72.5t-16 -75q-28 -83 -78 -114q-32 -40 -80 -65t-88 -59q-28 -16 -60 -23t-66 -15q-88 -54 -212 -77q-38 -7 -68 -3q-72 -26 -140 -36 t-160 10q-164 -22 -289 70q-108 80 -165 224zM342 380q82 -70 324 -28q58 10 104 10q0 18 16 18q84 8 156 47t150 79q10 24 26 42t18 52q-16 29 -16 66q-52 72 -90 157t-88 161q-4 -10 -16 -20t-26 4q-10 -34 -43 -34t-59 22q-70 -56 -139 -108t-125 -122q-10 -6 -12 -4 t-14 -2q-20 -46 -47 -83t-53 -75q-63 -92 -66 -182zM776 1882q-36 54 6 135q12 23 24 51q16 8 36 29t22 43q10 -6 29 5t23 23q22 -12 41 -31l37 -37q47 -47 76 -52q48 -54 103 -107t101 -103q8 -28 29 -42t38 -30t21 -38t-22 -64q20 -33 5 -56.5t-29 -37.5l-28 -28 q-113 5 -292 171q-168 156 -220 169z" />
<glyph unicode="&#xd3;" d="M28 286q-43 322 215 628q69 82 133 158q21 -9 34 8q25 36 42 42q11 25 38 45q47 35 62 61q31 6 53 27q42 38 71 47v26q44 20 64 44t48 62q22 2 35 2t41 4q18 34 34 50t46 36q30 -16 64 -19t62 -31q3 -32 28.5 -52t39.5 -32t18 -34q10 0 13 4t13 2q7 -28 14 -40 q16 -25 22 -46q-10 -24 -18 -51t-32 -37q0 -16 12 -17t14 -17t-6 -28q56 -94 102 -197t104 -197q-6 -44 13 -89q38 -90 42.5 -123.5t0.5 -72.5t-16 -75q-28 -83 -78 -114q-32 -40 -80 -65t-88 -59q-28 -16 -60 -23t-66 -15q-88 -54 -212 -77q-38 -7 -68 -3q-72 -26 -140 -36 t-160 10q-164 -22 -289 70q-108 80 -165 224zM342 380q82 -70 324 -28q58 10 104 10q0 18 16 18q84 8 156 47t150 79q10 24 26 42t18 52q-16 29 -16 66q-52 72 -90 157t-88 161q-4 -10 -16 -20t-26 4q-10 -34 -43 -34t-59 22q-70 -56 -139 -108t-125 -122q-10 -6 -12 -4 t-14 -2q-20 -46 -47 -83t-53 -75q-63 -92 -66 -182zM614 1750q4 22 21 38t38 30t29 42q46 50 101 103t103 107q30 6 62 38l51 51q19 19 41 31q4 -12 23 -23t29 -5q2 -22 22 -43t36 -29q12 -28 24 -51t18 -45q14 -51 -12 -90q-52 -13 -220 -169q-179 -166 -292 -171l-28 28 t-23 28q-21 33 -1 66q-26 42 -22 64z" />
<glyph unicode="&#xd4;" d="M28 286q-43 322 215 628q69 82 133 158q21 -9 34 8q25 36 42 42q11 25 38 45q47 35 62 61q31 6 53 27q42 38 71 47v26q44 20 64 44t48 62q22 2 35 2t41 4q18 34 34 50t46 36q30 -16 64 -19t62 -31q3 -32 28.5 -52t39.5 -32t18 -34q10 0 13 4t13 2q7 -28 14 -40 q16 -25 22 -46q-10 -24 -18 -51t-32 -37q0 -16 12 -17t14 -17t-6 -28q56 -94 102 -197t104 -197q-6 -44 13 -89q38 -90 42.5 -123.5t0.5 -72.5t-16 -75q-28 -83 -78 -114q-32 -40 -80 -65t-88 -59q-28 -16 -60 -23t-66 -15q-88 -54 -212 -77q-38 -7 -68 -3q-72 -26 -140 -36 t-160 10q-164 -22 -289 70q-108 80 -165 224zM342 380q82 -70 324 -28q58 10 104 10q0 18 16 18q84 8 156 47t150 79q10 24 26 42t18 52q-16 29 -16 66q-52 72 -90 157t-88 161q-4 -10 -16 -20t-26 4q-10 -34 -43 -34t-59 22q-70 -56 -139 -108t-125 -122q-10 -6 -12 -4 t-14 -2q-20 -46 -47 -83t-53 -75q-63 -92 -66 -182zM586 1727q-12 37 10 77q44 11 172 143q119 122 214 149q20 4 28 4q106 -37 218 -153q128 -132 172 -143q22 -40 13 -68t-19 -48t-20 -44q-42 -28 -46 -64q-8 6 -23 -4t-19 -20q-18 10 -33 27t-30 33q-35 38 -61 44 q-40 46 -83 93t-81 89q-38 -42 -81 -89t-83 -93q-26 -6 -51 -33t-40 -44t-33 -27q-4 10 -19 20t-23 4q-4 36 -46 64q-10 24 -20 44t-16 39z" />
<glyph unicode="&#xd5;" d="M28 286q-43 322 215 628q69 82 133 158q21 -9 34 8q25 36 42 42q11 25 38 45q47 35 62 61q31 6 53 27q42 38 71 47v26q44 20 64 44t48 62q22 2 35 2t41 4q18 34 34 50t46 36q30 -16 64 -19t62 -31q3 -32 28.5 -52t39.5 -32t18 -34q10 0 13 4t13 2q7 -28 14 -40 q16 -25 22 -46q-10 -24 -18 -51t-32 -37q0 -16 12 -17t14 -17t-6 -28q56 -94 102 -197t104 -197q-6 -44 13 -89q38 -90 42.5 -123.5t0.5 -72.5t-16 -75q-28 -83 -78 -114q-32 -40 -80 -65t-88 -59q-28 -16 -60 -23t-66 -15q-88 -54 -212 -77q-38 -7 -68 -3q-72 -26 -140 -36 t-160 10q-164 -22 -289 70q-108 80 -165 224zM342 380q82 -70 324 -28q58 10 104 10q0 18 16 18q84 8 156 47t150 79q10 24 26 42t18 52q-16 29 -16 66q-52 72 -90 157t-88 161q-4 -10 -16 -20t-26 4q-10 -34 -43 -34t-59 22q-70 -56 -139 -108t-125 -122q-10 -6 -12 -4 t-14 -2q-20 -46 -47 -83t-53 -75q-63 -92 -66 -182zM544 1682q7 40 43.5 96t53.5 82t39 54q14 12 22 16q36 32 76 49q54 23 138 23h28q46 -4 84 -10q37 -20 67 -42q39 -28 64 -63t39 -34t22 10t15 18t19 21q12 38 48 62q29 15 86 26h20q24 8 50 8h6q72 -4 72 -62 q-4 -24 -16 -48q-14 -28 -39 -66t-42 -64t-39 -54q-14 -12 -22 -16q-36 -32 -76 -49q-54 -23 -138 -23h-28q-22 2 -45 4t-39 6q-37 20 -67 42q-39 28 -56 52q-32 46 -45.5 45t-22.5 -11t-16 -17t-11 -12t-8 -9q-12 -38 -48 -62q-18 -10 -28 -12t-18 -6l-40 -8l-20 2 q-72 -24 -109 9q-19 17 -19 43z" />
<glyph unicode="&#xd6;" d="M28 286q-43 322 215 628q69 82 133 158q21 -9 34 8q25 36 42 42q11 25 38 45q47 35 62 61q31 6 53 27q42 38 71 47v26q44 20 64 44t48 62q22 2 35 2t41 4q18 34 34 50t46 36q30 -16 64 -19t62 -31q3 -32 28.5 -52t39.5 -32t18 -34q10 0 13 4t13 2q7 -28 14 -40 q16 -25 22 -46q-10 -24 -18 -51t-32 -37q0 -16 12 -17t14 -17t-6 -28q56 -94 102 -197t104 -197q-6 -44 13 -89q38 -90 42.5 -123.5t0.5 -72.5t-16 -75q-28 -83 -78 -114q-32 -40 -80 -65t-88 -59q-28 -16 -60 -23t-66 -15q-88 -54 -212 -77q-38 -7 -68 -3q-72 -26 -140 -36 t-160 10q-164 -22 -289 70q-108 80 -165 224zM342 380q82 -70 324 -28q58 10 104 10q0 18 16 18q84 8 156 47t150 79q10 24 26 42t18 52q-16 29 -16 66q-52 72 -90 157t-88 161q-4 -10 -16 -20t-26 4q-10 -34 -43 -34t-59 22q-70 -56 -139 -108t-125 -122q-10 -6 -12 -4 t-14 -2q-20 -46 -47 -83t-53 -75q-63 -92 -66 -182zM558 1734q0 38 12 64t10 36l-8 36l30 2v42q28 2 42 2t26 3q14 4 76 29l28 12l12 -26q4 -8 23 -26t37 -37t40 -39t26 -44q-8 -34 -24 -70q-58 -49 -69 -54.5t-12 -6.5t-2 -4t-7 -15l-20 -14q-20 -7 -58 -2l-28 2l-16 -16 l-24 10q-22 10 -31 13t-19 11l-18 12q-16 60 -26 80zM1100 1696l8 26q4 10 3 36t1 51t0 53t10 50q42 22 66 30q20 -2 38 -4t34 -4t20 -3t6 -1t20 6l24 -4q14 -6 23 -17t19 -21q8 -16 16 -20l24 -2l8 -24q10 -20 13 -29l7 -21l2 -22q-32 -54 -36 -74q-23 -23 -50.5 -33.5 t-35.5 -18.5l-20 -30l-20 18l-30 -28q-22 18 -32 27t-19 15q-13 9 -71 34z" />
<glyph unicode="&#xd7;" horiz-adv-x="1004" d="M8 214q5 107 126 228l60 60q8 20 37 42q57 43 71 68q-12 40 -46 79t-62 81q-2 6 -11 3t-13 1q4 22 -9 49t-31 43q4 16 11 43t-3 59q0 16 10 38q18 39 12 54q27 3 55.5 -8.5t41.5 -15.5t27 2q-4 -16 5 -17t9 -11q46 -14 120 -98q44 -49 88 -116q40 24 87 60t96 72 q114 84 201 120q44 -19 70 -73q10 -21 19 -43t25 -38q-14 -28 -30 -48t-22 -46q-127 -52 -342 -238q22 -24 34 -44t21 -37t17 -33q20 -17 36 -46q29 -51 58 -64q10 -50 29 -90t17 -82q-12 -38 -35 -62t-33 -52q-40 -10 -54 -24l-94 68q-46 148 -164 292q-139 -106 -240 -248 q-6 -70 -27 -97t-81 -49q-56 42 -81 101t-5 117z" />
<glyph unicode="&#xd8;" d="M28 286q-43 322 215 628q69 82 133 158q21 -9 34 8q25 36 42 42q11 25 38 45q47 35 62 61q31 6 53 27q42 38 71 47v26q44 20 64 44t48 62q22 2 35 2t41 4q18 34 34 50t46 36q30 -16 64 -19t62 -31q3 -32 28.5 -52t39.5 -32t18 -34q10 0 13 4t13 2q52 60 107 104t111 38 q38 -88 41 -172t-19 -192q-22 -26 -62 -71t-88 -101q71 -152 122 -236q-6 -44 13 -89q38 -90 42.5 -123.5t0.5 -72.5t-16 -75q-28 -83 -78 -114q-32 -40 -80 -65t-88 -59q-28 -16 -60 -23t-66 -15q-88 -54 -212 -77q-38 -7 -68 -3q-64 -22 -124 -33t-136 1q-4 -30 5 -58 t5 -60q-16 -16 -27 -34t-23 -36q-31 -46 -66 -64q-48 4 -80 13t-74 17q-101 87 -56 288q-116 78 -178 234zM342 380q20 -15 30 -20q34 38 74 81t78 84q78 84 122 137q19 57 147 196q35 38 67 76q-27 -3 -62 22q-70 -56 -139 -108t-125 -122q-10 -6 -12 -4t-14 -2 q-20 -46 -47 -83t-53 -75q-63 -92 -66 -182zM778 378q92 10 164 49t150 79q10 24 26 42t18 52q-16 29 -16 66q-14 16 -25 35t-23 39q-104 -122 -126 -170q-31 -33 -168 -192z" />
<glyph unicode="&#xd9;" horiz-adv-x="1424" d="M103 735q1 155 41 255q-4 26 -10 32q22 56 29 111q11 87 25 125q34 8 51 29t27 37q36 2 47 -10t23 -37t30 -50t54 -39q9 -34 30 -80q51 -116 54 -176q-46 -89 -53 -227q-6 -131 23 -211l12 -32l44 4q144 36 216 82q116 74 214 184q140 163 188 426q14 76 18 142 q38 18 42 58l-6 26q-10 16 0 36q16 46 68 68q62 -41 124 -108q5 -74 30.5 -138t36.5 -96t15 -78q-26 -77 -46 -224l-4 -22q-85 -147 -128 -240q-18 -18 -37 -56t-25 -44l-48 18l-12 -62l-32 -8l-24 -28q-83 -145 -211 -230q-98 -65 -323 -158q-13 2 -83 6q-106 6 -157 12 q-15 34 -48 34q-40 20 -60 56t-36 70t-27 58t-27 46l40 12l-52 60q-6 6 -13 12t-13 14v38q-8 164 -7 303zM430 1780q-36 54 6 135q12 23 24 51q16 8 36 29t22 43q10 -6 29 5t23 23q22 -12 41 -31l37 -37q47 -47 76 -52q48 -54 103 -107t101 -103q8 -28 29 -42t38 -30t21 -38 t-22 -64q20 -33 5 -56.5t-29 -37.5l-28 -28q-113 5 -292 171q-168 156 -220 169z" />
<glyph unicode="&#xda;" horiz-adv-x="1424" d="M103 735q1 155 41 255q-4 26 -10 32q22 56 29 111q11 87 25 125q34 8 51 29t27 37q36 2 47 -10t23 -37t30 -50t54 -39q9 -34 30 -80q51 -116 54 -176q-46 -89 -53 -227q-6 -131 23 -211l12 -32l44 4q144 36 216 82q116 74 214 184q140 163 188 426q14 76 18 142 q38 18 42 58l-6 26q-10 16 0 36q16 46 68 68q62 -41 124 -108q5 -74 30.5 -138t36.5 -96t15 -78q-26 -77 -46 -224l-4 -22q-85 -147 -128 -240q-18 -18 -37 -56t-25 -44l-48 18l-12 -62l-32 -8l-24 -28q-83 -145 -211 -230q-98 -65 -323 -158q-13 2 -83 6q-106 6 -157 12 q-15 34 -48 34q-40 20 -60 56t-36 70t-27 58t-27 46l40 12l-52 60q-6 6 -13 12t-13 14v38q-8 164 -7 303zM696 1708q4 22 21 38t38 30t29 42q46 50 101 103t103 107q30 6 62 38l51 51q19 19 41 31q4 -12 23 -23t29 -5q2 -22 22 -43t36 -29q12 -28 24 -51t18 -45 q14 -51 -12 -90q-52 -13 -220 -169q-179 -166 -292 -171l-28 28t-23 28q-21 33 -1 66q-26 42 -22 64z" />
<glyph unicode="&#xdb;" horiz-adv-x="1424" d="M103 735q1 155 41 255q-4 26 -10 32q22 56 29 111q11 87 25 125q34 8 51 29t27 37q36 2 47 -10t23 -37t30 -50t54 -39q9 -34 30 -80q51 -116 54 -176q-46 -89 -53 -227q-6 -131 23 -211l12 -32l44 4q144 36 216 82q116 74 214 184q140 163 188 426q14 76 18 142 q38 18 42 58l-6 26q-10 16 0 36q16 46 68 68q62 -41 124 -108q5 -74 30.5 -138t36.5 -96t15 -78q-26 -77 -46 -224l-4 -22q-85 -147 -128 -240q-18 -18 -37 -56t-25 -44l-48 18l-12 -62l-32 -8l-24 -28q-83 -145 -211 -230q-98 -65 -323 -158q-13 2 -83 6q-106 6 -157 12 q-15 34 -48 34q-40 20 -60 56t-36 70t-27 58t-27 46l40 12l-52 60q-6 6 -13 12t-13 14v38q-8 164 -7 303zM446 1727q-12 37 10 77q44 11 172 143q119 122 214 149q20 4 28 4q106 -37 218 -153q128 -132 172 -143q22 -40 13 -68t-19 -48t-20 -44q-42 -28 -46 -64q-8 6 -23 -4 t-19 -20q-18 10 -33 27t-30 33q-35 38 -61 44q-40 46 -83 93t-81 89q-38 -42 -81 -89t-83 -93q-26 -6 -51 -33t-40 -44t-33 -27q-4 10 -19 20t-23 4q-4 36 -46 64q-10 24 -20 44t-16 39z" />
<glyph unicode="&#xdc;" horiz-adv-x="1424" d="M103 735q1 155 41 255q-4 26 -10 32q22 56 29 111q11 87 25 125q34 8 51 29t27 37q36 2 47 -10t23 -37t30 -50t54 -39q9 -34 30 -80q51 -116 54 -176q-46 -89 -53 -227q-6 -131 23 -211l12 -32l44 4q144 36 216 82q116 74 214 184q140 163 188 426q14 76 18 142 q38 18 42 58l-6 26q-10 16 0 36q16 46 68 68q62 -41 124 -108q5 -74 30.5 -138t36.5 -96t15 -78q-26 -77 -46 -224l-4 -22q-85 -147 -128 -240q-18 -18 -37 -56t-25 -44l-48 18l-12 -62l-32 -8l-24 -28q-83 -145 -211 -230q-98 -65 -323 -158q-13 2 -83 6q-106 6 -157 12 q-15 34 -48 34q-40 20 -60 56t-36 70t-27 58t-27 46l40 12l-52 60q-6 6 -13 12t-13 14v38q-8 164 -7 303zM438 1734q0 38 12 64t10 36l-8 36l30 2v42q28 2 42 2t26 3q14 4 76 29l28 12l12 -26q4 -8 23 -26t37 -37t40 -39t26 -44q-8 -34 -24 -70q-58 -49 -69 -54.5t-12 -6.5 t-2 -4t-7 -15l-20 -14q-20 -7 -58 -2l-28 2l-16 -16l-24 10q-22 10 -31 13t-19 11l-18 12q-16 60 -26 80zM980 1696l8 26q4 10 3 36t1 51t0 53t10 50q42 22 66 30q20 -2 38 -4t34 -4t20 -3t6 -1t20 6l24 -4q14 -6 23 -17t19 -21q8 -16 16 -20l24 -2l8 -24q10 -20 13 -29 l7 -21l2 -22q-32 -54 -36 -74q-23 -23 -50.5 -33.5t-35.5 -18.5l-20 -30l-20 18l-30 -28q-22 18 -32 27t-19 15q-13 9 -71 34z" />
<glyph unicode="&#xdd;" horiz-adv-x="1010" d="M84 120l2 22l18 54q10 34 22 67t40 59q19 58 84.5 175t77.5 135q-20 36 -56 70q-65 121 -90 214q-2 48 -12 86q-22 84 -22 118q-8 14 -14 36l4 24q14 22 0 73t-19 80t-3 57q5 67 60 98l20 14l20 -12q22 -14 42 -24l42 -21q42 -21 98 -53l20 -14l-2 -22q0 -12 8 -20l22 -6 l2 -28v-24q0 -27 10 -40l10 -26q0 -50 15 -99q29 -93 23 -141q12 6 20 14q12 12 24 20l140 190l-4 24l50 48q51 41 68 72l12 18q90 120 232 148l34 8l10 -32q10 -28 39 -49t63 -41l22 -14q12 -24 12 -36t-2 -20l10 -26q-22 -58 -48 -83t-51 -45q-56 -45 -71 -78l-16 -20 q-50 -26 -64 -76l-8 -28h-30q-10 0 -34 -52q-18 -24 -36 -42q-8 -20 -14 -38l-12 -16q-20 -18 -36 -51q-33 -68 -54 -89l4 -22l-16 -14q-18 -16 -41 -59t-37 -67t-36 -44q-25 -64 -62 -104q-24 -96 -114 -206q-3 -32 -21 -61q-23 -36 -31 -51l-6 -22q-14 -26 -35 -46 t-26 -26t-9 -10l-34 -12q-176 24 -214 186zM576 1832q4 22 21 38t38 30t29 42q46 50 101 103t103 107q30 6 62 38l51 51q19 19 41 31q4 -12 23 -23t29 -5q2 -22 22 -43t36 -29q12 -28 24 -51t18 -45q14 -51 -12 -90q-52 -13 -220 -169q-179 -166 -292 -171l-28 28t-23 28 q-21 33 -1 66q-26 42 -22 64z" />
<glyph unicode="&#xde;" horiz-adv-x="1394" d="M52 378q22 55 22 157.5t11 170.5t42 160t53 188q4 22 -4 41t-4 32t15 17t17 23t1 36t7 38t31 59t15 78q22 14 40 33t38 35q50 40 106 40q18 -24 25 -53l14 -58t18 -54t39 -39q2 -16 1 -34t1 -40q52 6 66 10q250 -8 502 -62q22 -16 47 -32t63 -22q197 -106 186 -362 q-36 -70 -102 -121t-134 -101q-14 0 -22 4q-15 -24 -46 -38q-64 -28 -80 -44q-78 -13 -139 -41q-112 -53 -187 -65q-24 -19 -75 -33q-96 -28 -117 -49q-16 13 -74 0q-12 -16 -9 -34q17 -102 -4 -146t-58 -63q-66 -34 -175 -19q-43 57 -68.5 149.5t-38.5 145.5t-23 93z M446 556q182 44 250 100q81 22 127.5 53t73.5 52t55 41q-2 18 7 28t19 20q-4 20 -15 33t-23 27q-98 14 -204 14t-216 -4q-65 -230 -74 -364z" />
<glyph unicode="&#xdf;" horiz-adv-x="1908" d="M20 816q17 54 12 84q35 104 190 158q40 14 76 24q317 135 552 151q100 7 210 -25q7 -25 32 -58q43 -61 46 -86l16 -16q56 22 100 34q317 135 552 151q100 7 210 -25q6 -20 19 -38t25 -36q31 -47 34 -70q48 -43 36 -94q-45 -36 -80 -52q-74 18 -150 12t-136 -10 q-18 18 -43 18t-52 -8l-54 -16t-51 -4q-25 -20 -112 -30q-2 -10 4 -13t2 -13q12 -14 32 -20l40 -12q51 -15 60 -44q51 0 87 -48q32 -42 27 -84q6 -16 14 -14t18 -8q6 -26 30 -53t38 -59q4 -50 6 -89t-20 -96t-76 -115t-121 -103q-115 -77 -291 -131q-6 2 -15 0t-5 10 q-27 -23 -62.5 -21.5t-58.5 3.5t-43 -2q-34 34 -42 60q-10 0 -9 10t-7 10q14 20 12 23t-6 5q-13 6 -7.5 18t2.5 33t-5 43q-5 55 32 74q118 -14 244 42q54 24 104 52t98 50q9 28 30 45q38 32 42 52.5t-5 23.5t-9 15l-20 6q-40 22 -88 37t-82 33q-20 -12 -40 -6t-48 12 q-163 9 -254 50q-4 10 -10 18t-22 4l-46 64q4 24 7 41t-13 33q17 54 12 84q4 8 7 15t7 15q-49 4 -194 -10q-18 18 -43 18t-52 -8l-54 -16t-51 -4q-25 -20 -112 -30q-2 -10 4 -13t2 -13q13 -16 52.5 -27t55.5 -20t22 -29q54 0 88 -48q28 -40 28 -84q6 -16 14 -14t18 -8 q6 -26 30 -53t38 -59q4 -50 6 -89t-21 -96t-76 -115t-120 -103q-115 -77 -291 -131q-8 2 -16 0t-4 10q-27 -23 -62.5 -21.5t-58.5 3.5t-43 -2q-34 34 -42 60q-10 0 -9 10t-7 10q12 20 11 23t-6 5q-14 6 -8.5 18t3.5 33t-4 43q-5 55 32 74q151 -18 347 94q49 28 97 50 q9 26 30 44q40 33 44 53.5t-5 23.5t-9 15l-22 6q-38 22 -86 37t-82 33q-22 -12 -41 -6t-49 12q-162 10 -252 50q-4 10 -10 18t-22 4q-40 54 -46 64q4 24 6 41t-12 33z" />
<glyph unicode="&#xe0;" horiz-adv-x="1190" d="M-52 146l22 18l2 34q48 123 121 271.5t88 180.5t31 64q-2 6 -2 14t4 18q26 41 53 95q54 110 87 153l32 14q6 2 14 5t18 3l30 -4q56 26 98 73t86 113l20 28l26 -16q10 -6 28 -11t46 -12q87 -22 112 -47q12 -32 14 -48t7 -41q14 -69 17 -135q16 -54 28 -118 q26 -140 48 -194q16 0 20 -2q13 5 46 10l22 2l8 -20q2 -10 20 -20q32 -2 50 -20t26 -22l30 -12l-16 -30q-43 -78 -140 -124q28 -170 14 -198q-43 -121 -158 -176q-38 -18 -80 -20q-26 6 -35 13t-17 12q-16 10 -22 13l-24 10l8 26q4 16 -2 25t-18 20q-22 20 -28 29l-34 38 l54 14q50 14 67 36t13 74q-40 8 -67 2t-59 -15q-82 -23 -124 -23q-66 0 -106 8q-4 22 -8 25t-11 10q-31 31 -23 67q-10 18 -12 36q-12 -24 -18 -50l-8 -20l-20 -4q-8 -4 -8 -20l-10 -34q-4 -4 -8 -7t-8 -7q-6 -28 -19 -62q-28 -73 -25 -108l-8 -22q-13 -15 -31.5 -25.5 t-25.5 -13.5t-11 -5l-6 -22l-24 -4q-22 -4 -31 -6t-21 -2l-20 2q-22 18 -34 29t-28 21q-18 24 -20 36t-5 23t-4 19t-5 12zM436 510q12 2 23 2t46 3q119 10 193 25q-36 155 -64 254l-12 -20q-77 -81 -140 -192l-24 -36t-22 -36zM470 1638q-36 54 6 135q12 23 24 51 q16 8 36 29t22 43q10 -6 29 5t23 23q22 -12 41 -31l37 -37q47 -47 76 -52q48 -54 103 -107t101 -103q8 -28 29 -42t38 -30t21 -38t-22 -64q20 -33 5 -56.5t-29 -37.5l-28 -28q-113 5 -292 171q-168 156 -220 169z" />
<glyph unicode="&#xe1;" horiz-adv-x="1190" d="M-52 146l22 18l2 34q48 123 121 271.5t88 180.5t31 64q-2 6 -2 14t4 18q26 41 53 95q54 110 87 153l32 14q6 2 14 5t18 3l30 -4q56 26 98 73t86 113l20 28l26 -16q10 -6 28 -11t46 -12q87 -22 112 -47q12 -32 14 -48t7 -41q14 -69 17 -135q16 -54 28 -118 q26 -140 48 -194q16 0 20 -2q13 5 46 10l22 2l8 -20q2 -10 20 -20q32 -2 50 -20t26 -22l30 -12l-16 -30q-43 -78 -140 -124q28 -170 14 -198q-43 -121 -158 -176q-38 -18 -80 -20q-26 6 -35 13t-17 12q-16 10 -22 13l-24 10l8 26q4 16 -2 25t-18 20q-22 20 -28 29l-34 38 l54 14q50 14 67 36t13 74q-40 8 -67 2t-59 -15q-82 -23 -124 -23q-66 0 -106 8q-4 22 -8 25t-11 10q-31 31 -23 67q-10 18 -12 36q-12 -24 -18 -50l-8 -20l-20 -4q-8 -4 -8 -20l-10 -34q-4 -4 -8 -7t-8 -7q-6 -28 -19 -62q-28 -73 -25 -108l-8 -22q-13 -15 -31.5 -25.5 t-25.5 -13.5t-11 -5l-6 -22l-24 -4q-22 -4 -31 -6t-21 -2l-20 2q-22 18 -34 29t-28 21q-18 24 -20 36t-5 23t-4 19t-5 12zM436 510q12 2 23 2t46 3q119 10 193 25q-36 155 -64 254l-12 -20q-77 -81 -140 -192l-24 -36t-22 -36zM452 1504q4 22 21 38t38 30t29 42 q46 50 101 103t103 107q30 6 62 38l51 51q19 19 41 31q4 -12 23 -23t29 -5q2 -22 22 -43t36 -29q12 -28 24 -51t18 -45q14 -51 -12 -90q-52 -13 -220 -169q-179 -166 -292 -171l-28 28t-23 28q-21 33 -1 66q-26 42 -22 64z" />
<glyph unicode="&#xe2;" horiz-adv-x="1190" d="M-52 146l22 18l2 34q48 123 121 271.5t88 180.5t31 64q-2 6 -2 14t4 18q26 41 53 95q54 110 87 153l32 14q6 2 14 5t18 3l30 -4q56 26 98 73t86 113l20 28l26 -16q10 -6 28 -11t46 -12q87 -22 112 -47q12 -32 14 -48t7 -41q14 -69 17 -135q16 -54 28 -118 q26 -140 48 -194q16 0 20 -2q13 5 46 10l22 2l8 -20q2 -10 20 -20q32 -2 50 -20t26 -22l30 -12l-16 -30q-43 -78 -140 -124q28 -170 14 -198q-43 -121 -158 -176q-38 -18 -80 -20q-26 6 -35 13t-17 12q-16 10 -22 13l-24 10l8 26q4 16 -2 25t-18 20q-22 20 -28 29l-34 38 l54 14q50 14 67 36t13 74q-40 8 -67 2t-59 -15q-82 -23 -124 -23q-66 0 -106 8q-4 22 -8 25t-11 10q-31 31 -23 67q-10 18 -12 36q-12 -24 -18 -50l-8 -20l-20 -4q-8 -4 -8 -20l-10 -34q-4 -4 -8 -7t-8 -7q-6 -28 -19 -62q-28 -73 -25 -108l-8 -22q-13 -15 -31.5 -25.5 t-25.5 -13.5t-11 -5l-6 -22l-24 -4q-22 -4 -31 -6t-21 -2l-20 2q-22 18 -34 29t-28 21q-18 24 -20 36t-5 23t-4 19t-5 12zM322 1441q-12 37 10 77q44 11 172 143q119 122 214 149q20 4 28 4q106 -37 218 -153q128 -132 172 -143q22 -40 13 -68t-19 -48t-20 -44 q-42 -28 -46 -64q-8 6 -23 -4t-19 -20q-18 10 -33 27t-30 33q-35 38 -61 44q-40 46 -83 93t-81 89q-38 -42 -81 -89t-83 -93q-26 -6 -51 -33t-40 -44t-33 -27q-4 10 -19 20t-23 4q-4 36 -46 64q-10 24 -20 44t-16 39zM436 510q12 2 23 2t46 3q119 10 193 25q-36 155 -64 254 l-12 -20q-77 -81 -140 -192l-24 -36t-22 -36z" />
<glyph unicode="&#xe3;" horiz-adv-x="1190" d="M-52 146l22 18l2 34q48 123 121 271.5t88 180.5t31 64q-2 6 -2 14t4 18q26 41 53 95q54 110 87 153l32 14q6 2 14 5t18 3l30 -4q56 26 98 73t86 113l20 28l26 -16q10 -6 28 -11t46 -12q87 -22 112 -47q12 -32 14 -48t7 -41q14 -69 17 -135q16 -54 28 -118 q26 -140 48 -194q16 0 20 -2q13 5 46 10l22 2l8 -20q2 -10 20 -20q32 -2 50 -20t26 -22l30 -12l-16 -30q-43 -78 -140 -124q28 -170 14 -198q-43 -121 -158 -176q-38 -18 -80 -20q-26 6 -35 13t-17 12q-16 10 -22 13l-24 10l8 26q4 16 -2 25t-18 20q-22 20 -28 29l-34 38 l54 14q50 14 67 36t13 74q-40 8 -67 2t-59 -15q-82 -23 -124 -23q-66 0 -106 8q-4 22 -8 25t-11 10q-31 31 -23 67q-10 18 -12 36q-12 -24 -18 -50l-8 -20l-20 -4q-8 -4 -8 -20l-10 -34q-4 -4 -8 -7t-8 -7q-6 -28 -19 -62q-28 -73 -25 -108l-8 -22q-13 -15 -31.5 -25.5 t-25.5 -13.5t-11 -5l-6 -22l-24 -4q-22 -4 -31 -6t-21 -2l-20 2q-22 18 -34 29t-28 21q-18 24 -20 36t-5 23t-4 19t-5 12zM300 1394q7 40 43.5 96t53.5 82t39 54q14 12 22 16q36 32 76 49q54 23 138 23h28q46 -4 84 -10q37 -20 67 -42q39 -28 64 -63t39 -34t22 10t15 18 t19 21q12 38 48 62q29 15 86 26h20q24 8 50 8h6q72 -4 72 -62q-4 -24 -16 -48q-14 -28 -39 -66t-42 -64t-39 -54q-14 -12 -22 -16q-36 -32 -76 -49q-54 -23 -138 -23h-28q-22 2 -45 4t-39 6q-37 20 -67 42q-39 28 -56 52q-32 46 -45.5 45t-22.5 -11t-16 -17t-11 -12t-8 -9 q-12 -38 -48 -62q-18 -10 -28 -12t-18 -6l-40 -8l-20 2q-72 -24 -109 9q-19 17 -19 43zM436 510q12 2 23 2t46 3q119 10 193 25q-36 155 -64 254l-12 -20q-77 -81 -140 -192l-24 -36t-22 -36z" />
<glyph unicode="&#xe4;" horiz-adv-x="1190" d="M-52 146l22 18l2 34q48 123 121 271.5t88 180.5t31 64q-2 6 -2 14t4 18q26 41 53 95q54 110 87 153l32 14q6 2 14 5t18 3l30 -4q56 26 98 73t86 113l20 28l26 -16q10 -6 28 -11t46 -12q87 -22 112 -47q12 -32 14 -48t7 -41q14 -69 17 -135q16 -54 28 -118 q26 -140 48 -194q16 0 20 -2q13 5 46 10l22 2l8 -20q2 -10 20 -20q32 -2 50 -20t26 -22l30 -12l-16 -30q-43 -78 -140 -124q28 -170 14 -198q-43 -121 -158 -176q-38 -18 -80 -20q-26 6 -35 13t-17 12q-16 10 -22 13l-24 10l8 26q4 16 -2 25t-18 20q-22 20 -28 29l-34 38 l54 14q50 14 67 36t13 74q-40 8 -67 2t-59 -15q-82 -23 -124 -23q-66 0 -106 8q-4 22 -8 25t-11 10q-31 31 -23 67q-10 18 -12 36q-12 -24 -18 -50l-8 -20l-20 -4q-8 -4 -8 -20l-10 -34q-4 -4 -8 -7t-8 -7q-6 -28 -19 -62q-28 -73 -25 -108l-8 -22q-13 -15 -31.5 -25.5 t-25.5 -13.5t-11 -5l-6 -22l-24 -4q-22 -4 -31 -6t-21 -2l-20 2q-22 18 -34 29t-28 21q-18 24 -20 36t-5 23t-4 19t-5 12zM356 1510q0 38 12 64t10 36l-8 36l30 2v42q28 2 42 2t26 3q14 4 76 29l28 12l12 -26q4 -8 23 -26t37 -37t40 -39t26 -44q-8 -34 -24 -70 q-58 -49 -69 -54.5t-12 -6.5t-2 -4t-7 -15l-20 -14q-20 -7 -58 -2l-28 2l-16 -16l-24 10q-22 10 -31 13t-19 11l-18 12q-16 60 -26 80zM436 510q12 2 23 2t46 3q119 10 193 25q-36 155 -64 254l-12 -20q-77 -81 -140 -192l-24 -36t-22 -36zM898 1472l8 26q4 10 3 36t1 51 t0 53t10 50q42 22 66 30q20 -2 38 -4t34 -4t20 -3t6 -1t20 6l24 -4q14 -6 23 -17t19 -21q8 -16 16 -20l24 -2l8 -24q10 -20 13 -29l7 -21l2 -22q-32 -54 -36 -74q-23 -23 -50.5 -33.5t-35.5 -18.5l-20 -30l-20 18l-30 -28q-22 18 -32 27t-19 15q-13 9 -71 34z" />
<glyph unicode="&#xe5;" horiz-adv-x="1190" d="M-52 146l22 18l2 34q48 123 121 271.5t88 180.5t31 64q-2 6 -2 14t4 18q26 41 53 95q54 110 87 153l32 14q6 2 14 5t18 3l30 -4q32 8 56 30t48 48q-38 34 -56 84q-19 135 91 264q29 34 55 66q12 -4 17 7t15 13q6 16 20 23t22 23q16 4 26 15t26 15l27 30q9 10 21 26 q10 2 15 1t15 1q19 26 36 36q12 -6 27 -8t25 -12q0 -12 12 -22q21 -18 24 -28q14 -12 18 -16t8 -18q-4 -10 -7 -21t-13 -15q10 -24 8 -26l86 -166q-4 -24 8 -45t16 -51t-5 -52t-25 -39t-38 -32t-42 -33l-4 6q-10 -12 -22 -15l-28 -7q-10 -4 -22 -10t-26 -12q17 -100 20 -156 q16 -54 28 -118q26 -140 48 -194q16 0 20 -2q13 5 46 10l22 2l8 -20q2 -10 20 -20q32 -2 50 -20t26 -22l30 -12l-16 -30q-43 -78 -140 -124q2 -12 3 -23t6 -34q15 -71 9 -133q-50 -131 -162 -184q-38 -18 -80 -20q-26 6 -35 13t-17 12q-16 10 -22 13l-24 10l8 26q4 16 -2 25 t-18 20q-22 20 -28 29l-34 38l54 14q50 14 67 36t13 74q-40 8 -67 2t-59 -15q-82 -23 -124 -23q-66 0 -106 8q-4 22 -8 25t-11 10q-31 31 -23 67q-10 18 -12 36q-12 -24 -18 -50l-8 -20l-20 -4q-8 -4 -8 -20l-10 -34q-4 -4 -8 -7t-8 -7q-6 -28 -19 -62q-28 -73 -25 -108 l-8 -22q-13 -15 -31.5 -25.5t-25.5 -13.5t-11 -5l-6 -22l-24 -4q-22 -4 -31 -6t-21 -2l-20 2q-22 18 -34 29t-28 21q-18 24 -20 36t-5 23t-4 19t-5 12zM436 510l44 4q132 9 218 26q-36 155 -64 254l-12 -20q-77 -81 -140 -192l-24 -36t-22 -36zM730 1284q14 -10 34 -6t36 4 q26 6 52 24q4 18 4 26q-8 12 -14 26t-14 26q-10 -14 -24 -6q-10 -10 -21 -18t-21 -18q-12 -18 -21 -28t-11 -30z" />
<glyph unicode="&#xe6;" horiz-adv-x="1942" d="M-144 146l24 18l8 34q69 130 161.5 275t111.5 177t41 66q-4 14 6 30q45 54 73 102q61 101 103 146l14 16l20 -2q12 8 34 8l28 -4q60 26 109 74t103 114l24 28l24 -16q8 -6 25 -11t44 -13t59 -18t48 -28q8 -45 9 -79.5t1 -69.5t-4 -75q4 -34 6 -68t5 -74t6 -85t13 -85 l40 -2l24 6q46 91 62 138q-46 43 -60 118q-6 32 -10 64t-14 66q46 74 186 102q40 8 84 18q131 43 230.5 57.5t164.5 22.5t149 22q22 -16 34 -16q8 18 19 11t9 11q41 -64 122 -96q2 -15 0 -28q-4 -25 0 -40q-40 -68 -96 -93t-119 -36t-131 -23t-132 -52q-16 7 -38 1 q-48 -11 -70 -7q-12 -12 -31 -17t-37 -11q10 -20 9 -38t3 -30q70 -8 155 0t169 10q2 -8 -2 -11t-4 -11q16 -10 29 -25t27 -29q35 -35 64 -32q20 -32 8 -74q-34 -22 -66 -44t-67 -40q-84 -43 -159 -40h-16q-6 0 -14 6q-16 -10 -45 -6t-45 -6q-22 10 -53 10t-55 8 q-66 -90 -104 -194q102 -15 170 -4q126 19 216 16q42 22 97 29t101 23q16 -6 27 -20l22 -28q28 -35 55 -32q10 -10 14 -30t9 -27t17 -5q-57 -117 -160 -154q-50 -18 -111 -27t-107 -18t-58 -5t-26 4q-360 -60 -466 46q-12 10 -17 25t-15 27q-42 -50 -108 -86t-128 -38 q-24 6 -33 13t-16 12q-12 8 -21 13l-20 12l10 24q8 16 3 26t-15 20l-16 16q-6 6 -10 12l-28 38l56 16q52 12 72 34t24 74q-40 8 -68 2t-61 -14q-91 -22 -129 -22h-52l-50 6q-2 24 -11 34q-29 32 -15 68q-8 16 -8 38q-8 -14 -15 -26t-11 -24l-10 -22l-22 -4l-6 -38l-18 -16 q-4 -4 -9 -7t-11 -7q-8 -24 -26 -60q-36 -71 -42 -110l-10 -22q-10 -12 -24 -19l-26 -13q-6 -4 -14 -7t-12 -5l-8 -22l-24 -4q-24 -4 -33 -6t-21 -2l-20 2l-29 29q-11 11 -27 21q-14 28 -15 49t-1 29t-4 12zM396 512l46 2q137 9 220 26q-8 131 -28 256l-14 -20 q-89 -85 -168 -192v-4q-30 -34 -56 -68z" />
<glyph unicode="&#xe7;" horiz-adv-x="1052" d="M0 594q30 90 85 155t113 129q26 12 39 25t28 24l30 22t27 27q54 13 109 51.5t87 56.5t74 28q17 20 61.5 41t65.5 33t33 32q10 -16 28 -11t31 9t20 -2t13 -12q14 -14 20 2q12 0 0 -24q16 2 27 -7t35 -11q8 -10 4 -15t-4 -17q60 -18 76 -57t2 -81t-50 -78t-78 -48 q-96 -26 -181 -57t-139 -91q-107 -31 -217 -149q-29 -31 -61 -61q2 -28 -9 -43t-21 -31q6 -42 36 -98q132 -40 281 -50t299 -12q14 -20 33 -37t35 -36q39 -47 30 -99q-28 -30 -62 -55t-68 -51q-32 -2 -79 2t-87 -14q-88 6 -116 10l-62 -92q6 -10 22 -13t20 -13 q71 -7 154 -95q20 -21 46 -35q0 -6 4 -9t0 -11q61 -52 46 -138q-27 -61 -106 -116q-32 -14 -63 -22t-55 -20l-36 4q-75 -35 -144 -14q-106 -14 -157 22q-17 12 -23 32q-34 20 -44 50t10 60q10 4 14 5t14 9q190 -5 316 20q3 13 20 19q33 11 38 21q0 9 -9 12q-15 6 -15 18 q-34 -4 -82 26q-50 3 -75 13.5t-53 18.5q-11 14 -31.5 26t-26.5 21t-8 25q2 34 3 56t11 62q48 56 86 94q-69 17 -116 34q-20 22 -40 41t-54 27q-84 67 -126 210q-33 112 -28 252z" />
<glyph unicode="&#xe8;" horiz-adv-x="1068" d="M22.5 355.5q7.5 36.5 26.5 60.5t13 52q10 2 12 11t16 7q20 60 45 110q52 104 69 150q-54 50 -70 183q-4 33 -14 67q48 72 186 100q40 8 84 18q133 43 230.5 57.5t163.5 22.5t150 24q18 -18 34 -18q8 18 19 11t9 11q36 -60 120 -96q2 -15 0 -27.5t-2 -19.5t4 -21 q-42 -68 -97 -93t-119 -36t-131 -23t-133 -52q-26 10 -47 0t-61 -6q-12 -12 -30 -17t-36 -11q8 -18 7 -37t5 -31q70 -6 155 2t167 10q2 -10 -2 -13t-2 -11q14 -10 28 -25t28 -29q33 -33 64 -30q20 -40 6 -74q-32 -22 -64 -45t-67 -41q-80 -41 -161 -38h-15q-5 0 -13 6 q-16 -10 -45 -6t-45 -6q-22 10 -53 9t-55 7q-64 -84 -104 -192q95 -14 166 -5q153 19 220 17q40 22 95 29t101 23q16 -6 28 -21t23 -28q29 -34 53 -31q10 -10 14 -30t9 -27t17 -5q-53 -116 -158 -154q-50 -18 -111 -28t-107 -19t-58 -4t-28 5q-211 -46 -366 -7 q-60 15 -98 53q-16 14 -21 33t-27 29q-2 26 -8 58t-12 67q-15 88 -7.5 124.5zM266 1638q-36 54 6 135q12 23 24 51q16 8 36 29t22 43q10 -6 29 5t23 23q22 -12 41 -31l37 -37q47 -47 76 -52q48 -54 103 -107t101 -103q8 -28 29 -42t38 -30t21 -38t-22 -64q20 -33 5 -56.5 t-29 -37.5l-28 -28q-113 5 -292 171q-168 156 -220 169z" />
<glyph unicode="&#xe9;" horiz-adv-x="1068" d="M22.5 355.5q7.5 36.5 26.5 60.5t13 52q10 2 12 11t16 7q20 60 45 110q52 104 69 150q-54 50 -70 183q-4 33 -14 67q48 72 186 100q40 8 84 18q133 43 230.5 57.5t163.5 22.5t150 24q18 -18 34 -18q8 18 19 11t9 11q36 -60 120 -96q2 -15 0 -27.5t-2 -19.5t4 -21 q-42 -68 -97 -93t-119 -36t-131 -23t-133 -52q-26 10 -47 0t-61 -6q-12 -12 -30 -17t-36 -11q8 -18 7 -37t5 -31q70 -6 155 2t167 10q2 -10 -2 -13t-2 -11q14 -10 28 -25t28 -29q33 -33 64 -30q20 -40 6 -74q-32 -22 -64 -45t-67 -41q-80 -41 -161 -38h-15q-5 0 -13 6 q-16 -10 -45 -6t-45 -6q-22 10 -53 9t-55 7q-64 -84 -104 -192q95 -14 166 -5q153 19 220 17q40 22 95 29t101 23q16 -6 28 -21t23 -28q29 -34 53 -31q10 -10 14 -30t9 -27t17 -5q-53 -116 -158 -154q-50 -18 -111 -28t-107 -19t-58 -4t-28 5q-211 -46 -366 -7 q-60 15 -98 53q-16 14 -21 33t-27 29q-2 26 -8 58t-12 67q-15 88 -7.5 124.5zM432 1484q4 22 21 38t38 30t29 42q46 50 101 103t103 107q30 6 62 38l51 51q19 19 41 31q4 -12 23 -23t29 -5q2 -22 22 -43t36 -29q12 -28 24 -51t18 -45q14 -51 -12 -90q-52 -13 -220 -169 q-179 -166 -292 -171l-28 28t-23 28q-21 33 -1 66q-26 42 -22 64z" />
<glyph unicode="&#xea;" horiz-adv-x="1068" d="M22.5 355.5q7.5 36.5 26.5 60.5t13 52q10 2 12 11t16 7q20 60 45 110q52 104 69 150q-54 50 -70 183q-4 33 -14 67q48 72 186 100q40 8 84 18q133 43 230.5 57.5t163.5 22.5t150 24q18 -18 34 -18q8 18 19 11t9 11q36 -60 120 -96q2 -15 0 -27.5t-2 -19.5t4 -21 q-42 -68 -97 -93t-119 -36t-131 -23t-133 -52q-26 10 -47 0t-61 -6q-12 -12 -30 -17t-36 -11q8 -18 7 -37t5 -31q70 -6 155 2t167 10q2 -10 -2 -13t-2 -11q14 -10 28 -25t28 -29q33 -33 64 -30q20 -40 6 -74q-32 -22 -64 -45t-67 -41q-80 -41 -161 -38h-15q-5 0 -13 6 q-16 -10 -45 -6t-45 -6q-22 10 -53 9t-55 7q-64 -84 -104 -192q95 -14 166 -5q153 19 220 17q40 22 95 29t101 23q16 -6 28 -21t23 -28q29 -34 53 -31q10 -10 14 -30t9 -27t17 -5q-53 -116 -158 -154q-50 -18 -111 -28t-107 -19t-58 -4t-28 5q-211 -46 -366 -7 q-60 15 -98 53q-16 14 -21 33t-27 29q-2 26 -8 58t-12 67q-15 88 -7.5 124.5zM342 1461q-12 37 10 77q44 11 172 143q119 122 214 149q20 4 28 4q106 -37 218 -153q128 -132 172 -143q22 -40 13 -68t-19 -48t-20 -44q-42 -28 -46 -64q-8 6 -23 -4t-19 -20q-18 10 -33 27 t-30 33q-35 38 -61 44q-40 46 -83 93t-81 89q-38 -42 -81 -89t-83 -93q-26 -6 -51 -33t-40 -44t-33 -27q-4 10 -19 20t-23 4q-4 36 -46 64q-10 24 -20 44t-16 39z" />
<glyph unicode="&#xeb;" horiz-adv-x="1068" d="M22.5 355.5q7.5 36.5 26.5 60.5t13 52q10 2 12 11t16 7q20 60 45 110q52 104 69 150q-54 50 -70 183q-4 33 -14 67q48 72 186 100q40 8 84 18q133 43 230.5 57.5t163.5 22.5t150 24q18 -18 34 -18q8 18 19 11t9 11q36 -60 120 -96q2 -15 0 -27.5t-2 -19.5t4 -21 q-42 -68 -97 -93t-119 -36t-131 -23t-133 -52q-26 10 -47 0t-61 -6q-12 -12 -30 -17t-36 -11q8 -18 7 -37t5 -31q70 -6 155 2t167 10q2 -10 -2 -13t-2 -11q14 -10 28 -25t28 -29q33 -33 64 -30q20 -40 6 -74q-32 -22 -64 -45t-67 -41q-80 -41 -161 -38h-15q-5 0 -13 6 q-16 -10 -45 -6t-45 -6q-22 10 -53 9t-55 7q-64 -84 -104 -192q95 -14 166 -5q153 19 220 17q40 22 95 29t101 23q16 -6 28 -21t23 -28q29 -34 53 -31q10 -10 14 -30t9 -27t17 -5q-53 -116 -158 -154q-50 -18 -111 -28t-107 -19t-58 -4t-28 5q-211 -46 -366 -7 q-60 15 -98 53q-16 14 -21 33t-27 29q-2 26 -8 58t-12 67q-15 88 -7.5 124.5zM356 1510q0 38 12 64t10 36l-8 36l30 2v42q28 2 42 2t26 3q14 4 76 29l28 12l12 -26q4 -8 23 -26t37 -37t40 -39t26 -44q-8 -34 -24 -70q-58 -49 -69 -54.5t-12 -6.5t-2 -4t-7 -15l-20 -14 q-20 -7 -58 -2l-28 2l-16 -16l-24 10q-22 10 -31 13t-19 11l-18 12q-16 60 -26 80zM898 1472l8 26q4 10 3 36t1 51t0 53t10 50q42 22 66 30q20 -2 38 -4t34 -4t20 -3t6 -1t20 6l24 -4q14 -6 23 -17t19 -21q8 -16 16 -20l24 -2l8 -24q10 -20 13 -29l7 -21l2 -22 q-32 -54 -36 -74q-23 -23 -50.5 -33.5t-35.5 -18.5l-20 -30l-20 18l-30 -28q-22 18 -32 27t-19 15q-13 9 -71 34z" />
<glyph unicode="&#xec;" horiz-adv-x="656" d="M112 304q14 35 16 92.5t3 90.5t10 90t36 133t37 126t3 66t-4 27t13 14t14 19t1 30t7 32t25 49t11 65q18 12 34 28t33 29q43 33 89 33q16 -20 21 -44l10 -48q12 -60 49 -78v-40q0 -101 34 -114q-87 -232 -113 -353q-49 -236 -17 -411q18 -105 -55 -145q-55 -30 -147 -15 q-50 70 -110 324zM184 1658q-36 54 6 135q12 23 24 51q16 8 36 29t22 43q10 -6 29 5t23 23q22 -12 41 -31l37 -37q47 -47 76 -52q48 -54 103 -107t101 -103q8 -28 29 -42t38 -30t21 -38t-22 -64q20 -33 5 -56.5t-29 -37.5l-28 -28q-113 5 -292 171q-168 156 -220 169z" />
<glyph unicode="&#xed;" horiz-adv-x="656" d="M112 304q14 35 16 92.5t3 90.5t10 90t36 133t37 126t3 66t-4 27t13 14t14 19t1 30t7 32t25 49t11 65q18 12 34 28t33 29q43 33 89 33q16 -20 21 -44l10 -48q12 -60 49 -78v-40q0 -101 34 -114q-87 -232 -113 -353q-49 -236 -17 -411q18 -105 -55 -145q-55 -30 -147 -15 q-50 70 -110 324zM474 1524q4 22 21 38t38 30t29 42q46 50 101 103t103 107q30 6 62 38l51 51q19 19 41 31q4 -12 23 -23t29 -5q2 -22 22 -43t36 -29q12 -28 24 -51t18 -45q14 -51 -12 -90q-52 -13 -220 -169q-179 -166 -292 -171l-28 28t-23 28q-21 33 -1 66q-26 42 -22 64 z" />
<glyph unicode="&#xee;" horiz-adv-x="656" d="M96 1481q-12 37 10 77q44 11 172 143q119 122 214 149q20 4 28 4q106 -37 218 -153q128 -132 172 -143q22 -40 13 -68t-19 -48t-20 -44q-42 -28 -46 -64q-8 6 -23 -4t-19 -20q-18 10 -33 27t-30 33q-35 38 -61 44q-40 46 -83 93t-81 89q-38 -42 -81 -89t-83 -93 q-26 -6 -51 -33t-40 -44t-33 -27q-4 10 -19 20t-23 4q-4 36 -46 64q-10 24 -20 44t-16 39zM112 304q14 35 16 92.5t3 90.5t10 90t36 133t37 126t3 66t-4 27t13 14t14 19t1 30t7 32t25 49t11 65q18 12 34 28t33 29q43 33 89 33q16 -20 21 -44l10 -48q12 -60 49 -78v-40 q0 -101 34 -114q-87 -232 -113 -353q-49 -236 -17 -411q18 -105 -55 -145q-55 -30 -147 -15q-50 70 -110 324z" />
<glyph unicode="&#xef;" horiz-adv-x="656" d="M68 1530q0 38 12 64t10 36l-8 36l30 2v42q28 2 42 2t26 3q14 4 76 29l28 12l12 -26q4 -8 23 -26t37 -37t40 -39t26 -44q-8 -34 -24 -70q-58 -49 -69 -54.5t-12 -6.5t-2 -4t-7 -15l-20 -14q-20 -7 -58 -2l-28 2l-16 -16l-24 10q-22 10 -31 13t-19 11l-18 12q-16 60 -26 80 zM112 304q14 35 16 92.5t3 90.5t10 90t36 133t37 126t3 66t-4 27t13 14t14 19t1 30t7 32t25 49t11 65q18 12 34 28t33 29q43 33 89 33q16 -20 21 -44l10 -48q12 -60 49 -78v-40q0 -101 34 -114q-87 -232 -113 -353q-49 -236 -17 -411q18 -105 -55 -145q-55 -30 -147 -15 q-50 70 -110 324zM610 1492l8 26q4 10 3 36t1 51t0 53t10 50q42 22 66 30q20 -2 38 -4t34 -4t20 -3t6 -1t20 6l24 -4q14 -6 23 -17t19 -21q8 -16 16 -20l24 -2l8 -24q10 -20 13 -29l7 -21l2 -22q-32 -54 -36 -74q-23 -23 -50.5 -33.5t-35.5 -18.5l-20 -30l-20 18l-30 -28 q-22 18 -32 27t-19 15q-13 9 -71 34z" />
<glyph unicode="&#xf0;" horiz-adv-x="1108" d="M-52 658q10 2 15 23t1 31q20 8 43 11l46 6q54 7 77 27q22 2 44 3t44 3q-6 72 -32 180q2 18 5 27t-1 20t10 11h28q0 30 -11 60t-21 68q14 30 18 59t18 53q60 -18 160 -61q177 -76 244 -93q72 -52 148 -103t139 -113q145 -143 155 -326q-4 -22 -9 -31t-3 -39 q-60 -106 -152 -178t-201 -127t-228 -101t-231 -98q-116 29 -130 188q-4 46 -8 94q6 22 17 37t9 43q34 93 46 152q-118 -27 -140 -46q-41 3 -60 43q-8 17 -14 39t-14 46q4 16 2 46t-14 46zM398 916q20 -78 30 -148q20 -2 43 -4t42 -9q46 -17 57 -75q45 -5 38 -72 q-2 -18 -2 -36q-48 -51 -174 -66q-6 -72 -24 -160q27 2 59 17q59 28 95 31q6 14 17 21t21 17q107 41 152 70q86 58 118 132q-15 31 -53.5 63.5t-58.5 51.5t-32 45q-37 6 -71 27q-60 38 -103 41q-44 24 -79 33t-55 25q-12 4 -20 -4z" />
<glyph unicode="&#xf1;" horiz-adv-x="1156" d="M-30 314q98 208 214 444t220 466q244 -96 270 -250q-4 -12 -9 -9t-9 -3q11 -14 9.5 -20t-1.5 -13t6 -19q-8 2 -11 -2t-13 0q12 -32 1 -52q-21 -39 -13 -66q-8 0 -12 -6q-8 -13 -16 -10q6 -44 4 -88t-3 -89q-3 -119 15 -195q177 103 226 432q14 94 30 192q26 26 40 77 l22 80q8 29 20 53q42 -6 75 -37t53 -46t50 -19q24 -34 44 -66t26 -68q-10 -16 -15 -36t-11 -40q-14 -46 -44 -66q-6 -56 -24 -139q-31 -144 -28 -227q-52 -148 -62 -192q-32 -26 -50 -62t-38 -72q-8 -8 -10 -4t-14 6q3 -11 -3 -17q-10 -10 -3 -27q-28 -12 -50 -34t-47 -40 q-59 -43 -151 -10q-176 128 -248 324q-18 -4 -26 -21t-15 -35t-14 -33t-21 -15q-2 -16 -11 -28t-17 -25q-20 -33 -8 -63q-16 -12 -20 -34t-9 -42t-17 -34t-44 -12q-6 -8 -2 -10t6 -14q-22 4 -33 -3t-27 -9q-78 25 -141 184q-15 38 -29 66q12 44 -12 78zM440 1436 q7 40 43.5 96t53.5 82t39 54q14 12 22 16q36 32 76 49q54 23 138 23h28q46 -4 84 -10q37 -20 67 -42q39 -28 64 -63t39 -34t22 10t15 18t19 21q12 38 48 62q29 15 86 26h20q24 8 50 8h6q72 -4 72 -62q-4 -24 -16 -48q-14 -28 -39 -66t-42 -64t-39 -54q-14 -12 -22 -16 q-36 -32 -76 -49q-54 -23 -138 -23h-28q-22 2 -45 4t-39 6q-37 20 -67 42q-39 28 -56 52q-32 46 -45.5 45t-22.5 -11t-16 -17t-11 -12t-8 -9q-12 -38 -48 -62q-18 -10 -28 -12t-18 -6l-40 -8l-20 2q-72 -24 -109 9q-19 17 -19 43z" />
<glyph unicode="&#xf2;" horiz-adv-x="1288" d="M26 226q-38 273 180 525q58 67 112 131q18 -6 28 9q20 30 34 33q14 30 41 45t43 43q26 6 45 23q37 34 59 39v22q36 16 53 37t41 51q18 2 29 2t33 4q27 47 68 72q24 -12 53 -16t51 -26q3 -28 24.5 -44t32.5 -26t15 -28q8 -2 11 2t11 2q6 -28 14 -37t16 -35 q-10 -20 -15 -41t-25 -31q-2 -14 8 -15t12 -15t-6 -22q48 -78 86 -165t86 -165q-3 -37 12 -74q30 -68 35 -99t1 -64t-14 -64q-23 -70 -64 -93q-28 -36 -68 -56t-74 -48q-23 -15 -104 -32q-139 -76 -234 -68q-126 -46 -250 -20q-202 -28 -323 141q-35 49 -57 103zM288 304 q74 -61 271 -23q47 9 87 9q84 20 144 53t126 67q8 22 21 36t15 42q-14 22 -14 54q-44 62 -76 133t-72 133q-16 -32 -36 -12q-11 -42 -61 -23q-13 5 -23 13q-58 -46 -116 -90t-104 -102q-8 -4 -10 -3t-12 -3q-16 -38 -39 -69t-45 -63q-53 -77 -56 -152zM552 1616 q-36 54 6 135q12 23 24 51q16 8 36 29t22 43q10 -6 29 5t23 23q22 -12 41 -31l37 -37q47 -47 76 -52q48 -54 103 -107t101 -103q8 -28 29 -42t38 -30t21 -38t-22 -64q20 -33 5 -56.5t-29 -37.5l-28 -28q-113 5 -292 171q-168 156 -220 169z" />
<glyph unicode="&#xf3;" horiz-adv-x="1288" d="M26 226q-38 273 180 525q58 67 112 131q18 -6 28 9q20 30 34 33q14 30 41 45t43 43q26 6 45 23q37 34 59 39v22q36 16 53 37t41 51q18 2 29 2t33 4q27 47 68 72q24 -12 53 -16t51 -26q3 -28 24.5 -44t32.5 -26t15 -28q8 -2 11 2t11 2q6 -28 14 -37t16 -35 q-10 -20 -15 -41t-25 -31q-2 -14 8 -15t12 -15t-6 -22q48 -78 86 -165t86 -165q-3 -37 12 -74q30 -68 35 -99t1 -64t-14 -64q-23 -70 -64 -93q-28 -36 -68 -56t-74 -48q-23 -15 -104 -32q-139 -76 -234 -68q-126 -46 -250 -20q-202 -28 -323 141q-35 49 -57 103zM288 304 q74 -61 271 -23q47 9 87 9q84 20 144 53t126 67q8 22 21 36t15 42q-14 22 -14 54q-44 62 -76 133t-72 133q-16 -32 -36 -12q-11 -42 -61 -23q-13 5 -23 13q-58 -46 -116 -90t-104 -102q-8 -4 -10 -3t-12 -3q-16 -38 -39 -69t-45 -63q-53 -77 -56 -152zM494 1504q4 22 21 38 t38 30t29 42q46 50 101 103t103 107q30 6 62 38l51 51q19 19 41 31q4 -12 23 -23t29 -5q2 -22 22 -43t36 -29q12 -28 24 -51t18 -45q14 -51 -12 -90q-52 -13 -220 -169q-179 -166 -292 -171l-28 28t-23 28q-21 33 -1 66q-26 42 -22 64z" />
<glyph unicode="&#xf4;" horiz-adv-x="1288" d="M26 226q-38 273 180 525q58 67 112 131q18 -6 28 9q20 30 34 33q14 30 41 45t43 43q26 6 45 23q37 34 59 39v22q36 16 53 37t41 51q18 2 29 2t33 4q27 47 68 72q24 -12 53 -16t51 -26q3 -28 24.5 -44t32.5 -26t15 -28q8 -2 11 2t11 2q6 -28 14 -37t16 -35 q-10 -20 -15 -41t-25 -31q-2 -14 8 -15t12 -15t-6 -22q48 -78 86 -165t86 -165q-3 -37 12 -74q30 -68 35 -99t1 -64t-14 -64q-23 -70 -64 -93q-28 -36 -68 -56t-74 -48q-23 -15 -104 -32q-139 -76 -234 -68q-126 -46 -250 -20q-202 -28 -323 141q-35 49 -57 103zM288 304 q74 -61 271 -23q47 9 87 9q84 20 144 53t126 67q8 22 21 36t15 42q-14 22 -14 54q-44 62 -76 133t-72 133q-16 -32 -36 -12q-11 -42 -61 -23q-13 5 -23 13q-58 -46 -116 -90t-104 -102q-8 -4 -10 -3t-12 -3q-16 -38 -39 -69t-45 -63q-53 -77 -56 -152zM446 1501 q-12 37 10 77q44 11 172 143q119 122 214 149q20 4 28 4q106 -37 218 -153q128 -132 172 -143q22 -40 13 -68t-19 -48t-20 -44q-42 -28 -46 -64q-8 6 -23 -4t-19 -20q-18 10 -33 27t-30 33q-35 38 -61 44q-40 46 -83 93t-81 89q-38 -42 -81 -89t-83 -93q-26 -6 -51 -33 t-40 -44t-33 -27q-4 10 -19 20t-23 4q-4 36 -46 64q-10 24 -20 44t-16 39z" />
<glyph unicode="&#xf5;" horiz-adv-x="1288" d="M26 226q-38 273 180 525q58 67 112 131q18 -6 28 9q20 30 34 33q14 30 41 45t43 43q26 6 45 23q37 34 59 39v22q36 16 53 37t41 51q18 2 29 2t33 4q27 47 68 72q24 -12 53 -16t51 -26q3 -28 24.5 -44t32.5 -26t15 -28q8 -2 11 2t11 2q6 -28 14 -37t16 -35 q-10 -20 -15 -41t-25 -31q-2 -14 8 -15t12 -15t-6 -22q48 -78 86 -165t86 -165q-3 -37 12 -74q30 -68 35 -99t1 -64t-14 -64q-23 -70 -64 -93q-28 -36 -68 -56t-74 -48q-23 -15 -104 -32q-139 -76 -234 -68q-126 -46 -250 -20q-202 -28 -323 141q-35 49 -57 103zM288 304 q74 -61 271 -23q47 9 87 9q84 20 144 53t126 67q8 22 21 36t15 42q-14 22 -14 54q-44 62 -76 133t-72 133q-16 -32 -36 -12q-11 -42 -61 -23q-13 5 -23 13q-58 -46 -116 -90t-104 -102q-8 -4 -10 -3t-12 -3q-16 -38 -39 -69t-45 -63q-53 -77 -56 -152zM440 1414 q7 40 43.5 96t53.5 82t39 54q14 12 22 16q36 32 76 49q54 23 138 23h28q46 -4 84 -10q37 -20 67 -42q39 -28 64 -63t39 -34t22 10t15 18t19 21q12 38 48 62q29 15 86 26h20q24 8 50 8h6q72 -4 72 -62q-4 -24 -16 -48q-14 -28 -39 -66t-42 -64t-39 -54q-14 -12 -22 -16 q-36 -32 -76 -49q-54 -23 -138 -23h-28q-22 2 -45 4t-39 6q-37 20 -67 42q-39 28 -56 52q-32 46 -45.5 45t-22.5 -11t-16 -17t-11 -12t-8 -9q-12 -38 -48 -62q-18 -10 -28 -12t-18 -6l-40 -8l-20 2q-72 -24 -109 9q-19 17 -19 43z" />
<glyph unicode="&#xf6;" horiz-adv-x="1288" d="M26 226q-38 273 180 525q58 67 112 131q18 -6 28 9q20 30 34 33q14 30 41 45t43 43q26 6 45 23q37 34 59 39v22q36 16 53 37t41 51q18 2 29 2t33 4q27 47 68 72q24 -12 53 -16t51 -26q3 -28 24.5 -44t32.5 -26t15 -28q8 -2 11 2t11 2q6 -28 14 -37t16 -35 q-10 -20 -15 -41t-25 -31q-2 -14 8 -15t12 -15t-6 -22q48 -78 86 -165t86 -165q-3 -37 12 -74q30 -68 35 -99t1 -64t-14 -64q-23 -70 -64 -93q-28 -36 -68 -56t-74 -48q-23 -15 -104 -32q-139 -76 -234 -68q-126 -46 -250 -20q-202 -28 -323 141q-35 49 -57 103zM288 304 q74 -61 271 -23q47 9 87 9q84 20 144 53t126 67q8 22 21 36t15 42q-14 22 -14 54q-44 62 -76 133t-72 133q-16 -32 -36 -12q-11 -42 -61 -23q-13 5 -23 13q-58 -46 -116 -90t-104 -102q-8 -4 -10 -3t-12 -3q-16 -38 -39 -69t-45 -63q-53 -77 -56 -152zM456 1510q0 38 12 64 t10 36l-8 36l30 2v42q28 2 42 2t26 3q14 4 76 29l28 12l12 -26q4 -8 23 -26t37 -37t40 -39t26 -44q-8 -34 -24 -70q-58 -49 -69 -54.5t-12 -6.5t-2 -4t-7 -15l-20 -14q-20 -7 -58 -2l-28 2l-16 -16l-24 10q-22 10 -31 13t-19 11l-18 12q-16 60 -26 80zM998 1472l8 26 q4 10 3 36t1 51t0 53t10 50q42 22 66 30q20 -2 38 -4t34 -4t20 -3t6 -1t20 6l24 -4q14 -6 23 -17t19 -21q8 -16 16 -20l24 -2l8 -24q10 -20 13 -29l7 -21l2 -22q-32 -54 -36 -74q-23 -23 -50.5 -33.5t-35.5 -18.5l-20 -30l-20 18l-30 -28q-22 18 -32 27t-19 15q-13 9 -71 34 z" />
<glyph unicode="&#xf7;" horiz-adv-x="1146" d="M0 616q16 2 23 23t1 31q32 8 69 11t73 6q89 7 124 25q100 4 207 8t201 10q34 -10 80 -10t90 -6t80 -23t52 -59q51 -7 60 -39q4 -15 3 -32t-1 -35q-104 -71 -508 -75q-151 -2 -259.5 -23.5t-130.5 -31.5q-84 4 -120 84q-10 22 -24 46q8 16 3 45t-23 45zM264 156l24 20 l-24 36l36 27q29 22 70 87l18 26l26 -16q8 -4 35 -9t54 -12t57 -11t50 -22l8 -14q6 -44 10 -60l-34 -101l2 -21l-8 -26q-10 -12 -24 -20t-23 -14t-17 -9t-12 -7l-6 -22l-26 -4q-32 -10 -58 -10h-24q-46 42 -68 56q-20 28 -22 41t-6 33t-10 26zM452 1048q5 19 22 36 q28 28 32 36l-2 24l24 12q28 22 52 30l22 6q49 -21 84 -28q26 -20 33 -32t14 -23q14 -23 21 -27l36 -16l-16 -26l34 -28q-16 -26 -25 -37t-14 -22q-9 -20 -23 -83l-8 -30l-28 6q-10 2 -37 -3t-54 -8t-58 -9t-55 4l-12 12q-8 16 -15 28t-15 26q-2 20 -2 40v40l2 25 q0 1 -10 21z" />
<glyph unicode="&#xf8;" horiz-adv-x="1296" d="M26 220q-38 270 182 528q58 68 112 132q18 -6 28 9q20 30 34 33q14 30 41 46t43 44q25 5 45 23q42 34 61 39v22q36 16 53 37t41 51q18 4 29 3t33 3q24 42 70 74q24 -14 53 -17t51 -25q3 -31 25.5 -46.5t33.5 -25.5t15 -28q8 -2 11 2t9 2q46 50 92 87t92 33 q32 -74 34 -145t-16 -161q-18 -22 -52 -60t-74 -84q58 -126 102 -198q-3 -36 12 -74q30 -73 35 -102.5t1 -62.5t-14 -65q-22 -69 -64 -96q-28 -34 -68 -55t-74 -49q-22 -14 -50 -20l-56 -12q-46 -26 -115 -49t-121 -19q-120 -41 -218 -26q-4 -26 4 -49t4 -51 q-14 -12 -23 -27t-19 -30q-28 -42 -54 -55q-42 4 -69 11t-61 15q-70 54 -56 176q4 34 10 66q-103 68 -152 196zM290 298q12 -10 26 -16q28 32 62 69t65 71t59 64t44 50q10 32 53 82t71 83t56 63q-28 0 -52 20q-58 -46 -117 -91t-105 -103q-8 -4 -10 -2t-12 -2 q-16 -40 -39 -71t-45 -63q-53 -77 -56 -154zM656 298q78 6 139 40t127 68q8 20 21 35t15 43q-10 16 -14 54l-40 64q-90 -109 -106 -144q-84 -91 -142 -160z" />
<glyph unicode="&#xf9;" horiz-adv-x="1198" d="M103 601q1 115 31 205v22q6 44 12 73t11 64t17 73q28 6 42 23t24 31q28 2 38 -8t20 -30t25 -42t45 -34q4 -16 11 -33t19 -44q37 -83 40 -135q-61 -116 -43 -287q5 -47 17 -79l12 -26l34 4q124 33 183 70q87 53 177 152q150 164 172 474q34 12 34 48l-4 22q-8 12 0 28 q12 38 56 58q46 -29 104 -92q6 -62 26 -114q37 -95 42 -144q-16 -52 -23 -96t-15 -92q-32 -70 -62 -124t-48 -94q-10 -10 -17 -23t-13 -23t-12 -22t-10 -16l-40 14l-8 -50l-28 -8l-20 -24q-70 -122 -175 -191q-64 -42 -271 -131l-106 8q-38 0 -94 6q-10 28 -40 28 q-34 16 -51 47t-30 60q-21 47 -45 87l34 10l-44 48q-4 6 -10 11t-10 11l-2 32q-6 138 -5 253zM388 1638q-36 54 6 135q12 23 24 51q16 8 36 29t22 43q10 -6 29 5t23 23q22 -12 41 -31l37 -37q47 -47 76 -52q48 -54 103 -107t101 -103q8 -28 29 -42t38 -30t21 -38t-22 -64 q20 -33 5 -56.5t-29 -37.5l-28 -28q-113 5 -292 171q-168 156 -220 169z" />
<glyph unicode="&#xfa;" horiz-adv-x="1198" d="M103 601q1 115 31 205v22q6 44 12 73t11 64t17 73q28 6 42 23t24 31q28 2 38 -8t20 -30t25 -42t45 -34q4 -16 11 -33t19 -44q37 -83 40 -135q-61 -116 -43 -287q5 -47 17 -79l12 -26l34 4q124 33 183 70q87 53 177 152q150 164 172 474q34 12 34 48l-4 22q-8 12 0 28 q12 38 56 58q46 -29 104 -92q6 -62 26 -114q37 -95 42 -144q-16 -52 -23 -96t-15 -92q-32 -70 -62 -124t-48 -94q-10 -10 -17 -23t-13 -23t-12 -22t-10 -16l-40 14l-8 -50l-28 -8l-20 -24q-70 -122 -175 -191q-64 -42 -271 -131l-106 8q-38 0 -94 6q-10 28 -40 28 q-34 16 -51 47t-30 60q-21 47 -45 87l34 10l-44 48q-4 6 -10 11t-10 11l-2 32q-6 138 -5 253zM576 1402q4 22 21 38t38 30t29 42q46 50 101 103t103 107q30 6 62 38l51 51q19 19 41 31q4 -12 23 -23t29 -5q2 -22 22 -43t36 -29q12 -28 24 -51t18 -45q14 -51 -12 -90 q-52 -13 -220 -169q-179 -166 -292 -171l-28 28t-23 28q-21 33 -1 66q-26 42 -22 64z" />
<glyph unicode="&#xfb;" horiz-adv-x="1198" d="M103 601q1 115 31 205v22q6 44 12 73t11 64t17 73q28 6 42 23t24 31q28 2 38 -8t20 -30t25 -42t45 -34q4 -16 11 -33t19 -44q37 -83 40 -135q-61 -116 -43 -287q5 -47 17 -79l12 -26l34 4q124 33 183 70q87 53 177 152q150 164 172 474q34 12 34 48l-4 22q-8 12 0 28 q12 38 56 58q46 -29 104 -92q6 -62 26 -114q37 -95 42 -144q-16 -52 -23 -96t-15 -92q-32 -70 -62 -124t-48 -94q-10 -10 -17 -23t-13 -23t-12 -22t-10 -16l-40 14l-8 -50l-28 -8l-20 -24q-70 -122 -175 -191q-64 -42 -271 -131l-106 8q-38 0 -94 6q-10 28 -40 28 q-34 16 -51 47t-30 60q-21 47 -45 87l34 10l-44 48q-4 6 -10 11t-10 11l-2 32q-6 138 -5 253zM364 1501q-12 37 10 77q44 11 172 143q119 122 214 149q20 4 28 4q106 -37 218 -153q128 -132 172 -143q22 -40 13 -68t-19 -48t-20 -44q-42 -28 -46 -64q-8 6 -23 -4t-19 -20 q-18 10 -33 27t-30 33q-35 38 -61 44q-40 46 -83 93t-81 89q-38 -42 -81 -89t-83 -93q-26 -6 -51 -33t-40 -44t-33 -27q-4 10 -19 20t-23 4q-4 36 -46 64q-10 24 -20 44t-16 39z" />
<glyph unicode="&#xfc;" horiz-adv-x="1198" d="M103 601q1 115 31 205v22q6 44 12 73t11 64t17 73q28 6 42 23t24 31q28 2 38 -8t20 -30t25 -42t45 -34q4 -16 11 -33t19 -44q37 -83 40 -135q-61 -116 -43 -287q5 -47 17 -79l12 -26l34 4q124 33 183 70q87 53 177 152q150 164 172 474q34 12 34 48l-4 22q-8 12 0 28 q12 38 56 58q46 -29 104 -92q6 -62 26 -114q37 -95 42 -144q-16 -52 -23 -96t-15 -92q-32 -70 -62 -124t-48 -94q-10 -10 -17 -23t-13 -23t-12 -22t-10 -16l-40 14l-8 -50l-28 -8l-20 -24q-70 -122 -175 -191q-64 -42 -271 -131l-106 8q-38 0 -94 6q-10 28 -40 28 q-34 16 -51 47t-30 60q-21 47 -45 87l34 10l-44 48q-4 6 -10 11t-10 11l-2 32q-6 138 -5 253zM356 1510q0 38 12 64t10 36l-8 36l30 2v42q28 2 42 2t26 3q14 4 76 29l28 12l12 -26q4 -8 23 -26t37 -37t40 -39t26 -44q-8 -34 -24 -70q-58 -49 -69 -54.5t-12 -6.5t-2 -4 t-7 -15l-20 -14q-20 -7 -58 -2l-28 2l-16 -16l-24 10q-22 10 -31 13t-19 11l-18 12q-16 60 -26 80zM898 1472l8 26q4 10 3 36t1 51t0 53t10 50q42 22 66 30q20 -2 38 -4t34 -4t20 -3t6 -1t20 6l24 -4q14 -6 23 -17t19 -21q8 -16 16 -20l24 -2l8 -24q10 -20 13 -29l7 -21 l2 -22q-32 -54 -36 -74q-23 -23 -50.5 -33.5t-35.5 -18.5l-20 -30l-20 18l-30 -28q-22 18 -32 27t-19 15q-13 9 -71 34z" />
<glyph unicode="&#xfd;" horiz-adv-x="820" d="M84 88l2 20q4 10 7 21q26 96 59 129q11 37 52 111q68 121 84 147q-20 32 -48 58q-53 101 -74 178q-2 26 -6 44t-9 39q-13 55 -13 89q-10 14 -12 28l4 20q8 19 -2 61.5t-15 66.5t-3 48q4 54 50 82l34 2q18 -10 35 -19t36 -19t39 -20t42 -26l14 -28l26 -22v-22q2 -8 2 -28 t8 -26l8 -24q0 -34 18 -100q18 -67 14 -98q12 6 18 12t10 8t8 6l118 160l-4 20l42 40q16 16 31 30t25 30l22 16q64 100 182 124l28 4l8 -26q11 -31 86 -74l18 -12q10 -20 10 -30t-2 -18l8 -20q-16 -48 -39 -70t-43 -39t-35 -30t-23 -33l-14 -16q-42 -24 -54 -64l-6 -24h-24 q-9 0 -30 -42q-14 -20 -30 -36q-2 -8 -5 -15t-7 -17q-26 -26 -32 -39t-14 -29t-15 -31t-23 -31l-10 -30q-16 -14 -35 -50q-37 -71 -61 -92q-17 -51 -52 -86q-20 -80 -94 -174q-3 -24 -18 -49q-21 -33 -26 -43l-4 -20q-10 -16 -22 -28l-22 -22q-4 -6 -14 -16l-30 -12 q-146 20 -178 156zM514 1586q4 22 21 38t38 30t29 42q46 50 101 103t103 107q30 6 62 38l51 51q19 19 41 31q4 -12 23 -23t29 -5q2 -22 22 -43t36 -29q12 -28 24 -51t18 -45q14 -51 -12 -90q-52 -13 -220 -169q-179 -166 -292 -171l-28 28t-23 28q-21 33 -1 66 q-26 42 -22 64z" />
<glyph unicode="&#xfe;" horiz-adv-x="1186" d="M52 322q14 38 16 96t3 92t9 91t36 134t38 128t3 67t-4 27t13 14t15 20t1 30t6 31q41 73 38 116q18 12 33 28t33 30q44 34 90 34q18 -23 28 -70.5t20 -68.5t34 -33v-62q34 0 56 8q232 -9 426 -54q20 -14 40 -27t54 -17q167 -90 156 -308q-30 -60 -86 -103t-114 -85 q-8 0 -20 4q-14 -21 -54 -39.5t-52 -28.5q-51 -7 -110 -34q-106 -48 -164 -56q-23 -17 -65 -30q-80 -23 -97 -40q-13 13 -64 0q-12 -17 -2 -58q15 -112 -58 -148q-61 -30 -148 -16q-36 45 -58 126q-31 111 -52 202zM384 472q160 40 212 86q76 20 123 55t95 69q-2 14 6 22 t16 18q-6 24 -32 50q-137 20 -356 10q-55 -196 -64 -310z" />
<glyph unicode="&#xff;" horiz-adv-x="820" d="M84 88l2 20q4 10 7 21q26 96 59 129q11 37 52 111q68 121 84 147q-20 32 -48 58q-53 101 -74 178q-2 26 -6 44t-9 39q-13 55 -13 89q-10 14 -12 28l4 20q8 19 -2 61.5t-15 66.5t-3 48q4 54 50 82l34 2q18 -10 35 -19t36 -19t39 -20t42 -26l14 -28l26 -22v-22q2 -8 2 -28 t8 -26l8 -24q0 -34 18 -100q18 -67 14 -98q12 6 18 12t10 8t8 6l118 160l-4 20l42 40q16 16 31 30t25 30l22 16q64 100 182 124l28 4l8 -26q11 -31 86 -74l18 -12q10 -20 10 -30t-2 -18l8 -20q-16 -48 -39 -70t-43 -39t-35 -30t-23 -33l-14 -16q-42 -24 -54 -64l-6 -24h-24 q-9 0 -30 -42q-14 -20 -30 -36q-2 -8 -5 -15t-7 -17q-26 -26 -32 -39t-14 -29t-15 -31t-23 -31l-10 -30q-16 -14 -35 -50q-37 -71 -61 -92q-17 -51 -52 -86q-20 -80 -94 -174q-3 -24 -18 -49q-21 -33 -26 -43l-4 -20q-10 -16 -22 -28l-22 -22q-4 -6 -14 -16l-30 -12 q-146 20 -178 156zM274 1570q0 38 12 64t10 36l-8 36l30 2v42q28 2 42 2t26 3q14 4 76 29l28 12l12 -26q4 -8 23 -26t37 -37t40 -39t26 -44q-8 -34 -24 -70q-58 -49 -69 -54.5t-12 -6.5t-2 -4t-7 -15l-20 -14q-20 -7 -58 -2l-28 2l-16 -16l-24 10q-22 10 -31 13t-19 11 l-18 12q-16 60 -26 80zM816 1532l8 26q4 10 3 36t1 51t0 53t10 50q42 22 66 30q20 -2 38 -4t34 -4t20 -3t6 -1t20 6l24 -4q14 -6 23 -17t19 -21q8 -16 16 -20l24 -2l8 -24q10 -20 13 -29l7 -21l2 -22q-32 -54 -36 -74q-23 -23 -50.5 -33.5t-35.5 -18.5l-20 -30l-20 18 l-30 -28q-22 18 -32 27t-19 15q-13 9 -71 34z" />
<glyph unicode="&#x152;" horiz-adv-x="2484" d="M28 286q-43 322 215 628q69 82 133 158q21 -9 34 8q25 36 42 42q11 25 38 45q47 35 62 61q31 6 53 27q42 38 71 47v26q44 20 64 44t48 62q22 2 35 2t41 4q18 34 34 50t46 36q30 -16 64 -19t62 -31q3 -32 28.5 -52t39.5 -32t18 -34q10 0 13 4t13 2q7 -28 14 -40 q16 -25 22 -46q-10 -24 -18 -51t-32 -37q0 -16 12 -17t14 -17t-6 -28q52 -86 94 -181t94 -183q43 91 64 144q-68 64 -84 221q-4 39 -16 79q60 91 222 121q48 9 102 21q163 51 277.5 68.5t192.5 26.5t180 27q2 -6 7 -6h13q6 -14 22 -14l-2 20q8 0 18 -4q20 -8 16 12 q40 -70 146 -116q3 -24 -0.5 -36t-3.5 -21t4 -25q-74 -125 -257 -154q-147 -23 -206 -40.5t-111 -49.5q-24 9 -47 3q-53 -16 -81 -11q-17 -15 -80 -32q10 -22 9 -44t5 -38q84 -8 186 1t200 13q2 -10 -2 -14t-4 -14q18 -12 34 -30t33 -35q40 -40 77 -37q24 -49 8 -88 q-40 -26 -78 -53t-79 -49q-96 -51 -193 -48h-17q-7 0 -17 8q-20 -10 -53 -7t-55 -7q-28 10 -65 10t-65 10q-82 -119 -124 -230q117 -17 201.5 -6.5t135.5 16.5t125 4q50 24 115 33t121 27q20 -6 34 -23t27 -34t27 -29t36 -8q10 -10 13 -24t6 -26q7 -27 31 -24 q-38 -78 -85 -120t-106 -65t-132 -34t-129 -21t-71 -5t-31 5q-173 -31 -270 -28q-205 5 -288 84q-16 16 -23 38t-33 36q0 18 -4 38q-36 -20 -64 -44q-28 -16 -60 -23t-66 -15q-88 -54 -212 -77q-38 -7 -68 -3q-72 -26 -140 -36t-160 10q-164 -22 -289 70q-108 80 -165 224z M342 380q82 -70 324 -28q58 10 104 10q0 18 16 18q84 8 156 47t150 79q10 24 26 42t18 52q-16 29 -16 66q-52 72 -90 157t-88 161q-4 -10 -16 -20t-26 4q-10 -34 -43 -34t-59 22q-70 -56 -139 -108t-125 -122q-10 -6 -12 -4t-14 -2q-20 -46 -47 -83t-53 -75 q-63 -92 -66 -182z" />
<glyph unicode="&#x153;" horiz-adv-x="2070" d="M26 226q-38 270 180 526q58 68 112 132q17 -6 28 8q21 29 34 34q14 28 41 44t43 44q26 6 45 23q37 34 59 39v22q36 16 54 36t40 52q18 2 29 1t33 3q28 50 68 74q24 -12 53 -16t51 -26q3 -31 25.5 -46.5t33.5 -24.5t15 -27q8 -2 11 2t9 2q6 -28 15 -37t17 -35 q-10 -20 -16 -42t-26 -32q-2 -12 9 -13t12 -16t-5 -23q44 -72 79 -151t77 -151q30 53 54 120q-57 53 -69 182q-3 32 -13 66q46 74 186 102q40 8 84 18q133 43 230.5 57.5t162.5 22.5t149 22q22 -16 36 -16q6 18 18 11t10 11q36 -60 120 -96q2 -15 0 -27.5t-2 -19.5t4 -21 q-42 -68 -98 -93t-119 -36t-131 -23t-132 -52q-16 7 -38 1q-48 -11 -70 -7q-12 -12 -31 -17t-37 -11q10 -20 9 -38t5 -30q70 -8 154 0t168 10q2 -8 -2 -11t-4 -11q16 -10 29 -25t27 -29q35 -35 66 -32q18 -34 6 -74q-34 -22 -66 -44t-66 -40q-82 -43 -160 -40h-15 q-5 0 -13 6q-18 -10 -46 -6t-46 -6q-22 10 -53 10t-55 8q-70 -103 -104 -194q101 -15 170 -4q129 19 216 16q42 22 97 29t101 23q19 -7 40.5 -34.5t33.5 -37.5t30 -8q10 -10 14 -30t9 -27t17 -5q-57 -117 -160 -154q-50 -18 -111 -27t-107 -18t-57 -5t-27 4 q-360 -60 -466 46q-16 14 -20 33t-26 29q-2 8 -3 15t-3 17q-14 -10 -27 -18t-30 -20q-18 -13 -99 -30q-46 -26 -115 -49t-121 -19q-123 -47 -250 -20q-202 -28 -323 141q-35 49 -57 103zM288 306q59 -49 175 -37q49 5 97 13t88 10q82 20 143 52t125 66q8 22 22 36t14 42 q-10 21 -14 56q-42 60 -74 132t-74 134q-15 -29 -36 -14q-10 -32 -36 -28t-48 20q-58 -46 -116 -91t-104 -103q-8 -4 -10 -2t-12 -2q-16 -38 -39 -69t-45 -63q-53 -77 -56 -152z" />
<glyph unicode="&#x178;" horiz-adv-x="1010" d="M84 120l2 22l18 54q10 34 22 67t40 59q19 58 84.5 175t77.5 135q-20 36 -56 70q-65 121 -90 214q-2 48 -12 86q-22 84 -22 118q-8 14 -14 36l4 24q14 22 0 73t-19 80t-3 57q5 67 60 98l20 14l20 -12q22 -14 42 -24l42 -21q42 -21 98 -53l20 -14l-2 -22q0 -12 8 -20l22 -6 l2 -28v-24q0 -27 10 -40l10 -26q0 -50 15 -99q29 -93 23 -141q12 6 20 14q12 12 24 20l140 190l-4 24l50 48q51 41 68 72l12 18q90 120 232 148l34 8l10 -32q10 -28 39 -49t63 -41l22 -14q12 -24 12 -36t-2 -20l10 -26q-22 -58 -48 -83t-51 -45q-56 -45 -71 -78l-16 -20 q-50 -26 -64 -76l-8 -28h-30q-10 0 -34 -52q-18 -24 -36 -42q-8 -20 -14 -38l-12 -16q-20 -18 -36 -51q-33 -68 -54 -89l4 -22l-16 -14q-18 -16 -41 -59t-37 -67t-36 -44q-25 -64 -62 -104q-24 -96 -114 -206q-3 -32 -21 -61q-23 -36 -31 -51l-6 -22q-14 -26 -35 -46 t-26 -26t-9 -10l-34 -12q-176 24 -214 186zM356 1816q0 38 12 64t10 36l-8 36l30 2v42q28 2 42 2t26 3q14 4 76 29l28 12l12 -26q4 -8 23 -26t37 -37t40 -39t26 -44q-8 -34 -24 -70q-58 -49 -69 -54.5t-12 -6.5t-2 -4t-7 -15l-20 -14q-20 -7 -58 -2l-28 2l-16 -16l-24 10 q-22 10 -31 13t-19 11l-18 12q-16 60 -26 80zM898 1778l8 26q4 10 3 36t1 51t0 53t10 50q42 22 66 30q20 -2 38 -4t34 -4t20 -3t6 -1t20 6l24 -4q14 -6 23 -17t19 -21q8 -16 16 -20l24 -2l8 -24q10 -20 13 -29l7 -21l2 -22q-32 -54 -36 -74q-23 -23 -50.5 -33.5t-35.5 -18.5 l-20 -30l-20 18l-30 -28q-22 18 -32 27t-19 15q-13 9 -71 34z" />
<glyph unicode="&#x2c6;" horiz-adv-x="1546" d="M484 1215q-12 37 10 77q44 11 172 143q119 122 214 149q20 4 28 4q106 -37 218 -153q128 -132 172 -143q22 -40 13 -68t-19 -48t-20 -44q-42 -28 -46 -64q-8 6 -23 -4t-19 -20q-18 10 -33 27t-30 33q-35 38 -61 44q-40 46 -83 93t-81 89q-38 -42 -81 -89t-83 -93 q-26 -6 -51 -33t-40 -44t-33 -27q-4 10 -19 20t-23 4q-4 36 -46 64q-10 24 -20 44t-16 39z" />
<glyph unicode="&#x2dc;" horiz-adv-x="1546" d="M400 1210q7 40 43.5 96t53.5 82t39 54q14 12 22 16q36 32 76 49q54 23 138 23h28q46 -4 84 -10q37 -20 67 -42q39 -28 64 -63t39 -34t22 10t15 18t19 21q12 38 48 62q29 15 86 26h20q24 8 50 8h6q72 -4 72 -62q-4 -24 -16 -48q-14 -28 -39 -66t-42 -64t-39 -54 q-14 -12 -22 -16q-36 -32 -76 -49q-54 -23 -138 -23h-28q-22 2 -45 4t-39 6q-37 20 -67 42q-39 28 -56 52q-32 46 -45.5 45t-22.5 -11t-16 -17t-11 -12t-8 -9q-12 -38 -48 -62q-18 -10 -28 -12t-18 -6l-40 -8l-20 2q-72 -24 -109 9q-19 17 -19 43z" />
<glyph unicode="&#x2000;" horiz-adv-x="1136" />
<glyph unicode="&#x2001;" horiz-adv-x="2272" />
<glyph unicode="&#x2002;" horiz-adv-x="1136" />
<glyph unicode="&#x2003;" horiz-adv-x="2272" />
<glyph unicode="&#x2004;" horiz-adv-x="757" />
<glyph unicode="&#x2005;" horiz-adv-x="568" />
<glyph unicode="&#x2006;" horiz-adv-x="378" />
<glyph unicode="&#x2007;" horiz-adv-x="378" />
<glyph unicode="&#x2008;" horiz-adv-x="284" />
<glyph unicode="&#x2009;" horiz-adv-x="454" />
<glyph unicode="&#x200a;" horiz-adv-x="126" />
<glyph unicode="&#x2010;" horiz-adv-x="1248" d="M40 588q16 2 24 23t0 31q42 10 110 14q120 7 158 26q149 3 408 14q34 -10 80 -11t90 -6q106 -12 130 -83q71 -9 64 -72q-2 -18 -2 -36q-103 -70 -508 -70q-153 0 -260.5 -20t-129.5 -30q-85 4 -120 82q-10 22 -24 46q8 16 4 46t-24 46z" />
<glyph unicode="&#x2011;" horiz-adv-x="1248" d="M40 588q16 2 24 23t0 31q42 10 110 14q120 7 158 26q149 3 408 14q34 -10 80 -11t90 -6q106 -12 130 -83q71 -9 64 -72q-2 -18 -2 -36q-103 -70 -508 -70q-153 0 -260.5 -20t-129.5 -30q-85 4 -120 82q-10 22 -24 46q8 16 4 46t-24 46z" />
<glyph unicode="&#x2012;" horiz-adv-x="1248" d="M40 588q16 2 24 23t0 31q42 10 110 14q120 7 158 26q149 3 408 14q34 -10 80 -11t90 -6q106 -12 130 -83q71 -9 64 -72q-2 -18 -2 -36q-103 -70 -508 -70q-153 0 -260.5 -20t-129.5 -30q-85 4 -120 82q-10 22 -24 46q8 16 4 46t-24 46z" />
<glyph unicode="&#x2013;" horiz-adv-x="1206" d="M20 588q16 2 24 23t0 31q42 10 110 14q118 7 156 26q153 3 410 14q32 -10 78 -11t91 -6q107 -12 131 -83q51 -7 60 -39q4 -15 3 -33t-1 -36q-61 -39 -158.5 -50.5t-163.5 -14.5t-127 -4q-227 -4 -327 -22.5t-122 -28.5q-85 4 -120 82q-10 22 -24 46q8 16 3 46t-23 46z " />
<glyph unicode="&#x2014;" horiz-adv-x="1800" d="M20 614q22 2 34 23t2 31q50 8 107 9t113 3q140 5 194 22q200 0 638 6q52 -10 123 -12t140 -8q166 -14 205 -86q78 -7 96 -41q8 -15 6 -32t-2 -35q-131 -55 -502 -59q-102 -1 -197 -1h-178q-172 0 -328.5 -17t-192.5 -27q-102 7 -150 46q-22 18 -38 40t-38 46q12 16 4 46 t-36 46z" />
<glyph unicode="&#x2018;" horiz-adv-x="416" d="M184 1164q16 22 23 58t16 61t10 30t1 6q0 7 8 24t5 24t0 12t10 9t12 12t4 14t8 17t23 28t14 33q28 18 52 38t68 30q59 -35 122.5 -58.5t79.5 -25.5l-6 -43q0 -27 18 -27q-96 -147 -130 -211q-70 -134 -74 -231q-6 -89 -242 16q-15 33 -16 75l-3 66q-1 25 -3 43z" />
<glyph unicode="&#x2019;" horiz-adv-x="408" d="M153.5 1065q36.5 39 63.5 92t48 114q31 89 63 251q20 -20 58 38q34 -28 112 -56t90 -30q24 -38 26 -69t10 -65q-12 -10 -14 -33t-4 -36t-7 -16t-8 -12t0 -17t1 -15t-9 -8t-13 -17t-8 -21t-4 -6q-6 -3 -18 -30t-33 -56t-27 -57q-28 -24 -69 -61t-77 -51q-18 8 -57 25 t-74 40q-86 57 -49.5 96z" />
<glyph unicode="&#x201a;" horiz-adv-x="418" d="M-218 -246q-18 26 11 56t56 83t47 114t35 126t29 125q12 -12 26 0t20 22t12 16q30 -25 110 -53.5t92 -30.5q22 -40 25 -71t9 -65q-16 -16 -17 -49t-7 -36t-9 -12t1 -17t2 -15t-9 -8t-13 -17t-9 -21t-4 -6q-7 -7 -19 -32t-32 -54t-26 -57q-28 -24 -69 -61t-77 -51 q-152 67 -184 114z" />
<glyph unicode="&#x201c;" horiz-adv-x="840" d="M184 1128q14 24 18 62t12 65t8 32v6q0 7 7 26t3 26t0 13t10 11t10 14t2 15t6 17q34 47 32 67q28 20 49 43t61 35q48 -29 114 -52.5t82 -25.5l-2 -44q0 -28 18 -28q-175 -327 -170 -478q0 -56 -97 -39q-61 11 -133 43q-18 40 -23 106t-7 86zM608 1164q16 22 22 58t16 61 t10 30v6q0 3 9 22t5 26t0 12t11 9t12 12t3 14t7 17t23 28t14 33q28 18 53 38t69 30q59 -35 122.5 -58.5t79.5 -25.5l-6 -43q0 -27 18 -27q-96 -147 -130 -211q-73 -138 -76 -231q0 -54 -103 -31q-62 14 -137 47q-22 50 -22 184z" />
<glyph unicode="&#x201d;" horiz-adv-x="872" d="M153.5 1065q36.5 39 63.5 92t48 114q31 89 63 251q20 -20 58 38q34 -28 112 -56t90 -30q24 -38 26 -69t10 -65q-12 -10 -14 -33t-4 -36t-7 -16t-8 -12t0 -17t1 -15t-9 -8t-13 -17t-8 -21t-4 -6q-6 -3 -18 -30t-33 -56t-27 -57q-28 -24 -69 -61t-77 -51q-18 8 -57 25 t-74 40q-86 57 -49.5 96zM588 1066q103 98 182 331q22 65 42 125q17 -17 48 22q8 10 14 16q37 -31 108.5 -57.5t83.5 -28.5q20 -38 18 -69t2 -65q-13 -11 -20.5 -46.5t-13.5 -38.5t-10 -12t-1 -17t0 -15t-11 -8t-15 -17t-10 -21t-4 -6q-4 -4 -19.5 -30.5t-39.5 -55.5 t-34 -57q-16 -12 -35 -28t-41 -33q-54 -42 -82 -51q-224 100 -162 162z" />
<glyph unicode="&#x201e;" horiz-adv-x="882" d="M-218 -246q-18 26 11 56t56 83t47 114t35 126t29 125q12 -12 26 0t20 22t12 16q30 -25 110 -53.5t92 -30.5q22 -40 25 -71t9 -65q-16 -16 -17 -49t-7 -36t-9 -12t1 -17t2 -15t-9 -8t-13 -17t-9 -21t-4 -6q-7 -7 -19 -32t-32 -54t-26 -57q-28 -24 -69 -61t-77 -51 q-152 67 -184 114zM218 -198q97 88 183 331q23 65 43 125q16 -22 47 22q7 10 13 16q32 -26 107 -54t87 -30q18 -40 17 -71t3 -65q-12 -10 -17 -33t-9 -36t-9 -16t-9 -12t-2 -17t-1 -15t-10 -8t-14 -17t-10 -21t-5 -6q-5 -3 -20.5 -30t-39.5 -56t-32 -57q-16 -12 -35 -28 t-41 -33q-52 -40 -84 -51q-228 101 -162 162z" />
<glyph unicode="&#x2022;" horiz-adv-x="614" d="M66 666q13 29 31.5 48.5t26.5 27.5t10 12l-2 32l30 14q4 4 15 11l22 14t27 11l28 10q61 -29 104 -36l20 -12q14 -14 23 -28t21 -35t22 -27l44 -20l-20 -32l44 -34q-20 -32 -31 -47t-17 -29q-9 -20 -30 -102l-10 -40l-36 8q-12 4 -46 -2t-67 -10t-72 -12t-69 6l-16 14 q-18 36 -36 66q-2 28 -2 52v80q0 2 -3 6t-9 20z" />
<glyph unicode="&#x2026;" horiz-adv-x="1574" d="M-62 130l24 18l-22 38q24 18 36 26t20 17q11 13 50 69l18 26l26 -14q8 -6 35 -11t54 -12t57 -12t48 -21l8 -16q4 -16 6 -30t6 -30q-8 -20 -14 -39t-12 -35t-8 -20t-2 -6l2 -22l-8 -24q-14 -20 -52 -36q-4 -4 -12 -7t-12 -7l-6 -24l-26 -4q-34 -8 -58 -8h-24 q-46 42 -68 56q-20 28 -22 41t-6 32t-10 27zM492 130l24 18l-24 38q24 18 36 26t21 17q11 11 51 69l18 26l24 -14q10 -6 37 -11t53 -12t57 -12t49 -21l8 -16q4 -16 5 -30t5 -30l-36 -100l2 -22l-8 -24q-15 -21 -35.5 -30.5t-28.5 -12.5t-12 -7l-6 -24l-26 -4q-32 -8 -58 -8 h-24q-36 36 -68 56q-22 38 -25 64t-13 36zM1044 130l24 18l-22 38q24 18 36 26t20 17q11 13 50 69l18 26l26 -14q8 -6 35 -11t54 -12t57 -12t48 -21l8 -16q4 -16 6 -30t6 -30l-36 -100l2 -22l-8 -24q-14 -20 -36 -30t-29 -13t-11 -7l-6 -24l-26 -4q-34 -8 -58 -8h-24 q-46 42 -68 56q-20 28 -22 41t-6 32t-10 27z" />
<glyph unicode="&#x202f;" horiz-adv-x="454" />
<glyph unicode="&#x2039;" horiz-adv-x="660" d="M-20 403q-8 41 10 89t58 58q10 -8 17 -7t17 -9q54 78 92 62q4 16 12 16t10 18q62 22 152 109q36 35 70 70t66 63q14 -8 25 0t25 8q-6 -12 1 -12q16 0 22.5 -12t12.5 -19t9 -12t7 -11l12 -18q-8 -38 -5 -52q6 -29 3 -58q-90 -117 -175 -182q-39 -30 -81 -58t-96 -70 q22 -28 58 -49t72 -48q88 -66 104 -173q14 0 25 -30t7 -70q-10 -14 -18 -29t-20 -20t-29 3t-38 22t-42 29t-42 25t-43 19t-37 20t-20 23t-19 17t-33 22t-40 36t-41 39t-38 36q0 14 -13 31t-29 21q0 24 -10 43t-18 60z" />
<glyph unicode="&#x203a;" horiz-adv-x="700" d="M-40 38q4 20 4 33l-4 77q90 117 175 182q39 30 81 58t98 72q-24 26 -59 48t-71 49q-90 67 -106 171q-12 0 -24 31t-8 71q10 12 19 27t20 21t28 -3t38 -22t42 -29t42 -26t43 -18t37 -20t20 -24t19 -17t34 -21t41 -36t41 -41t38 -35q-2 -14 12 -31t30 -19q0 -26 10 -45 t17 -59t-11 -89t-56 -59q-12 8 -19 7t-17 9q-54 -78 -92 -62q0 -11 -7 -14q-12 -7 -15 -20q-80 -28 -222 -178q-34 -36 -66 -62q-12 8 -24 -1t-26 -9q3 12 -2 12q-15 0 -18 10q-10 14 -19 26q-15 20 -23 36z" />
<glyph unicode="&#x205f;" horiz-adv-x="568" />
<glyph unicode="&#x20ac;" horiz-adv-x="1158" d="M-40 566q14 4 21 23t1 29q40 10 83 11t83 5q30 82 80 143t102 121q32 32 63 49t53 49q50 11 103 48.5t83 55.5t70 28q16 21 57 40.5t61 31.5t32 32q10 -16 27 -11t29 9t19 -2t12 -12q13 -15 19 4q10 -2 6 -12t-6 -12q16 2 26 -7t32 -13q8 -8 4 -13t-4 -17q56 -18 72 -57 t3 -80t-47 -76t-74 -47h-6q-86 -26 -166 -56t-132 -90q-70 -21 -132 -74q42 0 86 4q32 -10 75 -11t84 -6q100 -12 123 -79q65 -5 61 -67q-1 -17 -1 -33q-94 -63 -431 -67q-81 -1 -139 -3q4 -10 9 -19t9 -19q126 -40 267 -49t281 -13q14 -20 32 -36t33 -34q37 -44 27 -98 q-28 -28 -59 -53t-63 -51q-14 -2 -34 -1t-57.5 1t-64.5 -12q-197 8 -396 80q-18 20 -37 39t-51 27q-84 70 -120 208q-37 -7 -54 -16q-82 5 -115 81q-9 21 -23 43q8 16 4 43t-20 41z" />
<glyph unicode="&#xe000;" horiz-adv-x="1210" d="M0 0v1210h1210v-1210h-1210z" />
<glyph unicode="&#xfb01;" horiz-adv-x="1660" d="M-40 506q14 89 103 120q23 8 45 14l26 -10q18 -18 36 -28q18 8 26 37q14 50 32 83q-2 26 8 48q-14 10 -24 11t-26 5q-25 19 -50 56q-12 26 -30 42l-20 14l10 20q4 4 4 10t-8 18q-4 22 0 30l4 20q16 22 16 24l18 18q53 13 124 38q144 48 190 60q21 15 56.5 18.5t39.5 9.5 q168 56 372 76l34 2h40q90 0 114 -54q27 -15 46 -34q27 -30 36 -34q34 -52 22 -92q-18 -26 -46 -30l-22 -12q-22 2 -33 2h-23q-184 0 -384 -50q-64 -16 -112 -34l-36 -18q-14 -22 -16 -35t-4 -23t-3 -18t-3 -18q-34 -42 -34 -100q-23 -40 -18 -62q38 -16 72 -12t74 11 q109 19 190 19h64l-16 -16l10 -28q12 -6 17 -8t11 -6l10 -18q21 -10 24 -44l-82 -116l-28 -8q-34 2 -54 -5q-37 -13 -64 -13q-45 -9 -102 -17q-105 -14 -154 -33h-28q-16 0 -33 -5t-31 -9q-11 -9 -20.5 -36.5t-23.5 -45.5v-30q-16 -20 -19 -31t-7 -19q-8 -16 -8 -24 q16 -30 8 -68q-12 -68 -68 -94q-32 -2 -58 9t-40 13l-22 16q-8 20 -24 40t-32 50q-12 58 -4 97t16 64t12 38t8 25q-52 28 -78 80t-30 100zM1116 304q14 35 16 92.5t3 90.5t10 90t36 133t37 126t3 66t-4 27t13 14t14 19t1 30t7 32t25 49t11 65q18 12 34 28t33 29q43 33 89 33 q16 -20 21 -44l10 -48q12 -60 49 -78v-40q0 -101 34 -114q-87 -232 -113 -353q-49 -236 -17 -411q18 -105 -55 -145q-55 -30 -147 -15q-50 70 -110 324z" />
<glyph unicode="&#xfb02;" horiz-adv-x="2074" d="M-40 506q14 89 103 120q23 8 45 14l26 -10q18 -18 36 -28q18 8 26 37q14 50 32 83q-2 26 8 48q-14 10 -24 11t-26 5q-25 19 -50 56q-12 26 -30 42l-20 14l10 20q4 4 4 10t-8 18q-4 22 0 30l4 20q16 22 16 24l18 18q53 13 124 38q144 48 190 60q21 15 56.5 18.5t39.5 9.5 q168 56 372 76l34 2h40q90 0 114 -54q27 -15 46 -34q27 -30 36 -34q34 -52 22 -92q-18 -26 -46 -30l-22 -12q-22 2 -33 2h-23q-184 0 -384 -50q-64 -16 -112 -34l-36 -18q-14 -22 -16 -35t-4 -23t-3 -18t-3 -18q-34 -42 -34 -100q-23 -40 -18 -62q38 -16 72 -12t74 11 q109 19 190 19h64l-16 -16l10 -28q12 -6 17 -8t11 -6l10 -18q21 -10 24 -44l-82 -116l-28 -8q-34 2 -54 -5q-37 -13 -64 -13q-45 -9 -102 -17q-105 -14 -154 -33h-28q-16 0 -33 -5t-31 -9q-11 -9 -20.5 -36.5t-23.5 -45.5v-30q-16 -20 -19 -31t-7 -19q-8 -16 -8 -24 q16 -30 8 -68q-12 -68 -68 -94q-32 -2 -58 9t-40 13l-22 16q-8 20 -24 40t-32 50q-12 58 -4 97t16 64t12 38t8 25q-52 28 -78 80t-30 100zM1005 310q3 40 10 62t8 30t6 29q17 73 39 103q-12 26 18 80q28 76 47 129t46 124q76 199 111 349q24 15 44 20q104 -52 164 -52 q16 -10 20 -15t17 -20q47 -54 39 -113q-12 -18 -18 -18q-13 -51 -35 -103q-45 -102 -55 -155q-8 -10 -11 -18q-18 -47 -31 -58q-6 -52 -19 -84t-32 -77q-55 -131 -61 -235q10 4 19 4h17q18 0 42 -6q60 32 131 38t120 7t77 1t52 4q22 -12 37 -12t25 -2q33 -30 74 -44 q74 -26 102 -48l14 -86q14 -18 13 -29t-9 -19l4 -22q-38 -8 -62 -32q-16 -2 -23 -2h-13q-28 0 -68 -10q-54 18 -94 18t-64 -2t-48 -5q-56 -7 -100 -7l-46 -12q-168 -54 -261 -54t-151 50q-10 22 -18 30q-15 20 -18 42q-69 81 -59 220z" />
</font>
</defs>
</svg>
