<?xml version="1.0" standalone="no"?>
<!DOCTYPE svg PUBLIC "-//W3C//DTD SVG 1.1//EN" "http://www.w3.org/Graphics/SVG/1.1/DTD/svg11.dtd" >
<svg xmlns="http://www.w3.org/2000/svg">
<metadata></metadata>
<defs>
<font id="bateman_engravingregular" horiz-adv-x="950" >
<font-face units-per-em="2048" ascent="1536" descent="-512" />
<missing-glyph horiz-adv-x="593" />
<glyph horiz-adv-x="2048" />
<glyph horiz-adv-x="2048" />
<glyph unicode="&#xd;" horiz-adv-x="2048" />
<glyph unicode=" "  horiz-adv-x="593" />
<glyph unicode="&#x09;" horiz-adv-x="593" />
<glyph unicode="&#xa0;" horiz-adv-x="593" />
<glyph unicode="!" horiz-adv-x="382" d="M88 1360v14q0 41 24.5 65.5t71.5 24.5q39 0 67 -22.5t28 -67.5v-10l-68 -930h-51zM92 92q0 39 23.5 65.5t68.5 26.5t68.5 -26.5t23.5 -65.5t-23.5 -65.5t-68.5 -26.5t-68.5 26.5t-23.5 65.5z" />
<glyph unicode="&#x22;" horiz-adv-x="688" d="M88 1391q0 35 27.5 57t64.5 22q35 0 65.5 -18t30.5 -59v-13.5t-4 -13.5l-65 -295h-47l-68 293q-4 10 -4 27zM397 1391q0 35 27.5 57t64.5 22q35 0 66 -18t31 -59v-13.5t-4 -13.5l-66 -295h-47l-68 293q-4 10 -4 27z" />
<glyph unicode="$" horiz-adv-x="1030" d="M88 139q25 39 25 123q0 20 -4.5 46t-4.5 48q0 27 3.5 46.5t5.5 33.5l47 -8q0 -10 -1 -23.5t-1 -29.5q0 -53 34.5 -94t86 -70t108.5 -45t102 -21v537l-192 104q-80 43 -125 107.5t-45 155.5q0 61 25.5 115.5t72.5 101.5q53 47 119 74.5t145 31.5v94h97v-98q57 -16 89 -19 t52 -3q57 0 117 18l65 16l-39 -55q-27 -35 -26 -92q0 -18 2 -31.5t4 -25t4 -23.5t2 -31q0 -20 -8 -36.5t-23 -36.5l-41 28q12 16 16.5 28.5t4.5 16.5q0 39 -20.5 72t-53.5 57.5t-70.5 40t-74.5 23.5v-477l135 -72q205 -102 205 -309q0 -72 -20.5 -130.5t-65.5 -103.5 q-47 -53 -115 -86t-139 -39v-98h-97v94q-39 0 -69.5 8.5t-59 17.5t-58.5 17t-64 8q-57 0 -111 -39zM231 1126q0 -59 26 -92t60 -55l172 -90v432q-43 -2 -88 -13.5t-82.5 -34t-62.5 -58t-25 -89.5zM586 147q45 2 87 18.5t74.5 47.5t52 74t19.5 96q0 125 -168 217l-65 35v-488 z" />
<glyph unicode="%" horiz-adv-x="1318" d="M88 1141q0 57 17.5 113.5t51 102.5t84 74.5t115.5 28.5q63 0 113.5 -27.5t83.5 -72.5t50.5 -102.5t17.5 -116.5q0 -61 -14.5 -119.5t-46.5 -106t-82 -76t-122 -28.5q-68 0 -118 27.5t-83.5 72.5t-50 104.5t-16.5 125.5zM205 1141q0 -59 9 -110.5t27.5 -89.5t47 -60.5 t67.5 -22.5t68 23.5t45 63.5t24.5 90.5t8.5 105.5t-9.5 104t-28 86t-46 58.5t-62.5 21.5q-37 0 -65.5 -23.5t-47 -61.5t-28.5 -86t-10 -99zM264 0l686 1466h99l-691 -1466h-94zM682 330q0 57 17.5 114.5t51 103.5t84 74.5t115.5 28.5q63 0 113.5 -27.5t83.5 -72.5t50 -103.5 t17 -117.5t-14 -118.5t-46 -107t-82 -76t-122 -28.5q-68 0 -118 27.5t-83.5 72.5t-50 104.5t-16.5 125.5zM799 330q0 -57 9 -108.5t27.5 -90.5t47 -61.5t67.5 -22.5t68 23.5t45 63.5t24.5 90.5t8.5 105.5t-9.5 104t-28 86t-46 58.5t-62.5 21.5q-37 0 -65.5 -22.5t-47 -60.5 t-28.5 -87t-10 -100z" />
<glyph unicode="&#x26;" horiz-adv-x="1294" d="M88 371q0 78 24.5 144.5t67.5 121.5t101.5 99t126.5 77l-125 215q-23 37 -37.5 86t-14.5 98q0 57 20.5 104.5t57.5 81.5t87 53t108 19q57 0 107.5 -20t85 -53t55 -76t20.5 -88q0 -166 -197 -367l283 -475l92 176q23 41 5.5 66.5t-58.5 25.5h-92v52h383v-52h-53 q-55 0 -82 -26.5t-58 -85.5l-106 -205l141 -244q16 -29 32.5 -38t39.5 -9h88v-51h-418v51h84l-76 125q-53 -84 -137 -129t-188 -47q-80 -2 -147.5 24.5t-117 77t-76 119t-26.5 150.5zM264 381q0 -66 21.5 -115t56.5 -82.5t82 -50t98 -16.5q53 0 109.5 26.5t116.5 85.5 l-312 531q-92 -100 -132 -189.5t-40 -189.5zM377 1292q0 -80 39 -149l137 -232q168 182 168 322q0 33 -13.5 65.5t-41 59t-68.5 44t-94 17.5t-90 -34t-37 -93z" />
<glyph unicode="'" horiz-adv-x="202" d="M0 1391q0 35 26.5 57t65.5 22q35 0 64.5 -18t29.5 -59v-13.5t-2 -13.5l-65 -295h-47l-70 293q-2 10 -2 27z" />
<glyph unicode="(" horiz-adv-x="475" d="M88 741q0 379 229 713l45 -20q-66 -180 -96 -350.5t-30 -344.5q0 -168 32.5 -344t102.5 -362l-45 -25q-117 186 -177.5 369.5t-60.5 363.5z" />
<glyph unicode=")" horiz-adv-x="475" d="M88 33q137 367 137 706q0 174 -30.5 344t-96.5 351l45 20q227 -332 228 -713q0 -360 -238 -733z" />
<glyph unicode="*" horiz-adv-x="905" d="M88 1087v87h281l-144 233l78 51l141 -244l138 240l84 -41l-144 -239h279v-87h-285l139 -241l-75 -47l-136 239l-133 -237l-80 43l140 243h-283z" />
<glyph unicode="+" horiz-adv-x="952" d="M88 688v96h336v332h96v-332h330v-96h-330v-332h-96v332h-336z" />
<glyph unicode="," horiz-adv-x="380" d="M88 104q0 35 27.5 57.5t64.5 22.5q35 0 65.5 -18.5t30.5 -59.5v-13t-4 -13l-65 -293h-47l-68 291q-4 10 -4 26z" />
<glyph unicode="-" d="M88 678v100h758v-100h-758z" />
<glyph unicode="." horiz-adv-x="376" d="M88 92q0 39 23.5 65.5t68.5 26.5t68.5 -26.5t23.5 -65.5t-23.5 -65.5t-68.5 -26.5t-68.5 26.5t-23.5 65.5z" />
<glyph unicode="/" horiz-adv-x="1038" d="M88 0l692 1466h156l-692 -1466h-156z" />
<glyph unicode="0" horiz-adv-x="1478" d="M147 760q0 360 215 567q158 158 377 158t377 -158q215 -207 215 -567q0 -197 -56 -345.5t-161 -262.5q-78 -84 -167 -125t-208 -41t-208 41t-166 125q-104 115 -161 263t-57 345zM330 760q0 -129 20.5 -258t67.5 -233.5t125.5 -170t195.5 -65.5t196 65.5t126 170 t67.5 233.5t20.5 258q0 102 -18.5 221t-64.5 219t-126 167t-201 67t-200.5 -67t-125.5 -167t-64.5 -219t-18.5 -221z" />
<glyph unicode="1" horiz-adv-x="753" d="M147 0v51h78q31 0 47.5 13.5t16.5 48.5v942q0 31 -25.5 42t-60.5 11l-10 47q35 16 67.5 39t56.5 53q23 27 45.5 78t51.5 125l22 -6h25v-1331q0 -61 67 -62h78v-51h-459z" />
<glyph unicode="2" horiz-adv-x="1386" d="M147 0l459 408q213 190 305.5 362t92.5 299q0 143 -101 244q-88 92 -268 98q-127 -18 -195 -92q-63 -63 -97 -131t-40 -150l-51 6q18 176 151 310q63 63 146.5 87.5t177.5 24.5t176 -32.5t143.5 -88t97.5 -127t36 -147.5q0 -217 -189 -383l-712 -637h466q72 0 137.5 31 t122 80t104.5 108.5t87 114.5l43 -23l-172 -362h-920z" />
<glyph unicode="3" horiz-adv-x="1298" d="M147 262l43 27q139 -238 443 -238q131 0 231 103q104 109 105 276q0 197 -123 324q-74 78 -205 80l-45 4l346 493h-586q-23 0 -38 -11t-15 -40v-98h-51v284h844l-408 -583q102 -10 185 -45t145 -99q131 -131 131 -299q0 -174 -127 -307q-139 -133 -389 -133 q-164 0 -286 65.5t-200 196.5z" />
<glyph unicode="4" horiz-adv-x="1363" d="M147 449l850 1062v-1015h129q23 0 30 13t7 40v59h51v-272h-51v59q0 16 -6 35t-35 19h-125v-355q0 -27 12.5 -35t41.5 -8h102v-51h-485v51h90q23 0 39 9.5t16 39.5v349h-666zM252 500h561v702z" />
<glyph unicode="5" horiz-adv-x="1320" d="M147 291l46 20q41 -76 92 -127q133 -133 362 -133q115 0 230 109q57 59 87.5 135t30.5 178q-6 229 -123 340q-66 66 -127 95.5t-122 29.5q-211 0 -371 -180l-45 -53l4 761h813v-243h-49v65q0 29 -16.5 37t-43.5 8h-657v-499q78 78 170.5 116.5t194.5 38.5q117 0 217 -41 t173.5 -111.5t117 -162.5t43.5 -197q0 -180 -132 -311q-170 -166 -395 -166q-244 0 -397 147q-29 33 -54.5 68t-48.5 76z" />
<glyph unicode="6" horiz-adv-x="1325" d="M147 715q0 143 41 278t123 240.5t205 169t289 63.5q70 0 100 -8l-12 -47q-10 2 -31.5 4t-56.5 2q-80 0 -159 -25.5t-138 -86.5q-184 -184 -184 -568v-16q51 115 151 189.5t236 74.5q92 0 172 -31t141 -94q152 -152 152 -377q0 -207 -134 -340q-141 -143 -350 -143 q-197 0 -348 147q-197 203 -197 568zM342 541q0 -47 7 -100.5t22.5 -106.5t41 -101.5t64.5 -85.5q53 -47 104.5 -71.5t110.5 -24.5t107.5 21.5t93.5 64.5q108 104 108 340q0 127 -32.5 218t-98.5 157q-43 45 -82.5 64.5t-76.5 19.5q-150 0 -254 -105q-115 -119 -115 -290z " />
<glyph unicode="7" horiz-adv-x="1312" d="M147 1149v317h1016l-114 -161q-193 -254 -284 -542t-91 -632l-142 -151q-29 66 -37 107.5t-8 82.5q0 262 140 571q141 322 338 553h-703q-29 0 -46 -11t-17 -44v-90h-52z" />
<glyph unicode="8" horiz-adv-x="1288" d="M147 451q0 86 35 160.5t101 140.5q70 70 172 100q-94 35 -162 109.5t-68 185.5q0 66 27 120t74 101q53 49 127.5 75.5t181.5 29.5q203 0 321 -115q45 -45 69 -103.5t24 -107.5q0 -55 -19.5 -99t-53.5 -80t-78 -63.5t-93 -48.5q127 -33 217 -123q57 -59 88 -128.5 t31 -160.5q0 -86 -31 -165.5t-88 -139.5q-150 -139 -383 -139q-113 0 -205 34t-158 103q-129 125 -129 314zM326 451q0 -207 98 -306q49 -49 102.5 -71.5t112.5 -22.5t113.5 22.5t105.5 71.5q49 49 74.5 125t25.5 172q0 104 -25.5 175t-74.5 120q-45 45 -99 68.5t-124 23.5 q-121 0 -201 -84q-53 -53 -80.5 -124.5t-27.5 -169.5zM391 1147q0 -57 16.5 -106.5t48 -86t77 -57t102.5 -20.5t101 21.5t75 58t46 86t15 104.5q0 123 -73 201q-76 76 -164 75q-100 0 -162 -65q-82 -80 -82 -211z" />
<glyph unicode="9" horiz-adv-x="1325" d="M147 989q0 211 144 350q66 66 147.5 96.5t194.5 34.5q100 -4 192 -39.5t164 -111.5q96 -98 141.5 -232.5t45.5 -302.5q0 -199 -50.5 -348t-154.5 -258q-178 -180 -443 -180q-72 0 -106 8l6 47q45 -6 94 -7t96 11q59 10 112.5 38t100.5 75q84 86 127 229.5t43 354.5v10 q-16 -47 -39.5 -87t-58.5 -71q-63 -63 -135 -94t-150 -31q-190 0 -323 133q-147 147 -148 375zM324 995q0 -254 120 -381q86 -86 174 -86q66 0 129.5 27t122.5 86q109 109 109 317q0 98 -32 196.5t-103 172.5q-47 49 -101.5 70.5t-113.5 21.5q-109 0 -193 -84 q-55 -55 -83.5 -138t-28.5 -202z" />
<glyph unicode="=" d="M88 494v100h758v-100h-758zM88 870v101h758v-101h-758z" />
<glyph unicode="?" horiz-adv-x="1042" d="M88 1167q0 78 35 136.5t91 96.5t129 57.5t151 19.5q244 0 358 -113q86 -86 86 -203q0 -96 -55.5 -195.5t-171.5 -201.5q-211 -193 -209 -303h-51q0 61 39.5 126.5t109.5 143.5q84 90 121 184.5t39 198.5q0 78 -22.5 136.5t-60.5 97t-86 58t-97 19.5q-147 0 -217 -43 t-70 -102q0 -25 7 -38t22 -25q23 -16 38 -39t15 -50q0 -41 -25.5 -66.5t-70.5 -25.5q-51 0 -78 38t-27 93zM391 94q0 39 23.5 65.5t68.5 26.5t68.5 -26.5t23.5 -65.5q0 -37 -23.5 -64.5t-68.5 -27.5t-68.5 27.5t-23.5 64.5z" />
<glyph unicode="@" horiz-adv-x="1466" d="M147 707q0 279 191 469q182 178 416 178q250 0 403 -154q78 -80 120 -173t42 -198q0 -213 -123 -335q-57 -59 -113.5 -91t-111.5 -32q-59 0 -99 20q-41 25 -41 72q-41 -37 -90 -58.5t-108 -21.5q-45 0 -83 16.5t-63 44.5q-57 66 -59 164v27q0 72 26.5 151.5t75 147 t116 112t151.5 44.5q47 0 85 -11.5t66 -40.5q16 -16 29.5 -38.5t17.5 -51.5l33 88l47 -14l-190 -533q-8 -20 -3 -33.5t18 -20.5t31.5 -10t39.5 -3q41 0 89 25.5t101 80.5q51 53 79 126t28 175q0 190 -146 334q-55 57 -120.5 85t-155.5 28q-100 0 -190.5 -34t-172.5 -107 q-104 -98 -151 -202t-47 -208q0 -133 26.5 -218t77.5 -151q35 -49 81 -89t97 -74q45 -16 95.5 -22.5t103.5 -6.5q143 0 255 53t202 164l39 -33q-188 -236 -496 -235q-268 0 -440 172q-86 90 -132.5 194.5t-46.5 227.5zM526 633q0 -100 33 -149.5t80 -49.5q51 0 87 15.5 t67 44.5q35 31 61.5 79t48.5 113l29 88q12 37 15 65.5t3 57.5q0 74 -39 107q-33 33 -100 34q-129 -45 -204 -145t-81 -238v-22z" />
<glyph unicode="A" horiz-adv-x="1308" d="M-14 0v39h43q92 0 125 88l499 1360l488 -1327q27 -70 55.5 -95.5t65.5 -25.5h63v-39h-467v39h84q29 0 42 16.5t1 48.5l-135 371h-528l-132 -358q-10 -33 4.5 -55.5t51.5 -22.5h71v-39h-331zM332 510h502l-248 684z" />
<glyph unicode="B" horiz-adv-x="1363" d="M147 1417v49h617q96 0 176 -26.5t136.5 -73.5t87 -114.5t30.5 -147.5q0 -123 -72.5 -213t-191.5 -131q59 -18 116.5 -52t101.5 -81t70.5 -106.5t26.5 -129.5q0 -80 -28.5 -150.5t-86 -125t-140.5 -85t-193 -30.5h-645v51h67q35 0 52.5 16.5t17.5 57.5v1235q0 57 -72 57 h-70zM473 51h324q117 0 193.5 85t76.5 259q0 61 -18.5 122t-56.5 109t-95 76.5t-133 28.5h-291v-680zM473 780h293q123 0 190.5 91.5t67.5 238.5q0 63 -17.5 119.5t-50 97.5t-82 65.5t-110.5 24.5h-291v-637z" />
<glyph unicode="C" horiz-adv-x="1280" d="M133 754v6q0 375 197 575q154 152 383 152q98 0 178 -23q45 -14 86 -14q29 0 60.5 4t66.5 19l53 20l-22 -53q-14 -29 -19.5 -52.5t-5.5 -39.5q0 -39 18 -101q8 -33 9 -67q0 -53 -17 -103l-49 19q16 33 16 84q0 84 -77 161q-92 96 -297 97q-74 0 -130.5 -23.5 t-101.5 -66.5q-172 -162 -172 -588v-6q0 -412 191 -596q109 -106 225 -107q164 0 291 125q41 41 67.5 91t44.5 114l48 -16q-35 -135 -125 -226q-144 -139 -326 -139q-229 0 -381 158q-106 104 -158.5 253.5t-52.5 342.5z" />
<glyph unicode="D" horiz-adv-x="1445" d="M147 0v51h89q29 0 38 13.5t9 48.5v1247q0 57 -60 57h-71v49h567q154 0 267.5 -58t189 -156.5t113.5 -226.5t38 -267q0 -137 -30.5 -273.5t-100.5 -244t-182.5 -174t-274.5 -66.5h-592zM457 51h280q90 0 155.5 32t111 86t74 125t44 149.5t20.5 159.5t5 157q0 68 -5 142.5 t-20.5 148t-44 139t-76 117t-117 81t-165.5 29.5h-262v-1366z" />
<glyph unicode="E" horiz-adv-x="1288" d="M147 0v51h70q41 0 57.5 18.5t16.5 49.5v1241q0 57 -53 57h-62v49h918l-7 -28q-6 -29 -6 -64q0 -16 1 -34.5t5 -34.5q4 -18 5.5 -34t1.5 -32q0 -55 -17 -109l-47 17q8 27 8 61q0 41 -10 81t-45 75q-23 23 -52.5 38t-64.5 15h-397v-583h236q41 0 56 23.5t9 53.5l-10 37 l47 17q18 -49 18 -82q0 -20 2 -40t13 -42q16 -29 23 -55.5t7 -67.5l-47 -4q-4 31 -13 51t-19 33q-14 12 -35 19t-51 7l-236 2v-735h350q143 0 297 148q66 66 78 133l51 -8q-12 -47 -25.5 -86t-33.5 -68q-51 -84 -64 -150l-2 -20h-973z" />
<glyph unicode="F" horiz-adv-x="1103" d="M147 0v51h76q66 0 66 55v1254q0 57 -66 57h-69v49h936q-10 -33 -12.5 -46t-2.5 -25q0 -33 7.5 -66t7.5 -74v-29.5t-3 -29.5q-6 -33 -18 -66l-47 19q4 16 10 35.5t6 42.5q0 33 -12 66.5t-35.5 61t-55.5 45t-71 17.5h-397v-579h240q35 0 50 12t17 43l49 -2 q-4 -31 4.5 -51.5t18.5 -42.5q10 -18 18 -38t8 -40v-45l-49 4q0 23 -2 41t-20 35q-32 32 -90 32h-4h-240v-680q0 -31 15.5 -43t39.5 -12h105v-51h-480z" />
<glyph unicode="G" horiz-adv-x="1413" d="M133 727q0 397 211 614q141 141 389 142q59 0 117.5 -10.5t107.5 -26.5q43 -14 67 -17.5t38 -3.5q35 0 72 25l71 43l-37 -76q-10 -20 -13 -39.5t-3 -38.5q0 -35 7 -73.5t7 -79.5t-4 -71t-14 -54l-47 16q6 18 10 44t4 61q0 70 -82 157q-49 55 -133 74t-168 19 q-156 0 -246 -91q-176 -170 -182 -608q0 -215 42 -358.5t120 -220.5q57 -55 122.5 -84t151.5 -29q117 0 203 84q35 35 53.5 76t18.5 94v274q0 57 -66 58h-80v47h424v-47h-45q-59 0 -59 -54v-526l-41 33q-10 10 -20.5 12t-20.5 2q-31 0 -131 -47q-66 -31 -124 -43t-112 -12 h-3q-241 0 -406 155q-199 205 -199 580z" />
<glyph unicode="H" horiz-adv-x="1458" d="M147 0v51h76q61 0 62 43v1258q0 29 -15.5 47t-50.5 18h-72v49h453v-49h-72q-29 0 -45 -14t-16 -49v-525h534v523q0 65 -69 65h-2h-64v49h443v-49h-60q-31 0 -52 -12t-21 -51l4 -1262q0 -20 11 -30.5t48 -10.5h70v-51h-439v51h80q31 0 42.5 10.5t11.5 30.5l-3 686h-534 v-686q0 -41 49 -41h84v-51h-453z" />
<glyph unicode="I" horiz-adv-x="745" d="M147 0v51h66q72 0 72 49v1254q0 31 -15.5 47t-52.5 16h-70v49h449v-49h-68q-39 0 -53 -17.5t-14 -45.5v-1254q0 -27 14 -38t53 -11h68v-51h-449z" />
<glyph unicode="J" horiz-adv-x="1208" d="M88 270l45 27q78 -133 160 -194.5t174 -61.5t178 84q119 117 119 338l2 897q0 29 -13.5 43t-47.5 14h-91v49h461v-49h-71q-61 0 -62 -57v-840q0 -252 -164 -409q-59 -61 -138 -90t-173 -29q-111 0 -204 70.5t-175 207.5z" />
<glyph unicode="K" horiz-adv-x="1458" d="M147 0v51h60q33 0 55.5 13.5t22.5 48.5v1251q0 53 -60 53h-78v49h445v-49h-72q-29 0 -43 -11t-14 -42v-530l553 507q20 20 17 48t-56 28h-59v49h391v-49h-62q-25 0 -45 -5t-41.5 -17.5t-47.5 -34t-62 -53.5l-363 -332l502 -821q66 -102 174 -103h80v-51h-555v51h94 q31 0 39 13.5t-6 33.5l-467 752l-86 -80v-659q0 -59 59 -60h70v-51h-445z" />
<glyph unicode="L" horiz-adv-x="1206" d="M147 1417v49h453v-49h-74q-29 0 -46 -13t-17 -44v-1309h336q70 0 132 23.5t118 83.5q61 66 94 174l47 -10q-6 -61 -23.5 -116.5t-44.5 -107.5q-14 -25 -21 -47t-7 -51h-936v51h67q59 0 60 53v1254q0 59 -68 59h-70z" />
<glyph unicode="M" horiz-adv-x="1763" d="M147 0v51h66q29 0 50.5 11.5t21.5 50.5v1247q-6 25 -25.5 41t-56.5 16h-56v49h289l449 -1169l413 1169h304v-49h-72q-63 0 -64 -59v-1254q0 -53 66 -53h84v-51h-440v51h47q37 0 51 12.5t14 40.5v1190l-471 -1333l-481 1278v-1126q0 -61 61 -62h70v-51h-320z" />
<glyph unicode="N" horiz-adv-x="1443" d="M104 0v51h76q59 0 60 49v1227q-31 47 -63 66.5t-73 23.5v49h258l787 -1140v1028q0 31 -15.5 47t-52.5 16h-65v49h323v-49h-84q-55 0 -55 -63v-1411l-909 1312v-1155q0 -49 57 -49h82v-51h-326z" />
<glyph unicode="O" horiz-adv-x="1378" d="M104 741q0 135 35 269.5t107.5 240t182.5 171t259 65.5q150 0 260.5 -65.5t183 -171t107.5 -239.5t35 -270q0 -141 -33 -276t-103.5 -239.5t-181 -169t-268.5 -64.5t-268.5 64.5t-180 169t-102.5 239.5t-33 276zM283 741q0 -70 6 -149.5t23.5 -157.5t46 -149.5t73.5 -126 t108.5 -87t147.5 -32.5t147.5 32.5t108.5 87t75 126t47 149.5t23.5 158t6.5 149q0 68 -6.5 146t-21.5 154.5t-44 148.5t-75 127t-109.5 88t-151.5 33q-131 0 -211 -71t-123 -176.5t-57 -227t-14 -222.5z" />
<glyph unicode="P" horiz-adv-x="1228" d="M147 0v51h82q27 0 44.5 9.5t17.5 43.5v1260q0 23 -12.5 38t-42.5 15h-78v49h575q88 0 166 -27.5t134.5 -78.5t89 -124t32.5 -161t-32.5 -161.5t-89 -127t-134.5 -83t-166 -29.5h-260v-570q0 -29 12.5 -41t46.5 -12h89v-51h-474zM473 725h260q70 0 118 30.5t77.5 81 t43 113t13.5 125.5q0 59 -13.5 119.5t-43 110t-77.5 81t-118 31.5h-260v-692z" />
<glyph unicode="Q" horiz-adv-x="1472" d="M133 741q0 135 35 269.5t107.5 240t182 171t261.5 65.5q150 0 260.5 -65.5t183 -171t107.5 -239.5t35 -270q0 -166 -45.5 -319.5t-143.5 -263.5q39 -39 73 -54.5t58 -15.5q27 0 38 10.5t22 26.5l47 -12q-6 -66 -54.5 -105t-119.5 -39q-90 0 -176 97q-121 -74 -285 -74 q-158 0 -268.5 64.5t-181 169t-103.5 239.5t-33 276zM311 741q0 -70 7.5 -149.5t23.5 -157.5t46 -149.5t75 -126t108.5 -87t147.5 -32.5q76 0 134 24.5t99 69.5q-49 104 -102 137l-70 47v7l86 -7q43 -4 85 -20t83 -47q53 111 72.5 243t19.5 248q0 68 -6 146t-21.5 154.5 t-44 148.5t-74.5 127t-109.5 88t-151.5 33t-151.5 -33t-109.5 -88t-75 -127t-44 -148.5t-21.5 -154.5t-6.5 -146z" />
<glyph unicode="R" horiz-adv-x="1497" d="M147 0v51h78q66 0 66 60v1255q0 51 -66 51h-71v49h557q98 0 179 -27.5t139 -78.5t91 -124t33 -161q0 -84 -30.5 -156.5t-86 -126t-131.5 -84t-164 -30.5l-49 2l41 -25q109 -61 199 -156.5t162 -222.5q33 -59 68.5 -101t70.5 -71q63 -57 135 -57q63 16 125 70l33 -39 q-53 -43 -106.5 -66.5t-110.5 -23.5q-137 0 -267 110q-127 102 -237 312q-88 162 -338 348v-647q0 -59 65 -60h74v-51h-459zM467 760l22 41q59 -35 106.5 -49.5t111.5 -14.5q74 0 124 29t81.5 77t45 110.5t13.5 127.5q0 72 -17.5 133.5t-51.5 106.5t-82 70.5t-109 25.5h-244 v-657z" />
<glyph unicode="S" horiz-adv-x="1241" d="M133 12l31 72q10 20 13 40.5t3 41.5q0 49 -14 99t-14 106q0 29 3 54.5t15 70.5l47 -13q-14 -52 -14 -96v-11q2 -48 14 -88t33.5 -72t46.5 -56q59 -66 151.5 -93.5t190.5 -27.5q63 0 126.5 15.5t115 49t83 87t31.5 126.5q0 113 -84 197q-82 84 -252 152q-231 82 -356 194 q-59 57 -92 120.5t-33 133.5q0 131 101 238q129 125 344 125q131 0 223 -37q29 -10 49 -13.5t31 -3.5q43 0 69 27l39 -27q-12 -33 -17 -78q-1 -11 -1 -21q0 -33 12 -64q6 -18 11 -38t5 -42q0 -29 -6 -60l-49 10q4 14 5 25.5t1 24.5q0 37 -17 74.5t-46 72.5q-55 55 -139 76.5 t-170 21.5q-55 0 -112.5 -12t-107 -39.5t-81 -74t-33.5 -111.5q-1 -7 -1 -14q0 -41 20 -78q24 -43 69 -86q47 -41 116.5 -78t165.5 -72q221 -76 332 -188q117 -117 117 -275t-111 -270q-139 -139 -358 -139q-123 0 -223 37q-59 20 -101.5 27t-70.5 7q-18 0 -38 -6t-73 -41z " />
<glyph unicode="T" horiz-adv-x="1126" d="M20 1157q-4 28 -4 57t4 58q4 27 14.5 53.5t10.5 58.5q0 23 -10 50l-10 32h1079l-10 -34q-10 -25 -11 -48q0 -43 13.5 -85t13.5 -91q0 -29 -6 -65l-49 10q10 33 7 58.5t-7 54.5q-12 55 -57.5 103t-112.5 48h-230v-1319q0 -29 16.5 -38t47.5 -9h74v-51h-457v51h78 q23 0 41 9.5t18 37.5v1319h-223q-31 0 -60.5 -12t-54 -33.5t-42 -49.5t-21.5 -60q-5 -22 -5 -45.5t5 -49.5z" />
<glyph unicode="U" horiz-adv-x="1452" d="M104 1417v49h445v-49h-72q-29 0 -45 -16.5t-16 -46.5v-912q0 -100 25.5 -170.5t78.5 -119.5q55 -51 112.5 -81t125.5 -30q104 0 181 28.5t132 84.5q117 117 117 327v873q0 63 -68 63h-71v49h299v-49h-60q-27 0 -38 -17.5t-11 -41.5v-877q0 -227 -131 -362 q-125 -127 -350 -127q-123 0 -215 35.5t-162 103.5q-68 66 -104.5 145.5t-36.5 178.5v899q0 29 -15.5 46t-48.5 17h-72z" />
<glyph unicode="V" horiz-adv-x="1275" d="M-31 1417v49h482v-49h-68q-39 0 -57.5 -12t-8.5 -51l398 -1075l395 1087q8 23 -3 37t-56 14h-95v49h351v-49h-52q-37 0 -58 -14t-36 -49l-514 -1401l-502 1356q-20 53 -51 80.5t-80 27.5h-45z" />
<glyph unicode="W" horiz-adv-x="1662" d="M-31 1417v49h475v-49h-96q-33 0 -42 -17.5t-1 -51.5l264 -990l322 1174l326 -1163l266 977q8 35 -1 53t-44 18h-80v49h334v-49h-74q-35 0 -55.5 -17.5t-32.5 -66.5l-377 -1401l-330 1164l-321 -1168l-381 1418q-8 35 -24.5 53t-57.5 18h-70z" />
<glyph unicode="X" horiz-adv-x="1460" d="M74 1417v49h473v-49h-84q-29 0 -39 -12t6 -41l318 -533l360 500q18 25 18 44q0 9 -4 17q-14 24 -59 25h-72v49h395v-49h-71q-49 0 -85 -23.5t-81 -88.5l-371 -519l379 -628q37 -59 71 -83t81 -24h75v-51h-532v51h100q33 0 45.5 9.5t-8.5 39.5l-321 533l-353 -502l-36 -53 q25 -27 79 -27h78v-51h-356v51q66 0 108.5 25.5t83.5 81.5l367 520l-408 670q-20 35 -40.5 52t-69.5 17h-47z" />
<glyph unicode="Y" horiz-adv-x="1255" d="M-45 1417v49h528v-49h-88q-39 0 -47 -14t8 -37l344 -575l367 550q20 33 4 54.5t-61 21.5h-68v49h358v-49h-67q-35 0 -61.5 -24.5t-61.5 -73.5l-385 -582v-639q0 -47 61 -47h74v-51h-452v51h73q35 0 48.5 11.5t13.5 35.5v602l-377 627q-27 47 -59.5 68.5t-73.5 21.5h-78z " />
<glyph unicode="Z" horiz-adv-x="1226" d="M59 0l867 1417h-391q-147 0 -220 -76q-43 -41 -65.5 -89t-32.5 -105l-51 8q8 57 41 137q16 29 18 69v13q0 32 -8 60l-10 32h960l-868 -1415h520q70 0 122 19.5t93 60.5t58.5 81t17.5 79v26l47 7q6 -29 6 -62q0 -35 -5 -56.5t-17 -60.5q-4 -14 -9.5 -31.5t-5.5 -33.5 q0 -14 2 -29.5t13 -50.5h-1082z" />
<glyph unicode="a" horiz-adv-x="962" d="M72 244q0 104 63.5 167.5t161.5 108.5l311 139v154q0 102 -67 145q-23 8 -44.5 12.5t-45.5 4.5h-9q-55 0 -100 -17q-39 -29 -55.5 -60.5t-20.5 -68.5q8 -23 10.5 -34t2.5 -29q0 -27 -19.5 -49.5t-54.5 -22.5q-66 0 -66 84q0 57 27 103.5t70 78t97 48t109 16.5h9 q68 0 127 -23.5t103 -66.5t68.5 -102.5t24.5 -131.5v-510q0 -29 8.5 -52t42.5 -27q23 0 64 20l31 -37q-76 -94 -181 -94q-70 0 -98.5 40t-32.5 105l-168 -94q-53 -29 -92 -41t-78 -12q-49 0 -86 21.5t-62.5 56.5t-37.5 79t-12 89zM238 283q0 -78 40.5 -120t112.5 -46 q41 0 76 8l141 78v399l-286 -125q-84 -98 -84 -194z" />
<glyph unicode="b" horiz-adv-x="1034" d="M35 1352l264 133v-647q53 76 131 127t178 51q86 0 151.5 -43t109.5 -110.5t66.5 -150.5t22.5 -163q0 -109 -28.5 -208t-83.5 -175t-136 -121t-188 -45q-186 0 -383 121v1139q0 25 -12 42t-41 17h-6l-21 -10zM299 158q18 -25 45 -44.5t57.5 -33.5t61.5 -21.5t57 -7.5 q88 0 168 86q111 106 111 377q0 74 -17.5 141.5t-48.5 119.5t-75 83t-99 31q-82 0 -151.5 -44t-108.5 -120v-567z" />
<glyph unicode="c" horiz-adv-x="878" d="M68 463q0 281 151 436q123 123 291 123q45 0 98.5 -17.5t99.5 -49t75.5 -75.5t29.5 -100q0 -41 -17.5 -63.5t-58.5 -22.5q-23 0 -37 12.5t-23 31t-13.5 40t-4.5 41.5q-6 53 -27.5 86t-62.5 58q-27 8 -61 8q-90 0 -170 -82q-109 -109 -109 -369v-16q0 -57 10.5 -124 t37 -123t74.5 -93t124 -37q88 0 162 34t141 101l35 -33q-106 -113 -196.5 -171t-172.5 -58q-90 0 -160.5 36t-118.5 99.5t-72.5 147.5t-24.5 180z" />
<glyph unicode="d" horiz-adv-x="1087" d="M84 473q0 92 26.5 189.5t81 175t136.5 128t192 50.5q119 0 228 -92v342q0 29 -17.5 46t-44.5 3l-24 -10l-21 43l268 129v-1287q0 -35 22.5 -47t45.5 0l24 11l21 -48l-274 -120v159q-123 -145 -299 -145q-96 0 -165 41t-114 106.5t-65.5 150.5t-20.5 175zM257 360.5 q13 -67.5 43 -120t77 -83t117 -30.5q137 0 254 104v625q-57 57 -113.5 83t-114.5 26q-41 0 -81 -18.5t-85 -61.5q-110 -103 -110 -378q0 -79 13 -146.5z" />
<glyph unicode="e" horiz-adv-x="909" d="M68 487q0 90 27.5 184.5t80.5 171.5t134 126t190 49q78 -2 137 -34t102 -85t69 -122.5t36 -147.5h-613q-2 -27 -4 -55.5t-2 -63.5q0 -66 10.5 -134.5t40 -125.5t80.5 -93t131 -36q193 6 306 149l41 -30q-70 -117 -163 -178.5t-210 -61.5q-96 0 -169 40t-123 107.5 t-75.5 155.5t-25.5 184zM240 680h434q-18 170 -88 240q-23 23 -43.5 36t-61.5 13t-81 -28t-71.5 -70t-55 -93t-33.5 -98z" />
<glyph unicode="f" horiz-adv-x="600" d="M68 930v49h135v55q0 80 22.5 157t67.5 137.5t109.5 96t150.5 35.5q37 0 80 -9t81 -27.5t62.5 -45t24.5 -63.5q0 -25 -12.5 -46.5t-43.5 -21.5q-35 0 -58 17.5t-46 44.5q-78 84 -174 84q-20 0 -32.5 -7.5t-20.5 -17.5q-55 -61 -56 -238v-151h131v-49h-131v-826 q0 -53 58 -53h51v-51h-367v51h45q25 0 41.5 12.5t16.5 40.5v826h-135z" />
<glyph unicode="g" horiz-adv-x="989" d="M74 -117q0 53 33.5 107.5t95.5 120.5q-35 12 -55.5 39.5t-20.5 68.5q0 53 35 102.5t96 96.5q-66 45 -105.5 114.5t-39.5 155.5q0 72 25.5 132.5t71.5 103.5t110.5 67.5t142.5 24.5q53 0 85 -9.5t70 -23.5q90 -35 179 -35q8 0 25.5 1t68.5 7l14 -65q-49 -10 -87 -15.5 t-77 -9.5q59 -90 60 -184q0 -59 -25.5 -116.5t-71 -102.5t-107.5 -73t-136 -28q-43 0 -81 8.5t-75 24.5q-31 -29 -45 -51t-14 -39q0 -23 16.5 -35t41 -18t51 -7t46.5 -1l261 -13q43 0 89 -13t83.5 -38.5t63.5 -63.5t26 -89q0 -131 -105 -232q-137 -137 -395 -137 q-61 0 -123.5 13.5t-113 41t-82 70.5t-31.5 100zM147 -57q0 -37 43 -74q41 -37 108 -61.5t171 -24.5q224 0 322 100q55 61 55 119q0 16 -4 25.5t-13 19.5q-12 16 -42.5 26.5t-79.5 10.5h-342q-31 0 -57.5 2t-51.5 6q-12 -12 -30.5 -31.5t-36 -41t-30 -42t-12.5 -34.5z M264 694q0 -96 46 -165.5t130 -114.5h35q80 41 129 108.5t49 165.5q0 88 -43 160t-135 117h-14q-88 -31 -142.5 -99.5t-54.5 -171.5z" />
<glyph unicode="h" horiz-adv-x="1130" d="M72 1352l266 125v-643q104 90 190 136t164 46q63 0 111.5 -29t79 -74t46 -101t15.5 -114v-598q0 -49 53 -49h52v-51h-369v51h45q25 0 40 10.5t15 38.5v600q0 104 -41 165t-118 61q-70 0 -133.5 -41t-149.5 -121v-664q0 -23 11 -36t40 -13h55v-51h-370v51h47q55 0 55 49 v1186q0 20 -17.5 30.5t-45.5 -1.5l-21 -8z" />
<glyph unicode="i" horiz-adv-x="516" d="M74 0h375v51h-54q-29 0 -40 12.5t-11 36.5v930l-260 -121l20 -45l27 13q23 10 35 -0.5t12 -32.5v-744q0 -29 -13 -39t-38 -10h-53v-51zM172 1374q0 39 25.5 65.5t64.5 26.5q37 0 64.5 -26.5t27.5 -65.5q0 -37 -27.5 -64.5t-64.5 -27.5q-39 0 -64.5 27.5t-25.5 64.5z" />
<glyph unicode="j" horiz-adv-x="536" d="M-90 -256q0 -53 48 -79.5t122 -26.5q76 0 134 27.5t97 74.5t58.5 110.5t19.5 135.5v1050l-264 -127l20 -45l27 13q27 10 45.5 2.5t18.5 -39.5v-1012q0 -51 -17.5 -81t-46.5 -30q-16 0 -33.5 10.5t-46.5 34.5q-31 25 -56.5 39.5t-53.5 14.5q-35 0 -53.5 -21.5t-18.5 -50.5 zM207 1374q0 37 25.5 63.5t64.5 26.5t65.5 -26.5t26.5 -63.5t-26.5 -64.5t-65.5 -27.5t-64.5 27.5t-25.5 64.5z" />
<glyph unicode="k" horiz-adv-x="995" d="M51 0v51h49q35 0 47.5 12.5t12.5 36.5v1180q0 27 -13.5 38t-42.5 -3l-20 -8l-23 45l261 121v-941l372 398q10 10 10.5 24.5t-26.5 14.5h-55v49h280v-49h-43q-27 0 -59.5 -17.5t-67.5 -58.5l-244 -258l351 -518q47 -66 125 -66h51v-51h-371v51h43l-313 463l-53 -57v-357 q0 -25 10 -37t45 -12h51v-51h-377z" />
<glyph unicode="l" horiz-adv-x="487" d="M59 0v51h52q27 0 38 9.5t11 37.5v1176q0 25 -15.5 38t-40.5 3l-24 -8l-21 45l265 121v-1375q0 -47 53 -47h51v-51h-369z" />
<glyph unicode="m" horiz-adv-x="1656" d="M74 0v51h59q29 0 40 13.5t11 33.5v742q0 33 -19.5 40t-37.5 -3l-23 -13l-20 47l266 123v-211q82 115 160 155t149 40q98 0 159 -56.5t81 -148.5q70 98 148.5 150.5t169.5 54.5q115 0 185.5 -77t70.5 -202v-641q0 -47 53 -47h57v-51h-371v51h50q20 0 35.5 7.5t15.5 35.5 v617q0 86 -42 145t-122 59q-78 0 -154 -63q-47 -51 -86 -119v-635q0 -47 54 -47h59v-51h-381v51h51q49 0 49 43v613q0 90 -34.5 147t-120.5 57q-82 0 -150 -55q-23 -29 -44 -59.5t-42 -65.5v-633q0 -47 51 -47h60v-51h-387z" />
<glyph unicode="n" horiz-adv-x="1142" d="M84 909l266 125v-209q104 93 190 145q79 48 147 48h11q59 0 106.5 -26.5t80.5 -69.5t50 -98.5t17 -112.5v-607q0 -53 58 -53h51v-51h-369v51h41q57 0 58 53v594q0 39 -7.5 79t-26 73t-49 54.5t-79.5 21.5q-57 0 -109 -29q-39 -25 -81 -59.5t-89 -79.5v-658q0 -49 58 -49 h53v-51h-373v51h45q59 0 60 49v738q0 27 -14.5 39t-41.5 0l-31 -17z" />
<glyph unicode="o" horiz-adv-x="1097" d="M66 502q0 233 151 381q133 133 336 133q184 0 319 -131q162 -162 162 -377q0 -223 -149 -371q-141 -137 -332 -137q-98 0 -185 36t-161 107q-141 141 -141 359zM229 504q0 -236 142 -373q80 -80 182 -80q98 0 174 74q74 72 108.5 167t34.5 212q0 119 -34.5 215 t-110.5 170q-43 41 -87 58.5t-85 17.5q-84 0 -144.5 -44t-100.5 -112t-59.5 -148.5t-19.5 -156.5z" />
<glyph unicode="p" horiz-adv-x="1056" d="M45 909l264 121v-172q80 78 157 119t155 41q125 0 219 -100q68 -66 99.5 -166.5t31.5 -231.5q0 -250 -164 -414q-109 -106 -287 -106q-94 2 -211 53v-282q0 -61 62 -62h45v-51h-365v51h37q37 0 51.5 14.5t14.5 47.5v1063q0 29 -15.5 42t-46.5 1l-26 -13zM309 158 q125 -106 211 -107q55 0 97 17.5t83 58.5q55 59 84 153.5t29 229.5q0 76 -13.5 145.5t-44 121.5t-79.5 83t-123 31q-125 0 -244 -105v-628z" />
<glyph unicode="q" horiz-adv-x="1056" d="M74 502q0 244 155 397q113 117 273 117q25 0 53.5 -5t58.5 -16q84 -23 120 -30t57 -7q39 0 67 43l47 68v-1309q0 -23 10.5 -36t40.5 -13h56v-49h-373v49h53q23 0 35 9.5t12 35.5v404q-78 -74 -151.5 -117t-151.5 -43q-131 0 -229 92q-133 135 -133 410zM258.5 311.5 q22.5 -75.5 65.5 -118.5q68 -61 153 -62q131 0 262 100v684l-71 15q-80 23 -113 29t-53 6q-78 0 -152 -72q-114 -112 -114 -386q0 -120 22.5 -195.5z" />
<glyph unicode="r" horiz-adv-x="706" d="M84 911l258 125v-137h2q8 12 15.5 20.5t17.5 18.5q90 90 198 90q53 0 89 -28.5t36 -69.5q0 -35 -19 -60.5t-60 -25.5q-39 0 -99 41q-16 10 -29.5 17t-17.5 7q-27 0 -98 -45q-10 -10 -17.5 -23.5t-17.5 -29.5v-707q0 -29 10 -41t39 -12h58v-51h-363v51h45q53 0 53 53v730 q0 29 -17 41t-48 -3l-15 -6z" />
<glyph unicode="s" horiz-adv-x="763" d="M74 772q0 94 69 170q80 80 213 80q55 0 120 -19.5t142 -58.5l-4 -229l-88 137q-43 63 -85 91t-85 28q-55 0 -93 -40t-38 -100q0 -49 31 -92t98 -84l162 -96q188 -111 189 -287q0 -55 -23 -104t-61.5 -86t-89 -59.5t-107.5 -22.5q-49 0 -88 6t-84 23q-43 18 -76 18 q-12 0 -26.5 -3t-49.5 -19v239l47 12q25 -49 48.5 -82.5t44.5 -54.5q94 -88 184 -88q18 0 37.5 9.5t42.5 31.5q45 43 45 121q0 123 -113 184l-184 107q-86 53 -132 120.5t-46 147.5z" />
<glyph unicode="t" horiz-adv-x="628" d="M84 965q61 39 119.5 100t140.5 170v-266h211v-49h-211v-721q0 -55 26.5 -84t73.5 -29q37 0 59.5 4t39.5 14l20 -45q-106 -59 -192 -59q-104 0 -145.5 60.5t-41.5 168.5v691h-90v28z" />
<glyph unicode="u" horiz-adv-x="1136" d="M84 965v51h264v-725q0 -98 37 -150.5t115 -52.5q27 0 52.5 7t49.5 18q23 14 75 54t103 89v664q0 45 -49 45h-59v51l266 -4v-828q0 -39 22.5 -45t43.5 4l30 11l21 -43l-275 -125v204l-53 -47q-86 -70 -156.5 -106.5t-136.5 -36.5q-98 0 -164 66q-47 47 -68.5 114.5 t-21.5 155.5v575q0 23 -10 38.5t-39 15.5h-47z" />
<glyph unicode="v" horiz-adv-x="899" d="M-6 971v47h368v-47h-47q-37 0 -35.5 -26.5t11.5 -51.5l237 -623l236 639q6 16 3 39t-36 23h-31v47h205v-47q-37 0 -57.5 -16.5t-34.5 -51.5l-346 -950l-348 932q-14 43 -30.5 64.5t-43.5 21.5h-51z" />
<glyph unicode="w" horiz-adv-x="1425" d="M-6 969v49h371v-49h-35q-23 0 -36 -17.5t-3 -52.5l225 -637l182 465l-57 156q-16 45 -33.5 65.5t-48.5 20.5h-45v49h371v-49h-54q-18 0 -29 -17.5t3 -46.5l239 -649l248 635q10 35 9 56.5t-27 21.5h-35v49h193v-49q-39 0 -55.5 -18.5t-41.5 -78.5l-356 -917l-254 700 l-274 -702l-340 956q-10 25 -22.5 42.5t-41.5 17.5h-53z" />
<glyph unicode="x" horiz-adv-x="935" d="M12 0v51h29q33 0 48 10.5t32 38.5l264 416l-225 383q-23 39 -38.5 55.5t-49.5 16.5h-19v51h355v-51h-31q-27 0 -36 -18.5t13 -59.5l133 -227l154 231q27 39 27 57q0 17 -23 17h-31v51h203v-51q-25 0 -42 -4t-31.5 -15.5t-29 -31t-32.5 -48.5l-166 -254l303 -524 q14 -25 29.5 -34t36.5 -9h45v-51h-350v47h6q37 1 47 19q3 5 3 11q0 19 -22 54l-198 338l-230 -358q-20 -33 -14 -46.5t27 -13.5h45v-51h-232z" />
<glyph unicode="y" horiz-adv-x="1007" d="M12 971v47h391v-47h-55q-10 0 -19.5 -3t-14.5 -14.5t-2 -31t18 -50.5l252 -628l256 655q14 39 8 54.5t-29 15.5h-33v49l217 -2v-47h-22q-37 0 -55.5 -18.5t-32.5 -53.5l-408 -1040q-12 -37 -33.5 -76t-52 -71t-69.5 -52t-88 -20q-53 0 -84 25.5t-31 78.5q0 41 24.5 66.5 t69.5 25.5q29 0 55.5 -10t61.5 -10q31 0 60.5 14t43.5 51l60 148l-353 864q-16 39 -31.5 59.5t-49.5 20.5h-54z" />
<glyph unicode="z" horiz-adv-x="905" d="M14 0l613 969h-217q-162 0 -265 -125l-45 -53v227h746l-610 -967h311q139 0 219 113l45 61v-225h-797z" />
<glyph unicode="~" horiz-adv-x="995" d="M147 682q57 70 119 106.5t129 36.5q37 0 73 -11t69.5 -24.5t69.5 -24.5t73 -11q70 0 125 69l41 -26q-70 -150 -207 -150q-39 0 -74 11.5t-70.5 25.5t-72.5 25.5t-80 11.5q-70 0 -162 -74z" />
<glyph unicode="&#xa3;" horiz-adv-x="1437" d="M147 127q0 43 24 72.5t59.5 48t78.5 27t80 8.5q35 0 65.5 -7.5t59.5 -17.5q10 39 15.5 81t5.5 95q0 51 -19.5 135t-54.5 201q-18 4 -33.5 6t-26.5 2q-20 0 -39.5 -8t-23.5 -37l-49 4q6 41 34.5 66.5t77.5 25.5q10 0 20.5 -2t20.5 -4q-18 66 -26 131.5t-8 135.5 q0 80 28.5 149.5t80.5 122.5t125 84t163 31q74 0 131 -19.5t95 -53.5t58.5 -79t20.5 -96q0 -96 -76 -142l-26 41q27 18 38 42t15 59q0 39 -15.5 75.5t-48 64.5t-81 45.5t-111.5 17.5q-39 0 -81 -18.5t-77 -57.5t-57.5 -98.5t-22.5 -141.5q0 -59 15.5 -139t50.5 -178h20 q35 0 58.5 7t13.5 25l33 39q23 -18 22 -45q0 -29 -11 -43t-30.5 -21t-43 -9t-48.5 -4q25 -80 38 -144.5t13 -116.5q0 -160 -77 -284q104 -78 182 -117t141 -39q94 0 145.5 49t51.5 111q0 10 -10.5 36.5t-43.5 71.5l50 -4q35 -4 62.5 -13.5t47.5 -27.5q41 -37 41 -94 q0 -61 -34.5 -96t-87 -53.5t-113 -23.5t-109.5 -5q-86 0 -166 41t-186 121q-49 -72 -122 -116t-165 -44q-25 0 -53.5 5t-51 19.5t-38 39t-15.5 63.5zM199 127q0 -41 26.5 -58.5t79.5 -17.5q78 0 120 42t75 118q-43 20 -111 20q-23 0 -55.5 -4t-62 -14t-51 -31.5t-21.5 -54.5 z" />
<glyph unicode="&#xad;" d="M88 678v100h758v-100h-758z" />
<glyph unicode="&#x2000;" horiz-adv-x="766" />
<glyph unicode="&#x2001;" horiz-adv-x="1532" />
<glyph unicode="&#x2002;" horiz-adv-x="766" />
<glyph unicode="&#x2003;" horiz-adv-x="1532" />
<glyph unicode="&#x2004;" horiz-adv-x="510" />
<glyph unicode="&#x2005;" horiz-adv-x="383" />
<glyph unicode="&#x2006;" horiz-adv-x="255" />
<glyph unicode="&#x2007;" horiz-adv-x="255" />
<glyph unicode="&#x2008;" horiz-adv-x="191" />
<glyph unicode="&#x2009;" horiz-adv-x="306" />
<glyph unicode="&#x200a;" horiz-adv-x="85" />
<glyph unicode="&#x2010;" d="M88 678v100h758v-100h-758z" />
<glyph unicode="&#x2011;" d="M88 678v100h758v-100h-758z" />
<glyph unicode="&#x2012;" d="M88 678v100h758v-100h-758z" />
<glyph unicode="&#x2013;" horiz-adv-x="1216" d="M88 678v100h1024v-100h-1024z" />
<glyph unicode="&#x2014;" horiz-adv-x="2240" d="M88 678v100h2048v-100h-2048z" />
<glyph unicode="&#x202f;" horiz-adv-x="306" />
<glyph unicode="&#x205f;" horiz-adv-x="383" />
<glyph unicode="&#x25fc;" horiz-adv-x="1024" d="M0 0v1024h1024v-1024h-1024z" />
</font>
</defs>
</svg>
