<?xml version="1.0" standalone="no" ?>
<!DOCTYPE svg PUBLIC "-//W3C//DTD SVG 20010904//EN" "http://www.w3.org/TR/2001/REC-SVG-20010904/DTD/svg10.dtd">
<svg xmlns="http://www.w3.org/2000/svg" xmlns:xlink="http://www.w3.org/1999/xlink" version="1.1" width="614.552380952381" height="872" xml:space="preserve">
<desc>Created with Fabric.js 0.8.41</desc>


<image x="0" y="0" width="614.552380952381" height="872" preserveAspectRatio="none" xlink:href="http://0.0.0.0:3000/assets/customisation/brass.jpg" style="opacity:1"></image>

<g transform="translate(50 132) scale(3 3)"><path width="100" height="56.468" d="M 100 32.423 L 93.374 36.4 c -5.821 -3.24 -11.577 1.125 -11.577 1.125 s -7.618 -10.743 -20.509 -10.549 c -5.72 0.087 -10.365 1.324 -14.12 3.115 l -3.127 -2.669 c 2.827 -0.641 16.052 -5.611 16.052 -5.611 c 0.604 -0.219 0.915 -0.885 0.697 -1.488 c -0.22 -0.603 -0.887 -0.914 -1.487 -0.695 l -2.931 1.062 c 2.296 -2.608 4.444 -5.626 4.801 -6.13 c 0.368 -0.524 0.242 -1.249 -0.281 -1.618 c -0.525 -0.369 -1.25 -0.243 -1.62 0.28 c -0.56 0.795 -1.543 2.129 -2.662 3.542 c 0.22 -2.132 0.415 -5.063 0.423 -5.198 c 0.041 -0.642 -0.441 -1.193 -1.083 -1.235 c -0.662 -0.047 -1.192 0.443 -1.234 1.083 c -0.003 0.035 -0.233 3.534 -0.471 5.616 c -0.161 1.411 -1.252 3.463 -1.797 4.373 c -0.386 0.345 -0.746 0.633 -1.063 0.827 c -2.733 1.678 -9.983 3.501 -10.056 3.519 c -0.422 0.106 -0.75 0.439 -0.85 0.862 c -0.099 0.423 0.046 0.866 0.376 1.149 l 4.106 3.506 c -0.701 0.413 -1.362 0.843 -1.992 1.288 l -6.256 -5.194 c 2.337 -2.081 7.974 -7.18 9.779 -9.535 c 2.279 -2.979 5.913 -12.487 6.066 -12.89 c 0.228 -0.6 -0.072 -1.271 -0.672 -1.5 c -0.602 -0.226 -1.272 0.074 -1.501 0.672 c -0.015 0.038 -0.61 1.596 -1.448 3.614 c -0.043 -2.929 -0.247 -6.412 -0.259 -6.625 c -0.038 -0.64 -0.572 -1.125 -1.229 -1.091 c -0.64 0.038 -1.129 0.588 -1.092 1.229 c 0.118 1.99 0.374 7.392 0.211 9.354 C 46.08 8.471 44.858 5.745 44.8 5.615 c -0.265 -0.586 -0.953 -0.845 -1.537 -0.583 c -0.584 0.264 -0.845 0.951 -0.583 1.537 c 0.417 0.926 1.542 3.658 1.74 5.159 c 0.197 1.495 0.069 4.011 0.012 4.939 c -2.38 2.916 -10.19 9.77 -10.271 9.841 c -0.256 0.226 -0.401 0.55 -0.396 0.891 c 0.005 0.34 0.158 0.66 0.419 0.878 l 6.894 5.724 c -3.106 2.605 -5.168 5.45 -6.448 7.638 H 5.264 c 0 0 0.575 1.143 2.37 2.231 c 2.003 1.216 4.741 2.038 4.741 2.038 H 0 c 0 0 2.814 2.661 7.108 4.015 c 4.867 1.533 11.27 2.253 17.565 2.539 l -4.59 4.006 h 72.412 c 0 0 10.82 -6.723 5.581 -15.385 L 100 32.423 z" style="stroke: none; stroke-width: 1; fill: #000; opacity: 1;" transform="translate(-50 -28.234)" /></g>
<g transform="translate(-59.72 478) scale(10.91 10.91)"><path width="100" height="56.47" d="M 100 32.423 L 93.374 36.4 c -5.821 -3.24 -11.577 1.125 -11.577 1.125 s -7.618 -10.743 -20.509 -10.549 c -5.72 0.087 -10.365 1.324 -14.12 3.115 l -3.127 -2.669 c 2.827 -0.641 16.052 -5.611 16.052 -5.611 c 0.604 -0.219 0.915 -0.885 0.697 -1.488 c -0.22 -0.603 -0.887 -0.914 -1.487 -0.695 l -2.931 1.062 c 2.296 -2.608 4.444 -5.626 4.801 -6.13 c 0.368 -0.524 0.242 -1.249 -0.281 -1.618 c -0.525 -0.369 -1.25 -0.243 -1.62 0.28 c -0.56 0.795 -1.543 2.129 -2.662 3.542 c 0.22 -2.132 0.415 -5.063 0.423 -5.198 c 0.041 -0.642 -0.441 -1.193 -1.083 -1.235 c -0.662 -0.047 -1.192 0.443 -1.234 1.083 c -0.003 0.035 -0.233 3.534 -0.471 5.616 c -0.161 1.411 -1.252 3.463 -1.797 4.373 c -0.386 0.345 -0.746 0.633 -1.063 0.827 c -2.733 1.678 -9.983 3.501 -10.056 3.519 c -0.422 0.106 -0.75 0.439 -0.85 0.862 c -0.099 0.423 0.046 0.866 0.376 1.149 l 4.106 3.506 c -0.701 0.413 -1.362 0.843 -1.992 1.288 l -6.256 -5.194 c 2.337 -2.081 7.974 -7.18 9.779 -9.535 c 2.279 -2.979 5.913 -12.487 6.066 -12.89 c 0.228 -0.6 -0.072 -1.271 -0.672 -1.5 c -0.602 -0.226 -1.272 0.074 -1.501 0.672 c -0.015 0.038 -0.61 1.596 -1.448 3.614 c -0.043 -2.929 -0.247 -6.412 -0.259 -6.625 c -0.038 -0.64 -0.572 -1.125 -1.229 -1.091 c -0.64 0.038 -1.129 0.588 -1.092 1.229 c 0.118 1.99 0.374 7.392 0.211 9.354 C 46.08 8.471 44.858 5.745 44.8 5.615 c -0.265 -0.586 -0.953 -0.845 -1.537 -0.583 c -0.584 0.264 -0.845 0.951 -0.583 1.537 c 0.417 0.926 1.542 3.658 1.74 5.159 c 0.197 1.495 0.069 4.011 0.012 4.939 c -2.38 2.916 -10.19 9.77 -10.271 9.841 c -0.256 0.226 -0.401 0.55 -0.396 0.891 c 0.005 0.34 0.158 0.66 0.419 0.878 l 6.894 5.724 c -3.106 2.605 -5.168 5.45 -6.448 7.638 H 5.264 c 0 0 0.575 1.143 2.37 2.231 c 2.003 1.216 4.741 2.038 4.741 2.038 H 0 c 0 0 2.814 2.661 7.108 4.015 c 4.867 1.533 11.27 2.253 17.565 2.539 l -4.59 4.006 h 72.412 c 0 0 10.82 -6.723 5.581 -15.385 L 100 32.423 z" style="stroke: none; stroke-width: 1; fill: #000; opacity: 1;" transform="translate(-50 -28.235)" /></g>
</svg>