<?xml version="1.0" encoding="utf-8"?>
<!-- Generator: Adobe Illustrator 15.1.0, SVG Export Plug-In . SVG Version: 6.00 Build 0)  -->
<svg version="1.2" baseProfile="tiny" id="Layer_1" xmlns="http://www.w3.org/2000/svg" xmlns:xlink="http://www.w3.org/1999/xlink"
	 x="0px" y="0px" width="630px" height="630px" viewBox="0 0 630 630" xml:space="preserve">
<path fill="#0C0C0C" d="M612,18V2h-20v16h-12V2h-20v16h-12V2h-20v16h-12V2h-20v16h-12V2h-20v16h-12V2h-20v16h-11V2h-20v16h-12V2h-20
	v16h-12V2h-20v16h-12V2h-20v16h-12V2h-20v16h-12V2h-20v16h-12V2h-20v16h-12V2h-20v16h-11V2h-20v16h-12V2h-20v16h-12V2H82v16H70V2H50
	v16H38V2H18v16H2v20h16v12H2v20h16v12H2v20h16v12H2v20h16v12H2v20h16v12H2v20h16v11H2v20h16v12H2v20h16v12H2v20h16v12H2v20h16v12H2
	v20h16v12H2v20h16v12H2v20h16v12H2v20h16v11H2v20h16v12H2v20h16v12H2v20h16v12H2v20h16v12H2v20h16v16h20v-16h12v16h20v-16h12v16h20
	v-16h12v16h20v-16h12v16h20v-16h12v16h20v-16h11v16h20v-16h12v16h20v-16h12v16h20v-16h12v16h20v-16h12v16h20v-16h12v16h20v-16h12v16
	h20v-16h12v16h20v-16h11v16h20v-16h12v16h20v-16h12v16h20v-16h12v16h20v-16h12v16h20v-16h16v-20h-16v-12h16v-20h-16v-12h16v-20h-16
	v-12h16v-20h-16v-12h16v-20h-16v-12h16v-20h-16v-11h16v-20h-16v-12h16v-20h-16v-12h16v-20h-16v-12h16v-20h-16v-12h16v-20h-16v-12h16
	v-20h-16v-12h16v-20h-16v-12h16v-20h-16v-11h16v-20h-16v-12h16v-20h-16v-12h16V82h-16V70h16V50h-16V38h16V18H612z M624,34h-16.32
	l-0.004,20H624v12h-16.32l-0.004,20H624v12h-16.32l-0.004,20H624v12h-16.32l-0.004,20H624v12h-16.32l-0.004,19H624v12h-16.32
	l-0.004,20H624v12h-16.32l-0.004,20H624v12h-16.32l-0.004,20H624v12h-16.32l-0.004,20H624v12h-16.32l-0.004,20H624v12h-16.32
	l-0.004,20H624v12h-16.32l-0.004,20H624v12h-16.32l-0.004,19H624v12h-16.32l-0.004,20H624v12h-16.32l-0.004,20H624v12h-16.32
	l-0.004,20H624v12h-16.32l-0.004,20H624v12h-16.32l-0.004,20H624v11.676l-16-0.006V624h-12v-16.32l-20-0.004V624h-12v-16.32
	l-20-0.004V624h-12v-16.32l-20-0.004V624h-12v-16.32l-20-0.004V624h-12v-16.32l-19-0.004V624h-12v-16.32l-20-0.004V624h-12v-16.32
	l-20-0.004V624h-12v-16.32l-20-0.004V624h-12v-16.32l-20-0.004V624h-12v-16.32l-20-0.004V624h-12v-16.32l-20-0.004V624h-12v-16.32
	l-20-0.004V624h-12v-16.32l-19-0.004V624h-12v-16.32l-20-0.004V624h-12v-16.32l-20-0.004V624h-12v-16.32l-20-0.004V624H86v-16.32
	l-20-0.004V624H54v-16.32l-20-0.004V624H22.325l0.005-16H6v-12h16.321l0.004-20H6v-12h16.321l0.004-20H6v-12h16.321l0.004-20H6v-12
	h16.321l0.004-20H6v-12h16.321l0.004-19H6v-12h16.321l0.004-20H6v-12h16.321l0.004-20H6v-12h16.321l0.004-20H6v-12h16.321l0.004-20
	H6v-12h16.321l0.004-20H6v-12h16.321l0.004-20H6v-12h16.321l0.004-20H6v-12h16.321l0.004-19H6v-12h16.321l0.004-20H6v-12h16.321
	l0.004-20H6v-12h16.321l0.004-20H6V86h16.321l0.004-20H6V54h16.321l0.004-20H6V22.325l16,0.005V6h12v16.321l20,0.004V6h12v16.321
	l20,0.004V6h12v16.321l20,0.004V6h12v16.321l20,0.004V6h12v16.321l19,0.004V6h12v16.321l20,0.004V6h12v16.321l20,0.004V6h12v16.321
	l20,0.004V6h12v16.321l20,0.004V6h12v16.321l20,0.004V6h12v16.321l20,0.004V6h12v16.321l20,0.004V6h12v16.321l19,0.004V6h12v16.321
	l20,0.004V6h12v16.321l20,0.004V6h12v16.321l20,0.004V6h12v16.321l20,0.004V6h12v16.321l20,0.004V6h11.676l-0.006,16H624V34z"/>
</svg>
