<?xml version="1.0" encoding="utf-8"?>
<!-- Generator: Adobe Illustrator 15.1.0, SVG Export Plug-In . SVG Version: 6.00 Build 0)  -->
<svg version="1.2" baseProfile="tiny" id="Layer_1" xmlns="http://www.w3.org/2000/svg" xmlns:xlink="http://www.w3.org/1999/xlink"
	 x="0px" y="0px" width="630px" height="630px" viewBox="0 0 630 630" xml:space="preserve">
<g>
	<rect x="15" y="15" fill="#FFFFFF" width="600" height="600"/>
	<g>
		<g>
			<g>
				
					<line fill="none" stroke="#000000" stroke-width="2.5" stroke-linecap="round" stroke-linejoin="round" x1="6.293" y1="602.063" x2="6.293" y2="575.966"/>
			</g>
			
				<line fill="none" stroke="#000000" stroke-width="2.5" stroke-linecap="round" stroke-linejoin="round" x1="2.058" y1="602.099" x2="2.058" y2="575.966"/>
		</g>
		<g>
			<g>
				
					<line fill="none" stroke="#000000" stroke-width="2.5" stroke-linecap="round" stroke-linejoin="round" x1="6.293" y1="575.966" x2="6.293" y2="549.869"/>
			</g>
			
				<line fill="none" stroke="#000000" stroke-width="2.5" stroke-linecap="round" stroke-linejoin="round" x1="2.058" y1="576.002" x2="2.058" y2="549.869"/>
		</g>
		<g>
			<g>
				
					<line fill="none" stroke="#000000" stroke-width="2.5" stroke-linecap="round" stroke-linejoin="round" x1="6.293" y1="549.869" x2="6.293" y2="523.772"/>
			</g>
			
				<line fill="none" stroke="#000000" stroke-width="2.5" stroke-linecap="round" stroke-linejoin="round" x1="2.058" y1="549.905" x2="2.058" y2="523.772"/>
		</g>
		<g>
			<g>
				
					<line fill="none" stroke="#000000" stroke-width="2.5" stroke-linecap="round" stroke-linejoin="round" x1="6.293" y1="523.772" x2="6.293" y2="497.677"/>
			</g>
			
				<line fill="none" stroke="#000000" stroke-width="2.5" stroke-linecap="round" stroke-linejoin="round" x1="2.058" y1="523.809" x2="2.058" y2="497.677"/>
		</g>
		<g>
			<g>
				
					<line fill="none" stroke="#000000" stroke-width="2.5" stroke-linecap="round" stroke-linejoin="round" x1="6.293" y1="497.677" x2="6.293" y2="471.58"/>
			</g>
			
				<line fill="none" stroke="#000000" stroke-width="2.5" stroke-linecap="round" stroke-linejoin="round" x1="2.058" y1="497.712" x2="2.058" y2="471.58"/>
		</g>
		<g>
			<g>
				
					<line fill="none" stroke="#000000" stroke-width="2.5" stroke-linecap="round" stroke-linejoin="round" x1="6.293" y1="471.58" x2="6.293" y2="445.483"/>
			</g>
			
				<line fill="none" stroke="#000000" stroke-width="2.5" stroke-linecap="round" stroke-linejoin="round" x1="2.058" y1="471.615" x2="2.058" y2="445.483"/>
		</g>
		<g>
			<g>
				
					<line fill="none" stroke="#000000" stroke-width="2.5" stroke-linecap="round" stroke-linejoin="round" x1="6.293" y1="445.483" x2="6.293" y2="419.387"/>
			</g>
			
				<line fill="none" stroke="#000000" stroke-width="2.5" stroke-linecap="round" stroke-linejoin="round" x1="2.058" y1="445.52" x2="2.058" y2="419.387"/>
		</g>
		<g>
			<g>
				
					<line fill="none" stroke="#000000" stroke-width="2.5" stroke-linecap="round" stroke-linejoin="round" x1="6.293" y1="419.387" x2="6.293" y2="393.29"/>
			</g>
			
				<line fill="none" stroke="#000000" stroke-width="2.5" stroke-linecap="round" stroke-linejoin="round" x1="2.058" y1="419.423" x2="2.058" y2="393.29"/>
		</g>
		<g>
			<g>
				
					<line fill="none" stroke="#000000" stroke-width="2.5" stroke-linecap="round" stroke-linejoin="round" x1="6.293" y1="393.29" x2="6.293" y2="367.193"/>
			</g>
			
				<line fill="none" stroke="#000000" stroke-width="2.5" stroke-linecap="round" stroke-linejoin="round" x1="2.058" y1="393.326" x2="2.058" y2="367.193"/>
		</g>
		<g>
			<g>
				
					<line fill="none" stroke="#000000" stroke-width="2.5" stroke-linecap="round" stroke-linejoin="round" x1="6.293" y1="367.193" x2="6.293" y2="341.097"/>
			</g>
			
				<line fill="none" stroke="#000000" stroke-width="2.5" stroke-linecap="round" stroke-linejoin="round" x1="2.058" y1="367.229" x2="2.058" y2="341.097"/>
		</g>
		<g>
			<g>
				
					<line fill="none" stroke="#000000" stroke-width="2.5" stroke-linecap="round" stroke-linejoin="round" x1="6.293" y1="341.097" x2="6.293" y2="315"/>
			</g>
			
				<line fill="none" stroke="#000000" stroke-width="2.5" stroke-linecap="round" stroke-linejoin="round" x1="2.058" y1="341.133" x2="2.058" y2="315"/>
		</g>
		<g>
			<g>
				
					<line fill="none" stroke="#000000" stroke-width="2.5" stroke-linecap="round" stroke-linejoin="round" x1="6.293" y1="315" x2="6.293" y2="288.903"/>
			</g>
			
				<line fill="none" stroke="#000000" stroke-width="2.5" stroke-linecap="round" stroke-linejoin="round" x1="2.058" y1="315.036" x2="2.058" y2="288.903"/>
		</g>
		<g>
			<g>
				
					<line fill="none" stroke="#000000" stroke-width="2.5" stroke-linecap="round" stroke-linejoin="round" x1="6.293" y1="288.903" x2="6.293" y2="262.807"/>
			</g>
			
				<line fill="none" stroke="#000000" stroke-width="2.5" stroke-linecap="round" stroke-linejoin="round" x1="2.058" y1="288.939" x2="2.058" y2="262.807"/>
		</g>
		<g>
			<g>
				
					<line fill="none" stroke="#000000" stroke-width="2.5" stroke-linecap="round" stroke-linejoin="round" x1="6.293" y1="262.807" x2="6.293" y2="236.71"/>
			</g>
			
				<line fill="none" stroke="#000000" stroke-width="2.5" stroke-linecap="round" stroke-linejoin="round" x1="2.058" y1="262.843" x2="2.058" y2="236.71"/>
		</g>
		<g>
			<g>
				
					<line fill="none" stroke="#000000" stroke-width="2.5" stroke-linecap="round" stroke-linejoin="round" x1="6.293" y1="236.71" x2="6.293" y2="210.614"/>
			</g>
			
				<line fill="none" stroke="#000000" stroke-width="2.5" stroke-linecap="round" stroke-linejoin="round" x1="2.058" y1="236.746" x2="2.058" y2="210.614"/>
		</g>
		<g>
			<g>
				
					<line fill="none" stroke="#000000" stroke-width="2.5" stroke-linecap="round" stroke-linejoin="round" x1="6.293" y1="210.614" x2="6.293" y2="184.517"/>
			</g>
			
				<line fill="none" stroke="#000000" stroke-width="2.5" stroke-linecap="round" stroke-linejoin="round" x1="2.058" y1="210.649" x2="2.058" y2="184.517"/>
		</g>
		<g>
			<g>
				
					<line fill="none" stroke="#000000" stroke-width="2.5" stroke-linecap="round" stroke-linejoin="round" x1="6.293" y1="184.517" x2="6.293" y2="158.42"/>
			</g>
			
				<line fill="none" stroke="#000000" stroke-width="2.5" stroke-linecap="round" stroke-linejoin="round" x1="2.058" y1="184.553" x2="2.058" y2="158.42"/>
		</g>
		<g>
			<g>
				
					<line fill="none" stroke="#000000" stroke-width="2.5" stroke-linecap="round" stroke-linejoin="round" x1="6.293" y1="158.42" x2="6.293" y2="132.324"/>
			</g>
			
				<line fill="none" stroke="#000000" stroke-width="2.5" stroke-linecap="round" stroke-linejoin="round" x1="2.058" y1="158.456" x2="2.058" y2="132.324"/>
		</g>
		<g>
			<g>
				
					<line fill="none" stroke="#000000" stroke-width="2.5" stroke-linecap="round" stroke-linejoin="round" x1="6.293" y1="132.324" x2="6.293" y2="106.227"/>
			</g>
			
				<line fill="none" stroke="#000000" stroke-width="2.5" stroke-linecap="round" stroke-linejoin="round" x1="2.058" y1="132.36" x2="2.058" y2="106.227"/>
		</g>
		<g>
			<g>
				
					<line fill="none" stroke="#000000" stroke-width="2.5" stroke-linecap="round" stroke-linejoin="round" x1="6.293" y1="106.227" x2="6.293" y2="80.13"/>
			</g>
			
				<line fill="none" stroke="#000000" stroke-width="2.5" stroke-linecap="round" stroke-linejoin="round" x1="2.058" y1="106.263" x2="2.058" y2="80.13"/>
		</g>
		<g>
			<g>
				
					<line fill="none" stroke="#000000" stroke-width="2.5" stroke-linecap="round" stroke-linejoin="round" x1="6.293" y1="80.13" x2="6.293" y2="54.034"/>
			</g>
			
				<line fill="none" stroke="#000000" stroke-width="2.5" stroke-linecap="round" stroke-linejoin="round" x1="2.058" y1="80.167" x2="2.058" y2="54.034"/>
		</g>
		<g>
			<g>
				
					<line fill="none" stroke="#000000" stroke-width="2.5" stroke-linecap="round" stroke-linejoin="round" x1="6.293" y1="54.034" x2="6.293" y2="27.938"/>
			</g>
			
				<line fill="none" stroke="#000000" stroke-width="2.5" stroke-linecap="round" stroke-linejoin="round" x1="2.058" y1="54.07" x2="2.058" y2="27.938"/>
		</g>
		<g>
			<g>
				
					<line fill="none" stroke="#000000" stroke-width="2.5" stroke-linecap="round" stroke-linejoin="round" x1="27.938" y1="6.293" x2="54.034" y2="6.293"/>
			</g>
			
				<line fill="none" stroke="#000000" stroke-width="2.5" stroke-linecap="round" stroke-linejoin="round" x1="27.901" y1="2.058" x2="54.034" y2="2.058"/>
		</g>
		<g>
			<g>
				
					<line fill="none" stroke="#000000" stroke-width="2.5" stroke-linecap="round" stroke-linejoin="round" x1="54.034" y1="6.293" x2="80.13" y2="6.293"/>
			</g>
			
				<line fill="none" stroke="#000000" stroke-width="2.5" stroke-linecap="round" stroke-linejoin="round" x1="53.998" y1="2.058" x2="80.13" y2="2.058"/>
		</g>
		<g>
			<g>
				
					<line fill="none" stroke="#000000" stroke-width="2.5" stroke-linecap="round" stroke-linejoin="round" x1="80.13" y1="6.293" x2="106.227" y2="6.293"/>
			</g>
			
				<line fill="none" stroke="#000000" stroke-width="2.5" stroke-linecap="round" stroke-linejoin="round" x1="80.095" y1="2.058" x2="106.227" y2="2.058"/>
		</g>
		<g>
			<g>
				
					<line fill="none" stroke="#000000" stroke-width="2.5" stroke-linecap="round" stroke-linejoin="round" x1="106.227" y1="6.293" x2="132.324" y2="6.293"/>
			</g>
			
				<line fill="none" stroke="#000000" stroke-width="2.5" stroke-linecap="round" stroke-linejoin="round" x1="106.191" y1="2.058" x2="132.324" y2="2.058"/>
		</g>
		<g>
			<g>
				
					<line fill="none" stroke="#000000" stroke-width="2.5" stroke-linecap="round" stroke-linejoin="round" x1="132.324" y1="6.293" x2="158.42" y2="6.293"/>
			</g>
			
				<line fill="none" stroke="#000000" stroke-width="2.5" stroke-linecap="round" stroke-linejoin="round" x1="132.288" y1="2.058" x2="158.42" y2="2.058"/>
		</g>
		<g>
			<g>
				
					<line fill="none" stroke="#000000" stroke-width="2.5" stroke-linecap="round" stroke-linejoin="round" x1="158.42" y1="6.293" x2="184.517" y2="6.293"/>
			</g>
			
				<line fill="none" stroke="#000000" stroke-width="2.5" stroke-linecap="round" stroke-linejoin="round" x1="158.384" y1="2.058" x2="184.517" y2="2.058"/>
		</g>
		<g>
			<g>
				
					<line fill="none" stroke="#000000" stroke-width="2.5" stroke-linecap="round" stroke-linejoin="round" x1="184.517" y1="6.293" x2="210.614" y2="6.293"/>
			</g>
			
				<line fill="none" stroke="#000000" stroke-width="2.5" stroke-linecap="round" stroke-linejoin="round" x1="184.481" y1="2.058" x2="210.614" y2="2.058"/>
		</g>
		<g>
			<g>
				
					<line fill="none" stroke="#000000" stroke-width="2.5" stroke-linecap="round" stroke-linejoin="round" x1="210.614" y1="6.293" x2="236.71" y2="6.293"/>
			</g>
			
				<line fill="none" stroke="#000000" stroke-width="2.5" stroke-linecap="round" stroke-linejoin="round" x1="210.578" y1="2.058" x2="236.71" y2="2.058"/>
		</g>
		<g>
			<g>
				
					<line fill="none" stroke="#000000" stroke-width="2.5" stroke-linecap="round" stroke-linejoin="round" x1="236.71" y1="6.293" x2="262.807" y2="6.293"/>
			</g>
			
				<line fill="none" stroke="#000000" stroke-width="2.5" stroke-linecap="round" stroke-linejoin="round" x1="236.674" y1="2.058" x2="262.807" y2="2.058"/>
		</g>
		<g>
			<g>
				
					<line fill="none" stroke="#000000" stroke-width="2.5" stroke-linecap="round" stroke-linejoin="round" x1="262.807" y1="6.293" x2="288.903" y2="6.293"/>
			</g>
			
				<line fill="none" stroke="#000000" stroke-width="2.5" stroke-linecap="round" stroke-linejoin="round" x1="262.771" y1="2.058" x2="288.903" y2="2.058"/>
		</g>
		<g>
			<g>
				
					<line fill="none" stroke="#000000" stroke-width="2.5" stroke-linecap="round" stroke-linejoin="round" x1="288.903" y1="6.293" x2="315" y2="6.293"/>
			</g>
			
				<line fill="none" stroke="#000000" stroke-width="2.5" stroke-linecap="round" stroke-linejoin="round" x1="288.867" y1="2.058" x2="315" y2="2.058"/>
		</g>
		<g>
			<g>
				
					<line fill="none" stroke="#000000" stroke-width="2.5" stroke-linecap="round" stroke-linejoin="round" x1="315" y1="6.293" x2="341.097" y2="6.293"/>
			</g>
			
				<line fill="none" stroke="#000000" stroke-width="2.5" stroke-linecap="round" stroke-linejoin="round" x1="314.964" y1="2.058" x2="341.097" y2="2.058"/>
		</g>
		<g>
			<g>
				
					<line fill="none" stroke="#000000" stroke-width="2.5" stroke-linecap="round" stroke-linejoin="round" x1="341.097" y1="6.293" x2="367.193" y2="6.293"/>
			</g>
			
				<line fill="none" stroke="#000000" stroke-width="2.5" stroke-linecap="round" stroke-linejoin="round" x1="341.061" y1="2.058" x2="367.193" y2="2.058"/>
		</g>
		<g>
			<g>
				
					<line fill="none" stroke="#000000" stroke-width="2.5" stroke-linecap="round" stroke-linejoin="round" x1="367.193" y1="6.293" x2="393.29" y2="6.293"/>
			</g>
			
				<line fill="none" stroke="#000000" stroke-width="2.5" stroke-linecap="round" stroke-linejoin="round" x1="367.157" y1="2.058" x2="393.29" y2="2.058"/>
		</g>
		<g>
			<g>
				
					<line fill="none" stroke="#000000" stroke-width="2.5" stroke-linecap="round" stroke-linejoin="round" x1="393.29" y1="6.293" x2="419.387" y2="6.293"/>
			</g>
			
				<line fill="none" stroke="#000000" stroke-width="2.5" stroke-linecap="round" stroke-linejoin="round" x1="393.254" y1="2.058" x2="419.387" y2="2.058"/>
		</g>
		<g>
			<g>
				
					<line fill="none" stroke="#000000" stroke-width="2.5" stroke-linecap="round" stroke-linejoin="round" x1="419.387" y1="6.293" x2="445.483" y2="6.293"/>
			</g>
			
				<line fill="none" stroke="#000000" stroke-width="2.5" stroke-linecap="round" stroke-linejoin="round" x1="419.351" y1="2.058" x2="445.483" y2="2.058"/>
		</g>
		<g>
			<g>
				
					<line fill="none" stroke="#000000" stroke-width="2.5" stroke-linecap="round" stroke-linejoin="round" x1="445.483" y1="6.293" x2="471.58" y2="6.293"/>
			</g>
			
				<line fill="none" stroke="#000000" stroke-width="2.5" stroke-linecap="round" stroke-linejoin="round" x1="445.447" y1="2.058" x2="471.58" y2="2.058"/>
		</g>
		<g>
			<g>
				
					<line fill="none" stroke="#000000" stroke-width="2.5" stroke-linecap="round" stroke-linejoin="round" x1="471.58" y1="6.293" x2="497.677" y2="6.293"/>
			</g>
			
				<line fill="none" stroke="#000000" stroke-width="2.5" stroke-linecap="round" stroke-linejoin="round" x1="471.544" y1="2.058" x2="497.677" y2="2.058"/>
		</g>
		<g>
			<g>
				
					<line fill="none" stroke="#000000" stroke-width="2.5" stroke-linecap="round" stroke-linejoin="round" x1="497.677" y1="6.293" x2="523.772" y2="6.293"/>
			</g>
			
				<line fill="none" stroke="#000000" stroke-width="2.5" stroke-linecap="round" stroke-linejoin="round" x1="497.641" y1="2.058" x2="523.772" y2="2.058"/>
		</g>
		<g>
			<g>
				
					<line fill="none" stroke="#000000" stroke-width="2.5" stroke-linecap="round" stroke-linejoin="round" x1="523.772" y1="6.293" x2="549.869" y2="6.293"/>
			</g>
			
				<line fill="none" stroke="#000000" stroke-width="2.5" stroke-linecap="round" stroke-linejoin="round" x1="523.737" y1="2.058" x2="549.869" y2="2.058"/>
		</g>
		<g>
			<g>
				
					<line fill="none" stroke="#000000" stroke-width="2.5" stroke-linecap="round" stroke-linejoin="round" x1="549.869" y1="6.293" x2="575.966" y2="6.293"/>
			</g>
			
				<line fill="none" stroke="#000000" stroke-width="2.5" stroke-linecap="round" stroke-linejoin="round" x1="549.834" y1="2.058" x2="575.966" y2="2.058"/>
		</g>
		<g>
			<g>
				
					<line fill="none" stroke="#000000" stroke-width="2.5" stroke-linecap="round" stroke-linejoin="round" x1="575.966" y1="6.293" x2="602.063" y2="6.293"/>
			</g>
			
				<line fill="none" stroke="#000000" stroke-width="2.5" stroke-linecap="round" stroke-linejoin="round" x1="575.93" y1="2.058" x2="602.063" y2="2.058"/>
		</g>
		<g>
			<g>
				
					<line fill="none" stroke="#000000" stroke-width="2.5" stroke-linecap="round" stroke-linejoin="round" x1="623.707" y1="27.938" x2="623.707" y2="54.034"/>
			</g>
			
				<line fill="none" stroke="#000000" stroke-width="2.5" stroke-linecap="round" stroke-linejoin="round" x1="627.942" y1="27.901" x2="627.942" y2="54.034"/>
		</g>
		<g>
			<g>
				
					<line fill="none" stroke="#000000" stroke-width="2.5" stroke-linecap="round" stroke-linejoin="round" x1="623.707" y1="54.034" x2="623.707" y2="80.13"/>
			</g>
			
				<line fill="none" stroke="#000000" stroke-width="2.5" stroke-linecap="round" stroke-linejoin="round" x1="627.942" y1="53.998" x2="627.942" y2="80.13"/>
		</g>
		<g>
			<g>
				
					<line fill="none" stroke="#000000" stroke-width="2.5" stroke-linecap="round" stroke-linejoin="round" x1="623.707" y1="80.13" x2="623.707" y2="106.227"/>
			</g>
			
				<line fill="none" stroke="#000000" stroke-width="2.5" stroke-linecap="round" stroke-linejoin="round" x1="627.942" y1="80.095" x2="627.942" y2="106.227"/>
		</g>
		<g>
			<g>
				
					<line fill="none" stroke="#000000" stroke-width="2.5" stroke-linecap="round" stroke-linejoin="round" x1="623.707" y1="106.227" x2="623.707" y2="132.324"/>
			</g>
			
				<line fill="none" stroke="#000000" stroke-width="2.5" stroke-linecap="round" stroke-linejoin="round" x1="627.942" y1="106.191" x2="627.942" y2="132.324"/>
		</g>
		<g>
			<g>
				
					<line fill="none" stroke="#000000" stroke-width="2.5" stroke-linecap="round" stroke-linejoin="round" x1="623.707" y1="132.324" x2="623.707" y2="158.42"/>
			</g>
			
				<line fill="none" stroke="#000000" stroke-width="2.5" stroke-linecap="round" stroke-linejoin="round" x1="627.942" y1="132.288" x2="627.942" y2="158.42"/>
		</g>
		<g>
			<g>
				
					<line fill="none" stroke="#000000" stroke-width="2.5" stroke-linecap="round" stroke-linejoin="round" x1="623.707" y1="158.42" x2="623.707" y2="184.517"/>
			</g>
			
				<line fill="none" stroke="#000000" stroke-width="2.5" stroke-linecap="round" stroke-linejoin="round" x1="627.942" y1="158.384" x2="627.942" y2="184.517"/>
		</g>
		<g>
			<g>
				
					<line fill="none" stroke="#000000" stroke-width="2.5" stroke-linecap="round" stroke-linejoin="round" x1="623.707" y1="184.517" x2="623.707" y2="210.614"/>
			</g>
			
				<line fill="none" stroke="#000000" stroke-width="2.5" stroke-linecap="round" stroke-linejoin="round" x1="627.942" y1="184.481" x2="627.942" y2="210.614"/>
		</g>
		<g>
			<g>
				
					<line fill="none" stroke="#000000" stroke-width="2.5" stroke-linecap="round" stroke-linejoin="round" x1="623.707" y1="210.614" x2="623.707" y2="236.71"/>
			</g>
			
				<line fill="none" stroke="#000000" stroke-width="2.5" stroke-linecap="round" stroke-linejoin="round" x1="627.942" y1="210.578" x2="627.942" y2="236.71"/>
		</g>
		<g>
			<g>
				
					<line fill="none" stroke="#000000" stroke-width="2.5" stroke-linecap="round" stroke-linejoin="round" x1="623.707" y1="236.71" x2="623.707" y2="262.807"/>
			</g>
			
				<line fill="none" stroke="#000000" stroke-width="2.5" stroke-linecap="round" stroke-linejoin="round" x1="627.942" y1="236.674" x2="627.942" y2="262.807"/>
		</g>
		<g>
			<g>
				
					<line fill="none" stroke="#000000" stroke-width="2.5" stroke-linecap="round" stroke-linejoin="round" x1="623.707" y1="262.807" x2="623.707" y2="288.903"/>
			</g>
			
				<line fill="none" stroke="#000000" stroke-width="2.5" stroke-linecap="round" stroke-linejoin="round" x1="627.942" y1="262.771" x2="627.942" y2="288.903"/>
		</g>
		<g>
			<g>
				
					<line fill="none" stroke="#000000" stroke-width="2.5" stroke-linecap="round" stroke-linejoin="round" x1="623.707" y1="288.903" x2="623.707" y2="315"/>
			</g>
			
				<line fill="none" stroke="#000000" stroke-width="2.5" stroke-linecap="round" stroke-linejoin="round" x1="627.942" y1="288.867" x2="627.942" y2="315"/>
		</g>
		<g>
			<g>
				
					<line fill="none" stroke="#000000" stroke-width="2.5" stroke-linecap="round" stroke-linejoin="round" x1="623.707" y1="315" x2="623.707" y2="341.097"/>
			</g>
			
				<line fill="none" stroke="#000000" stroke-width="2.5" stroke-linecap="round" stroke-linejoin="round" x1="627.942" y1="314.964" x2="627.942" y2="341.097"/>
		</g>
		<g>
			<g>
				
					<line fill="none" stroke="#000000" stroke-width="2.5" stroke-linecap="round" stroke-linejoin="round" x1="623.707" y1="341.097" x2="623.707" y2="367.193"/>
			</g>
			
				<line fill="none" stroke="#000000" stroke-width="2.5" stroke-linecap="round" stroke-linejoin="round" x1="627.942" y1="341.061" x2="627.942" y2="367.193"/>
		</g>
		<g>
			<g>
				
					<line fill="none" stroke="#000000" stroke-width="2.5" stroke-linecap="round" stroke-linejoin="round" x1="623.707" y1="367.193" x2="623.707" y2="393.29"/>
			</g>
			
				<line fill="none" stroke="#000000" stroke-width="2.5" stroke-linecap="round" stroke-linejoin="round" x1="627.942" y1="367.157" x2="627.942" y2="393.29"/>
		</g>
		<g>
			<g>
				
					<line fill="none" stroke="#000000" stroke-width="2.5" stroke-linecap="round" stroke-linejoin="round" x1="623.707" y1="393.29" x2="623.707" y2="419.387"/>
			</g>
			
				<line fill="none" stroke="#000000" stroke-width="2.5" stroke-linecap="round" stroke-linejoin="round" x1="627.942" y1="393.254" x2="627.942" y2="419.387"/>
		</g>
		<g>
			<g>
				
					<line fill="none" stroke="#000000" stroke-width="2.5" stroke-linecap="round" stroke-linejoin="round" x1="623.707" y1="419.387" x2="623.707" y2="445.483"/>
			</g>
			
				<line fill="none" stroke="#000000" stroke-width="2.5" stroke-linecap="round" stroke-linejoin="round" x1="627.942" y1="419.351" x2="627.942" y2="445.483"/>
		</g>
		<g>
			<g>
				
					<line fill="none" stroke="#000000" stroke-width="2.5" stroke-linecap="round" stroke-linejoin="round" x1="623.707" y1="445.483" x2="623.707" y2="471.58"/>
			</g>
			
				<line fill="none" stroke="#000000" stroke-width="2.5" stroke-linecap="round" stroke-linejoin="round" x1="627.942" y1="445.447" x2="627.942" y2="471.58"/>
		</g>
		<g>
			<g>
				
					<line fill="none" stroke="#000000" stroke-width="2.5" stroke-linecap="round" stroke-linejoin="round" x1="623.707" y1="471.58" x2="623.707" y2="497.677"/>
			</g>
			
				<line fill="none" stroke="#000000" stroke-width="2.5" stroke-linecap="round" stroke-linejoin="round" x1="627.942" y1="471.544" x2="627.942" y2="497.677"/>
		</g>
		<g>
			<g>
				
					<line fill="none" stroke="#000000" stroke-width="2.5" stroke-linecap="round" stroke-linejoin="round" x1="623.707" y1="497.677" x2="623.707" y2="523.772"/>
			</g>
			
				<line fill="none" stroke="#000000" stroke-width="2.5" stroke-linecap="round" stroke-linejoin="round" x1="627.942" y1="497.641" x2="627.942" y2="523.772"/>
		</g>
		<g>
			<g>
				
					<line fill="none" stroke="#000000" stroke-width="2.5" stroke-linecap="round" stroke-linejoin="round" x1="623.707" y1="523.772" x2="623.707" y2="549.869"/>
			</g>
			
				<line fill="none" stroke="#000000" stroke-width="2.5" stroke-linecap="round" stroke-linejoin="round" x1="627.942" y1="523.737" x2="627.942" y2="549.869"/>
		</g>
		<g>
			<g>
				
					<line fill="none" stroke="#000000" stroke-width="2.5" stroke-linecap="round" stroke-linejoin="round" x1="623.707" y1="549.869" x2="623.707" y2="575.966"/>
			</g>
			
				<line fill="none" stroke="#000000" stroke-width="2.5" stroke-linecap="round" stroke-linejoin="round" x1="627.942" y1="549.834" x2="627.942" y2="575.966"/>
		</g>
		<g>
			<g>
				
					<line fill="none" stroke="#000000" stroke-width="2.5" stroke-linecap="round" stroke-linejoin="round" x1="623.707" y1="575.966" x2="623.707" y2="602.063"/>
			</g>
			
				<line fill="none" stroke="#000000" stroke-width="2.5" stroke-linecap="round" stroke-linejoin="round" x1="627.942" y1="575.93" x2="627.942" y2="602.063"/>
		</g>
		<g>
			<g>
				
					<line fill="none" stroke="#000000" stroke-width="2.5" stroke-linecap="round" stroke-linejoin="round" x1="602.063" y1="623.707" x2="575.966" y2="623.707"/>
			</g>
			
				<line fill="none" stroke="#000000" stroke-width="2.5" stroke-linecap="round" stroke-linejoin="round" x1="602.099" y1="627.942" x2="575.966" y2="627.942"/>
		</g>
		<g>
			<g>
				
					<line fill="none" stroke="#000000" stroke-width="2.5" stroke-linecap="round" stroke-linejoin="round" x1="575.966" y1="623.707" x2="549.869" y2="623.707"/>
			</g>
			
				<line fill="none" stroke="#000000" stroke-width="2.5" stroke-linecap="round" stroke-linejoin="round" x1="576.002" y1="627.942" x2="549.869" y2="627.942"/>
		</g>
		<g>
			<g>
				
					<line fill="none" stroke="#000000" stroke-width="2.5" stroke-linecap="round" stroke-linejoin="round" x1="549.869" y1="623.707" x2="523.772" y2="623.707"/>
			</g>
			
				<line fill="none" stroke="#000000" stroke-width="2.5" stroke-linecap="round" stroke-linejoin="round" x1="549.905" y1="627.942" x2="523.772" y2="627.942"/>
		</g>
		<g>
			<g>
				
					<line fill="none" stroke="#000000" stroke-width="2.5" stroke-linecap="round" stroke-linejoin="round" x1="523.772" y1="623.707" x2="497.677" y2="623.707"/>
			</g>
			
				<line fill="none" stroke="#000000" stroke-width="2.5" stroke-linecap="round" stroke-linejoin="round" x1="523.809" y1="627.942" x2="497.677" y2="627.942"/>
		</g>
		<g>
			<g>
				
					<line fill="none" stroke="#000000" stroke-width="2.5" stroke-linecap="round" stroke-linejoin="round" x1="497.677" y1="623.707" x2="471.58" y2="623.707"/>
			</g>
			
				<line fill="none" stroke="#000000" stroke-width="2.5" stroke-linecap="round" stroke-linejoin="round" x1="497.712" y1="627.942" x2="471.58" y2="627.942"/>
		</g>
		<g>
			<g>
				
					<line fill="none" stroke="#000000" stroke-width="2.5" stroke-linecap="round" stroke-linejoin="round" x1="471.58" y1="623.707" x2="445.483" y2="623.707"/>
			</g>
			
				<line fill="none" stroke="#000000" stroke-width="2.5" stroke-linecap="round" stroke-linejoin="round" x1="471.615" y1="627.942" x2="445.483" y2="627.942"/>
		</g>
		<g>
			<g>
				
					<line fill="none" stroke="#000000" stroke-width="2.5" stroke-linecap="round" stroke-linejoin="round" x1="445.483" y1="623.707" x2="419.387" y2="623.707"/>
			</g>
			
				<line fill="none" stroke="#000000" stroke-width="2.5" stroke-linecap="round" stroke-linejoin="round" x1="445.52" y1="627.942" x2="419.387" y2="627.942"/>
		</g>
		<g>
			<g>
				
					<line fill="none" stroke="#000000" stroke-width="2.5" stroke-linecap="round" stroke-linejoin="round" x1="419.387" y1="623.707" x2="393.29" y2="623.707"/>
			</g>
			
				<line fill="none" stroke="#000000" stroke-width="2.5" stroke-linecap="round" stroke-linejoin="round" x1="419.423" y1="627.942" x2="393.29" y2="627.942"/>
		</g>
		<g>
			<g>
				
					<line fill="none" stroke="#000000" stroke-width="2.5" stroke-linecap="round" stroke-linejoin="round" x1="393.29" y1="623.707" x2="367.193" y2="623.707"/>
			</g>
			
				<line fill="none" stroke="#000000" stroke-width="2.5" stroke-linecap="round" stroke-linejoin="round" x1="393.326" y1="627.942" x2="367.193" y2="627.942"/>
		</g>
		<g>
			<g>
				
					<line fill="none" stroke="#000000" stroke-width="2.5" stroke-linecap="round" stroke-linejoin="round" x1="367.193" y1="623.707" x2="341.097" y2="623.707"/>
			</g>
			
				<line fill="none" stroke="#000000" stroke-width="2.5" stroke-linecap="round" stroke-linejoin="round" x1="367.229" y1="627.942" x2="341.097" y2="627.942"/>
		</g>
		<g>
			<g>
				
					<line fill="none" stroke="#000000" stroke-width="2.5" stroke-linecap="round" stroke-linejoin="round" x1="341.097" y1="623.707" x2="315" y2="623.707"/>
			</g>
			
				<line fill="none" stroke="#000000" stroke-width="2.5" stroke-linecap="round" stroke-linejoin="round" x1="341.133" y1="627.942" x2="315" y2="627.942"/>
		</g>
		<g>
			<g>
				
					<line fill="none" stroke="#000000" stroke-width="2.5" stroke-linecap="round" stroke-linejoin="round" x1="315" y1="623.707" x2="288.903" y2="623.707"/>
			</g>
			
				<line fill="none" stroke="#000000" stroke-width="2.5" stroke-linecap="round" stroke-linejoin="round" x1="315.036" y1="627.942" x2="288.903" y2="627.942"/>
		</g>
		<g>
			<g>
				
					<line fill="none" stroke="#000000" stroke-width="2.5" stroke-linecap="round" stroke-linejoin="round" x1="288.903" y1="623.707" x2="262.807" y2="623.707"/>
			</g>
			
				<line fill="none" stroke="#000000" stroke-width="2.5" stroke-linecap="round" stroke-linejoin="round" x1="288.939" y1="627.942" x2="262.807" y2="627.942"/>
		</g>
		<g>
			<g>
				
					<line fill="none" stroke="#000000" stroke-width="2.5" stroke-linecap="round" stroke-linejoin="round" x1="262.807" y1="623.707" x2="236.71" y2="623.707"/>
			</g>
			
				<line fill="none" stroke="#000000" stroke-width="2.5" stroke-linecap="round" stroke-linejoin="round" x1="262.843" y1="627.942" x2="236.71" y2="627.942"/>
		</g>
		<g>
			<g>
				
					<line fill="none" stroke="#000000" stroke-width="2.5" stroke-linecap="round" stroke-linejoin="round" x1="236.71" y1="623.707" x2="210.614" y2="623.707"/>
			</g>
			
				<line fill="none" stroke="#000000" stroke-width="2.5" stroke-linecap="round" stroke-linejoin="round" x1="236.746" y1="627.942" x2="210.614" y2="627.942"/>
		</g>
		<g>
			<g>
				
					<line fill="none" stroke="#000000" stroke-width="2.5" stroke-linecap="round" stroke-linejoin="round" x1="210.614" y1="623.707" x2="184.517" y2="623.707"/>
			</g>
			
				<line fill="none" stroke="#000000" stroke-width="2.5" stroke-linecap="round" stroke-linejoin="round" x1="210.649" y1="627.942" x2="184.517" y2="627.942"/>
		</g>
		<g>
			<g>
				
					<line fill="none" stroke="#000000" stroke-width="2.5" stroke-linecap="round" stroke-linejoin="round" x1="184.517" y1="623.707" x2="158.42" y2="623.707"/>
			</g>
			
				<line fill="none" stroke="#000000" stroke-width="2.5" stroke-linecap="round" stroke-linejoin="round" x1="184.553" y1="627.942" x2="158.42" y2="627.942"/>
		</g>
		<g>
			<g>
				
					<line fill="none" stroke="#000000" stroke-width="2.5" stroke-linecap="round" stroke-linejoin="round" x1="158.42" y1="623.707" x2="132.324" y2="623.707"/>
			</g>
			
				<line fill="none" stroke="#000000" stroke-width="2.5" stroke-linecap="round" stroke-linejoin="round" x1="158.456" y1="627.942" x2="132.324" y2="627.942"/>
		</g>
		<g>
			<g>
				
					<line fill="none" stroke="#000000" stroke-width="2.5" stroke-linecap="round" stroke-linejoin="round" x1="132.324" y1="623.707" x2="106.227" y2="623.707"/>
			</g>
			
				<line fill="none" stroke="#000000" stroke-width="2.5" stroke-linecap="round" stroke-linejoin="round" x1="132.36" y1="627.942" x2="106.227" y2="627.942"/>
		</g>
		<g>
			<g>
				
					<line fill="none" stroke="#000000" stroke-width="2.5" stroke-linecap="round" stroke-linejoin="round" x1="106.227" y1="623.707" x2="80.13" y2="623.707"/>
			</g>
			
				<line fill="none" stroke="#000000" stroke-width="2.5" stroke-linecap="round" stroke-linejoin="round" x1="106.263" y1="627.942" x2="80.13" y2="627.942"/>
		</g>
		<g>
			<g>
				
					<line fill="none" stroke="#000000" stroke-width="2.5" stroke-linecap="round" stroke-linejoin="round" x1="80.13" y1="623.707" x2="54.034" y2="623.707"/>
			</g>
			
				<line fill="none" stroke="#000000" stroke-width="2.5" stroke-linecap="round" stroke-linejoin="round" x1="80.167" y1="627.942" x2="54.034" y2="627.942"/>
		</g>
		<g>
			<g>
				
					<line fill="none" stroke="#000000" stroke-width="2.5" stroke-linecap="round" stroke-linejoin="round" x1="54.034" y1="623.707" x2="27.938" y2="623.707"/>
			</g>
			
				<line fill="none" stroke="#000000" stroke-width="2.5" stroke-linecap="round" stroke-linejoin="round" x1="54.07" y1="627.942" x2="27.938" y2="627.942"/>
		</g>
		<g>
			<polyline fill="none" stroke="#000000" stroke-width="2.5" stroke-linecap="round" points="6.327,27.909 6.846,27.82 
				7.361,27.722 7.873,27.612 8.38,27.494 8.884,27.365 9.384,27.227 9.879,27.08 10.371,26.922 10.858,26.756 11.341,26.581 
				12.292,26.202 13.225,25.788 14.137,25.339 15.029,24.857 15.9,24.341 16.748,23.793 17.573,23.213 18.374,22.603 19.15,21.963 
				19.901,21.294 20.627,20.595 21.324,19.871 21.993,19.12 22.633,18.344 23.244,17.543 23.823,16.718 24.371,15.87 24.887,14.999 
				25.37,14.107 25.818,13.194 26.232,12.262 26.611,11.311 26.786,10.828 26.953,10.341 27.109,9.849 27.257,9.354 27.396,8.854 
				27.524,8.35 27.643,7.842 27.751,7.331 27.85,6.815 27.939,6.296 			"/>
			<polyline fill="none" stroke="#000000" stroke-width="2.5" stroke-linecap="round" stroke-linejoin="round" points="2.07,27.975 
				2.07,24.114 2.638,24.107 3.202,24.085 3.763,24.05 4.32,24 4.873,23.937 5.421,23.859 5.965,23.769 6.504,23.665 7.039,23.548 
				7.569,23.417 8.093,23.275 8.613,23.12 9.126,22.952 9.635,22.771 10.137,22.58 10.634,22.375 11.124,22.16 11.608,21.933 
				12.085,21.694 12.556,21.444 13.021,21.183 13.478,20.912 13.927,20.629 14.37,20.336 14.805,20.033 15.232,19.72 15.651,19.397 
				16.063,19.064 16.466,18.721 16.86,18.369 17.247,18.008 17.624,17.638 17.994,17.257 18.354,16.87 18.704,16.473 19.045,16.068 
				19.376,15.655 19.698,15.234 20.009,14.806 20.311,14.369 20.602,13.925 20.883,13.474 21.153,13.015 21.413,12.55 
				21.661,12.078 21.898,11.599 22.124,11.113 22.338,10.622 22.542,10.124 22.732,9.62 22.911,9.111 23.078,8.596 23.232,8.076 
				23.375,7.55 23.503,7.02 23.62,6.484 23.723,5.944 23.813,5.399 23.89,4.85 23.953,4.297 24.002,3.74 24.038,3.179 24.06,2.614 
				24.066,2.046 27.938,2.046 			"/>
		</g>
		<g>
			<polyline fill="none" stroke="#000000" stroke-width="2.5" stroke-linecap="round" points="602.091,6.327 602.18,6.846 
				602.278,7.361 602.388,7.873 602.506,8.38 602.635,8.884 602.772,9.384 602.921,9.879 603.077,10.371 603.244,10.858 
				603.42,11.341 603.798,12.292 604.212,13.225 604.66,14.137 605.144,15.029 605.659,15.9 606.207,16.748 606.787,17.573 
				607.396,18.374 608.037,19.15 608.706,19.901 609.405,20.627 610.129,21.324 610.88,21.993 611.656,22.633 612.457,23.244 
				613.282,23.823 614.13,24.371 615.001,24.887 615.893,25.37 616.806,25.818 617.738,26.232 618.689,26.611 619.172,26.786 
				619.659,26.953 620.15,27.109 620.646,27.257 621.146,27.396 621.65,27.524 622.158,27.643 622.67,27.751 623.185,27.85 
				623.703,27.939 			"/>
			<polyline fill="none" stroke="#000000" stroke-width="2.5" stroke-linecap="round" stroke-linejoin="round" points="
				602.025,2.07 605.886,2.07 605.893,2.638 605.914,3.202 605.95,3.763 606,4.32 606.063,4.873 606.141,5.421 606.231,5.965 
				606.335,6.504 606.452,7.039 606.582,7.569 606.726,8.093 606.881,8.613 607.049,9.126 607.229,9.635 607.421,10.137 
				607.625,10.634 607.84,11.124 608.067,11.608 608.307,12.085 608.556,12.556 608.816,13.021 609.089,13.478 609.371,13.927 
				609.663,14.37 609.967,14.805 610.28,15.232 610.604,15.651 610.937,16.063 611.278,16.466 611.631,16.86 611.992,17.247 
				612.362,17.624 612.742,17.994 613.131,18.354 613.526,18.704 613.932,19.045 614.345,19.376 614.766,19.698 615.194,20.009 
				615.631,20.311 616.075,20.602 616.526,20.883 616.984,21.153 617.45,21.413 617.923,21.661 618.401,21.898 618.887,22.124 
				619.379,22.338 619.876,22.542 620.38,22.732 620.889,22.911 621.404,23.078 621.925,23.232 622.45,23.375 622.98,23.503 
				623.516,23.62 624.057,23.723 624.601,23.813 625.15,23.89 625.703,23.953 626.261,24.002 626.821,24.038 627.386,24.06 
				627.954,24.066 627.954,27.938 			"/>
		</g>
		<g>
			<polyline fill="none" stroke="#000000" stroke-width="2.5" stroke-linecap="round" points="623.673,602.091 623.154,602.18 
				622.639,602.278 622.127,602.388 621.619,602.506 621.116,602.635 620.616,602.772 620.12,602.921 619.629,603.077 
				619.142,603.244 618.659,603.42 617.708,603.798 616.775,604.212 615.862,604.66 614.971,605.144 614.101,605.659 
				613.252,606.207 612.427,606.787 611.626,607.396 610.85,608.037 610.1,608.706 609.373,609.405 608.676,610.129 608.007,610.88 
				607.367,611.656 606.757,612.457 606.177,613.282 605.629,614.13 605.113,615.001 604.631,615.893 604.182,616.806 
				603.768,617.738 603.39,618.689 603.214,619.172 603.048,619.659 602.891,620.15 602.743,620.646 602.604,621.146 
				602.477,621.65 602.357,622.158 602.249,622.67 602.149,623.185 602.061,623.703 			"/>
			<polyline fill="none" stroke="#000000" stroke-width="2.5" stroke-linecap="round" stroke-linejoin="round" points="
				627.93,602.025 627.93,605.886 627.362,605.893 626.798,605.914 626.237,605.95 625.681,606 625.128,606.063 624.579,606.141 
				624.035,606.231 623.496,606.335 622.961,606.452 622.432,606.582 621.906,606.726 621.388,606.881 620.873,607.049 
				620.365,607.229 619.863,607.421 619.366,607.625 618.876,607.84 618.392,608.067 617.914,608.307 617.443,608.556 
				616.979,608.816 616.522,609.089 616.073,609.371 615.631,609.663 615.195,609.967 614.769,610.28 614.349,610.604 
				613.938,610.937 613.534,611.278 613.14,611.631 612.753,611.992 612.376,612.362 612.006,612.742 611.646,613.131 
				611.296,613.526 610.955,613.932 610.624,614.345 610.303,614.766 609.99,615.194 609.689,615.631 609.397,616.075 
				609.117,616.526 608.847,616.984 608.588,617.45 608.339,617.923 608.102,618.401 607.876,618.887 607.661,619.379 
				607.459,619.876 607.268,620.38 607.089,620.889 606.922,621.404 606.768,621.925 606.626,622.45 606.496,622.98 606.38,623.516 
				606.277,624.057 606.187,624.601 606.11,625.15 606.047,625.703 605.998,626.261 605.962,626.821 605.94,627.386 
				605.934,627.954 602.063,627.954 			"/>
		</g>
		<g>
			<polyline fill="none" stroke="#000000" stroke-width="2.5" stroke-linecap="round" points="27.909,623.673 27.82,623.154 
				27.722,622.639 27.612,622.127 27.494,621.619 27.365,621.116 27.227,620.616 27.08,620.12 26.922,619.629 26.756,619.142 
				26.581,618.659 26.202,617.708 25.788,616.775 25.339,615.862 24.857,614.971 24.341,614.101 23.793,613.252 23.213,612.427 
				22.603,611.626 21.963,610.85 21.294,610.1 20.595,609.373 19.871,608.676 19.12,608.007 18.344,607.367 17.543,606.757 
				16.718,606.177 15.87,605.629 14.999,605.113 14.107,604.631 13.194,604.182 12.262,603.768 11.311,603.39 10.828,603.214 
				10.341,603.048 9.849,602.891 9.354,602.743 8.854,602.604 8.35,602.477 7.842,602.357 7.331,602.249 6.815,602.149 
				6.296,602.061 			"/>
			<polyline fill="none" stroke="#000000" stroke-width="2.5" stroke-linecap="round" stroke-linejoin="round" points="
				27.975,627.93 24.114,627.93 24.107,627.362 24.085,626.798 24.05,626.237 24,625.681 23.937,625.128 23.859,624.579 
				23.769,624.035 23.665,623.496 23.548,622.961 23.417,622.432 23.275,621.906 23.12,621.388 22.952,620.873 22.771,620.365 
				22.58,619.863 22.375,619.366 22.16,618.876 21.933,618.392 21.694,617.914 21.444,617.443 21.183,616.979 20.912,616.522 
				20.629,616.073 20.336,615.631 20.033,615.195 19.72,614.769 19.397,614.349 19.064,613.938 18.721,613.534 18.369,613.14 
				18.008,612.753 17.638,612.376 17.257,612.006 16.87,611.646 16.473,611.296 16.068,610.955 15.655,610.624 15.234,610.303 
				14.806,609.99 14.369,609.689 13.925,609.397 13.474,609.117 13.015,608.847 12.55,608.588 12.078,608.339 11.599,608.102 
				11.113,607.876 10.622,607.661 10.124,607.459 9.62,607.268 9.111,607.089 8.596,606.922 8.076,606.768 7.55,606.626 
				7.02,606.496 6.484,606.38 5.944,606.277 5.399,606.187 4.85,606.11 4.297,606.047 3.74,605.998 3.179,605.962 2.614,605.94 
				2.046,605.934 2.046,602.063 			"/>
		</g>
	</g>
</g>
</svg>
