<?xml version="1.0" encoding="utf-8"?>
<!-- Generator: Adobe Illustrator 15.1.0, SVG Export Plug-In . SVG Version: 6.00 Build 0)  -->
<svg version="1.2" baseProfile="tiny" id="Layer_1" xmlns="http://www.w3.org/2000/svg" xmlns:xlink="http://www.w3.org/1999/xlink"
	 x="0px" y="0px" width="630px" height="630px" viewBox="0 0 630 630" xml:space="preserve">
<g>
	<rect x="15" y="15" fill="#FFFFFF" width="600" height="600"/>
	<g>
		<g>
			<rect x="10.188" y="574.349" width="9.625" height="27.295"/>
			<rect x="24.044" y="574.347" width="0.576" height="27.317"/>
			<rect x="5.377" y="574.347" width="0.578" height="27.319"/>
		</g>
		<g>
			<rect x="10.188" y="547.05" width="9.625" height="27.294"/>
			<rect x="24.044" y="547.047" width="0.576" height="27.317"/>
			<rect x="5.377" y="547.047" width="0.578" height="27.319"/>
		</g>
		<g>
			<rect x="10.188" y="519.75" width="9.625" height="27.294"/>
			<rect x="24.044" y="519.748" width="0.576" height="27.316"/>
			<rect x="5.377" y="519.748" width="0.578" height="27.318"/>
		</g>
		<g>
			<rect x="10.188" y="492.45" width="9.625" height="27.295"/>
			<rect x="24.044" y="492.448" width="0.576" height="27.317"/>
			<rect x="5.377" y="492.448" width="0.578" height="27.318"/>
		</g>
		<g>
			<rect x="10.188" y="465.15" width="9.625" height="27.295"/>
			<rect x="24.044" y="465.148" width="0.576" height="27.317"/>
			<rect x="5.377" y="465.148" width="0.578" height="27.318"/>
		</g>
		<g>
			<rect x="10.188" y="437.851" width="9.625" height="27.295"/>
			<rect x="24.044" y="437.849" width="0.576" height="27.317"/>
			<rect x="5.377" y="437.849" width="0.578" height="27.318"/>
		</g>
		<g>
			<rect x="10.188" y="410.551" width="9.625" height="27.295"/>
			<rect x="24.044" y="410.549" width="0.576" height="27.317"/>
			<rect x="5.377" y="410.549" width="0.578" height="27.318"/>
		</g>
		<g>
			<rect x="10.188" y="383.251" width="9.625" height="27.295"/>
			<rect x="24.044" y="383.249" width="0.576" height="27.317"/>
			<rect x="5.377" y="383.249" width="0.578" height="27.319"/>
		</g>
		<g>
			<rect x="10.188" y="355.951" width="9.625" height="27.295"/>
			<rect x="24.044" y="355.949" width="0.576" height="27.317"/>
			<rect x="5.377" y="355.949" width="0.578" height="27.319"/>
		</g>
		<g>
			<rect x="10.188" y="328.652" width="9.625" height="27.294"/>
			<rect x="24.044" y="328.649" width="0.576" height="27.317"/>
			<rect x="5.377" y="328.649" width="0.578" height="27.319"/>
		</g>
		<g>
			<rect x="10.188" y="301.352" width="9.625" height="27.294"/>
			<rect x="24.044" y="301.35" width="0.576" height="27.317"/>
			<rect x="5.377" y="301.35" width="0.578" height="27.319"/>
		</g>
		<g>
			<rect x="10.188" y="274.052" width="9.625" height="27.295"/>
			<rect x="24.044" y="274.05" width="0.576" height="27.317"/>
			<rect x="5.377" y="274.05" width="0.578" height="27.319"/>
		</g>
		<g>
			<rect x="10.188" y="246.753" width="9.625" height="27.294"/>
			<rect x="24.044" y="246.751" width="0.576" height="27.317"/>
			<rect x="5.377" y="246.751" width="0.578" height="27.318"/>
		</g>
		<g>
			<rect x="10.188" y="219.453" width="9.625" height="27.294"/>
			<rect x="24.044" y="219.451" width="0.576" height="27.317"/>
			<rect x="5.377" y="219.451" width="0.578" height="27.318"/>
		</g>
		<g>
			<rect x="10.188" y="192.153" width="9.625" height="27.295"/>
			<rect x="24.044" y="192.151" width="0.576" height="27.317"/>
			<rect x="5.377" y="192.151" width="0.578" height="27.319"/>
		</g>
		<g>
			<rect x="10.188" y="164.854" width="9.625" height="27.295"/>
			<rect x="24.044" y="164.852" width="0.576" height="27.317"/>
			<rect x="5.377" y="164.852" width="0.578" height="27.319"/>
		</g>
		<g>
			<rect x="10.188" y="137.554" width="9.625" height="27.294"/>
			<rect x="24.044" y="137.552" width="0.576" height="27.317"/>
			<rect x="5.377" y="137.552" width="0.578" height="27.318"/>
		</g>
		<g>
			<rect x="10.188" y="110.254" width="9.625" height="27.294"/>
			<rect x="24.044" y="110.252" width="0.576" height="27.317"/>
			<rect x="5.377" y="110.252" width="0.578" height="27.318"/>
		</g>
		<g>
			<rect x="10.188" y="82.955" width="9.625" height="27.295"/>
			<rect x="24.044" y="82.953" width="0.576" height="27.317"/>
			<rect x="5.377" y="82.953" width="0.578" height="27.319"/>
		</g>
		<g>
			<rect x="10.188" y="55.655" width="9.625" height="27.295"/>
			<rect x="24.044" y="55.653" width="0.576" height="27.317"/>
			<rect x="5.377" y="55.653" width="0.578" height="27.319"/>
		</g>
		<g>
			<rect x="10.188" y="28.355" width="9.625" height="27.294"/>
			<rect x="24.044" y="28.354" width="0.576" height="27.317"/>
			<rect x="5.377" y="28.354" width="0.578" height="27.318"/>
		</g>
		<g>
			<rect x="28.356" y="10.188" width="27.294" height="9.625"/>
			<rect x="28.336" y="24.044" width="27.317" height="0.576"/>
			<rect x="28.334" y="5.377" width="27.318" height="0.578"/>
		</g>
		<g>
			<rect x="55.656" y="10.188" width="27.295" height="9.625"/>
			<rect x="55.635" y="24.044" width="27.317" height="0.576"/>
			<rect x="55.634" y="5.377" width="27.319" height="0.578"/>
		</g>
		<g>
			<rect x="82.956" y="10.188" width="27.295" height="9.625"/>
			<rect x="82.935" y="24.044" width="27.317" height="0.576"/>
			<rect x="82.934" y="5.377" width="27.319" height="0.578"/>
		</g>
		<g>
			<rect x="110.255" y="10.188" width="27.294" height="9.625"/>
			<rect x="110.235" y="24.044" width="27.317" height="0.576"/>
			<rect x="110.233" y="5.377" width="27.319" height="0.578"/>
		</g>
		<g>
			<rect x="137.555" y="10.188" width="27.294" height="9.625"/>
			<rect x="137.535" y="24.044" width="27.317" height="0.576"/>
			<rect x="137.533" y="5.377" width="27.318" height="0.578"/>
		</g>
		<g>
			<rect x="164.854" y="10.188" width="27.295" height="9.625"/>
			<rect x="164.834" y="24.044" width="27.317" height="0.576"/>
			<rect x="164.833" y="5.377" width="27.319" height="0.578"/>
		</g>
		<g>
			<rect x="192.154" y="10.188" width="27.295" height="9.625"/>
			<rect x="192.134" y="24.044" width="27.317" height="0.576"/>
			<rect x="192.132" y="5.377" width="27.319" height="0.578"/>
		</g>
		<g>
			<rect x="219.454" y="10.188" width="27.295" height="9.625"/>
			<rect x="219.434" y="24.044" width="27.317" height="0.576"/>
			<rect x="219.432" y="5.377" width="27.319" height="0.578"/>
		</g>
		<g>
			<rect x="246.754" y="10.188" width="27.294" height="9.625"/>
			<rect x="246.733" y="24.044" width="27.317" height="0.576"/>
			<rect x="246.732" y="5.377" width="27.318" height="0.578"/>
		</g>
		<g>
			<rect x="274.054" y="10.188" width="27.294" height="9.625"/>
			<rect x="274.033" y="24.044" width="27.317" height="0.576"/>
			<rect x="274.031" y="5.377" width="27.319" height="0.578"/>
		</g>
		<g>
			<rect x="301.353" y="10.188" width="27.294" height="9.625"/>
			<rect x="301.333" y="24.044" width="27.317" height="0.576"/>
			<rect x="301.331" y="5.377" width="27.318" height="0.578"/>
		</g>
		<g>
			<rect x="328.652" y="10.188" width="27.295" height="9.625"/>
			<rect x="328.633" y="24.044" width="27.316" height="0.576"/>
			<rect x="328.631" y="5.377" width="27.318" height="0.578"/>
		</g>
		<g>
			<rect x="355.952" y="10.188" width="27.295" height="9.625"/>
			<rect x="355.932" y="24.044" width="27.317" height="0.576"/>
			<rect x="355.931" y="5.377" width="27.318" height="0.578"/>
		</g>
		<g>
			<rect x="383.252" y="10.188" width="27.295" height="9.625"/>
			<rect x="383.231" y="24.044" width="27.317" height="0.576"/>
			<rect x="383.23" y="5.377" width="27.318" height="0.578"/>
		</g>
		<g>
			<rect x="410.552" y="10.188" width="27.295" height="9.625"/>
			<rect x="410.531" y="24.044" width="27.317" height="0.576"/>
			<rect x="410.53" y="5.377" width="27.318" height="0.578"/>
		</g>
		<g>
			<rect x="437.852" y="10.188" width="27.295" height="9.625"/>
			<rect x="437.831" y="24.044" width="27.317" height="0.576"/>
			<rect x="437.83" y="5.377" width="27.318" height="0.578"/>
		</g>
		<g>
			<rect x="465.151" y="10.188" width="27.295" height="9.625"/>
			<rect x="465.131" y="24.044" width="27.317" height="0.576"/>
			<rect x="465.129" y="5.377" width="27.319" height="0.578"/>
		</g>
		<g>
			<rect x="492.451" y="10.188" width="27.295" height="9.625"/>
			<rect x="492.431" y="24.044" width="27.317" height="0.576"/>
			<rect x="492.429" y="5.377" width="27.319" height="0.578"/>
		</g>
		<g>
			<rect x="519.751" y="10.188" width="27.294" height="9.625"/>
			<rect x="519.73" y="24.044" width="27.316" height="0.576"/>
			<rect x="519.729" y="5.377" width="27.318" height="0.578"/>
		</g>
		<g>
			<rect x="547.051" y="10.188" width="27.294" height="9.625"/>
			<rect x="547.03" y="24.044" width="27.316" height="0.576"/>
			<rect x="547.028" y="5.377" width="27.318" height="0.578"/>
		</g>
		<g>
			<rect x="574.35" y="10.188" width="27.295" height="9.625"/>
			<rect x="574.33" y="24.044" width="27.316" height="0.576"/>
			<rect x="574.328" y="5.377" width="27.318" height="0.578"/>
		</g>
		<g>
			<rect x="610.188" y="28.356" width="9.625" height="27.294"/>
			<rect x="605.38" y="28.336" width="0.576" height="27.317"/>
			<rect x="624.045" y="28.334" width="0.578" height="27.318"/>
		</g>
		<g>
			<rect x="610.188" y="55.656" width="9.625" height="27.295"/>
			<rect x="605.38" y="55.635" width="0.576" height="27.317"/>
			<rect x="624.045" y="55.634" width="0.578" height="27.319"/>
		</g>
		<g>
			<rect x="610.188" y="82.956" width="9.625" height="27.295"/>
			<rect x="605.38" y="82.935" width="0.576" height="27.317"/>
			<rect x="624.045" y="82.934" width="0.578" height="27.319"/>
		</g>
		<g>
			<rect x="610.188" y="110.255" width="9.625" height="27.294"/>
			<rect x="605.38" y="110.235" width="0.576" height="27.317"/>
			<rect x="624.045" y="110.233" width="0.578" height="27.319"/>
		</g>
		<g>
			<rect x="610.188" y="137.555" width="9.625" height="27.294"/>
			<rect x="605.38" y="137.535" width="0.576" height="27.317"/>
			<rect x="624.045" y="137.533" width="0.578" height="27.318"/>
		</g>
		<g>
			<rect x="610.188" y="164.854" width="9.625" height="27.295"/>
			<rect x="605.38" y="164.834" width="0.576" height="27.317"/>
			<rect x="624.045" y="164.833" width="0.578" height="27.319"/>
		</g>
		<g>
			<rect x="610.188" y="192.154" width="9.625" height="27.295"/>
			<rect x="605.38" y="192.134" width="0.576" height="27.317"/>
			<rect x="624.045" y="192.132" width="0.578" height="27.319"/>
		</g>
		<g>
			<rect x="610.188" y="219.454" width="9.625" height="27.295"/>
			<rect x="605.38" y="219.434" width="0.576" height="27.317"/>
			<rect x="624.045" y="219.432" width="0.578" height="27.319"/>
		</g>
		<g>
			<rect x="610.188" y="246.754" width="9.625" height="27.294"/>
			<rect x="605.38" y="246.733" width="0.576" height="27.317"/>
			<rect x="624.045" y="246.732" width="0.578" height="27.318"/>
		</g>
		<g>
			<rect x="610.188" y="274.054" width="9.625" height="27.294"/>
			<rect x="605.38" y="274.033" width="0.576" height="27.317"/>
			<rect x="624.045" y="274.031" width="0.578" height="27.319"/>
		</g>
		<g>
			<rect x="610.188" y="301.353" width="9.625" height="27.294"/>
			<rect x="605.38" y="301.333" width="0.576" height="27.317"/>
			<rect x="624.045" y="301.331" width="0.578" height="27.318"/>
		</g>
		<g>
			<rect x="610.188" y="328.652" width="9.625" height="27.295"/>
			<rect x="605.38" y="328.633" width="0.576" height="27.316"/>
			<rect x="624.045" y="328.631" width="0.578" height="27.318"/>
		</g>
		<g>
			<rect x="610.188" y="355.952" width="9.625" height="27.295"/>
			<rect x="605.38" y="355.932" width="0.576" height="27.317"/>
			<rect x="624.045" y="355.931" width="0.578" height="27.318"/>
		</g>
		<g>
			<rect x="610.188" y="383.252" width="9.625" height="27.295"/>
			<rect x="605.38" y="383.231" width="0.576" height="27.317"/>
			<rect x="624.045" y="383.23" width="0.578" height="27.318"/>
		</g>
		<g>
			<rect x="610.188" y="410.552" width="9.625" height="27.295"/>
			<rect x="605.38" y="410.531" width="0.576" height="27.317"/>
			<rect x="624.045" y="410.53" width="0.578" height="27.318"/>
		</g>
		<g>
			<rect x="610.188" y="437.852" width="9.625" height="27.295"/>
			<rect x="605.38" y="437.831" width="0.576" height="27.317"/>
			<rect x="624.045" y="437.83" width="0.578" height="27.318"/>
		</g>
		<g>
			<rect x="610.188" y="465.151" width="9.625" height="27.295"/>
			<rect x="605.38" y="465.131" width="0.576" height="27.317"/>
			<rect x="624.045" y="465.129" width="0.578" height="27.319"/>
		</g>
		<g>
			<rect x="610.188" y="492.451" width="9.625" height="27.295"/>
			<rect x="605.38" y="492.431" width="0.576" height="27.317"/>
			<rect x="624.045" y="492.429" width="0.578" height="27.319"/>
		</g>
		<g>
			<rect x="610.188" y="519.751" width="9.625" height="27.294"/>
			<rect x="605.38" y="519.73" width="0.576" height="27.316"/>
			<rect x="624.045" y="519.729" width="0.578" height="27.318"/>
		</g>
		<g>
			<rect x="610.188" y="547.051" width="9.625" height="27.294"/>
			<rect x="605.38" y="547.03" width="0.576" height="27.316"/>
			<rect x="624.045" y="547.028" width="0.578" height="27.318"/>
		</g>
		<g>
			<rect x="610.188" y="574.35" width="9.625" height="27.295"/>
			<rect x="605.38" y="574.33" width="0.576" height="27.316"/>
			<rect x="624.045" y="574.328" width="0.578" height="27.318"/>
		</g>
		<g>
			<rect x="574.349" y="610.188" width="27.295" height="9.625"/>
			<rect x="574.347" y="605.38" width="27.317" height="0.576"/>
			<rect x="574.347" y="624.045" width="27.319" height="0.578"/>
		</g>
		<g>
			<rect x="547.05" y="610.188" width="27.294" height="9.625"/>
			<rect x="547.047" y="605.38" width="27.317" height="0.576"/>
			<rect x="547.047" y="624.045" width="27.319" height="0.578"/>
		</g>
		<g>
			<rect x="519.75" y="610.188" width="27.294" height="9.625"/>
			<rect x="519.748" y="605.38" width="27.316" height="0.576"/>
			<rect x="519.748" y="624.045" width="27.318" height="0.578"/>
		</g>
		<g>
			<rect x="492.45" y="610.188" width="27.295" height="9.625"/>
			<rect x="492.448" y="605.38" width="27.317" height="0.576"/>
			<rect x="492.448" y="624.045" width="27.318" height="0.578"/>
		</g>
		<g>
			<rect x="465.15" y="610.188" width="27.295" height="9.625"/>
			<rect x="465.148" y="605.38" width="27.317" height="0.576"/>
			<rect x="465.148" y="624.045" width="27.318" height="0.578"/>
		</g>
		<g>
			<rect x="437.851" y="610.188" width="27.295" height="9.625"/>
			<rect x="437.849" y="605.38" width="27.317" height="0.576"/>
			<rect x="437.849" y="624.045" width="27.318" height="0.578"/>
		</g>
		<g>
			<rect x="410.551" y="610.188" width="27.295" height="9.625"/>
			<rect x="410.549" y="605.38" width="27.317" height="0.576"/>
			<rect x="410.549" y="624.045" width="27.318" height="0.578"/>
		</g>
		<g>
			<rect x="383.251" y="610.188" width="27.295" height="9.625"/>
			<rect x="383.249" y="605.38" width="27.317" height="0.576"/>
			<rect x="383.249" y="624.045" width="27.319" height="0.578"/>
		</g>
		<g>
			<rect x="355.951" y="610.188" width="27.295" height="9.625"/>
			<rect x="355.949" y="605.38" width="27.317" height="0.576"/>
			<rect x="355.949" y="624.045" width="27.319" height="0.578"/>
		</g>
		<g>
			<rect x="328.652" y="610.188" width="27.294" height="9.625"/>
			<rect x="328.649" y="605.38" width="27.317" height="0.576"/>
			<rect x="328.649" y="624.045" width="27.319" height="0.578"/>
		</g>
		<g>
			<rect x="301.352" y="610.188" width="27.294" height="9.625"/>
			<rect x="301.35" y="605.38" width="27.317" height="0.576"/>
			<rect x="301.35" y="624.045" width="27.319" height="0.578"/>
		</g>
		<g>
			<rect x="274.052" y="610.188" width="27.295" height="9.625"/>
			<rect x="274.05" y="605.38" width="27.317" height="0.576"/>
			<rect x="274.05" y="624.045" width="27.319" height="0.578"/>
		</g>
		<g>
			<rect x="246.753" y="610.188" width="27.294" height="9.625"/>
			<rect x="246.751" y="605.38" width="27.317" height="0.576"/>
			<rect x="246.751" y="624.045" width="27.318" height="0.578"/>
		</g>
		<g>
			<rect x="219.453" y="610.188" width="27.294" height="9.625"/>
			<rect x="219.451" y="605.38" width="27.317" height="0.576"/>
			<rect x="219.451" y="624.045" width="27.318" height="0.578"/>
		</g>
		<g>
			<rect x="192.153" y="610.188" width="27.295" height="9.625"/>
			<rect x="192.151" y="605.38" width="27.317" height="0.576"/>
			<rect x="192.151" y="624.045" width="27.319" height="0.578"/>
		</g>
		<g>
			<rect x="164.854" y="610.188" width="27.295" height="9.625"/>
			<rect x="164.852" y="605.38" width="27.317" height="0.576"/>
			<rect x="164.852" y="624.045" width="27.319" height="0.578"/>
		</g>
		<g>
			<rect x="137.554" y="610.188" width="27.294" height="9.625"/>
			<rect x="137.552" y="605.38" width="27.317" height="0.576"/>
			<rect x="137.552" y="624.045" width="27.318" height="0.578"/>
		</g>
		<g>
			<rect x="110.254" y="610.188" width="27.294" height="9.625"/>
			<rect x="110.252" y="605.38" width="27.317" height="0.576"/>
			<rect x="110.252" y="624.045" width="27.318" height="0.578"/>
		</g>
		<g>
			<rect x="82.955" y="610.188" width="27.295" height="9.625"/>
			<rect x="82.953" y="605.38" width="27.317" height="0.576"/>
			<rect x="82.953" y="624.045" width="27.319" height="0.578"/>
		</g>
		<g>
			<rect x="55.655" y="610.188" width="27.295" height="9.625"/>
			<rect x="55.653" y="605.38" width="27.317" height="0.576"/>
			<rect x="55.653" y="624.045" width="27.319" height="0.578"/>
		</g>
		<g>
			<rect x="28.355" y="610.188" width="27.294" height="9.625"/>
			<rect x="28.354" y="605.38" width="27.317" height="0.576"/>
			<rect x="28.354" y="624.045" width="27.318" height="0.578"/>
		</g>
		<g>
			<polygon points="28.367,10.188 28.367,19.812 19.814,19.812 19.814,28.347 10.191,28.347 10.191,10.188 			"/>
			<polygon points="28.369,24.043 28.369,24.62 24.625,24.62 24.625,28.374 24.047,28.374 24.047,24.043 			"/>
			<polygon points="5.381,5.377 28.369,5.377 28.369,5.953 5.959,5.953 5.959,28.374 5.381,28.374 			"/>
		</g>
		<g>
			<polygon points="619.813,28.367 610.188,28.367 610.188,19.814 601.653,19.814 601.653,10.191 619.813,10.191 			"/>
			<polygon points="605.957,28.369 605.38,28.369 605.38,24.625 601.626,24.625 601.626,24.047 605.957,24.047 			"/>
			<polygon points="624.623,5.381 624.623,28.369 624.047,28.369 624.047,5.959 601.626,5.959 601.626,5.381 			"/>
		</g>
		<g>
			<polygon points="601.633,619.813 601.633,610.188 610.186,610.188 610.186,601.653 619.809,601.653 619.809,619.813 			"/>
			<polygon points="601.631,605.957 601.631,605.38 605.375,605.38 605.375,601.626 605.953,601.626 605.953,605.957 			"/>
			<polygon points="624.619,624.623 601.631,624.623 601.631,624.047 624.041,624.047 624.041,601.626 624.619,601.626 			"/>
		</g>
		<g>
			<polygon points="10.188,601.633 19.812,601.633 19.812,610.186 28.347,610.186 28.347,619.809 10.188,619.809 			"/>
			<polygon points="24.043,601.631 24.62,601.631 24.62,605.375 28.374,605.375 28.374,605.953 24.043,605.953 			"/>
			<polygon points="5.377,624.619 5.377,601.631 5.953,601.631 5.953,624.041 28.374,624.041 28.374,624.619 			"/>
		</g>
	</g>
</g>
</svg>
